<svg id="svg" xmlns="http://www.w3.org/2000/svg" xmlns:xlink="http://www.w3.org/1999/xlink" width="400" height="471.4975845410628" viewBox="0, 0, 400,471.4975845410628">
<g id="svgg">
<path id="path0" d="M160.386 5.730 C 31.509 33.390,-37.293 176.087,23.370 289.904 C 36.075 313.740,44.740 303.136,33.014 278.103 C 17.021 243.963,10.690 190.110,19.060 159.420 C 54.484 29.541,194.361 -25.668,303.122 47.303 C 377.360 97.112,404.623 197.252,365.907 277.925 C 358.881 292.566,357.702 296.480,359.620 298.791 C 373.139 315.081,396.954 250.181,396.580 198.068 C 395.685 73.346,280.891 -20.133,160.386 5.730 M257.977 48.292 C 256.326 53.494,257.809 55.390,267.281 60.186 C 280.959 67.111,302.734 82.964,311.579 92.436 C 325.488 107.331,335.706 123.704,344.656 145.438 C 349.075 156.168,359.420 157.122,359.420 146.798 C 359.420 114.008,265.932 23.227,257.977 48.292 M168.532 79.263 C 74.216 103.974,43.716 220.079,113.482 288.824 C 135.106 310.131,166.114 323.220,167.749 311.731 C 168.247 308.232,165.979 306.331,154.329 300.484 C 46.959 246.599,80.777 88.889,199.702 88.889 C 316.739 88.889,352.209 249.005,246.362 299.524 C 234.116 305.369,229.952 308.306,229.952 311.098 C 229.952 315.342,235.274 318.793,239.614 317.363 C 266.798 308.406,294.186 285.314,308.173 259.559 C 353.556 175.994,293.635 74.929,199.034 75.479 C 189.382 75.536,176.804 77.096,168.532 79.263 M224.195 194.203 C 199.140 219.179,177.842 239.614,176.866 239.614 C 175.890 239.614,164.737 229.130,152.080 216.317 C 128.228 192.170,121.587 188.472,120.157 198.537 C 119.417 203.746,171.433 257.005,177.260 257.005 C 180.877 257.005,280.193 158.945,280.193 155.373 C 280.193 152.484,275.964 148.792,272.653 148.792 C 271.056 148.792,249.250 169.227,224.195 194.203 M355.942 172.367 C 349.012 179.297,354.994 208.875,362.726 205.908 C 364.270 205.316,365.897 204.831,366.342 204.831 C 366.786 204.831,367.150 198.371,367.150 190.476 C 367.150 173.313,362.503 165.806,355.942 172.367 M75.001 280.676 C 73.495 283.068,68.602 292.536,64.127 301.718 L 55.991 318.412 43.938 320.475 C 37.308 321.610,27.642 323.081,22.458 323.744 C 2.479 326.298,2.664 329.833,23.911 351.565 L 40.092 368.116 36.122 389.920 C 30.398 421.355,31.464 422.148,59.775 407.512 L 80.752 396.667 100.641 407.029 C 122.466 418.400,123.959 418.803,127.671 414.331 C 132.293 408.761,129.703 406.637,97.648 389.716 C 81.146 381.005,80.630 380.999,65.128 389.372 C 58.241 393.092,51.950 396.135,51.148 396.135 C 49.717 396.135,50.933 379.508,53.198 368.116 C 54.225 362.949,53.039 361.008,42.289 350.265 C 28.226 336.209,28.018 337.015,46.479 334.001 C 64.122 331.120,64.460 330.870,72.651 314.604 C 80.858 298.307,81.347 298.321,89.075 315.089 C 96.665 331.555,95.920 331.128,124.139 335.178 C 148.461 338.669,154.589 338.091,154.589 332.305 C 154.589 327.127,149.191 324.834,131.934 322.681 C 105.221 319.347,107.509 320.932,95.488 297.431 C 84.090 275.149,80.389 272.122,75.001 280.676 M313.501 278.744 C 312.429 280.072,307.439 289.420,302.413 299.517 C 297.386 309.614,293.083 318.093,292.849 318.361 C 292.616 318.628,283.369 320.181,272.300 321.813 C 243.749 326.019,240.578 327.663,246.193 335.341 C 248.517 338.519,249.928 338.515,273.597 335.272 C 302.111 331.364,302.357 331.222,310.150 314.145 C 317.229 298.635,318.604 298.489,325.091 312.560 C 333.304 330.376,334.138 331.062,350.708 333.624 C 369.882 336.589,369.730 336.115,356.057 350.355 L 344.335 362.561 347.269 378.482 C 350.903 398.200,350.881 398.219,334.554 389.640 C 327.195 385.773,319.713 382.609,317.928 382.609 C 312.752 382.609,270.531 405.849,270.531 408.698 C 270.531 419.937,274.186 419.702,298.362 406.908 L 318.172 396.425 337.742 406.908 C 348.506 412.674,358.626 417.391,360.231 417.391 C 363.418 417.391,367.913 410.528,366.366 408.025 C 365.837 407.169,363.974 397.471,362.225 386.473 L 359.046 366.476 375.658 350.087 C 398.134 327.912,397.613 326.097,367.727 322.441 C 344.030 319.542,343.638 319.297,335.181 302.093 C 322.968 277.247,318.548 272.487,313.501 278.744 M182.397 321.668 C 173.051 340.516,168.248 348.196,165.366 348.897 C 163.159 349.434,150.136 351.528,136.426 353.550 C 101.657 358.679,101.319 360.340,129.677 386.763 C 151.693 407.277,150.788 404.155,144.702 438.593 C 138.569 473.295,139.936 474.019,175.664 455.013 L 199.387 442.393 223.435 455.013 C 259.514 473.946,260.127 473.528,253.584 434.434 L 249.008 407.095 269.431 386.608 C 297.539 358.412,297.363 357.928,257.005 352.550 C 228.166 348.707,231.840 351.539,216.425 321.277 C 199.319 287.695,199.243 287.696,182.397 321.668 M210.832 340.580 C 216.278 351.473,220.857 360.537,221.007 360.720 C 221.157 360.904,230.765 362.463,242.358 364.184 C 253.951 365.905,264.255 367.820,265.255 368.438 C 266.256 369.056,259.499 377.173,250.240 386.475 C 237.587 399.187,233.688 404.288,234.545 407.008 C 236.972 414.715,241.557 444.796,240.552 446.422 C 239.969 447.364,231.380 443.827,221.464 438.561 C 199.513 426.902,199.685 426.906,179.262 437.681 C 157.211 449.315,154.810 447.974,160.227 427.053 C 161.190 423.333,162.566 416.004,163.285 410.767 L 164.591 401.244 148.827 386.163 C 131.669 369.749,131.223 368.088,143.488 366.270 C 148.000 365.602,157.628 364.070,164.884 362.867 L 178.077 360.680 186.843 343.142 C 200.606 315.609,198.464 315.838,210.832 340.580 " stroke="none" fill="#000000" fill-rule="evenodd"></path>
</g>
</svg>