<svg id="svg" xmlns="http://www.w3.org/2000/svg" xmlns:xlink="http://www.w3.org/1999/xlink" width="400" height="67.78968861664114" viewBox="0, 0, 400,67.78968861664114" version="1.1">
<g id="svgg">
<path id="path0" d="M1.333 4.083 L 1.333 6.833 15.250 6.833 C 29.666 6.833,29.521 6.826,28.932 7.487 C 28.803 7.632,28.399 8.319,28.034 9.013 C 27.168 10.665,26.959 11.024,26.708 11.297 C 26.594 11.422,26.500 11.630,26.500 11.759 C 26.500 11.889,26.275 12.361,26.000 12.808 C 25.725 13.255,25.500 13.699,25.500 13.796 C 25.500 13.893,25.443 13.997,25.374 14.028 C 25.304 14.058,25.053 14.458,24.815 14.917 C 24.369 15.778,23.623 17.151,23.049 18.167 C 22.868 18.487,22.436 19.275,22.090 19.917 C 21.745 20.558,21.254 21.458,21.000 21.917 C 19.210 25.149,18.250 26.916,17.875 27.667 C 17.714 27.988,17.542 28.287,17.492 28.333 C 17.442 28.379,17.170 28.867,16.886 29.417 C 16.603 29.967,16.162 30.792,15.906 31.250 C 15.651 31.708,15.238 32.458,14.989 32.917 C 14.740 33.375,14.302 34.162,14.014 34.667 C 13.727 35.171,13.333 35.940,13.140 36.375 C 12.947 36.810,12.732 37.167,12.663 37.167 C 12.593 37.167,12.420 37.456,12.279 37.810 C 12.137 38.165,11.829 38.738,11.594 39.084 C 11.359 39.430,11.167 39.818,11.167 39.947 C 11.167 40.075,11.028 40.329,10.859 40.511 C 10.689 40.693,10.452 41.140,10.332 41.504 C 10.212 41.869,10.048 42.167,9.967 42.167 C 9.887 42.167,9.675 42.485,9.496 42.875 C 9.317 43.265,8.920 44.033,8.614 44.583 C 8.308 45.133,7.689 46.296,7.237 47.167 C 6.786 48.038,6.372 48.788,6.317 48.833 C 5.552 49.471,6.008 51.000,6.963 51.000 C 7.042 51.000,7.270 51.188,7.469 51.417 C 7.668 51.646,7.913 51.833,8.013 51.833 C 8.112 51.833,8.524 52.104,8.928 52.435 C 9.807 53.155,10.294 53.117,10.690 52.298 C 10.967 51.724,11.659 50.439,12.377 49.167 C 12.610 48.754,13.046 47.967,13.347 47.417 C 13.647 46.867,13.936 46.379,13.988 46.333 C 14.041 46.288,14.271 45.875,14.500 45.417 C 14.729 44.958,14.963 44.546,15.019 44.500 C 15.076 44.454,15.179 44.229,15.250 44.000 C 15.321 43.771,15.424 43.546,15.481 43.500 C 15.621 43.386,15.898 42.918,16.467 41.833 C 17.143 40.547,18.025 38.948,18.170 38.750 C 18.236 38.658,18.553 38.096,18.873 37.500 C 19.193 36.904,19.611 36.154,19.800 35.833 C 19.990 35.512,20.423 34.725,20.762 34.083 C 21.101 33.442,21.500 32.729,21.648 32.500 C 21.797 32.271,22.067 31.783,22.249 31.417 C 22.431 31.050,22.629 30.712,22.688 30.667 C 22.747 30.621,22.917 30.321,23.066 30.000 C 23.215 29.679,23.599 28.967,23.921 28.417 C 24.242 27.867,24.662 27.117,24.855 26.750 C 25.047 26.383,25.457 25.633,25.765 25.083 C 26.073 24.533,26.524 23.690,26.766 23.208 C 27.008 22.727,27.260 22.333,27.326 22.333 C 27.392 22.333,27.546 22.033,27.667 21.667 C 27.788 21.300,27.939 21.000,28.004 21.000 C 28.068 21.000,28.323 20.550,28.570 20.000 C 28.817 19.450,29.074 19.000,29.143 19.000 C 29.211 19.000,29.365 18.719,29.486 18.375 C 29.608 18.031,29.840 17.600,30.004 17.417 C 30.168 17.233,30.424 16.821,30.575 16.500 C 30.725 16.179,31.067 15.542,31.333 15.083 C 32.040 13.871,32.492 12.946,32.496 12.708 C 32.498 12.594,32.576 12.500,32.669 12.500 C 32.762 12.500,33.033 12.088,33.272 11.583 C 33.510 11.079,33.757 10.667,33.819 10.667 C 33.882 10.667,34.032 10.385,34.153 10.042 C 34.274 9.698,34.506 9.267,34.667 9.083 C 34.829 8.900,35.017 8.563,35.084 8.333 C 35.151 8.104,35.373 7.692,35.579 7.417 C 35.784 7.142,36.010 6.729,36.082 6.500 C 36.153 6.271,36.266 6.046,36.333 6.000 C 36.400 5.954,36.624 5.579,36.830 5.167 C 37.037 4.754,37.297 4.304,37.409 4.167 C 37.520 4.029,37.711 3.654,37.833 3.333 C 37.954 3.012,38.192 2.595,38.360 2.406 C 38.529 2.217,38.667 1.898,38.667 1.698 L 38.667 1.333 20.000 1.333 L 1.333 1.333 1.333 4.083 M42.667 1.559 C 42.667 1.774,42.451 2.200,41.220 4.417 C 40.915 4.967,40.534 5.679,40.374 6.000 C 40.214 6.321,40.030 6.623,39.965 6.672 C 39.900 6.722,39.694 7.105,39.508 7.525 C 39.323 7.946,39.065 8.377,38.935 8.485 C 38.805 8.592,38.601 9.015,38.480 9.423 C 38.359 9.832,38.178 10.167,38.078 10.167 C 37.977 10.167,37.724 10.579,37.515 11.083 C 37.306 11.588,37.073 12.000,36.997 12.000 C 36.921 12.000,36.777 12.250,36.676 12.556 C 36.575 12.862,36.306 13.365,36.079 13.672 C 35.852 13.980,35.667 14.337,35.667 14.467 C 35.667 14.596,35.479 14.925,35.250 15.197 C 35.021 15.470,34.784 15.893,34.724 16.138 C 34.664 16.383,34.561 16.621,34.494 16.667 C 34.285 16.809,33.667 17.997,33.667 18.255 C 33.667 18.390,33.589 18.500,33.494 18.500 C 33.399 18.500,33.169 18.855,32.984 19.288 C 32.798 19.722,32.580 20.117,32.500 20.167 C 32.420 20.216,32.195 20.593,32.000 21.003 C 31.806 21.414,31.429 22.125,31.163 22.583 C 30.897 23.042,30.481 23.786,30.238 24.238 C 29.996 24.690,29.699 25.158,29.579 25.278 C 29.459 25.398,29.313 25.712,29.255 25.976 C 29.197 26.239,29.008 26.607,28.834 26.794 C 28.661 26.980,28.401 27.384,28.256 27.691 C 27.967 28.307,27.622 28.928,27.046 29.871 C 26.503 30.761,26.472 30.725,28.698 31.808 C 30.882 32.871,31.077 32.886,31.480 32.019 C 31.591 31.779,31.923 31.160,32.216 30.643 C 32.510 30.126,32.963 29.309,33.222 28.829 C 33.482 28.349,33.767 27.872,33.856 27.770 C 34.054 27.542,34.509 26.708,35.073 25.542 C 35.305 25.060,35.572 24.667,35.665 24.667 C 35.757 24.667,35.833 24.569,35.833 24.449 C 35.833 24.330,36.050 23.890,36.315 23.473 C 36.579 23.056,36.852 22.535,36.920 22.316 C 36.989 22.096,37.112 21.873,37.194 21.820 C 37.333 21.731,37.676 21.134,38.767 19.083 C 39.011 18.625,39.263 18.212,39.327 18.167 C 39.391 18.121,39.625 17.708,39.847 17.250 C 40.068 16.792,40.294 16.379,40.349 16.333 C 40.404 16.287,40.554 16.050,40.683 15.804 C 40.811 15.559,41.167 14.922,41.474 14.388 C 41.780 13.854,42.239 13.042,42.494 12.583 C 42.749 12.125,43.194 11.338,43.484 10.833 C 43.775 10.329,44.101 9.729,44.211 9.500 C 44.320 9.271,44.456 9.046,44.513 9.000 C 44.569 8.954,44.736 8.692,44.883 8.417 C 45.030 8.142,45.280 7.674,45.439 7.376 L 45.727 6.836 55.572 6.793 L 65.417 6.750 65.462 4.042 L 65.508 1.333 54.087 1.333 C 44.606 1.333,42.667 1.372,42.667 1.559 M260.560 1.917 C 260.508 2.054,260.352 2.167,260.216 2.167 C 259.042 2.167,258.372 5.227,259.325 6.241 C 260.599 7.597,263.667 7.303,263.667 5.825 C 263.667 5.669,263.779 5.447,263.917 5.333 C 264.226 5.076,264.244 4.101,263.945 3.802 C 263.823 3.680,263.673 3.380,263.611 3.135 C 263.362 2.143,260.857 1.143,260.560 1.917 M250.218 2.375 C 250.144 2.490,250.046 4.561,250.000 6.978 L 249.917 11.372 249.500 10.963 C 249.271 10.737,248.633 10.297,248.083 9.985 L 247.083 9.417 244.083 9.417 C 241.207 9.417,241.056 9.433,240.417 9.819 C 240.050 10.040,239.526 10.335,239.253 10.475 C 238.382 10.921,236.486 13.048,236.260 13.833 C 236.194 14.063,236.019 14.512,235.872 14.833 C 235.078 16.557,235.077 20.709,235.869 22.290 C 236.018 22.587,236.187 23.046,236.245 23.309 C 236.303 23.573,236.496 23.945,236.675 24.137 C 236.854 24.329,237.000 24.541,237.000 24.607 C 237.000 24.837,239.168 26.833,239.417 26.833 C 239.554 26.833,239.667 26.902,239.667 26.987 C 239.667 27.071,239.910 27.192,240.208 27.255 C 240.506 27.319,240.889 27.493,241.059 27.644 C 241.535 28.064,246.819 28.048,247.287 27.625 C 247.464 27.465,247.707 27.333,247.827 27.333 C 248.081 27.333,249.109 26.724,249.571 26.299 C 249.965 25.937,249.958 25.931,250.015 26.750 C 250.102 28.026,250.080 28.015,252.550 27.963 L 254.750 27.917 254.796 15.417 C 254.821 8.542,254.801 2.748,254.751 2.542 C 254.643 2.095,250.498 1.943,250.218 2.375 M184.877 3.610 C 184.702 3.680,183.975 5.085,183.510 6.250 C 183.354 6.641,182.724 8.031,182.105 9.350 C 181.864 9.863,181.666 10.351,181.666 10.433 C 181.666 10.516,181.478 10.952,181.249 11.403 C 181.021 11.854,180.833 12.328,180.833 12.457 C 180.833 12.585,180.717 12.807,180.575 12.949 C 180.433 13.091,180.274 13.423,180.221 13.687 C 180.168 13.951,180.059 14.167,179.979 14.167 C 179.899 14.167,179.833 14.290,179.833 14.442 C 179.833 14.593,179.654 15.099,179.434 15.567 C 179.215 16.034,178.802 16.910,178.518 17.513 C 178.233 18.116,178.000 18.772,178.000 18.972 C 178.000 19.182,177.895 19.333,177.750 19.333 C 177.612 19.333,177.500 19.450,177.500 19.592 C 177.500 19.735,177.343 20.204,177.151 20.634 C 176.959 21.065,176.619 21.829,176.394 22.333 C 176.169 22.837,175.886 23.438,175.764 23.667 C 175.642 23.896,175.449 24.383,175.334 24.750 C 175.219 25.117,175.030 25.529,174.914 25.667 C 174.798 25.804,174.652 26.160,174.589 26.458 C 174.525 26.756,174.399 27.000,174.309 27.000 C 174.219 27.000,174.168 27.206,174.197 27.458 L 174.250 27.917 176.477 27.963 C 178.919 28.014,179.073 27.966,179.237 27.094 C 179.295 26.786,179.445 26.448,179.571 26.343 C 179.697 26.239,179.847 25.967,179.905 25.739 C 179.962 25.511,180.182 24.933,180.395 24.454 C 180.607 23.975,180.877 23.340,180.994 23.042 L 181.207 22.500 186.782 22.500 C 192.525 22.500,192.833 22.534,192.833 23.165 C 192.833 23.270,193.011 23.744,193.227 24.219 C 193.444 24.694,193.677 25.271,193.747 25.500 C 193.816 25.729,193.969 26.029,194.088 26.167 C 194.206 26.304,194.385 26.728,194.486 27.108 C 194.587 27.488,194.788 27.844,194.932 27.900 C 195.429 28.090,199.500 28.013,199.500 27.813 C 199.500 27.675,199.560 27.676,199.727 27.815 C 199.891 27.951,202.160 27.991,207.852 27.960 L 215.750 27.917 215.797 26.042 L 215.844 24.167 210.632 24.167 L 205.420 24.167 205.835 23.777 C 206.063 23.563,206.512 23.067,206.833 22.675 C 207.154 22.284,207.604 21.753,207.833 21.496 C 209.449 19.684,210.333 18.580,210.333 18.376 C 210.333 18.273,210.483 18.142,210.667 18.083 C 210.850 18.025,211.000 17.919,211.000 17.846 C 211.000 17.774,211.194 17.498,211.431 17.233 C 212.213 16.358,212.581 15.927,213.337 15.005 C 213.747 14.503,214.196 13.967,214.333 13.813 C 215.603 12.393,215.516 12.613,215.464 10.949 L 215.417 9.417 207.708 9.373 L 200.000 9.330 200.000 11.248 L 200.000 13.167 204.667 13.167 C 207.233 13.167,209.333 13.223,209.332 13.292 C 209.330 13.408,208.707 14.170,206.912 16.250 C 206.516 16.708,205.916 17.421,205.578 17.833 C 205.240 18.246,204.856 18.696,204.726 18.833 C 204.596 18.971,204.361 19.243,204.203 19.438 C 203.683 20.081,202.424 21.558,202.000 22.021 C 201.771 22.272,201.396 22.717,201.167 23.009 C 200.938 23.301,200.507 23.813,200.209 24.145 C 199.700 24.715,199.667 24.828,199.648 26.083 C 199.637 26.817,199.594 27.285,199.552 27.125 C 199.510 26.965,199.406 26.833,199.321 26.833 C 199.236 26.833,199.167 26.685,199.167 26.503 C 199.167 26.055,198.666 24.833,198.482 24.833 C 198.400 24.833,198.333 24.679,198.333 24.489 C 198.333 24.178,197.869 23.058,196.990 21.250 C 196.812 20.883,196.666 20.490,196.666 20.375 C 196.666 20.260,196.592 20.167,196.500 20.167 C 196.408 20.167,196.331 20.035,196.328 19.875 C 196.325 19.715,196.100 19.135,195.828 18.588 C 195.556 18.040,195.333 17.456,195.333 17.291 C 195.333 17.125,195.221 16.946,195.083 16.894 C 194.946 16.841,194.833 16.668,194.833 16.510 C 194.833 16.352,194.646 15.854,194.417 15.403 C 194.189 14.952,194.001 14.508,194.001 14.417 C 194.000 14.325,193.739 13.725,193.419 13.083 C 193.100 12.442,192.838 11.857,192.836 11.785 C 192.833 11.623,191.936 9.639,191.492 8.811 C 191.313 8.477,191.167 8.122,191.167 8.020 C 191.167 7.721,190.599 6.500,190.461 6.500 C 190.391 6.500,190.333 6.354,190.333 6.177 C 190.333 5.999,190.267 5.812,190.185 5.761 C 190.104 5.711,189.987 5.463,189.926 5.210 C 189.720 4.356,189.430 3.855,189.039 3.677 C 188.656 3.502,185.278 3.448,184.877 3.610 M222.192 9.447 C 221.886 9.489,221.398 9.656,221.109 9.818 C 220.820 9.979,220.358 10.166,220.083 10.232 C 219.808 10.299,219.183 10.592,218.693 10.885 L 217.802 11.417 217.885 12.160 C 217.940 12.657,218.089 13.003,218.335 13.202 C 218.538 13.366,218.656 13.500,218.598 13.500 C 218.443 13.500,218.937 14.407,219.219 14.641 C 219.414 14.803,219.764 14.687,221.022 14.046 L 222.583 13.250 224.819 13.250 C 226.460 13.250,227.074 13.305,227.125 13.458 C 227.163 13.573,227.282 13.669,227.389 13.672 C 227.782 13.682,228.667 15.093,228.667 15.709 L 228.667 16.303 225.458 16.395 C 221.960 16.496,220.667 16.619,220.667 16.850 C 220.667 16.933,220.520 17.000,220.341 17.000 C 219.929 17.000,219.167 17.342,219.167 17.527 C 219.167 17.604,219.054 17.667,218.916 17.667 C 217.607 17.667,215.590 23.084,216.654 23.742 C 216.739 23.794,216.926 24.193,217.071 24.627 C 217.413 25.653,218.661 26.990,219.523 27.253 C 219.740 27.319,220.056 27.495,220.226 27.645 C 220.804 28.154,226.027 28.116,226.543 27.599 C 226.659 27.484,226.969 27.335,227.233 27.269 C 227.496 27.203,227.964 26.956,228.273 26.721 L 228.833 26.294 228.833 26.883 C 228.833 28.006,228.822 28.000,231.083 28.000 C 232.797 28.000,233.148 27.957,233.232 27.736 C 233.391 27.323,233.351 15.197,233.190 15.098 C 233.112 15.049,233.005 14.540,232.953 13.967 C 232.901 13.394,232.778 12.898,232.679 12.865 C 232.581 12.832,232.500 12.672,232.500 12.508 C 232.500 12.026,230.831 10.454,229.750 9.919 C 228.755 9.427,224.357 9.152,222.192 9.447 M259.111 9.444 C 258.895 9.660,258.982 27.582,259.200 27.800 C 259.335 27.935,260.096 28.000,261.533 28.000 L 263.667 28.000 263.667 18.667 L 263.667 9.333 261.444 9.333 C 260.222 9.333,259.172 9.383,259.111 9.444 M187.264 10.292 C 187.425 10.727,187.656 11.202,187.778 11.346 C 187.900 11.491,188.000 11.697,188.000 11.804 C 188.000 12.110,188.565 13.333,188.706 13.333 C 188.776 13.333,188.834 13.502,188.834 13.708 C 188.834 13.915,189.022 14.452,189.251 14.903 C 189.479 15.354,189.667 15.823,189.667 15.945 C 189.667 16.067,189.723 16.167,189.792 16.168 C 189.860 16.169,190.057 16.619,190.228 17.168 C 190.399 17.717,190.605 18.167,190.686 18.167 C 190.767 18.167,190.833 18.242,190.833 18.333 C 190.833 18.440,189.384 18.500,186.819 18.500 C 184.612 18.500,182.833 18.444,182.867 18.375 C 183.562 16.963,184.000 15.998,184.000 15.876 C 184.000 15.792,184.187 15.354,184.416 14.903 C 184.645 14.452,184.832 13.961,184.833 13.812 C 184.833 13.663,184.936 13.455,185.063 13.351 C 185.189 13.246,185.389 12.806,185.507 12.372 C 185.626 11.938,185.860 11.404,186.028 11.186 C 186.196 10.967,186.333 10.701,186.333 10.594 C 186.333 10.319,186.728 9.503,186.861 9.501 C 186.922 9.501,187.104 9.856,187.264 10.292 M246.966 13.481 C 247.000 13.583,247.098 13.667,247.184 13.667 C 247.592 13.667,248.747 14.649,249.276 15.445 C 250.106 16.696,250.284 21.500,249.499 21.500 C 249.420 21.500,249.308 21.650,249.250 21.833 C 249.107 22.283,248.007 23.316,247.542 23.438 C 247.335 23.492,247.167 23.585,247.167 23.644 C 247.167 24.040,244.329 24.343,243.706 24.014 C 243.547 23.930,243.121 23.732,242.759 23.574 C 242.062 23.269,240.833 22.229,240.833 21.942 C 240.833 21.848,240.665 21.592,240.458 21.372 C 239.886 20.763,239.884 16.623,240.456 16.008 C 240.662 15.788,240.875 15.463,240.931 15.287 C 241.059 14.885,241.935 14.074,242.542 13.795 C 242.794 13.680,243.000 13.534,243.000 13.470 C 243.000 13.140,246.856 13.150,246.966 13.481 M273.875 16.444 C 273.712 16.510,273.667 18.632,273.667 26.269 L 273.667 36.011 275.542 35.964 L 277.417 35.917 277.463 33.464 L 277.509 31.012 278.213 30.218 C 278.600 29.781,279.109 29.235,279.344 29.004 C 279.578 28.772,279.820 28.452,279.880 28.292 C 280.090 27.733,280.145 27.788,282.225 30.583 C 283.654 32.504,283.765 32.650,284.258 33.250 C 284.484 33.525,284.711 33.881,284.762 34.042 C 284.814 34.202,284.928 34.333,285.015 34.333 C 285.103 34.333,285.246 34.521,285.333 34.750 C 285.420 34.979,285.556 35.167,285.634 35.167 C 285.713 35.167,285.878 35.356,286.002 35.588 L 286.228 36.009 288.404 35.963 C 290.837 35.911,291.066 35.781,290.259 34.910 C 290.025 34.658,289.832 34.369,289.830 34.267 C 289.829 34.166,289.641 33.907,289.414 33.691 C 289.186 33.475,289.000 33.210,289.000 33.103 C 289.000 32.995,288.850 32.799,288.667 32.667 C 288.483 32.535,288.333 32.348,288.333 32.253 C 288.333 32.158,288.146 31.878,287.917 31.631 C 287.688 31.383,287.500 31.135,287.500 31.079 C 287.500 30.988,286.834 30.049,286.417 29.552 C 286.325 29.443,286.078 29.105,285.868 28.802 C 285.175 27.801,284.180 26.420,284.001 26.211 C 283.904 26.098,283.668 25.739,283.476 25.413 C 283.084 24.749,283.015 24.914,284.250 23.580 C 284.525 23.283,285.275 22.463,285.917 21.759 C 286.558 21.054,287.327 20.218,287.625 19.902 C 287.923 19.586,288.167 19.291,288.167 19.247 C 288.167 19.203,288.579 18.751,289.083 18.243 C 290.630 16.684,290.405 16.333,287.861 16.334 C 286.026 16.336,285.761 16.449,284.753 17.667 C 284.412 18.079,283.559 19.025,282.858 19.769 C 281.683 21.016,279.801 23.036,278.167 24.805 L 277.500 25.527 277.500 21.103 C 277.500 16.899,277.484 16.670,277.178 16.506 C 276.856 16.333,274.269 16.285,273.875 16.444 M228.667 20.964 C 228.667 24.007,221.970 25.726,221.058 22.917 C 220.340 20.704,221.439 20.016,225.708 20.007 L 228.667 20.000 228.667 20.964 M295.750 21.077 C 295.383 21.197,294.833 21.341,294.528 21.396 C 294.223 21.452,293.781 21.648,293.547 21.832 C 293.313 22.016,293.001 22.169,292.853 22.173 C 292.300 22.185,291.561 22.965,291.795 23.290 C 291.911 23.451,292.119 23.828,292.256 24.126 C 292.852 25.423,293.499 25.642,294.575 24.911 C 294.917 24.679,295.530 24.444,295.936 24.388 C 296.343 24.332,296.716 24.222,296.764 24.143 C 296.888 23.943,298.291 23.963,298.417 24.167 C 298.473 24.258,298.714 24.333,298.952 24.333 C 299.559 24.333,300.667 25.515,300.667 26.163 L 300.667 26.645 297.875 26.715 C 294.946 26.789,293.541 27.002,293.232 27.418 C 293.130 27.555,292.969 27.667,292.873 27.667 C 292.615 27.667,291.500 28.830,291.500 29.100 C 291.500 29.228,291.435 29.333,291.355 29.333 C 290.374 29.333,291.013 34.070,292.042 34.423 C 292.202 34.477,292.333 34.628,292.333 34.756 C 292.333 35.946,297.842 36.467,299.750 35.458 L 300.583 35.016 300.668 35.467 L 300.753 35.917 302.585 35.917 L 304.417 35.917 304.466 30.750 C 304.529 24.059,304.434 23.685,302.184 21.796 C 301.996 21.638,301.634 21.463,301.379 21.407 C 301.125 21.351,300.654 21.209,300.333 21.091 C 299.559 20.808,296.598 20.798,295.750 21.077 M45.000 22.828 C 44.862 22.920,44.568 22.996,44.345 22.997 C 44.123 22.999,43.710 23.073,43.428 23.161 C 43.147 23.250,42.494 23.445,41.978 23.595 C 41.352 23.776,40.981 23.986,40.868 24.225 C 40.352 25.308,40.359 25.584,40.934 26.664 C 41.154 27.076,41.333 27.479,41.333 27.558 C 41.333 27.637,41.564 28.201,41.845 28.810 C 43.428 32.232,43.808 33.076,44.008 33.617 C 44.177 34.074,42.777 32.689,39.177 28.838 C 37.813 27.379,37.471 27.143,37.245 27.507 C 37.103 27.738,37.425 28.212,39.321 30.555 C 40.199 31.640,41.042 32.719,41.196 32.954 C 41.349 33.189,41.537 33.427,41.613 33.482 C 41.788 33.610,42.667 34.784,42.667 34.890 C 42.667 35.058,42.012 34.786,41.686 34.482 C 41.497 34.306,41.171 34.088,40.963 33.998 C 40.548 33.819,39.965 33.471,39.833 33.323 C 39.787 33.272,39.150 32.861,38.417 32.411 C 37.683 31.960,36.984 31.496,36.863 31.379 C 36.742 31.262,36.536 31.167,36.405 31.167 C 36.274 31.167,36.167 31.093,36.167 31.003 C 36.167 30.913,35.979 30.793,35.750 30.735 C 35.521 30.678,35.333 30.564,35.333 30.482 C 35.333 30.400,35.183 30.333,35.000 30.333 C 34.787 30.333,34.667 30.444,34.667 30.641 C 34.667 30.975,35.158 31.500,35.471 31.500 C 35.579 31.500,35.667 31.574,35.667 31.665 C 35.667 31.755,35.948 32.009,36.292 32.228 C 36.635 32.448,37.142 32.824,37.417 33.064 C 37.692 33.303,37.970 33.500,38.034 33.500 C 38.099 33.500,38.329 33.669,38.546 33.875 C 38.763 34.081,39.153 34.400,39.412 34.583 C 41.823 36.287,42.745 37.296,41.164 36.500 C 40.355 36.092,40.207 36.036,39.661 35.925 C 39.003 35.792,37.718 35.374,37.306 35.160 C 37.154 35.080,36.648 34.965,36.181 34.903 C 35.715 34.841,35.333 34.725,35.333 34.645 C 35.333 34.565,35.198 34.500,35.033 34.500 C 34.868 34.500,34.655 34.422,34.559 34.326 C 34.308 34.074,32.968 34.040,32.882 34.283 C 32.807 34.496,33.775 35.045,34.559 35.234 C 34.821 35.297,35.224 35.472,35.454 35.623 C 35.685 35.775,36.221 36.024,36.645 36.177 C 37.761 36.581,39.158 37.166,39.856 37.523 C 40.189 37.694,40.564 37.839,40.689 37.846 C 40.814 37.852,41.217 38.001,41.583 38.175 L 42.250 38.492 41.000 38.406 C 40.313 38.359,38.362 38.256,36.667 38.177 C 34.971 38.099,33.317 37.983,32.991 37.920 C 32.563 37.837,32.342 37.872,32.196 38.048 C 31.829 38.490,32.603 38.781,34.504 38.914 C 35.464 38.982,36.325 39.095,36.417 39.166 C 36.610 39.315,37.478 39.446,40.250 39.742 C 41.350 39.860,42.048 39.966,41.802 39.978 C 41.555 39.990,41.314 40.062,41.267 40.139 C 41.220 40.215,40.522 40.370,39.716 40.483 C 38.910 40.595,38.100 40.748,37.917 40.821 C 37.202 41.106,36.366 41.314,35.167 41.505 C 34.479 41.615,33.729 41.803,33.500 41.923 C 33.271 42.042,32.952 42.182,32.792 42.232 C 32.337 42.374,32.449 42.667,32.958 42.668 C 34.267 42.671,37.782 42.261,38.000 42.079 C 38.145 41.959,39.023 41.824,40.083 41.759 L 41.917 41.647 41.417 41.989 C 41.142 42.177,40.828 42.332,40.720 42.332 C 40.612 42.333,40.425 42.432,40.304 42.552 C 40.182 42.673,39.652 42.975,39.125 43.224 C 38.598 43.473,38.167 43.734,38.167 43.805 C 38.167 43.875,37.885 44.032,37.542 44.154 C 37.198 44.275,36.801 44.475,36.661 44.597 C 36.520 44.720,36.051 44.977,35.619 45.168 C 35.187 45.359,34.833 45.571,34.833 45.638 C 34.833 45.705,34.601 45.848,34.317 45.955 C 33.718 46.181,33.742 46.611,34.349 46.529 C 34.966 46.445,36.195 46.009,36.750 45.676 C 37.025 45.511,37.475 45.323,37.750 45.258 C 38.025 45.194,38.362 45.041,38.500 44.920 C 38.637 44.798,39.156 44.580,39.653 44.434 C 40.149 44.288,40.674 44.063,40.819 43.934 C 41.076 43.706,42.344 43.288,42.451 43.396 C 42.532 43.477,41.642 44.333,41.477 44.333 C 41.398 44.333,41.333 44.444,41.333 44.579 C 41.333 44.714,41.108 44.941,40.833 45.083 C 40.558 45.226,40.333 45.454,40.333 45.591 C 40.333 45.728,40.147 45.925,39.920 46.029 C 39.692 46.132,39.466 46.344,39.417 46.500 C 39.367 46.656,39.141 46.868,38.913 46.971 C 38.686 47.075,38.500 47.275,38.500 47.417 C 38.500 47.559,38.305 47.749,38.067 47.839 C 37.829 47.930,37.598 48.144,37.553 48.315 C 37.508 48.486,37.291 48.709,37.069 48.809 C 36.848 48.910,36.667 49.107,36.667 49.246 C 36.667 49.386,36.592 49.500,36.500 49.500 C 36.408 49.500,36.333 49.650,36.333 49.833 C 36.333 50.397,37.013 50.063,38.326 48.852 C 38.735 48.475,39.204 48.124,39.368 48.072 C 39.532 48.020,39.667 47.882,39.667 47.766 C 39.667 47.649,39.860 47.465,40.096 47.358 C 40.333 47.250,40.726 46.977,40.971 46.751 C 41.712 46.067,43.636 44.500,43.735 44.500 C 43.827 44.500,42.685 46.676,42.509 46.833 C 42.458 46.879,42.276 47.179,42.105 47.500 C 41.199 49.193,40.784 49.925,40.689 50.000 C 40.595 50.074,40.385 50.450,39.546 52.048 C 38.817 53.438,39.740 53.135,40.774 51.645 C 41.219 51.003,41.771 50.229,42.000 49.925 C 42.229 49.620,42.529 49.205,42.667 49.002 C 42.804 48.799,43.348 48.039,43.875 47.314 C 44.402 46.589,44.833 45.921,44.833 45.831 C 44.833 45.741,44.906 45.667,44.996 45.667 C 45.175 45.667,45.087 46.339,44.755 47.500 C 44.177 49.522,44.069 49.941,43.716 51.500 C 43.664 51.729,43.567 51.992,43.499 52.083 C 43.432 52.175,43.325 52.540,43.261 52.894 C 43.128 53.628,42.467 53.673,41.747 52.997 C 41.304 52.581,41.059 52.579,40.839 52.989 C 40.246 54.097,41.188 55.271,42.917 55.578 C 43.283 55.643,43.658 55.751,43.750 55.818 C 44.915 56.669,52.210 56.672,53.417 55.823 C 53.508 55.758,53.846 55.650,54.167 55.582 C 54.795 55.449,56.714 54.517,56.806 54.299 C 56.836 54.226,56.927 54.167,57.006 54.167 C 57.445 54.167,59.029 52.804,60.882 50.833 C 61.364 50.321,62.258 48.883,62.410 48.375 C 62.472 48.169,62.586 48.000,62.664 48.000 C 62.742 48.000,62.932 47.644,63.087 47.208 C 63.410 46.299,63.597 45.822,63.836 45.292 C 64.380 44.082,64.581 39.463,64.193 37.083 C 63.984 35.800,63.926 35.587,63.534 34.667 C 63.436 34.438,63.266 33.950,63.155 33.583 C 63.044 33.217,62.859 32.861,62.745 32.794 C 62.631 32.726,62.486 32.464,62.423 32.210 C 62.165 31.164,60.145 28.508,58.602 27.187 C 58.133 26.786,57.712 26.411,57.667 26.353 C 57.304 25.902,54.890 24.514,53.583 24.007 C 53.400 23.936,53.063 23.794,52.833 23.692 C 52.442 23.517,51.995 23.396,50.167 22.965 C 49.132 22.722,45.312 22.620,45.000 22.828 M48.148 25.667 C 48.128 26.217,48.058 26.667,47.993 26.667 C 47.927 26.667,47.819 27.901,47.753 29.409 C 47.629 32.212,47.343 33.424,47.083 32.250 C 47.022 31.975,46.928 31.637,46.874 31.500 C 46.765 31.222,46.459 30.020,46.174 28.750 C 46.071 28.292,45.924 27.801,45.847 27.660 C 45.770 27.519,45.654 27.013,45.588 26.535 C 45.523 26.058,45.401 25.625,45.318 25.574 C 45.135 25.461,45.114 24.833,45.293 24.833 C 45.363 24.833,45.513 24.983,45.628 25.167 C 45.962 25.701,47.288 25.642,47.500 25.083 C 47.820 24.243,48.187 24.574,48.148 25.667 M49.586 25.381 C 50.002 26.045,50.664 26.170,51.157 25.677 C 51.707 25.126,52.221 25.694,51.682 26.258 C 51.599 26.345,51.289 27.129,50.993 28.000 C 50.697 28.871,50.396 29.658,50.325 29.750 C 50.255 29.842,50.144 30.199,50.079 30.544 C 50.015 30.888,49.896 31.211,49.814 31.262 C 49.733 31.312,49.666 31.480,49.666 31.635 C 49.665 31.790,49.553 32.131,49.416 32.394 C 49.279 32.657,49.167 32.988,49.167 33.130 C 49.167 33.272,49.127 33.349,49.078 33.300 C 49.029 33.251,48.943 31.326,48.886 29.022 C 48.776 24.507,48.837 24.188,49.586 25.381 M44.637 26.458 C 44.748 27.260,44.916 28.554,45.010 29.333 C 45.104 30.113,45.253 30.880,45.341 31.039 C 45.428 31.199,45.500 31.625,45.500 31.988 C 45.500 32.350,45.575 32.693,45.667 32.750 C 45.758 32.807,45.833 33.055,45.833 33.302 C 45.833 33.697,45.790 33.661,45.467 33.000 C 45.266 32.587,45.060 32.212,45.009 32.167 C 44.958 32.121,44.778 31.821,44.608 31.500 C 44.029 30.407,43.282 29.084,42.890 28.462 C 42.676 28.120,42.500 27.791,42.500 27.730 C 42.500 27.670,42.271 27.247,41.990 26.792 C 41.710 26.336,41.512 25.933,41.550 25.895 C 41.661 25.784,42.167 26.021,42.167 26.184 C 42.167 26.266,42.440 26.333,42.773 26.333 C 43.441 26.333,43.819 25.990,43.828 25.375 C 43.832 25.127,43.935 25.000,44.134 25.000 C 44.386 25.000,44.468 25.238,44.637 26.458 M53.000 26.198 C 53.000 27.082,54.212 27.645,54.858 27.061 C 55.386 26.583,55.449 27.232,54.934 27.844 C 54.695 28.127,54.500 28.466,54.500 28.596 C 54.500 28.727,54.429 28.833,54.342 28.833 C 54.210 28.833,53.388 29.933,52.750 30.963 C 52.658 31.111,52.415 31.423,52.208 31.656 C 52.002 31.889,51.833 32.174,51.833 32.290 C 51.833 32.405,51.773 32.500,51.700 32.500 C 51.627 32.500,51.353 32.837,51.092 33.250 C 50.528 34.143,50.467 34.175,50.697 33.458 C 50.793 33.160,50.994 32.317,51.144 31.583 C 51.295 30.850,51.464 30.175,51.521 30.083 C 51.643 29.889,52.097 28.050,52.263 27.083 C 52.454 25.971,53.000 25.315,53.000 26.198 M56.367 28.191 C 56.255 29.127,56.593 29.530,57.447 29.477 C 58.529 29.411,58.505 29.649,57.338 30.566 C 56.785 31.000,56.333 31.425,56.333 31.511 C 56.333 31.597,56.240 31.669,56.125 31.671 C 56.010 31.673,55.075 32.386,54.047 33.254 C 51.992 34.990,51.854 35.074,52.287 34.317 C 52.450 34.034,52.785 33.452,53.032 33.026 C 53.278 32.599,53.653 31.912,53.865 31.500 C 54.077 31.087,54.338 30.693,54.446 30.624 C 54.554 30.554,54.732 30.217,54.841 29.874 C 54.951 29.531,55.177 29.100,55.343 28.917 C 55.509 28.733,55.725 28.371,55.823 28.111 C 56.037 27.547,56.437 27.606,56.367 28.191 M300.667 30.382 C 300.667 32.535,296.534 33.891,294.913 32.270 C 294.348 31.705,294.519 30.218,295.169 30.048 C 295.351 30.000,295.500 29.895,295.500 29.814 C 295.500 29.733,296.662 29.667,298.083 29.667 L 300.667 29.667 300.667 30.382 M59.052 31.037 C 58.957 31.246,58.939 31.529,59.011 31.667 C 59.083 31.804,59.183 32.048,59.233 32.208 C 59.295 32.410,59.495 32.500,59.878 32.500 C 60.183 32.500,60.520 32.586,60.625 32.692 C 60.827 32.894,60.600 33.026,58.667 33.829 C 57.767 34.203,56.997 34.545,55.167 35.385 C 54.663 35.617,54.063 35.859,53.833 35.923 C 53.604 35.988,53.304 36.121,53.167 36.218 C 53.029 36.315,54.267 35.036,55.917 33.374 C 58.708 30.563,59.554 29.933,59.052 31.037 M60.917 34.499 C 60.556 35.197,60.858 35.952,61.572 36.138 C 62.845 36.470,62.331 36.709,59.750 36.985 C 58.833 37.083,57.633 37.241,57.083 37.336 C 55.765 37.563,54.000 37.727,54.000 37.622 C 54.000 37.576,54.394 37.344,54.875 37.105 C 55.356 36.867,56.200 36.408,56.750 36.085 C 57.300 35.763,58.050 35.349,58.417 35.167 C 58.783 34.984,59.533 34.589,60.083 34.290 C 61.185 33.689,61.318 33.723,60.917 34.499 M223.417 34.158 C 222.606 34.492,221.774 37.167,222.481 37.167 C 222.562 37.167,222.664 37.306,222.709 37.477 C 222.959 38.433,224.982 38.616,225.909 37.767 C 227.772 36.062,225.784 33.184,223.417 34.158 M171.948 35.458 C 171.909 35.527,171.786 35.865,171.676 36.208 C 171.565 36.552,171.413 36.833,171.338 36.833 C 171.264 36.833,171.155 37.023,171.097 37.254 C 171.039 37.486,170.800 38.105,170.567 38.629 C 170.333 39.154,170.030 39.846,169.893 40.167 C 169.757 40.487,169.506 41.012,169.337 41.333 C 169.167 41.654,168.977 42.193,168.915 42.530 C 168.852 42.868,168.695 43.184,168.567 43.233 C 168.438 43.283,168.333 43.421,168.333 43.541 C 168.333 43.660,168.111 44.207,167.839 44.754 C 167.566 45.302,167.341 45.881,167.339 46.042 C 167.336 46.202,167.258 46.333,167.167 46.333 C 167.075 46.333,167.000 46.444,167.000 46.578 C 167.000 46.713,166.863 47.069,166.696 47.370 C 166.529 47.671,166.251 48.310,166.080 48.792 C 165.908 49.273,165.707 49.667,165.634 49.667 C 165.560 49.667,165.500 49.797,165.500 49.956 C 165.500 50.224,165.279 50.739,164.230 52.917 C 164.009 53.375,163.829 53.844,163.831 53.958 C 163.832 54.073,163.758 54.167,163.667 54.167 C 163.395 54.167,163.477 54.789,163.764 54.899 C 164.137 55.042,167.216 55.020,167.417 54.872 C 167.662 54.692,168.000 54.043,168.000 53.752 C 168.000 53.614,168.067 53.500,168.148 53.500 C 168.230 53.500,168.349 53.221,168.412 52.881 C 168.476 52.540,168.663 52.071,168.828 51.839 C 168.993 51.607,169.156 51.267,169.191 51.083 C 169.274 50.648,178.333 50.460,178.333 50.894 C 178.333 51.021,178.441 51.215,178.573 51.324 C 178.704 51.434,178.860 51.741,178.918 52.008 C 178.977 52.274,179.206 52.851,179.428 53.288 C 179.650 53.725,179.832 54.202,179.833 54.347 C 179.834 54.841,180.514 55.015,182.251 54.965 L 183.917 54.917 183.970 54.453 C 184.003 54.169,183.792 53.521,183.428 52.784 C 183.101 52.122,182.833 51.514,182.833 51.432 C 182.833 51.292,182.479 50.494,181.566 48.581 C 181.346 48.121,181.167 47.689,181.167 47.622 C 181.167 47.554,180.979 47.110,180.750 46.635 C 180.521 46.160,180.333 45.672,180.333 45.552 C 180.333 45.432,180.264 45.333,180.180 45.333 C 180.096 45.333,179.975 45.090,179.911 44.792 C 179.848 44.494,179.699 44.137,179.580 44.000 C 179.462 43.862,179.282 43.440,179.181 43.061 C 179.080 42.682,178.886 42.279,178.749 42.166 C 178.612 42.052,178.500 41.837,178.500 41.687 C 178.500 41.537,178.322 41.077,178.104 40.665 C 177.886 40.254,177.655 39.673,177.591 39.375 C 177.526 39.077,177.404 38.833,177.320 38.833 C 177.236 38.833,177.164 38.740,177.161 38.625 C 177.159 38.510,176.972 38.042,176.746 37.583 C 176.521 37.125,176.336 36.629,176.335 36.481 C 176.330 35.602,175.744 35.333,173.831 35.333 C 172.835 35.333,171.988 35.390,171.948 35.458 M230.292 36.513 C 230.041 36.659,230.000 36.950,230.000 38.583 L 230.000 40.483 229.042 40.533 L 228.083 40.583 228.033 41.662 C 227.951 43.394,228.012 43.500,229.087 43.500 L 230.000 43.500 230.000 47.336 C 230.000 49.445,230.069 51.301,230.154 51.461 C 230.239 51.620,230.394 52.087,230.499 52.500 C 230.900 54.080,232.407 55.044,234.500 55.061 C 235.711 55.071,237.333 54.729,237.333 54.464 C 237.333 54.392,237.481 54.333,237.661 54.333 C 238.356 54.333,238.396 52.929,237.740 51.542 C 237.489 51.009,236.969 50.812,236.750 51.167 C 236.693 51.258,236.468 51.333,236.250 51.333 C 236.032 51.333,235.807 51.408,235.750 51.500 C 235.542 51.836,234.733 51.670,234.281 51.199 L 233.833 50.732 233.833 47.116 L 233.833 43.500 236.000 43.500 L 238.167 43.500 238.167 42.000 L 238.167 40.500 236.000 40.500 L 233.833 40.500 233.833 38.519 C 233.833 36.606,233.821 36.535,233.458 36.438 C 232.851 36.276,230.609 36.329,230.292 36.513 M62.333 37.595 C 62.333 37.648,62.221 37.803,62.083 37.940 C 61.579 38.445,61.751 39.825,62.333 39.942 C 63.073 40.090,62.979 40.502,62.208 40.490 C 61.330 40.475,59.473 40.238,57.999 39.951 C 57.311 39.818,56.117 39.653,55.346 39.584 C 53.667 39.436,53.953 39.204,56.250 38.850 C 56.983 38.738,57.809 38.543,58.086 38.417 C 58.362 38.291,59.289 38.076,60.145 37.938 C 61.001 37.800,61.744 37.645,61.795 37.594 C 61.918 37.471,62.333 37.472,62.333 37.595 M294.292 38.782 C 294.017 38.853,294.000 39.605,294.000 51.600 L 294.000 64.343 296.208 64.297 L 298.417 64.250 298.508 59.333 C 298.616 53.485,298.745 52.754,299.873 51.616 C 301.705 49.768,304.418 49.533,306.131 51.074 C 307.044 51.894,307.077 52.125,307.167 58.417 L 307.250 64.250 309.553 64.296 L 311.856 64.343 311.803 57.430 C 311.763 52.180,311.700 50.466,311.542 50.308 C 311.427 50.194,311.333 49.965,311.333 49.800 C 311.333 49.635,311.268 49.500,311.188 49.500 C 311.107 49.500,311.000 49.290,310.948 49.033 C 310.701 47.795,308.601 46.261,306.790 45.994 C 306.126 45.897,305.294 45.775,304.941 45.723 C 304.588 45.671,304.138 45.706,303.941 45.801 C 303.744 45.896,303.122 46.015,302.559 46.066 C 301.516 46.160,300.667 46.441,300.667 46.693 C 300.667 46.770,300.564 46.833,300.440 46.833 C 300.133 46.833,298.966 47.773,298.714 48.222 C 298.552 48.512,298.511 47.641,298.506 43.798 C 298.500 39.240,298.485 39.004,298.178 38.839 C 297.865 38.672,294.881 38.628,294.292 38.782 M185.245 40.036 C 185.200 40.154,185.183 43.550,185.207 47.583 L 185.250 54.917 186.750 54.966 C 189.227 55.047,188.972 55.569,189.032 50.291 L 189.083 45.750 189.538 45.083 C 191.018 42.914,194.790 42.950,195.263 45.138 C 195.316 45.383,195.429 45.733,195.514 45.917 C 195.599 46.100,195.687 48.200,195.709 50.583 L 195.750 54.917 197.417 54.917 L 199.083 54.917 199.128 51.172 C 199.154 49.012,199.242 47.358,199.337 47.263 C 199.426 47.174,199.500 46.955,199.500 46.778 C 199.500 43.544,204.138 42.191,205.625 44.992 C 205.987 45.675,206.000 45.850,206.000 50.248 C 206.000 55.495,205.795 55.001,207.972 54.997 C 210.040 54.994,209.863 55.562,209.797 49.150 L 209.739 43.583 209.291 42.748 C 208.718 41.680,207.592 40.594,206.794 40.340 C 206.452 40.231,206.128 40.073,206.076 39.988 C 205.920 39.736,202.322 39.795,202.013 40.055 C 201.868 40.176,201.434 40.366,201.047 40.476 C 200.531 40.624,200.135 40.918,199.560 41.585 C 198.814 42.448,198.333 42.593,198.333 41.955 C 198.333 41.610,197.140 40.637,196.414 40.390 C 196.003 40.250,195.625 40.067,195.574 39.984 C 195.447 39.779,192.077 39.792,191.664 40.000 C 191.482 40.092,191.184 40.242,191.002 40.333 C 190.820 40.425,190.571 40.500,190.449 40.500 C 190.327 40.500,189.969 40.730,189.655 41.012 L 189.083 41.524 189.000 40.720 L 188.917 39.917 187.122 39.869 C 185.779 39.834,185.307 39.876,185.245 40.036 M212.603 40.092 C 212.395 40.634,212.487 54.587,212.700 54.800 C 212.923 55.023,215.948 55.081,216.281 54.869 C 216.424 54.778,216.494 53.490,216.531 50.260 C 216.571 46.860,216.634 45.761,216.792 45.708 C 216.906 45.670,217.000 45.533,217.000 45.403 C 217.000 45.273,217.070 45.167,217.155 45.167 C 217.241 45.167,217.356 45.025,217.411 44.851 C 217.466 44.678,217.734 44.444,218.006 44.331 C 218.277 44.218,218.500 44.064,218.500 43.988 C 218.500 43.787,219.636 43.502,220.441 43.501 C 221.283 43.500,221.333 43.396,221.333 41.667 C 221.333 40.948,221.288 40.242,221.232 40.097 C 220.962 39.394,218.106 40.158,216.967 41.238 L 216.517 41.664 216.467 40.790 L 216.417 39.917 214.562 39.870 C 212.980 39.830,212.691 39.862,212.603 40.092 M222.778 39.944 C 222.507 40.216,222.655 54.793,222.930 54.899 C 223.441 55.095,225.907 54.996,226.208 54.768 C 226.579 54.487,226.666 40.400,226.300 40.033 C 226.087 39.820,222.980 39.742,222.778 39.944 M174.583 41.976 C 174.643 42.219,174.786 42.529,174.901 42.667 C 175.015 42.804,175.202 43.242,175.315 43.639 C 175.429 44.036,175.666 44.598,175.844 44.889 C 176.021 45.179,176.166 45.542,176.166 45.694 C 176.166 45.847,176.236 45.997,176.321 46.028 C 176.406 46.058,176.527 46.290,176.589 46.542 L 176.703 47.000 173.748 47.000 C 171.405 47.000,170.827 46.957,170.960 46.792 C 171.053 46.677,171.179 46.345,171.241 46.053 C 171.304 45.762,171.457 45.438,171.581 45.335 C 171.706 45.232,171.902 44.777,172.019 44.324 C 172.135 43.871,172.285 43.500,172.352 43.500 C 172.419 43.500,172.563 43.219,172.671 42.875 C 172.779 42.531,173.047 41.879,173.267 41.426 C 173.487 40.972,173.667 40.453,173.667 40.272 C 173.667 39.898,174.409 41.279,174.583 41.976 M244.957 40.282 C 244.681 40.354,244.667 41.029,244.707 52.304 L 244.750 64.250 246.958 64.297 L 249.167 64.343 249.167 56.401 C 249.167 49.361,249.195 48.483,249.417 48.667 C 249.554 48.781,249.667 48.952,249.667 49.048 C 249.667 49.205,251.584 53.271,252.040 54.083 C 252.144 54.267,252.331 54.642,252.458 54.917 C 252.584 55.192,252.760 55.529,252.847 55.667 C 252.935 55.804,253.120 56.179,253.258 56.500 C 253.396 56.821,253.582 57.215,253.671 57.375 C 254.022 58.005,254.162 58.286,254.607 59.250 C 254.860 59.800,255.117 60.288,255.178 60.333 C 255.239 60.379,255.347 60.604,255.418 60.833 C 255.756 61.916,255.911 62.000,257.575 62.000 L 259.111 62.000 259.639 60.977 C 259.929 60.414,260.167 59.822,260.167 59.661 C 260.167 59.500,260.279 59.326,260.417 59.273 C 260.554 59.220,260.667 59.081,260.667 58.964 C 260.668 58.846,260.968 58.158,261.334 57.434 C 261.700 56.710,262.000 56.017,262.000 55.892 C 262.000 55.768,262.075 55.667,262.167 55.667 C 262.258 55.667,262.333 55.554,262.333 55.417 C 262.333 55.279,262.408 55.167,262.500 55.167 C 262.592 55.167,262.667 55.047,262.667 54.901 C 262.667 54.642,263.145 53.667,263.354 53.500 C 263.411 53.454,263.511 53.174,263.575 52.877 C 263.640 52.580,263.757 52.297,263.837 52.248 C 264.048 52.117,265.167 49.876,265.167 49.583 C 265.167 49.446,265.236 49.333,265.320 49.333 C 265.404 49.333,265.523 49.109,265.583 48.835 C 265.920 47.301,266.000 48.723,266.000 56.245 L 266.000 64.343 268.208 64.297 L 270.417 64.250 270.459 52.471 C 270.510 38.560,270.872 40.167,267.687 40.167 C 265.023 40.167,265.062 40.149,264.336 41.705 C 264.048 42.322,263.742 42.870,263.656 42.923 C 263.570 42.976,263.417 43.348,263.316 43.749 C 263.215 44.149,263.038 44.514,262.921 44.559 C 262.805 44.603,262.657 44.847,262.594 45.101 C 262.530 45.355,262.332 45.768,262.154 46.017 C 261.976 46.267,261.784 46.703,261.728 46.986 C 261.671 47.269,261.568 47.500,261.499 47.500 C 261.429 47.500,261.331 47.631,261.280 47.792 C 261.229 47.952,261.077 48.271,260.943 48.500 C 260.476 49.297,258.833 52.761,258.833 52.949 C 258.833 53.054,258.777 53.164,258.708 53.194 C 258.640 53.225,258.363 53.719,258.094 54.292 C 257.505 55.547,257.489 55.551,257.116 54.500 C 256.953 54.042,256.748 53.667,256.660 53.667 C 256.572 53.667,256.500 53.576,256.500 53.466 C 256.500 53.236,254.829 49.794,254.655 49.667 C 254.593 49.621,254.489 49.340,254.424 49.042 C 254.360 48.744,254.255 48.500,254.193 48.500 C 254.069 48.500,253.500 47.268,253.500 46.999 C 253.500 46.908,253.443 46.833,253.373 46.833 C 253.304 46.833,252.950 46.196,252.588 45.417 C 252.226 44.637,251.871 44.000,251.798 44.000 C 251.726 44.000,251.666 43.869,251.665 43.708 C 251.664 43.548,251.482 43.101,251.261 42.715 C 251.040 42.328,250.806 41.841,250.739 41.631 C 250.673 41.422,250.433 41.006,250.206 40.708 L 249.794 40.167 247.522 40.186 C 246.272 40.197,245.118 40.240,244.957 40.282 M58.333 41.147 C 60.121 41.233,61.784 41.354,62.030 41.417 L 62.477 41.530 61.905 42.032 C 61.220 42.634,61.183 43.072,61.771 43.618 C 62.032 43.860,62.149 44.085,62.059 44.174 C 61.882 44.351,60.666 44.024,60.417 43.732 C 60.325 43.625,59.950 43.447,59.583 43.337 C 59.217 43.228,58.536 42.957,58.070 42.737 C 57.604 42.517,56.985 42.289,56.695 42.231 C 56.404 42.173,56.167 42.068,56.167 41.997 C 56.167 41.829,54.919 41.333,54.497 41.333 C 54.315 41.333,54.167 41.264,54.167 41.179 C 54.167 41.094,54.035 40.985,53.875 40.937 C 53.715 40.890,53.921 40.882,54.333 40.921 C 54.746 40.960,56.546 41.062,58.333 41.147 M336.438 42.188 C 336.380 42.474,336.333 43.524,336.333 44.521 L 336.333 46.333 335.417 46.333 C 334.020 46.333,333.808 46.625,333.869 48.465 L 333.917 49.917 335.125 49.966 L 336.333 50.015 336.333 54.162 C 336.333 60.151,336.670 62.072,337.917 63.190 C 338.688 63.882,339.162 64.181,339.625 64.269 C 339.923 64.325,340.167 64.437,340.167 64.519 C 340.167 64.600,340.954 64.667,341.917 64.667 C 342.879 64.667,343.667 64.601,343.667 64.522 C 343.667 64.442,343.939 64.333,344.273 64.279 C 345.829 64.026,347.079 63.012,346.521 62.454 C 346.418 62.351,346.333 62.131,346.333 61.964 C 346.333 61.798,346.265 61.532,346.182 61.373 C 346.099 61.214,345.946 60.765,345.842 60.375 C 345.616 59.528,345.427 59.496,344.099 60.083 C 342.831 60.644,342.292 60.622,341.623 59.984 L 341.083 59.468 341.032 54.734 L 340.981 50.000 343.657 50.000 L 346.333 50.000 346.333 48.329 C 346.333 46.277,346.421 46.333,343.239 46.333 L 341.000 46.333 341.000 44.000 L 341.000 41.667 338.771 41.667 L 336.542 41.667 336.438 42.188 M54.784 42.872 C 55.040 42.984,55.288 43.124,55.333 43.181 C 55.379 43.238,55.933 43.387,56.565 43.511 C 57.197 43.635,57.804 43.828,57.914 43.938 C 58.025 44.049,58.746 44.273,59.516 44.435 C 60.286 44.598,60.977 44.829,61.050 44.949 C 61.123 45.069,61.330 45.167,61.508 45.167 C 61.687 45.167,61.833 45.231,61.833 45.310 C 61.833 45.389,61.647 45.418,61.419 45.375 C 61.138 45.321,60.971 45.382,60.901 45.564 C 60.844 45.712,60.693 45.833,60.566 45.833 C 60.220 45.833,60.246 47.264,60.594 47.398 C 60.855 47.498,60.780 47.833,60.496 47.833 C 60.413 47.833,60.089 47.608,59.775 47.333 C 59.462 47.058,59.149 46.833,59.080 46.833 C 59.011 46.833,58.790 46.665,58.588 46.458 C 58.386 46.252,57.789 45.783,57.262 45.417 C 56.735 45.050,56.119 44.581,55.893 44.375 C 55.668 44.169,55.374 44.000,55.241 44.000 C 55.109 44.000,55.000 43.889,55.000 43.754 C 55.000 43.619,54.780 43.395,54.511 43.255 C 53.557 42.762,53.790 42.435,54.784 42.872 M53.697 44.542 C 53.894 44.656,54.191 44.879,54.357 45.037 C 54.523 45.196,54.848 45.372,55.079 45.430 C 55.311 45.489,55.500 45.604,55.500 45.687 C 55.500 45.770,55.856 46.005,56.292 46.210 C 56.727 46.416,57.181 46.715,57.301 46.875 C 57.421 47.035,57.609 47.167,57.718 47.167 C 57.828 47.167,58.287 47.429,58.738 47.750 C 59.189 48.071,59.658 48.333,59.779 48.333 C 59.901 48.333,60.000 48.446,60.000 48.583 C 60.000 48.768,59.808 48.833,59.268 48.833 C 58.432 48.833,58.333 48.968,58.333 50.103 C 58.333 50.793,58.310 50.833,58.000 50.667 C 57.817 50.569,57.667 50.380,57.667 50.248 C 57.667 50.116,57.479 49.885,57.250 49.735 C 57.021 49.585,56.833 49.397,56.833 49.319 C 56.833 49.196,54.552 46.244,53.508 45.015 C 52.969 44.381,53.053 44.168,53.697 44.542 M55.870 49.639 C 57.703 51.546,57.702 51.543,56.461 51.567 L 55.583 51.583 55.532 52.196 C 55.447 53.225,55.108 53.283,54.764 52.328 C 54.601 51.873,54.413 51.500,54.347 51.500 C 54.281 51.500,54.124 51.122,53.998 50.661 C 53.873 50.199,53.676 49.743,53.561 49.648 C 53.446 49.552,53.224 49.086,53.068 48.612 C 52.912 48.138,52.732 47.712,52.668 47.667 C 52.605 47.621,52.416 47.208,52.249 46.750 C 52.082 46.292,51.882 45.845,51.806 45.758 C 51.046 44.893,51.968 45.563,52.941 46.583 C 53.641 47.317,54.959 48.692,55.870 49.639 M353.413 45.766 C 353.220 45.866,352.612 45.989,352.061 46.039 C 350.334 46.195,348.029 47.902,347.758 49.224 C 347.422 50.868,347.405 51.252,347.618 52.500 C 347.838 53.788,349.009 55.370,349.910 55.597 C 350.130 55.652,350.344 55.789,350.388 55.901 C 350.431 56.013,350.905 56.206,351.441 56.330 C 351.978 56.454,352.529 56.646,352.667 56.756 C 352.804 56.867,353.217 57.009,353.583 57.071 C 357.540 57.743,357.986 60.833,354.126 60.833 C 353.321 60.833,352.532 60.768,352.373 60.689 C 352.214 60.610,351.858 60.465,351.583 60.368 C 350.180 59.873,349.172 59.396,349.170 59.226 C 349.163 58.772,347.870 58.681,347.733 59.125 C 347.648 59.399,347.559 59.586,347.175 60.292 C 346.491 61.549,346.451 61.796,346.860 62.209 C 347.795 63.153,349.891 64.135,351.292 64.286 C 351.773 64.338,352.167 64.444,352.167 64.523 C 352.167 64.710,355.786 64.711,355.902 64.524 C 355.951 64.445,356.356 64.338,356.803 64.285 C 358.285 64.109,360.494 62.495,360.773 61.384 C 360.837 61.129,360.989 60.820,361.111 60.698 C 361.443 60.367,361.420 57.446,361.083 57.167 C 360.946 57.053,360.833 56.814,360.833 56.636 C 360.833 56.264,359.230 54.500,358.892 54.500 C 358.768 54.500,358.667 54.425,358.667 54.333 C 358.667 54.242,358.535 54.167,358.374 54.167 C 358.213 54.167,357.742 53.986,357.328 53.766 C 356.914 53.545,356.217 53.311,355.779 53.246 C 355.342 53.180,354.882 53.025,354.758 52.901 C 354.634 52.777,354.222 52.626,353.841 52.565 C 352.719 52.386,351.506 51.195,351.829 50.591 C 352.271 49.765,355.026 49.034,355.402 49.643 C 355.451 49.722,355.829 49.833,356.241 49.890 C 356.654 49.946,357.350 50.177,357.788 50.402 C 358.615 50.827,358.832 50.886,359.458 50.853 C 359.698 50.840,359.833 50.727,359.833 50.539 C 359.833 50.377,360.019 49.971,360.246 49.637 C 361.160 48.292,360.919 47.142,359.670 46.892 C 359.393 46.837,359.167 46.733,359.167 46.662 C 359.167 46.436,358.125 46.159,356.876 46.053 C 356.211 45.997,355.667 45.900,355.667 45.837 C 355.667 45.774,355.573 45.712,355.458 45.701 C 354.402 45.591,353.708 45.613,353.413 45.766 M281.426 45.819 C 281.364 45.919,280.924 46.000,280.448 46.001 C 279.207 46.002,277.665 46.283,277.352 46.565 C 277.204 46.698,276.858 46.862,276.583 46.929 C 276.308 46.996,276.046 47.096,276.000 47.151 C 275.954 47.205,275.617 47.414,275.250 47.615 C 274.472 48.040,274.297 48.630,274.799 49.132 C 274.975 49.308,275.169 49.652,275.230 49.897 C 275.292 50.142,275.490 50.490,275.671 50.671 C 275.852 50.852,276.000 51.075,276.000 51.167 C 276.000 51.467,277.674 50.891,278.000 50.478 C 278.152 50.286,279.670 49.833,280.163 49.833 C 280.429 49.833,280.693 49.758,280.750 49.667 C 280.807 49.575,281.219 49.500,281.667 49.500 C 282.114 49.500,282.527 49.575,282.583 49.667 C 282.640 49.758,282.888 49.836,283.135 49.839 C 284.078 49.852,285.121 50.737,285.266 51.648 C 285.327 52.029,285.442 52.381,285.522 52.430 C 285.602 52.479,285.667 52.658,285.667 52.828 C 285.667 53.118,285.425 53.140,281.625 53.197 L 277.583 53.258 276.500 53.783 C 274.981 54.518,273.667 56.017,273.667 57.016 C 273.667 57.180,273.592 57.360,273.500 57.417 C 273.408 57.473,273.333 58.115,273.333 58.843 C 273.333 59.614,273.403 60.167,273.500 60.167 C 273.592 60.167,273.667 60.350,273.667 60.573 C 273.667 60.797,273.742 61.027,273.833 61.083 C 273.925 61.140,274.000 61.316,274.000 61.475 C 274.000 61.832,275.270 63.258,275.883 63.590 C 276.131 63.724,276.540 63.945,276.792 64.082 C 277.044 64.219,277.456 64.332,277.708 64.332 C 277.960 64.333,278.167 64.408,278.167 64.500 C 278.167 64.601,278.917 64.667,280.083 64.667 C 281.137 64.667,282.000 64.601,282.000 64.522 C 282.000 64.442,282.319 64.340,282.708 64.295 C 283.514 64.201,284.781 63.645,285.310 63.153 L 285.667 62.820 285.667 63.313 C 285.667 64.326,285.683 64.333,287.917 64.333 C 289.630 64.333,289.981 64.290,290.066 64.070 C 290.579 62.732,290.021 49.831,289.424 49.234 C 289.283 49.092,289.167 48.905,289.167 48.818 C 289.167 48.485,287.767 47.161,286.897 46.670 C 285.795 46.048,281.679 45.408,281.426 45.819 M322.598 45.809 C 322.550 45.887,321.954 45.993,321.275 46.045 C 320.399 46.111,319.802 46.264,319.229 46.569 C 318.784 46.806,318.363 47.000,318.294 47.000 C 317.958 47.000,315.833 48.846,315.833 49.139 C 315.833 49.223,315.721 49.385,315.584 49.499 C 315.110 49.893,314.371 51.421,314.255 52.250 C 314.190 52.708,314.040 53.458,313.922 53.917 C 313.702 54.773,313.731 55.930,313.992 56.667 C 314.073 56.896,314.184 57.458,314.238 57.917 C 314.338 58.758,314.970 60.189,315.583 60.963 C 316.254 61.809,317.352 62.833,317.590 62.833 C 317.724 62.833,317.833 62.913,317.833 63.010 C 317.833 63.269,319.885 64.157,320.759 64.277 C 321.172 64.334,321.549 64.444,321.598 64.523 C 321.714 64.711,325.500 64.711,325.500 64.523 C 325.500 64.444,325.888 64.334,326.362 64.278 C 326.836 64.221,327.301 64.099,327.396 64.004 C 327.490 63.910,327.702 63.833,327.867 63.833 C 328.032 63.833,328.167 63.758,328.167 63.667 C 328.167 63.575,328.298 63.500,328.458 63.500 C 328.619 63.500,328.954 63.331,329.203 63.125 C 329.452 62.919,329.958 62.530,330.327 62.261 C 330.695 61.992,331.040 61.635,331.093 61.469 C 331.146 61.303,331.251 61.167,331.326 61.167 C 331.401 61.167,331.587 60.904,331.739 60.583 C 331.891 60.262,332.087 60.000,332.174 60.000 C 332.262 60.000,332.333 59.880,332.333 59.734 C 332.333 59.587,332.435 59.231,332.560 58.942 C 332.685 58.653,332.872 58.207,332.977 57.950 C 333.215 57.365,333.236 52.729,333.000 52.583 C 332.908 52.527,332.833 52.302,332.833 52.083 C 332.833 51.865,332.767 51.645,332.686 51.595 C 332.604 51.545,332.488 51.240,332.428 50.919 C 332.368 50.597,332.252 50.333,332.170 50.333 C 332.089 50.333,331.970 50.168,331.906 49.966 C 331.759 49.502,329.376 47.120,329.181 47.241 C 329.100 47.291,328.992 47.219,328.939 47.082 C 328.887 46.945,328.701 46.833,328.526 46.833 C 328.351 46.833,328.118 46.726,328.010 46.595 C 327.772 46.308,326.430 46.000,325.418 46.000 C 325.016 46.000,324.640 45.925,324.583 45.833 C 324.458 45.631,322.722 45.609,322.598 45.809 M370.333 45.809 C 370.196 45.889,369.423 46.000,368.615 46.054 C 367.538 46.126,366.908 46.265,366.250 46.576 C 365.757 46.809,365.237 47.000,365.094 47.000 C 364.950 47.000,364.833 47.060,364.833 47.133 C 364.833 47.207,364.496 47.431,364.083 47.631 C 363.241 48.041,363.083 48.583,363.643 49.143 C 363.813 49.313,364.001 49.631,364.062 49.851 C 364.122 50.070,364.396 50.510,364.669 50.827 L 365.166 51.404 366.375 50.756 C 367.988 49.892,370.678 49.291,371.392 49.634 C 371.589 49.729,372.001 49.850,372.308 49.902 C 373.144 50.046,373.874 50.750,374.204 51.731 C 374.713 53.245,375.021 53.124,370.458 53.197 L 366.417 53.261 365.467 53.736 C 364.426 54.258,363.167 55.273,363.167 55.591 C 363.167 55.702,363.062 55.879,362.934 55.986 C 362.345 56.475,361.859 59.790,362.333 60.083 C 362.425 60.140,362.500 60.344,362.500 60.537 C 362.500 61.840,365.163 64.333,366.555 64.333 C 366.800 64.333,367.000 64.408,367.000 64.500 C 367.000 64.601,367.750 64.667,368.917 64.667 C 369.971 64.667,370.833 64.602,370.833 64.523 C 370.833 64.444,371.197 64.337,371.641 64.284 C 372.471 64.186,373.921 63.501,374.292 63.033 C 374.470 62.807,374.500 62.844,374.500 63.288 C 374.500 64.334,374.498 64.333,376.855 64.333 L 379.008 64.333 378.950 57.792 C 378.889 50.956,378.806 50.040,378.143 48.911 C 377.699 48.154,376.633 47.056,376.107 46.814 C 375.911 46.723,375.549 46.539,375.304 46.405 C 374.907 46.187,373.670 45.980,371.333 45.739 C 370.921 45.697,370.471 45.728,370.333 45.809 M46.833 50.167 C 46.833 52.944,46.774 54.500,46.667 54.500 C 46.575 54.500,46.500 54.359,46.500 54.187 C 46.500 53.791,46.196 53.536,45.665 53.487 C 44.878 53.414,44.500 53.499,44.500 53.750 C 44.500 53.887,44.359 54.000,44.186 54.000 C 43.867 54.000,44.017 53.148,44.480 52.328 C 44.559 52.187,44.677 51.832,44.742 51.538 C 44.806 51.244,44.928 50.961,45.013 50.909 C 45.097 50.856,45.167 50.631,45.167 50.407 C 45.167 50.183,45.233 50.000,45.315 50.000 C 45.396 50.000,45.512 49.741,45.571 49.424 C 45.630 49.107,45.788 48.638,45.922 48.382 C 46.055 48.126,46.165 47.790,46.166 47.635 C 46.166 47.480,46.235 47.311,46.319 47.259 C 46.403 47.207,46.522 46.865,46.583 46.499 C 46.794 45.253,46.833 45.830,46.833 50.167 M379.549 46.805 C 379.601 47.247,379.792 47.866,379.973 48.180 C 380.153 48.493,380.355 49.006,380.420 49.319 C 380.485 49.633,380.680 50.120,380.852 50.403 C 381.024 50.685,381.166 51.049,381.166 51.211 C 381.166 51.372,381.238 51.635,381.325 51.794 C 381.412 51.953,381.606 52.383,381.756 52.750 C 381.906 53.117,382.092 53.539,382.169 53.688 C 382.247 53.837,382.361 54.228,382.423 54.557 C 382.484 54.886,382.635 55.238,382.758 55.340 C 382.881 55.442,383.067 55.937,383.172 56.440 C 383.276 56.943,383.468 57.395,383.597 57.445 C 383.727 57.495,383.833 57.685,383.833 57.868 C 383.833 58.172,384.136 58.989,384.514 59.706 C 384.598 59.865,384.667 60.079,384.667 60.181 C 384.667 60.283,384.772 60.603,384.901 60.891 C 385.030 61.180,385.180 61.618,385.235 61.863 C 385.289 62.109,385.446 62.422,385.584 62.560 C 385.721 62.697,385.833 62.916,385.833 63.047 C 385.833 63.177,385.916 63.522,386.018 63.813 L 386.202 64.342 388.629 64.296 L 391.056 64.250 391.207 63.750 C 391.360 63.243,391.603 62.625,391.832 62.161 C 391.901 62.021,392.010 61.665,392.075 61.371 C 392.140 61.078,392.262 60.794,392.346 60.742 C 392.431 60.690,392.500 60.541,392.500 60.412 C 392.500 60.282,392.678 59.781,392.896 59.297 C 393.114 58.813,393.341 58.143,393.400 57.808 C 393.460 57.474,393.617 57.110,393.750 57.000 C 393.883 56.890,394.043 56.526,394.105 56.192 C 394.168 55.857,394.348 55.353,394.506 55.072 C 394.664 54.791,394.845 54.325,394.908 54.038 C 395.013 53.560,395.456 52.488,395.828 51.812 C 395.910 51.663,396.029 51.263,396.093 50.924 C 396.157 50.584,396.386 49.956,396.604 49.528 C 396.821 49.100,396.999 48.581,396.999 48.375 C 397.000 48.169,397.072 48.000,397.160 48.000 C 397.299 48.000,397.833 46.520,397.833 46.136 C 397.833 46.061,396.790 46.000,395.515 46.000 L 393.196 46.000 393.083 46.666 C 393.022 47.032,392.912 47.368,392.840 47.413 C 392.768 47.457,392.433 48.339,392.096 49.372 C 391.759 50.405,391.417 51.372,391.336 51.521 C 391.256 51.670,391.135 52.081,391.069 52.434 C 391.003 52.786,390.851 53.173,390.732 53.292 C 390.613 53.411,390.426 53.962,390.317 54.517 C 390.208 55.071,390.017 55.626,389.893 55.750 C 389.768 55.875,389.667 56.093,389.667 56.235 C 389.667 56.944,388.613 59.222,388.532 58.688 C 388.499 58.471,388.332 58.045,388.162 57.742 C 387.992 57.440,387.799 56.905,387.734 56.554 C 387.668 56.204,387.488 55.692,387.333 55.417 C 387.179 55.142,387.002 54.647,386.940 54.317 C 386.878 53.988,386.679 53.410,386.497 53.034 C 386.315 52.657,386.167 52.211,386.167 52.041 C 386.167 51.872,386.107 51.662,386.034 51.575 C 385.961 51.488,385.760 50.967,385.587 50.417 C 385.414 49.867,385.218 49.342,385.151 49.250 C 385.084 49.158,384.978 48.805,384.914 48.464 C 384.851 48.124,384.697 47.761,384.574 47.659 C 384.451 47.557,384.300 47.141,384.239 46.736 L 384.129 46.000 381.791 46.000 L 379.454 46.000 379.549 46.805 M48.667 46.657 C 48.667 46.825,48.773 47.327,48.903 47.773 C 49.033 48.218,49.266 49.071,49.421 49.667 C 49.577 50.262,49.766 50.900,49.842 51.083 C 49.919 51.267,50.032 51.751,50.094 52.160 C 50.157 52.569,50.264 53.019,50.332 53.160 C 50.897 54.332,50.778 54.898,50.137 54.083 C 49.648 53.462,48.782 53.503,48.390 54.167 C 47.681 55.368,47.567 54.865,47.900 52.000 C 48.158 49.778,48.132 50.065,48.270 47.879 C 48.358 46.489,48.667 45.538,48.667 46.657 M50.831 47.125 C 51.108 47.652,51.570 48.496,51.857 49.000 C 52.145 49.504,52.583 50.292,52.830 50.750 C 53.742 52.440,53.919 52.752,54.012 52.833 C 54.579 53.328,54.266 53.589,53.600 53.177 C 52.878 52.731,52.000 53.103,52.000 53.854 C 52.000 54.210,51.920 54.333,51.690 54.333 C 51.418 54.333,51.354 54.107,51.180 52.542 C 51.071 51.556,50.915 50.487,50.834 50.167 C 50.364 48.309,50.043 46.167,50.236 46.167 C 50.287 46.167,50.555 46.598,50.831 47.125 M326.165 50.433 C 327.153 51.085,327.565 51.516,327.838 52.187 C 327.964 52.497,328.183 52.837,328.324 52.944 C 328.826 53.323,328.684 56.758,328.123 57.789 C 327.313 59.279,325.794 60.500,324.751 60.500 C 324.532 60.500,324.307 60.575,324.250 60.667 C 324.193 60.758,323.893 60.833,323.583 60.833 C 323.273 60.833,322.973 60.758,322.917 60.667 C 322.860 60.575,322.598 60.500,322.333 60.500 C 322.069 60.500,321.807 60.425,321.750 60.333 C 321.693 60.242,321.501 60.167,321.323 60.167 C 321.146 60.167,321.000 60.101,321.000 60.020 C 321.000 59.940,320.789 59.786,320.532 59.680 C 320.274 59.573,319.934 59.267,319.776 58.999 C 319.618 58.731,319.393 58.416,319.276 58.298 C 317.934 56.943,318.401 52.768,320.083 51.083 C 321.429 49.735,324.592 49.397,326.165 50.433 M285.667 56.927 C 285.667 58.268,284.706 59.752,283.500 60.275 C 283.179 60.414,282.786 60.597,282.627 60.681 C 282.230 60.890,279.333 60.878,279.333 60.667 C 279.333 60.575,279.217 60.500,279.074 60.500 C 278.931 60.500,278.594 60.258,278.324 59.963 C 277.473 59.031,277.773 57.000,278.762 57.000 C 278.899 57.000,279.054 56.887,279.106 56.750 C 279.187 56.540,279.715 56.500,282.434 56.500 L 285.667 56.500 285.667 56.927 M374.501 57.125 C 374.503 58.376,373.318 60.167,372.488 60.167 C 372.403 60.167,372.333 60.242,372.333 60.333 C 372.333 60.425,372.150 60.500,371.927 60.500 C 371.703 60.500,371.473 60.575,371.417 60.667 C 371.007 61.329,367.326 60.597,367.074 59.803 C 367.021 59.636,366.908 59.500,366.822 59.500 C 366.737 59.500,366.667 59.087,366.667 58.583 C 366.667 58.079,366.742 57.667,366.833 57.667 C 366.925 57.667,367.000 57.562,367.000 57.433 C 367.000 57.304,367.225 57.121,367.500 57.025 C 367.775 56.929,368.000 56.772,368.000 56.675 C 368.000 56.559,369.087 56.500,371.250 56.500 L 374.500 56.500 374.501 57.125 " stroke="none" fill="#197fbd" fill-rule="evenodd">
</path>
<path id="path1" d="M254.913 15.083 C 254.912 21.958,254.933 24.795,254.958 21.387 C 254.983 17.980,254.983 12.355,254.958 8.887 C 254.933 5.420,254.913 8.208,254.913 15.083 M215.892 26.000 C 215.892 26.779,215.920 27.098,215.955 26.708 C 215.990 26.319,215.990 25.681,215.955 25.292 C 215.920 24.902,215.892 25.221,215.892 26.000 M49.045 32.500 C 49.045 32.912,49.078 33.081,49.118 32.875 C 49.157 32.669,49.157 32.331,49.118 32.125 C 49.078 31.919,49.045 32.087,49.045 32.500 M118.837 39.684 C 117.968 39.772,117.106 39.942,116.920 40.062 C 116.735 40.181,115.890 40.377,115.042 40.497 C 114.194 40.617,113.500 40.779,113.500 40.858 C 113.500 40.936,113.327 41.000,113.117 41.000 C 112.906 41.000,112.662 41.064,112.575 41.143 C 112.488 41.222,111.972 41.372,111.430 41.477 C 110.887 41.581,110.324 41.771,110.180 41.898 C 110.035 42.026,109.654 42.183,109.333 42.247 C 109.013 42.312,108.375 42.539,107.917 42.751 C 107.458 42.964,106.783 43.228,106.417 43.337 C 106.050 43.447,105.675 43.625,105.583 43.733 C 105.492 43.841,105.079 44.029,104.667 44.150 C 104.254 44.272,103.729 44.504,103.500 44.667 C 103.271 44.829,102.765 45.058,102.375 45.174 C 101.985 45.291,101.667 45.479,101.667 45.593 C 101.667 45.707,101.300 45.888,100.852 45.996 C 100.403 46.103,99.893 46.325,99.717 46.489 C 99.542 46.652,99.102 46.884,98.741 47.003 C 98.379 47.122,98.008 47.316,97.917 47.435 C 97.825 47.554,97.375 47.773,96.917 47.923 C 96.458 48.072,96.005 48.294,95.910 48.415 C 95.814 48.536,95.420 48.720,95.032 48.825 C 94.645 48.929,94.085 49.158,93.787 49.334 C 93.489 49.510,92.834 49.739,92.331 49.843 C 91.828 49.947,91.340 50.128,91.246 50.246 C 90.728 50.898,86.667 50.894,86.667 50.242 C 86.667 50.107,86.517 49.868,86.333 49.711 C 85.903 49.343,85.840 47.173,86.250 46.833 C 86.427 46.686,86.500 46.297,86.500 45.500 C 86.500 44.703,86.427 44.314,86.250 44.167 C 86.112 44.053,85.998 43.837,85.995 43.688 C 85.988 43.345,85.606 42.833,85.357 42.833 C 85.252 42.833,85.167 42.755,85.167 42.658 C 85.167 42.562,84.911 42.376,84.599 42.246 C 84.286 42.115,84.005 41.933,83.974 41.840 C 83.942 41.747,83.467 41.590,82.917 41.491 C 82.367 41.391,81.786 41.240,81.627 41.155 C 81.468 41.070,80.977 41.000,80.536 41.000 C 80.094 41.000,79.662 40.928,79.574 40.841 C 79.357 40.624,71.483 40.449,69.417 40.616 L 67.750 40.750 67.628 42.000 C 67.561 42.688,67.429 43.419,67.336 43.625 C 66.905 44.579,66.828 44.802,66.660 45.580 C 66.562 46.036,66.336 46.545,66.157 46.711 C 65.979 46.877,65.833 47.149,65.833 47.315 C 65.833 47.481,65.608 47.927,65.333 48.307 C 65.058 48.687,64.833 49.073,64.833 49.166 C 64.833 49.259,64.646 49.499,64.417 49.698 C 64.187 49.897,64.000 50.129,64.000 50.214 C 64.000 50.427,61.742 52.667,61.527 52.667 C 61.431 52.667,61.254 52.805,61.134 52.974 C 61.015 53.142,60.731 53.379,60.503 53.500 C 60.276 53.621,59.998 53.801,59.884 53.901 C 59.771 54.001,59.563 54.180,59.422 54.298 C 59.282 54.416,59.167 54.577,59.167 54.655 C 59.167 54.880,59.690 55.022,59.896 54.852 C 59.999 54.768,60.516 54.645,61.044 54.580 C 61.572 54.515,62.045 54.395,62.095 54.314 C 62.145 54.233,62.401 54.167,62.663 54.167 C 62.925 54.167,63.164 54.097,63.194 54.013 C 63.225 53.928,64.188 53.772,65.333 53.667 C 66.479 53.561,67.567 53.409,67.750 53.329 C 68.621 52.949,75.726 52.826,78.833 53.137 C 84.749 53.728,85.135 53.791,85.619 54.240 C 85.873 54.474,86.130 54.667,86.190 54.667 C 86.746 54.667,86.598 57.686,86.021 58.108 C 85.696 58.346,85.615 63.256,85.933 63.464 C 86.034 63.529,86.205 63.751,86.313 63.957 C 86.756 64.797,90.816 65.249,91.693 64.556 C 91.816 64.459,92.142 64.327,92.417 64.264 C 92.692 64.200,93.749 63.740,94.765 63.241 C 95.782 62.742,96.701 62.333,96.807 62.333 C 96.913 62.333,97.000 62.275,97.000 62.203 C 97.000 62.132,97.375 61.928,97.833 61.750 C 98.292 61.572,98.667 61.376,98.667 61.315 C 98.667 61.253,98.872 61.151,99.123 61.088 C 99.374 61.025,99.618 60.922,99.665 60.860 C 99.712 60.797,100.162 60.539,100.667 60.286 C 101.877 59.680,102.709 59.218,102.929 59.028 C 103.028 58.943,103.272 58.822,103.471 58.759 C 103.670 58.696,103.833 58.582,103.833 58.507 C 103.833 58.431,104.004 58.327,104.212 58.275 C 104.420 58.222,104.743 58.045,104.929 57.881 C 105.359 57.503,105.814 57.210,106.292 57.004 C 106.498 56.915,106.667 56.765,106.667 56.671 C 106.667 56.577,106.819 56.500,107.005 56.500 C 107.191 56.500,107.387 56.387,107.440 56.250 C 107.492 56.112,107.604 56.000,107.688 56.000 C 107.771 56.000,108.335 55.699,108.940 55.331 C 109.545 54.964,110.211 54.620,110.420 54.568 C 110.629 54.515,110.943 54.339,111.118 54.176 C 111.292 54.014,111.825 53.781,112.301 53.659 C 112.777 53.537,113.167 53.376,113.167 53.302 C 113.167 53.227,113.312 53.167,113.490 53.167 C 113.668 53.167,113.856 53.098,113.908 53.015 C 113.959 52.931,114.320 52.810,114.709 52.747 C 115.098 52.683,115.754 52.493,116.167 52.325 C 116.961 52.000,118.883 51.667,119.957 51.667 C 120.311 51.667,120.671 51.597,120.758 51.511 C 121.010 51.264,123.541 51.174,134.917 51.007 C 145.374 50.853,147.906 50.737,148.136 50.401 C 148.199 50.309,149.037 50.138,150.000 50.021 C 150.962 49.904,151.775 49.739,151.806 49.654 C 151.836 49.569,152.027 49.500,152.231 49.500 C 152.434 49.500,152.671 49.437,152.758 49.360 C 152.845 49.283,153.341 49.129,153.861 49.018 C 154.380 48.907,154.842 48.719,154.887 48.601 C 154.932 48.482,155.314 48.289,155.735 48.171 C 156.156 48.053,156.500 47.910,156.500 47.852 C 156.500 47.794,156.910 47.560,157.412 47.332 C 157.914 47.104,158.326 46.828,158.329 46.720 C 158.331 46.611,158.502 46.469,158.708 46.404 C 158.915 46.339,159.391 46.034,159.767 45.726 C 160.143 45.418,160.492 45.167,160.541 45.167 C 160.933 45.167,162.167 43.572,162.167 43.064 C 162.167 42.937,162.279 42.833,162.417 42.833 C 163.027 42.833,162.716 41.691,162.073 41.570 C 161.294 41.424,160.140 41.585,159.923 41.871 C 159.828 41.995,159.412 42.191,159.000 42.306 C 158.275 42.508,157.721 42.719,157.138 43.013 C 156.985 43.090,156.197 43.245,155.388 43.356 C 154.579 43.468,153.798 43.658,153.654 43.780 C 153.275 44.097,147.390 44.096,147.013 43.779 C 146.868 43.657,145.962 43.464,145.000 43.350 C 144.037 43.236,143.179 43.073,143.092 42.988 C 143.005 42.903,142.761 42.833,142.550 42.833 C 142.339 42.833,142.167 42.769,142.167 42.690 C 142.167 42.610,141.585 42.453,140.875 42.340 C 140.165 42.227,139.471 42.034,139.333 41.912 C 139.196 41.790,138.483 41.576,137.750 41.437 C 135.740 41.055,135.446 40.988,135.083 40.829 C 134.674 40.649,132.562 40.333,131.774 40.333 C 131.455 40.333,131.168 40.254,131.136 40.158 C 130.979 39.687,122.142 39.347,118.837 39.684 M246.375 40.124 C 246.994 40.156,248.006 40.156,248.625 40.124 C 249.244 40.092,248.737 40.065,247.500 40.065 C 246.262 40.065,245.756 40.092,246.375 40.124 M266.542 40.124 C 267.160 40.156,268.173 40.156,268.792 40.124 C 269.410 40.092,268.904 40.065,267.667 40.065 C 266.429 40.065,265.923 40.092,266.542 40.124 M221.392 41.667 C 221.392 42.446,221.420 42.765,221.455 42.375 C 221.490 41.985,221.490 41.348,221.455 40.958 C 221.420 40.569,221.392 40.887,221.392 41.667 M58.460 41.285 C 58.668 41.324,58.968 41.323,59.127 41.281 C 59.286 41.239,59.117 41.207,58.750 41.209 C 58.383 41.211,58.253 41.245,58.460 41.285 M341.065 44.167 C 341.065 45.404,341.092 45.910,341.124 45.292 C 341.156 44.673,341.156 43.660,341.124 43.042 C 341.092 42.423,341.065 42.929,341.065 44.167 M341.073 54.250 C 341.073 56.633,341.096 57.585,341.125 56.365 C 341.153 55.145,341.153 53.195,341.124 52.032 C 341.096 50.868,341.073 51.867,341.073 54.250 M285.542 57.083 C 285.544 57.450,285.578 57.580,285.618 57.373 C 285.658 57.166,285.656 56.866,285.615 56.706 C 285.573 56.547,285.540 56.717,285.542 57.083 " stroke="none" fill="#228B22" fill-rule="evenodd"></path><path id="path2" d="M120.907 17.411 C 120.719 17.554,120.200 17.660,119.667 17.667 C 117.988 17.686,114.743 18.213,114.500 18.506 C 114.454 18.561,113.873 18.702,113.208 18.818 C 112.543 18.935,111.943 19.124,111.875 19.239 C 111.806 19.354,111.290 19.536,110.727 19.645 C 110.165 19.754,109.340 20.028,108.894 20.254 C 108.448 20.480,107.952 20.666,107.790 20.666 C 107.629 20.666,107.142 20.843,106.707 21.059 C 105.159 21.826,103.744 22.468,103.333 22.588 C 103.104 22.655,102.729 22.841,102.500 23.000 C 102.271 23.159,101.896 23.347,101.667 23.417 C 101.438 23.487,101.063 23.671,100.833 23.826 C 100.604 23.981,100.154 24.210,99.833 24.333 C 99.513 24.457,99.058 24.690,98.823 24.851 C 98.588 25.013,98.195 25.195,97.948 25.257 C 97.702 25.319,97.499 25.418,97.498 25.476 C 97.497 25.535,97.178 25.724,96.790 25.895 C 96.401 26.066,95.633 26.415,95.083 26.669 C 94.533 26.923,93.708 27.258,93.250 27.414 C 92.792 27.569,92.301 27.755,92.160 27.828 C 92.019 27.900,91.588 28.012,91.203 28.077 C 90.817 28.142,90.459 28.264,90.408 28.348 C 90.356 28.432,90.056 28.500,89.740 28.500 C 89.425 28.500,89.167 28.575,89.167 28.667 C 89.167 29.276,87.253 28.685,86.477 27.835 C 85.911 27.215,85.743 24.921,86.250 24.727 C 86.598 24.593,86.613 22.199,86.266 22.067 C 86.138 22.017,85.984 21.716,85.924 21.398 C 85.848 20.992,85.693 20.772,85.408 20.663 C 85.183 20.578,85.000 20.440,85.000 20.356 C 85.000 20.158,84.010 19.692,83.305 19.559 C 83.000 19.501,82.635 19.355,82.494 19.234 C 82.190 18.971,79.238 18.667,76.992 18.667 C 76.094 18.667,75.323 18.590,75.223 18.490 C 75.040 18.306,73.309 18.343,68.250 18.637 C 63.439 18.916,62.327 19.031,62.087 19.270 C 61.960 19.397,61.595 19.500,61.274 19.500 C 60.007 19.500,56.470 20.071,56.083 20.338 C 55.992 20.401,55.208 20.547,54.342 20.662 C 53.476 20.777,52.651 20.931,52.509 21.003 C 52.366 21.075,51.913 21.224,51.500 21.334 C 49.233 21.940,49.392 22.345,52.002 22.613 C 54.110 22.830,55.825 23.135,56.083 23.339 C 56.175 23.411,56.531 23.523,56.875 23.587 C 57.219 23.651,57.500 23.770,57.500 23.852 C 57.500 23.933,57.613 24.000,57.750 24.000 C 58.034 24.000,59.958 24.975,60.299 25.292 C 60.423 25.406,60.587 25.500,60.664 25.500 C 60.989 25.500,63.662 28.083,63.986 28.710 C 64.117 28.961,64.323 29.167,64.445 29.167 C 64.567 29.167,64.667 29.257,64.667 29.367 C 64.667 29.477,64.908 29.965,65.202 30.450 L 65.737 31.333 66.859 31.333 C 67.476 31.333,68.027 31.258,68.083 31.167 C 68.141 31.073,68.946 31.000,69.927 31.000 C 70.976 31.000,71.667 30.934,71.667 30.833 C 71.667 30.730,72.556 30.667,74.000 30.667 C 75.344 30.667,76.333 30.733,76.333 30.823 C 76.333 30.909,77.177 31.017,78.208 31.063 C 81.081 31.190,84.500 31.531,84.500 31.690 C 84.500 31.769,84.688 31.833,84.917 31.833 C 85.146 31.833,85.333 31.899,85.333 31.980 C 85.333 32.060,85.557 32.219,85.831 32.332 C 86.717 32.699,86.839 35.114,86.019 36.059 C 85.559 36.589,85.627 41.253,86.101 41.634 C 86.294 41.789,86.494 42.039,86.547 42.189 C 86.803 42.926,92.322 42.826,92.608 42.079 C 92.653 41.962,92.955 41.816,93.278 41.756 C 93.947 41.630,95.000 41.162,95.000 40.991 C 95.000 40.928,95.337 40.782,95.750 40.667 C 96.162 40.551,96.500 40.368,96.500 40.260 C 96.500 40.152,96.867 39.969,97.316 39.854 C 97.764 39.739,98.374 39.466,98.670 39.248 C 98.966 39.029,99.424 38.803,99.687 38.745 C 99.951 38.688,100.167 38.581,100.167 38.509 C 100.167 38.436,100.598 38.174,101.125 37.926 C 102.481 37.287,103.494 36.724,103.825 36.424 C 103.982 36.282,104.192 36.167,104.292 36.167 C 104.392 36.167,104.686 35.992,104.946 35.778 C 105.205 35.564,105.735 35.213,106.125 34.997 C 106.515 34.782,106.833 34.544,106.833 34.469 C 106.833 34.395,106.932 34.333,107.054 34.333 C 107.175 34.333,107.569 34.110,107.929 33.838 C 108.289 33.566,108.672 33.341,108.780 33.338 C 108.888 33.335,109.075 33.236,109.196 33.116 C 109.466 32.851,110.864 32.167,111.136 32.167 C 111.245 32.167,111.333 32.092,111.333 32.000 C 111.333 31.908,111.479 31.833,111.657 31.833 C 111.835 31.833,112.023 31.764,112.075 31.679 C 112.128 31.595,112.395 31.476,112.669 31.416 C 112.943 31.356,113.167 31.238,113.167 31.153 C 113.167 31.069,113.354 31.000,113.583 31.000 C 113.813 31.000,114.000 30.935,114.000 30.855 C 114.000 30.775,114.319 30.661,114.708 30.601 C 115.531 30.476,117.125 30.038,117.528 29.826 C 117.681 29.746,118.506 29.630,119.362 29.568 C 120.217 29.506,121.067 29.377,121.250 29.281 C 121.464 29.168,125.357 29.062,132.167 28.983 C 142.578 28.861,147.545 28.661,148.300 28.333 C 148.510 28.242,148.899 28.167,149.165 28.167 C 149.430 28.167,149.688 28.101,149.738 28.020 C 149.788 27.939,150.316 27.820,150.913 27.757 C 151.509 27.693,152.035 27.578,152.082 27.501 C 152.130 27.425,152.468 27.312,152.833 27.250 C 153.199 27.188,153.541 27.069,153.592 26.985 C 153.644 26.902,153.806 26.833,153.952 26.833 C 154.236 26.833,157.361 25.363,157.500 25.164 C 157.546 25.099,157.752 24.992,157.958 24.928 C 158.165 24.864,158.333 24.741,158.333 24.655 C 158.333 24.570,158.433 24.500,158.554 24.500 C 158.676 24.500,158.951 24.313,159.167 24.083 C 159.382 23.854,159.632 23.667,159.723 23.667 C 159.814 23.667,160.007 23.557,160.153 23.424 C 160.298 23.290,160.733 22.909,161.119 22.576 C 161.506 22.243,161.915 21.715,162.028 21.402 C 162.141 21.089,162.331 20.833,162.450 20.833 C 163.044 20.833,162.685 19.685,162.054 19.567 C 161.256 19.417,159.618 19.727,159.039 20.137 C 158.789 20.315,158.133 20.553,157.583 20.665 C 157.033 20.778,156.508 20.923,156.417 20.989 C 155.347 21.755,146.445 22.018,145.144 21.321 C 144.985 21.236,144.667 21.167,144.437 21.167 C 144.208 21.167,143.980 21.103,143.932 21.024 C 143.883 20.946,143.260 20.784,142.547 20.664 C 141.834 20.544,141.212 20.401,141.167 20.347 C 141.004 20.155,139.900 19.844,138.667 19.642 C 137.979 19.530,137.326 19.348,137.215 19.237 C 137.103 19.127,136.353 18.948,135.548 18.841 C 134.742 18.734,133.933 18.583,133.750 18.505 C 132.832 18.117,129.750 17.674,127.882 17.661 C 127.443 17.658,126.938 17.546,126.760 17.411 C 126.291 17.057,121.376 17.057,120.907 17.411 M48.883 29.500 C 48.883 30.004,48.915 30.210,48.953 29.958 C 48.991 29.706,48.991 29.294,48.953 29.042 C 48.915 28.790,48.883 28.996,48.883 29.500 M59.627 41.285 C 59.834 41.324,60.134 41.323,60.294 41.281 C 60.453 41.239,60.283 41.207,59.917 41.209 C 59.550 41.211,59.420 41.245,59.627 41.285 M337.798 41.624 C 338.375 41.656,339.275 41.656,339.798 41.623 C 340.322 41.590,339.850 41.563,338.750 41.564 C 337.650 41.564,337.222 41.591,337.798 41.624 M281.958 45.618 C 282.165 45.657,282.502 45.657,282.708 45.618 C 282.915 45.578,282.746 45.545,282.333 45.545 C 281.921 45.545,281.752 45.578,281.958 45.618 M304.542 45.615 C 304.702 45.657,304.965 45.657,305.125 45.615 C 305.285 45.573,305.154 45.539,304.833 45.539 C 304.512 45.539,304.381 45.573,304.542 45.615 M323.294 45.618 C 323.501 45.658,323.801 45.656,323.960 45.615 C 324.120 45.573,323.950 45.540,323.583 45.542 C 323.217 45.544,323.086 45.578,323.294 45.618 M370.960 45.618 C 371.168 45.658,371.468 45.656,371.627 45.615 C 371.786 45.573,371.617 45.540,371.250 45.542 C 370.883 45.544,370.753 45.578,370.960 45.618 M289.987 51.625 C 290.066 52.200,290.078 52.212,290.133 51.771 C 290.166 51.508,290.127 51.227,290.047 51.147 C 289.963 51.063,289.937 51.267,289.987 51.625 M47.705 54.000 C 47.705 54.321,47.740 54.452,47.782 54.292 C 47.823 54.131,47.823 53.869,47.782 53.708 C 47.740 53.548,47.705 53.679,47.705 54.000 " stroke="none" fill="#ffa500" fill-rule="evenodd"></path></g></svg>