<svg version="1.2" xmlns="http://www.w3.org/2000/svg" viewBox="0 0 1498 386" width="1498" height="386">
	<title>logo svg-svg</title>
	<style>
		.s0 { fill: none;stroke: #9e9e9e;stroke-linejoin: bevel;stroke-width: 2.1 } 
		.s1 { fill: #848281 } 
		.s2 { fill: #197fbd } 
		.s3 { fill: #a4a2a1 } 
	</style>
	<g id="Layer_x0020_1">
		<g id="_2490333523424">
			<path id="Layer" fill-rule="evenodd" class="s0" d="m1461.5 8.3c16.1 0 29.1 14.5 29.1 32.5 0 17.9-13 32.5-29.1 32.5-16 0-29.1-14.6-29.1-32.5 0-18 13.1-32.5 29.1-32.5z"/>
			<g id="Layer">
				<path id="Layer" fill-rule="evenodd" class="s1" d="m50.5 353.1q0 0.7 0 1.3 0 0.6-0.1 1-0.1 0.4-0.3 0.7-0.2 0.4-0.6 0.8-0.4 0.5-1.8 1.5-1.3 0.9-3.3 1.8-2 1-4.6 1.6-2.6 0.6-5.6 0.6-5.3 0-9.6-1.9-4.2-2-7.3-5.8-3-3.9-4.6-9.5-1.6-5.7-1.6-13 0-7.6 1.7-13.5 1.8-5.9 4.9-10 3.2-4.1 7.6-6.2 4.4-2.2 9.7-2.2 2.4 0 4.6 0.5 2.2 0.5 4.1 1.3 1.9 0.7 3.4 1.7 1.4 1 2 1.6 0.6 0.6 0.7 1 0.2 0.3 0.3 0.7 0.1 0.5 0.2 1.1 0 0.6 0 1.4 0 1 0 1.6-0.1 0.7-0.3 1.1-0.2 0.5-0.4 0.7-0.2 0.2-0.6 0.2-0.6 0-1.6-0.9-1-0.9-2.7-2-1.7-1.1-4.1-2-2.3-0.9-5.6-0.9-3.7-0.1-6.6 1.6-3 1.6-5.1 4.7-2.1 3.2-3.2 7.7-1.2 4.5-1.2 10.3 0 5.8 1.1 10.2 1.1 4.4 3.2 7.4 2.1 3 5.1 4.5 3 1.5 6.9 1.5 3.2 0 5.6-0.9 2.4-0.9 4.1-2 1.7-1.1 2.8-2 1.1-0.9 1.7-0.9 0.3 0 0.6 0.2 0.2 0.1 0.3 0.5 0.1 0.4 0.2 1.1 0 0.7 0 1.8zm44-14.1q0 5.1-1.3 9.4-1.2 4.4-3.6 7.5-2.4 3.2-6 4.9-3.7 1.8-8.4 1.8-4.7 0-8.2-1.6-3.4-1.5-5.8-4.5-2.2-2.9-3.4-7.2-1.1-4.2-1.1-9.5 0-5.2 1.2-9.5 1.2-4.3 3.6-7.5 2.4-3.1 6-4.8 3.6-1.8 8.4-1.8 4.7 0 8.2 1.6 3.4 1.5 5.8 4.5 2.3 2.9 3.4 7.1 1.2 4.3 1.2 9.6zm-7.3 0.5q0-3.4-0.6-6.5-0.6-3-1.9-5.3-1.3-2.3-3.5-3.7-2.2-1.3-5.5-1.3-3.1 0-5.3 1.2-2.2 1.2-3.6 3.5-1.5 2.2-2.2 5.2-0.7 3.1-0.7 6.7 0 3.4 0.6 6.5 0.6 3 1.9 5.3 1.3 2.3 3.5 3.6 2.3 1.4 5.6 1.3 3 0 5.2-1.2 2.3-1.2 3.7-3.4 1.4-2.2 2.1-5.2 0.7-3.1 0.7-6.7zm73.5 21q0 0.4-0.1 0.6-0.2 0.3-0.6 0.5-0.3 0.2-1 0.3-0.7 0.1-1.7 0.1-1 0-1.7-0.1-0.7-0.1-1.1-0.3-0.4-0.2-0.5-0.5-0.2-0.2-0.2-0.6v-25.6q0-2.7-0.4-4.9-0.5-2.2-1.4-3.8-0.9-1.6-2.3-2.4-1.5-0.9-3.4-0.9-2.4 0-4.8 2.1-2.4 2.1-5.3 6v29.5q0 0.4-0.2 0.6-0.2 0.3-0.6 0.5-0.3 0.2-1 0.3-0.7 0.1-1.7 0.1-1 0-1.7-0.1-0.7-0.1-1.1-0.3-0.4-0.2-0.5-0.5-0.1-0.2-0.1-0.6v-25.6q-0.1-2.7-0.5-4.9-0.5-2.2-1.4-3.8-0.9-1.6-2.3-2.4-1.4-0.9-3.4-0.9-2.4 0-4.8 2.1-2.4 2.1-5.3 6v29.5q0 0.4-0.2 0.6-0.1 0.3-0.5 0.5-0.4 0.2-1 0.3-0.7 0.1-1.8 0.1-1 0-1.7-0.1-0.6-0.1-1-0.3-0.4-0.2-0.6-0.5-0.1-0.2-0.1-0.6v-42.1q0-0.4 0.1-0.7 0.1-0.2 0.5-0.4 0.4-0.3 1-0.3 0.6-0.1 1.5-0.1 1 0 1.6 0.1 0.6 0 0.9 0.3 0.3 0.2 0.5 0.4 0.1 0.3 0.1 0.7v5.5q3.2-3.9 6.2-5.8 3-1.9 6.1-1.9 2.4 0 4.2 0.7 1.9 0.6 3.3 1.7 1.5 1.1 2.5 2.6 1 1.5 1.6 3.4 1.9-2.3 3.6-3.9 1.7-1.6 3.3-2.6 1.6-1 3.1-1.4 1.5-0.5 3-0.5 3.6 0 6.1 1.5 2.5 1.4 4 3.8 1.6 2.4 2.2 5.6 0.6 3.2 0.6 6.8zm47.5-21.8q0 5.6-1.1 9.9-1.1 4.5-3.1 7.5-2.1 3.1-5.2 4.8-3.1 1.6-7 1.6-1.7 0-3.1-0.4-1.5-0.3-2.8-1.1-1.4-0.8-2.7-2-1.4-1.3-2.9-2.9v21.1q0 0.3-0.1 0.6-0.2 0.3-0.6 0.5-0.4 0.2-1 0.3-0.7 0.1-1.8 0.1-1 0-1.6-0.1-0.7-0.1-1.1-0.3-0.4-0.2-0.5-0.5-0.2-0.3-0.2-0.6v-58.9q0-0.4 0.1-0.7 0.2-0.2 0.5-0.4 0.4-0.2 1-0.3 0.6 0 1.4 0 0.9 0 1.5 0 0.5 0.1 0.9 0.3 0.4 0.2 0.5 0.4 0.2 0.3 0.2 0.7v5.7q1.7-2 3.3-3.4 1.6-1.5 3.2-2.4 1.6-1 3.3-1.5 1.7-0.5 3.6-0.5 4.1 0 7 1.8 2.9 1.8 4.8 4.8 1.8 3.1 2.6 7.2 0.9 4.1 0.9 8.7zm-7.3 0.9q0-3.2-0.5-6.2-0.4-3.1-1.5-5.4-1.1-2.3-2.9-3.7-1.8-1.4-4.5-1.5-1.3 0-2.6 0.5-1.3 0.4-2.6 1.4-1.4 1-2.9 2.5-1.4 1.6-3.1 3.9v16.8q2.9 3.8 5.5 5.9 2.5 2.1 5.3 2.1 2.6 0 4.5-1.4 1.9-1.4 3-3.8 1.2-2.3 1.7-5.2 0.6-2.9 0.6-5.9zm24.6 20.9q0 0.3-0.2 0.6-0.1 0.2-0.5 0.4-0.4 0.2-1 0.3-0.7 0.1-1.8 0.1-1 0-1.7-0.1-0.6-0.1-1-0.3-0.4-0.2-0.6-0.4-0.1-0.3-0.1-0.6v-62.6q0-0.4 0.1-0.7 0.2-0.2 0.6-0.4 0.4-0.2 1-0.3 0.7-0.1 1.7-0.1 1.1 0 1.8 0.1 0.6 0.1 1 0.3 0.4 0.2 0.5 0.4 0.2 0.3 0.2 0.7zm19.8 0q0 0.4-0.2 0.6-0.2 0.3-0.6 0.5-0.3 0.2-1 0.3-0.7 0.1-1.7 0.1-1 0-1.7-0.1-0.7-0.1-1.1-0.3-0.4-0.2-0.5-0.5-0.2-0.2-0.2-0.6v-42.1q0-0.4 0.2-0.7 0.1-0.2 0.5-0.4 0.4-0.2 1.1-0.3 0.7-0.1 1.7-0.1 1 0 1.7 0.1 0.7 0.1 1 0.3 0.4 0.2 0.6 0.4 0.2 0.3 0.2 0.7zm0.8-56.4q0 2.7-1 3.7-0.9 0.9-3.4 0.9-2.4 0-3.3-0.9-0.9-1-0.9-3.6 0-2.8 0.9-3.7 0.9-1 3.4-1 2.5 0 3.3 0.9 0.9 1 1 3.7zm40.5 56.4q0 0.6-0.4 0.8-0.3 0.3-0.9 0.5-0.6 0.1-1.7 0.1-1.1 0-1.8-0.1-0.6-0.2-0.9-0.5-0.3-0.2-0.3-0.8v-4.2q-2.5 2.9-5.5 4.6-3.1 1.6-6.5 1.6-3 0-5.4-0.9-2.4-0.8-4.1-2.5-1.7-1.6-2.7-4-0.9-2.4-0.9-5.4 0-3.6 1.3-6.2 1.3-2.6 3.7-4.4 2.5-1.7 6-2.6 3.5-0.8 7.9-0.8h5.3v-3.3q0-2.4-0.5-4.3-0.5-1.9-1.5-3.1-1-1.3-2.7-1.9-1.6-0.6-4-0.6-2.6 0-4.6 0.6-2 0.7-3.6 1.5-1.5 0.9-2.5 1.6-1.1 0.6-1.6 0.6-0.3 0-0.6-0.2-0.2-0.1-0.4-0.5-0.2-0.4-0.3-1-0.1-0.6-0.1-1.3 0.1-1.1 0.2-1.8 0.1-0.7 0.7-1.3 0.6-0.6 2-1.4 1.3-0.8 3.2-1.5 1.8-0.7 3.9-1.2 2.1-0.4 4.3-0.4 4.1 0 7 1 2.8 1.1 4.6 3.1 1.7 1.9 2.5 4.9 0.8 2.9 0.8 6.9zm-6.8-19.3h-6q-2.8 0-4.9 0.5-2.1 0.6-3.5 1.6-1.4 1.1-2 2.6-0.7 1.4-0.7 3.4 0 3.2 1.9 5.2 1.8 1.9 5.2 1.9 2.7 0 5.1-1.5 2.3-1.6 4.9-4.7zm52.1 19.2q0 0.3-0.1 0.6-0.2 0.2-0.6 0.4-0.4 0.2-1 0.3-0.7 0.1-1.7 0.1-1.1 0-1.7-0.1-0.7-0.1-1.1-0.3-0.4-0.2-0.5-0.4-0.2-0.3-0.2-0.6v-24.7q0-3.6-0.5-5.8-0.5-2.2-1.5-3.8-0.9-1.6-2.5-2.5-1.5-0.8-3.5-0.8-2.6 0-5.2 2.1-2.7 2-5.5 6v29.5q0 0.3-0.2 0.6-0.1 0.2-0.5 0.4-0.4 0.2-1.1 0.3-0.6 0.1-1.7 0.1-1 0-1.7-0.1-0.6-0.1-1-0.3-0.4-0.2-0.6-0.4-0.1-0.3-0.1-0.6v-42.2q0-0.4 0.1-0.6 0.1-0.3 0.5-0.5 0.4-0.2 1-0.3 0.6 0 1.5-0.1 0.9 0.1 1.6 0.1 0.6 0.1 0.9 0.3 0.3 0.2 0.5 0.5 0.1 0.2 0.1 0.6v5.6q3.2-4 6.4-5.9 3.2-1.8 6.4-1.8 3.8 0 6.4 1.4 2.5 1.5 4.1 3.8 1.6 2.4 2.3 5.6 0.7 3.2 0.7 7.7zm39.8-6.4q0 0.8 0 1.4-0.1 0.6-0.2 1-0.1 0.4-0.2 0.7-0.1 0.3-0.7 0.9-0.5 0.6-1.8 1.4-1.2 0.9-2.8 1.6-1.6 0.7-3.4 1.1-1.9 0.4-3.9 0.4-4 0-7.2-1.5-3.1-1.5-5.2-4.4-2.2-2.9-3.3-7.1-1.1-4.2-1.1-9.6 0-6.3 1.4-10.7 1.3-4.5 3.7-7.4 2.4-2.8 5.6-4.2 3.2-1.4 6.9-1.4 1.9 0 3.6 0.4 1.7 0.4 3.1 1 1.4 0.6 2.5 1.4 1.1 0.8 1.6 1.3 0.6 0.6 0.7 0.9 0.2 0.4 0.3 0.8 0.2 0.5 0.2 1 0.1 0.6 0.1 1.4 0 1.8-0.4 2.6-0.4 0.7-0.9 0.7-0.7 0-1.5-0.8-0.8-0.8-2.1-1.7-1.2-0.9-3-1.7-1.8-0.8-4.2-0.8-5 0-7.7 4.3-2.7 4.3-2.7 12.4 0 4.1 0.7 7.2 0.7 3.1 2.1 5.1 1.3 2.1 3.3 3.1 1.9 1 4.4 1 2.4 0 4.2-0.9 1.8-0.8 3.2-1.8 1.3-1 2.2-1.8 0.9-0.8 1.4-0.8 0.3 0 0.5 0.1 0.2 0.2 0.4 0.7 0.1 0.4 0.2 1.1 0 0.7 0 1.6zm41.5-16.5q0 1.9-0.8 2.6-0.8 0.8-1.9 0.8h-24.8q0 3.5 0.6 6.3 0.7 2.8 2.2 4.8 1.4 2.1 3.8 3.1 2.3 1.1 5.7 1.1 2.7 0 4.8-0.5 2.1-0.5 3.6-1.1 1.6-0.6 2.6-1.1 0.9-0.5 1.5-0.5 0.3 0 0.5 0.2 0.2 0.2 0.3 0.5 0.2 0.3 0.2 0.9 0.1 0.6 0.1 1.4 0 0.6-0.1 1.1 0 0.4-0.1 0.8 0 0.3-0.2 0.6-0.1 0.3-0.3 0.5-0.3 0.3-1.4 0.9-1.1 0.6-3 1.1-1.8 0.6-4.1 1-2.4 0.5-5.1 0.5-4.7 0-8.2-1.5-3.5-1.4-5.9-4.3-2.4-2.8-3.6-7.1-1.2-4.4-1.2-10.1 0-5.4 1.3-9.7 1.2-4.3 3.6-7.4 2.4-3 5.7-4.6 3.4-1.6 7.6-1.6 4.4 0 7.5 1.6 3.2 1.6 5.2 4.3 2 2.6 2.9 6.3 1 3.6 1 7.7zm-7-2.3q0.2-6.1-2.4-9.5-2.5-3.5-7.5-3.5-2.6 0-4.5 1.1-2 1.1-3.3 2.8-1.3 1.8-2 4.2-0.7 2.4-0.8 4.9zm35.1 10.4q0-2.5 0.6-4.9 0.6-2.3 2-4.5 1.3-2.1 3.5-4.2 2.2-2 5.2-4.1-1.7-2.5-2.9-4.6-1.2-2-1.9-3.8-0.8-1.8-1.2-3.4-0.3-1.6-0.3-3.3 0-2.9 0.9-5.5 0.9-2.6 2.8-4.7 2-2 5-3.2 3.1-1.2 7.5-1.2 3.7 0 6.4 0.9 2.7 0.9 4.5 2.5 1.8 1.6 2.7 4 0.9 2.3 0.9 5.1 0 2.8-0.8 5.1-0.8 2.3-2.6 4.4-1.7 2.2-4.5 4.3-2.7 2.2-6.7 4.5 1.5 1.9 3.2 4 1.6 2.1 3.5 4.2 1.8 2.1 3.7 4.1 1.9 2.1 3.8 4 0.8-1.3 1.5-2.9 0.6-1.6 1.2-3.5 0.4-1.7 0.7-3.6 0.3-1.9 0.3-3.8v-1.7q0-0.5 0.1-0.8 0.1-0.3 0.5-0.5 0.3-0.2 1-0.3 0.6-0.1 1.7-0.1 0.9 0 1.5 0.1 0.7 0 1.1 0.2 0.4 0.1 0.6 0.5 0.2 0.3 0.2 1v1.1q0 2.6-0.4 5.2-0.4 2.5-1.1 4.9-0.7 2.4-1.7 4.6-1 2.2-2.3 4.1 1.9 1.7 3.3 2.8 1.4 1.1 2.4 1.8 1 0.7 1.6 1 0.7 0.3 1.1 0.3 0.4 0 0.8 0 0.4-0.1 0.6 0.1 0.3 0.2 0.4 0.7 0.1 0.6 0.1 1.8 0 1.1 0 1.8-0.1 0.7-0.2 1.1-0.1 0.4-0.3 0.6-0.3 0.2-1 0.4-0.6 0.2-1.7 0.2-0.9 0-1.9-0.3-1-0.4-2.3-1.2-1.4-0.8-3.2-2.2-1.7-1.4-4.1-3.6-1.8 1.6-3.8 3-1.9 1.3-4.1 2.3-2.2 1-4.6 1.5-2.4 0.5-5.3 0.5-2.6 0-5-0.5-2.3-0.5-4.4-1.5-2-0.9-3.6-2.4-1.6-1.4-2.7-3.3-1.1-1.8-1.7-4.1-0.6-2.3-0.6-5zm12.4-33.4q0 1.3 0.3 2.6 0.3 1.3 0.9 2.8 0.7 1.4 1.6 3 1 1.7 2.3 3.7 3.1-1.9 5.1-3.6 2.1-1.6 3.4-3.1 1.2-1.5 1.8-3 0.6-1.5 0.6-3.2 0-1.3-0.5-2.6-0.4-1.2-1.4-2.2-0.9-0.9-2.4-1.5-1.5-0.5-3.5-0.5-2.3 0-3.8 0.6-1.5 0.6-2.5 1.7-1 1-1.5 2.4-0.4 1.4-0.4 2.9zm-4.9 32.6q0 2.5 0.7 4.5 0.8 2 2.2 3.5 1.4 1.4 3.6 2.3 2.1 0.8 4.9 0.8 1.7 0 3.4-0.4 1.6-0.4 3.1-1.1 1.5-0.7 2.8-1.6 1.4-1 2.5-2.1-2.2-2.1-4.3-4.4-2.2-2.2-4.2-4.5-2-2.3-3.9-4.6-1.9-2.3-3.4-4.4-2.1 1.5-3.5 3-1.4 1.4-2.3 2.9-0.8 1.5-1.2 3-0.4 1.5-0.4 3.1z"/>
				<path id="Layer" fill-rule="evenodd" class="s1" d="m562.7 358.8q0.3 1 0.3 1.7 0.1 0.6-0.3 0.9-0.3 0.4-1.1 0.5-0.8 0.1-2.1 0.1-1.3 0-2-0.1-0.8-0.1-1.2-0.2-0.4-0.2-0.6-0.5-0.2-0.3-0.4-0.7l-4.6-14.8h-22.6l-4.5 14.6q-0.1 0.4-0.3 0.7-0.2 0.3-0.6 0.6-0.4 0.2-1.2 0.3-0.7 0.1-1.9 0.1-1.2 0-2-0.2-0.7-0.1-1-0.4-0.4-0.3-0.3-1 0-0.6 0.3-1.6l18.2-56.3q0.2-0.5 0.5-0.9 0.3-0.3 0.8-0.5 0.5-0.2 1.3-0.2 0.8-0.1 2.1-0.1 1.3 0 2.2 0.1 0.9 0 1.5 0.2 0.5 0.2 0.8 0.6 0.3 0.3 0.5 0.8zm-23.4-49.6h-0.1l-9.3 30.2h18.8zm66.5 29.6q0 5.5-1.1 9.9-1 4.4-3.1 7.5-2.1 3.1-5.2 4.7-3 1.7-7 1.7-1.7 0-3.1-0.4-1.4-0.4-2.8-1.2-1.4-0.7-2.7-2-1.3-1.2-2.8-2.8v21.1q0 0.3-0.2 0.6-0.2 0.3-0.6 0.5-0.3 0.2-1 0.3-0.7 0-1.7 0-1 0-1.7 0-0.7-0.1-1.1-0.3-0.4-0.2-0.5-0.5-0.2-0.3-0.2-0.6v-58.9q0-0.4 0.1-0.7 0.2-0.2 0.6-0.4 0.3-0.2 0.9-0.3 0.6-0.1 1.4-0.1 0.9 0 1.5 0.1 0.6 0.1 0.9 0.3 0.4 0.2 0.6 0.4 0.1 0.3 0.1 0.7v5.7q1.7-2 3.3-3.5 1.6-1.4 3.3-2.4 1.6-0.9 3.3-1.4 1.7-0.5 3.6-0.5 4.1 0 7 1.8 2.9 1.7 4.7 4.8 1.8 3.1 2.7 7.2 0.8 4.1 0.8 8.7zm-7.3 0.9q0-3.2-0.4-6.3-0.5-3-1.6-5.3-1-2.4-2.8-3.8-1.8-1.4-4.5-1.4-1.4 0-2.7 0.5-1.3 0.4-2.6 1.4-1.4 0.9-2.8 2.5-1.5 1.6-3.1 3.9v16.7q2.8 3.9 5.4 6 2.5 2 5.4 2 2.6 0 4.4-1.4 1.9-1.4 3.1-3.7 1.1-2.4 1.6-5.3 0.6-2.9 0.6-5.8zm52.5-0.9q0 5.5-1.1 9.9-1.1 4.4-3.1 7.5-2.1 3.1-5.2 4.7-3 1.7-7 1.7-1.7 0-3.1-0.4-1.4-0.4-2.8-1.2-1.4-0.7-2.7-2-1.4-1.2-2.9-2.8v21.1q0 0.3-0.1 0.6-0.2 0.3-0.6 0.5-0.4 0.2-1 0.3-0.7 0-1.8 0-0.9 0-1.6 0-0.7-0.1-1.1-0.3-0.4-0.2-0.5-0.5-0.2-0.3-0.2-0.6v-58.9q0-0.4 0.1-0.7 0.2-0.2 0.5-0.4 0.4-0.2 1-0.3 0.6-0.1 1.4-0.1 0.9 0 1.5 0.1 0.6 0.1 0.9 0.3 0.4 0.2 0.6 0.4 0.1 0.3 0.1 0.7v5.7q1.7-2 3.3-3.5 1.6-1.4 3.2-2.4 1.7-0.9 3.3-1.4 1.8-0.5 3.6-0.5 4.2 0 7.1 1.8 2.9 1.7 4.7 4.8 1.8 3.1 2.6 7.2 0.9 4.1 0.9 8.7zm-7.3 0.9q0-3.2-0.5-6.3-0.4-3-1.5-5.3-1-2.4-2.9-3.8-1.8-1.4-4.4-1.4-1.4 0-2.7 0.5-1.3 0.4-2.6 1.4-1.4 0.9-2.9 2.5-1.4 1.6-3.1 3.9v16.7q2.9 3.9 5.5 6 2.5 2 5.3 2 2.6 0 4.5-1.4 1.9-1.4 3-3.7 1.2-2.4 1.7-5.3 0.6-2.9 0.6-5.8zm39.8-18.6q0 1.1-0.1 1.8 0 0.7-0.1 1.1-0.1 0.4-0.3 0.6-0.2 0.2-0.6 0.2-0.3 0-0.8-0.2-0.5-0.2-1.1-0.4-0.6-0.2-1.3-0.4-0.8-0.2-1.7-0.2-1 0-2 0.5-1 0.4-2.1 1.5-1.2 1.1-2.4 2.9-1.2 1.7-2.7 4.3v27.7q0 0.4-0.1 0.7-0.2 0.2-0.6 0.4-0.4 0.2-1 0.3-0.7 0.1-1.8 0.1-1 0-1.6-0.1-0.7-0.1-1.1-0.3-0.4-0.2-0.5-0.4-0.2-0.3-0.2-0.7v-42.1q0-0.4 0.1-0.7 0.2-0.2 0.5-0.4 0.4-0.2 1-0.3 0.6-0.1 1.5-0.1 1 0 1.6 0.1 0.6 0.1 0.9 0.3 0.4 0.2 0.5 0.4 0.2 0.3 0.2 0.7v6.1q1.5-2.5 2.9-4.1 1.3-1.6 2.6-2.5 1.2-0.9 2.4-1.3 1.2-0.3 2.4-0.3 0.5 0 1.2 0.1 0.7 0 1.5 0.2 0.7 0.2 1.3 0.4 0.7 0.3 0.9 0.5 0.3 0.2 0.3 0.4 0.1 0.2 0.2 0.6 0.1 0.3 0.1 0.9 0 0.7 0 1.7zm41.7 17.9q0 5.1-1.3 9.5-1.2 4.3-3.6 7.4-2.4 3.2-6 4.9-3.7 1.8-8.5 1.8-4.6 0-8.1-1.6-3.5-1.5-5.8-4.4-2.3-3-3.4-7.2-1.1-4.2-1.1-9.6 0-5.1 1.1-9.4 1.3-4.4 3.7-7.5 2.4-3.2 6-4.9 3.6-1.7 8.4-1.7 4.7 0 8.2 1.5 3.4 1.6 5.7 4.5 2.3 3 3.5 7.2 1.2 4.2 1.2 9.5zm-7.3 0.5q-0.1-3.4-0.6-6.5-0.6-3-1.9-5.3-1.3-2.3-3.5-3.6-2.2-1.4-5.6-1.4-3 0-5.2 1.3-2.2 1.2-3.7 3.4-1.4 2.2-2.1 5.3-0.7 3-0.7 6.6 0 3.5 0.6 6.5 0.5 3.1 1.9 5.3 1.3 2.3 3.5 3.6 2.3 1.4 5.6 1.4 3 0 5.2-1.2 2.3-1.3 3.7-3.5 1.4-2.2 2.1-5.2 0.7-3 0.7-6.7zm48.1-21.2q0 0.2 0 0.4-0.1 0.2-0.1 0.4 0 0.3-0.1 0.5-0.1 0.3-0.1 0.7l-12.9 40q-0.2 0.5-0.5 0.8-0.3 0.4-0.8 0.6-0.6 0.1-1.4 0.2-0.8 0.1-2.1 0.1-1.2 0-2.1-0.1-0.8-0.1-1.4-0.3-0.5-0.2-0.8-0.5-0.3-0.3-0.4-0.8l-12.9-40q-0.2-0.6-0.3-1-0.1-0.5-0.1-0.7 0-0.2 0-0.3 0-0.4 0.2-0.7 0.1-0.3 0.5-0.4 0.4-0.2 1.1-0.2 0.6-0.1 1.6-0.1 1.2 0 1.9 0.1 0.8 0.1 1.2 0.3 0.4 0.1 0.6 0.4 0.2 0.3 0.3 0.7l10.7 34.8 0.2 0.5 0.1-0.5 10.5-34.8q0.1-0.4 0.3-0.7 0.2-0.3 0.6-0.4 0.4-0.2 1.1-0.3 0.7-0.1 1.9-0.1 0.9 0 1.5 0.1 0.7 0 1 0.2 0.4 0.2 0.5 0.5 0.2 0.2 0.2 0.6zm35.1 42.3q0 0.5-0.4 0.8-0.3 0.3-0.9 0.4-0.6 0.2-1.7 0.2-1.1 0-1.8-0.2-0.6-0.1-0.9-0.4-0.3-0.3-0.3-0.8v-4.2q-2.5 2.9-5.5 4.5-3.1 1.7-6.5 1.7-3 0-5.4-0.9-2.4-0.8-4.1-2.5-1.7-1.6-2.6-4-1-2.4-1-5.4 0-3.6 1.3-6.2 1.3-2.6 3.8-4.4 2.4-1.7 5.9-2.6 3.6-0.8 8-0.8h5.2v-3.3q0-2.5-0.5-4.3-0.5-1.9-1.5-3.1-1-1.3-2.7-1.9-1.6-0.6-4-0.6-2.5 0-4.6 0.6-2 0.7-3.6 1.5-1.5 0.8-2.5 1.5-1 0.7-1.6 0.7-0.3 0-0.5-0.2-0.3-0.2-0.5-0.5-0.2-0.4-0.3-1 0-0.6 0-1.3 0-1.2 0.1-1.8 0.2-0.7 0.7-1.3 0.6-0.6 2-1.5 1.4-0.8 3.2-1.5 1.8-0.6 3.9-1.1 2.2-0.4 4.4-0.4 4 0 6.9 1 2.8 1 4.6 3 1.8 2 2.6 5 0.8 2.9 0.8 6.8zm-6.9-19.2h-6q-2.8 0-4.9 0.5-2.1 0.6-3.5 1.6-1.4 1.1-2 2.6-0.7 1.4-0.7 3.3 0 3.3 1.9 5.3 1.9 1.9 5.2 1.9 2.7 0 5.1-1.5 2.3-1.6 4.9-4.8zm26.5 19.2q0 0.4-0.2 0.7-0.1 0.2-0.5 0.4-0.4 0.2-1 0.3-0.7 0.1-1.8 0.1-1 0-1.7-0.1-0.6-0.1-1-0.3-0.4-0.2-0.6-0.4-0.1-0.3-0.1-0.7v-62.5q0-0.4 0.1-0.7 0.2-0.3 0.6-0.5 0.4-0.1 1-0.2 0.7-0.1 1.7-0.1 1.1 0 1.8 0.1 0.6 0.1 1 0.2 0.4 0.2 0.5 0.5 0.2 0.3 0.2 0.7zm36.6-11.5q0 3.2-1.1 5.7-1.1 2.6-3.1 4.3-1.9 1.7-4.7 2.6-2.7 0.9-6 0.9-2 0-3.8-0.3-1.8-0.4-3.3-0.9-1.4-0.5-2.5-1.1-1-0.6-1.4-1.1-0.5-0.5-0.7-1.3-0.2-0.8-0.2-2.3 0-0.9 0.1-1.5 0.1-0.6 0.2-1 0.1-0.4 0.4-0.5 0.2-0.2 0.5-0.2 0.4 0 1.3 0.7 0.9 0.6 2.3 1.3 1.3 0.8 3.1 1.4 1.8 0.7 4.2 0.6 1.7 0 3.1-0.4 1.5-0.4 2.5-1.2 1.1-0.8 1.6-2.1 0.6-1.3 0.6-3 0-1.8-0.8-3-0.8-1.2-2.2-2.1-1.3-1-3-1.7-1.7-0.7-3.5-1.5-1.8-0.8-3.5-1.8-1.7-1-3-2.5-1.3-1.5-2.2-3.5-0.8-2-0.8-4.8 0-2.5 0.9-4.7 0.8-2.3 2.6-4 1.7-1.7 4.3-2.7 2.6-1.1 6-1.1 1.5 0 3 0.3 1.5 0.3 2.8 0.7 1.2 0.4 2 0.9 0.9 0.5 1.3 0.9 0.5 0.4 0.6 0.6 0.2 0.3 0.2 0.7 0.1 0.3 0.2 0.8 0 0.5 0 1.3 0 0.8 0 1.4-0.1 0.6-0.2 0.9-0.2 0.4-0.4 0.6-0.2 0.1-0.5 0.1-0.3 0-1.1-0.5-0.7-0.5-1.8-1.1-1.1-0.6-2.7-1.1-1.5-0.5-3.5-0.5-1.7 0-3.1 0.5-1.3 0.4-2.2 1.2-0.9 0.8-1.3 2-0.4 1.1-0.4 2.4 0 1.8 0.8 3.1 0.8 1.2 2.2 2.1 1.3 1 3 1.7 1.8 0.8 3.6 1.6 1.7 0.8 3.5 1.8 1.7 0.9 3.1 2.3 1.3 1.5 2.1 3.4 0.9 2 0.9 4.7zm50-48q0 0.9-0.1 1.4-0.1 0.6-0.1 0.9-0.2 0.3-0.3 0.4-0.2 0.2-0.4 0.2-0.3-0.1-0.8-0.3-0.4-0.2-1.1-0.4-0.6-0.3-1.4-0.5-0.9-0.2-2-0.2-1.6 0-2.7 0.6-1.1 0.5-1.8 1.7-0.6 1.2-0.9 3.1-0.3 1.9-0.3 4.6v4.6h8.4q0.4 0 0.6 0.2 0.2 0.1 0.4 0.5 0.2 0.4 0.3 1 0.1 0.7 0.1 1.5 0 1.7-0.4 2.5-0.3 0.7-1 0.7h-8.4v37q0 0.3-0.2 0.6-0.1 0.3-0.5 0.4-0.4 0.2-1.1 0.3-0.7 0.1-1.7 0.1-1 0-1.7-0.1-0.6-0.1-1.1-0.3-0.3-0.1-0.5-0.4-0.2-0.3-0.2-0.6v-37h-5.3q-0.7 0-1-0.7-0.4-0.8-0.4-2.5 0-0.8 0.1-1.5 0.1-0.6 0.3-1 0.1-0.4 0.4-0.5 0.3-0.2 0.6-0.2h5.3v-4.4q0-4.3 0.7-7.5 0.8-3.2 2.3-5.2 1.5-2 3.8-3 2.3-0.9 5.4-0.9 1.5 0 2.9 0.3 1.3 0.3 2.1 0.6 0.8 0.4 1 0.7 0.3 0.3 0.4 0.7 0.2 0.4 0.3 1.1 0 0.6 0 1.5zm38.9 37.9q0 5.2-1.2 9.5-1.2 4.3-3.6 7.5-2.5 3.1-6.1 4.9-3.6 1.7-8.4 1.7-4.7 0-8.1-1.5-3.5-1.6-5.8-4.5-2.3-3-3.5-7.2-1.1-4.2-1.1-9.5 0-5.2 1.2-9.5 1.2-4.3 3.6-7.5 2.4-3.1 6.1-4.8 3.6-1.8 8.4-1.8 4.7 0 8.1 1.6 3.5 1.5 5.8 4.5 2.3 2.9 3.5 7.1 1.1 4.2 1.1 9.5zm-7.3 0.5q0-3.4-0.6-6.4-0.5-3.1-1.8-5.4-1.3-2.3-3.6-3.6-2.2-1.3-5.5-1.3-3.1 0-5.3 1.2-2.2 1.2-3.6 3.4-1.4 2.3-2.1 5.3-0.7 3-0.7 6.7 0 3.4 0.5 6.5 0.6 3 1.9 5.3 1.4 2.2 3.6 3.6 2.2 1.3 5.5 1.3 3.1 0 5.3-1.2 2.2-1.2 3.6-3.4 1.5-2.2 2.1-5.3 0.7-3 0.7-6.7zm39.6-18.3q0 1 0 1.7-0.1 0.7-0.2 1.1-0.1 0.4-0.3 0.6-0.2 0.2-0.5 0.2-0.4 0-0.9-0.2-0.4-0.2-1-0.4-0.7-0.2-1.4-0.4-0.8-0.2-1.7-0.2-1 0-2 0.5-1 0.5-2.1 1.5-1.1 1.1-2.4 2.9-1.2 1.8-2.6 4.3v27.8q0 0.3-0.2 0.6-0.2 0.3-0.6 0.4-0.3 0.2-1 0.3-0.7 0.1-1.7 0.1-1 0-1.7-0.1-0.7-0.1-1.1-0.3-0.4-0.1-0.5-0.4-0.2-0.3-0.2-0.6v-42.2q0-0.4 0.1-0.6 0.2-0.3 0.5-0.5 0.4-0.2 1-0.3 0.6 0 1.6 0 0.9 0 1.5 0 0.6 0.1 0.9 0.3 0.4 0.2 0.5 0.5 0.2 0.2 0.2 0.6v6.2q1.5-2.6 2.9-4.2 1.4-1.6 2.6-2.5 1.2-0.9 2.4-1.2 1.2-0.4 2.4-0.4 0.6 0 1.2 0.1 0.7 0.1 1.5 0.2 0.8 0.2 1.4 0.5 0.6 0.2 0.8 0.4 0.3 0.3 0.4 0.5 0 0.2 0.1 0.5 0.1 0.4 0.1 1 0 0.6 0 1.7zm35.4 39.3q0 0.4-0.2 0.7-0.2 0.3-0.6 0.4-0.4 0.2-1.1 0.3-0.7 0.1-1.7 0.1-1 0-1.8-0.1-0.7-0.1-1.1-0.3-0.4-0.1-0.6-0.4-0.2-0.3-0.2-0.7v-58.1q0-0.4 0.2-0.7 0.2-0.3 0.7-0.4 0.4-0.2 1.1-0.3 0.7-0.1 1.7-0.1 1 0 1.7 0.1 0.7 0.1 1.1 0.3 0.4 0.1 0.6 0.4 0.2 0.3 0.2 0.7z"/>
				<path id="Layer" fill-rule="evenodd" class="s1" d="m1060 360.5q0 0.4-0.1 0.6-0.2 0.3-0.6 0.5-0.4 0.2-1 0.3-0.7 0.1-1.7 0.1-1.1 0-1.8-0.1-0.6-0.1-1-0.3-0.4-0.2-0.5-0.5-0.2-0.2-0.2-0.6v-24.7q0-3.6-0.5-5.8-0.5-2.2-1.5-3.8-0.9-1.6-2.5-2.4-1.5-0.9-3.5-0.9-2.6 0-5.2 2.1-2.7 2.1-5.5 6v29.5q0 0.4-0.2 0.6-0.1 0.3-0.5 0.5-0.4 0.2-1.1 0.3-0.6 0.1-1.7 0.1-1 0-1.7-0.1-0.6-0.1-1-0.3-0.4-0.2-0.6-0.5-0.1-0.2-0.1-0.6v-42.1q0-0.4 0.1-0.7 0.1-0.2 0.5-0.4 0.4-0.3 1-0.3 0.6-0.1 1.5-0.1 0.9 0 1.6 0.1 0.6 0 0.9 0.3 0.3 0.2 0.5 0.4 0.1 0.3 0.1 0.7v5.5q3.2-3.9 6.4-5.8 3.2-1.9 6.4-1.9 3.8 0 6.4 1.5 2.5 1.4 4.1 3.8 1.6 2.4 2.3 5.6 0.7 3.2 0.7 7.7zm45 0q0 0.4-0.1 0.6-0.2 0.3-0.5 0.5-0.4 0.1-1 0.2-0.6 0.1-1.4 0.1-0.9 0-1.4-0.1-0.6-0.1-1-0.2-0.4-0.2-0.6-0.5-0.1-0.2-0.1-0.6v-5.6q-3 3.6-6.2 5.6-3.2 2-7.1 2-4.1 0-7.1-1.8-2.9-1.8-4.7-4.8-1.9-3.1-2.7-7.2-0.8-4.2-0.8-8.8 0-5.4 1-9.8 1.1-4.4 3.1-7.4 2.1-3.1 5.1-4.8 3.1-1.7 7.1-1.7 3.3 0 6 1.6 2.8 1.7 5.5 4.8v-24.5q0-0.3 0.1-0.6 0.2-0.3 0.6-0.5 0.4-0.2 1.1-0.3 0.6-0.1 1.6-0.1 1.1 0 1.7 0.1 0.7 0.1 1.1 0.3 0.4 0.2 0.6 0.5 0.1 0.3 0.1 0.6zm-6.9-29.6q-2.8-3.9-5.5-6-2.6-2-5.5-2-2.6 0-4.4 1.4-1.9 1.4-3.1 3.7-1.1 2.3-1.6 5.2-0.6 2.9-0.6 5.9 0 3.2 0.5 6.2 0.4 3.1 1.5 5.4 1.1 2.4 2.9 3.8 1.8 1.5 4.5 1.5 1.4 0 2.7-0.5 1.3-0.4 2.7-1.4 1.3-1 2.8-2.5 1.4-1.6 3.1-3.9zm26.7 29.7q0 0.3-0.2 0.6-0.2 0.2-0.5 0.4-0.4 0.2-1.1 0.3-0.7 0.1-1.7 0.1-1 0-1.7-0.1-0.7-0.1-1.1-0.3-0.4-0.2-0.5-0.4-0.2-0.3-0.2-0.6v-42.2q0-0.3 0.2-0.6 0.1-0.3 0.5-0.5 0.4-0.1 1.1-0.2 0.7-0.1 1.7-0.1 1 0 1.7 0.1 0.7 0.1 1.1 0.2 0.3 0.2 0.5 0.5 0.2 0.3 0.2 0.6zm0.8-56.4q0 2.8-0.9 3.7-1 1-3.4 1-2.5 0-3.4-0.9-0.9-1-0.9-3.7 0-2.7 0.9-3.7 1-1 3.4-1 2.5 0 3.4 1 0.9 1 0.9 3.6zm40.5 56.5q0 0.5-0.4 0.8-0.3 0.3-0.9 0.4-0.6 0.2-1.7 0.2-1.1 0-1.8-0.2-0.6-0.1-0.9-0.4-0.3-0.3-0.3-0.8v-4.3q-2.5 3-5.5 4.6-3.1 1.7-6.5 1.7-3 0-5.4-0.9-2.4-0.9-4.1-2.5-1.7-1.6-2.6-4-1-2.4-1-5.5 0-3.5 1.3-6.1 1.3-2.7 3.8-4.4 2.4-1.7 5.9-2.6 3.6-0.9 8-0.9h5.2v-3.2q0-2.5-0.5-4.4-0.4-1.8-1.5-3.1-1-1.2-2.6-1.8-1.7-0.7-4.1-0.7-2.5 0-4.6 0.7-2 0.7-3.5 1.5-1.6 0.8-2.6 1.5-1 0.7-1.5 0.7-0.4 0-0.6-0.2-0.3-0.2-0.5-0.6-0.2-0.3-0.2-0.9-0.1-0.6-0.1-1.3 0-1.2 0.1-1.9 0.2-0.6 0.7-1.3 0.6-0.6 2-1.4 1.4-0.8 3.2-1.5 1.8-0.6 3.9-1.1 2.2-0.4 4.4-0.4 4 0 6.9 1 2.8 1 4.6 3 1.8 2 2.6 5 0.8 2.9 0.8 6.8zm-6.9-19.2h-5.9q-2.9 0-5 0.5-2.1 0.6-3.5 1.6-1.4 1.1-2 2.5-0.7 1.5-0.7 3.4 0 3.3 1.9 5.3 1.9 1.9 5.2 1.9 2.8 0 5.1-1.5 2.3-1.6 4.9-4.8zm52.1 19.2q0 0.4-0.1 0.6-0.2 0.3-0.6 0.5-0.4 0.2-1 0.3-0.7 0.1-1.7 0.1-1 0-1.7-0.1-0.7-0.1-1.1-0.3-0.3-0.2-0.5-0.5-0.2-0.2-0.2-0.6v-24.7q0-3.6-0.5-5.8-0.5-2.2-1.5-3.8-0.9-1.6-2.5-2.4-1.5-0.8-3.5-0.8-2.6 0-5.2 2-2.6 2.1-5.5 6.1v29.4q0 0.4-0.1 0.6-0.2 0.3-0.6 0.5-0.4 0.2-1 0.3-0.7 0.1-1.8 0.1-1 0-1.6-0.1-0.7-0.1-1.1-0.3-0.4-0.2-0.6-0.5-0.1-0.2-0.1-0.6v-42.1q0-0.4 0.1-0.7 0.1-0.2 0.5-0.4 0.4-0.2 1-0.3 0.6-0.1 1.5-0.1 1 0 1.6 0.1 0.6 0.1 0.9 0.3 0.4 0.2 0.5 0.4 0.1 0.3 0.2 0.7v5.5q3.1-3.9 6.3-5.8 3.2-1.8 6.4-1.8 3.8 0 6.4 1.4 2.6 1.4 4.2 3.8 1.6 2.4 2.2 5.6 0.8 3.2 0.7 7.7zm92 0q0 0.3-0.2 0.6-0.1 0.3-0.5 0.5-0.5 0.1-1.1 0.2-0.7 0.1-1.7 0.2-1-0.1-1.7-0.2-0.7-0.1-1.1-0.2-0.4-0.2-0.5-0.5-0.2-0.3-0.2-0.6v-52.8h-0.1l-19.3 53q-0.2 0.3-0.4 0.6-0.2 0.2-0.7 0.4-0.4 0.1-1 0.2-0.6 0-1.5 0.1-0.9 0-1.5-0.1-0.6-0.1-1-0.3-0.4-0.2-0.7-0.4-0.2-0.2-0.3-0.5l-18.5-53h-0.1v52.8q0 0.3-0.1 0.6-0.2 0.3-0.6 0.5-0.4 0.1-1.1 0.2-0.7 0.1-1.7 0.2-1.1-0.1-1.7-0.2-0.7-0.1-1.1-0.2-0.4-0.2-0.5-0.5-0.2-0.3-0.2-0.6v-55.8q0-1.9 0.9-2.8 1-0.8 2.1-0.8h4.4q1.3 0 2.3 0.3 1 0.2 1.8 0.8 0.7 0.7 1.3 1.6 0.5 0.9 0.8 2.2l15.8 43.9h0.2l16.4-43.8q0.4-1.4 1-2.4 0.5-0.9 1.2-1.5 0.6-0.6 1.4-0.9 0.8-0.2 1.9-0.2h4.5q0.7 0 1.3 0.2 0.5 0.2 0.9 0.6 0.4 0.5 0.7 1.2 0.2 0.6 0.2 1.6zm42.2 0.1q0 0.6-0.4 0.8-0.3 0.3-0.9 0.5-0.6 0.1-1.7 0.1-1.1 0-1.8-0.1-0.6-0.2-0.9-0.5-0.3-0.2-0.3-0.8v-4.2q-2.5 2.9-5.5 4.6-3.1 1.6-6.5 1.6-3 0-5.4-0.9-2.4-0.8-4.1-2.4-1.7-1.7-2.7-4.1-0.9-2.4-0.9-5.4 0-3.6 1.3-6.2 1.3-2.6 3.7-4.3 2.5-1.8 6-2.6 3.5-0.9 8-0.9h5.2v-3.3q0-2.4-0.5-4.3-0.5-1.9-1.5-3.1-1-1.2-2.7-1.9-1.6-0.6-4-0.6-2.6 0-4.6 0.7-2 0.6-3.6 1.5-1.5 0.8-2.5 1.5-1.1 0.6-1.6 0.6-0.3 0-0.5-0.1-0.3-0.2-0.5-0.6-0.2-0.4-0.3-1-0.1-0.6-0.1-1.3 0.1-1.1 0.2-1.8 0.1-0.7 0.7-1.3 0.6-0.6 2-1.4 1.3-0.8 3.2-1.5 1.8-0.7 3.9-1.1 2.1-0.5 4.3-0.5 4.1 0 7 1 2.8 1.1 4.6 3.1 1.8 2 2.5 4.9 0.8 2.9 0.9 6.9zm-6.9-19.3h-6q-2.8 0-4.9 0.6-2.1 0.5-3.5 1.6-1.4 1-2 2.5-0.7 1.5-0.7 3.4 0 3.3 1.9 5.2 1.8 1.9 5.2 1.9 2.7 0.1 5.1-1.5 2.3-1.5 4.9-4.7zm41.7-20.2q0 1-0.1 1.7 0 0.7-0.1 1.1-0.2 0.4-0.4 0.6-0.1 0.2-0.5 0.2-0.3 0-0.8-0.2-0.5-0.2-1.1-0.4-0.6-0.2-1.4-0.4-0.7-0.2-1.6-0.2-1 0-2.1 0.5-1 0.4-2.1 1.5-1.1 1.1-2.3 2.9-1.2 1.8-2.7 4.3v27.8q0 0.3-0.2 0.6-0.1 0.2-0.5 0.4-0.4 0.2-1.1 0.3-0.6 0.1-1.7 0.1-1 0-1.7-0.1-0.6-0.1-1-0.3-0.4-0.2-0.6-0.4-0.1-0.3-0.1-0.6v-42.2q0-0.4 0.1-0.6 0.1-0.3 0.5-0.5 0.4-0.2 1-0.3 0.6 0 1.5 0 1 0 1.6 0 0.6 0.1 0.9 0.3 0.3 0.2 0.5 0.5 0.1 0.2 0.1 0.6v6.2q1.6-2.6 2.9-4.2 1.4-1.6 2.6-2.5 1.2-0.9 2.4-1.2 1.3-0.4 2.5-0.4 0.5 0 1.2 0.1 0.7 0.1 1.5 0.2 0.7 0.2 1.3 0.5 0.6 0.2 0.9 0.4 0.2 0.3 0.3 0.5 0.1 0.2 0.2 0.5 0 0.3 0 1 0.1 0.6 0.1 1.7zm38.9 39.3q0 0.4-0.2 0.7-0.1 0.2-0.5 0.4-0.4 0.2-1.2 0.3-0.7 0.1-1.8 0.1-1.1 0-1.8-0.1-0.8 0-1.3-0.2-0.5-0.2-0.8-0.5-0.3-0.3-0.5-0.7l-16-23.3v23.4q0 0.3-0.2 0.6-0.1 0.2-0.5 0.4-0.4 0.2-1.1 0.3-0.6 0.1-1.7 0.1-1 0-1.7-0.1-0.6-0.1-1-0.3-0.5-0.2-0.6-0.4-0.1-0.3-0.1-0.6v-62.6q0-0.4 0.1-0.7 0.1-0.2 0.6-0.4 0.4-0.2 1-0.3 0.7-0.1 1.7-0.1 1.1 0 1.7 0.1 0.7 0.1 1.1 0.3 0.4 0.2 0.5 0.4 0.2 0.3 0.2 0.7v38.1l14.3-17.5q0.3-0.5 0.7-0.8 0.4-0.3 0.9-0.5 0.5-0.2 1.2-0.3 0.7 0 1.8 0 1 0 1.7 0 0.7 0.1 1.2 0.3 0.4 0.1 0.6 0.4 0.2 0.2 0.2 0.7 0 0.5-0.3 1.1-0.3 0.6-0.9 1.3l-13.7 15.3 15.4 22.2q0.5 0.8 0.8 1.3 0.2 0.5 0.2 0.9zm37.6-22.8q0 1.8-0.9 2.6-0.8 0.7-1.8 0.7h-24.8q0 3.5 0.6 6.4 0.6 2.8 2.1 4.8 1.5 2 3.8 3.1 2.4 1 5.8 1 2.7 0 4.8-0.5 2.1-0.4 3.6-1.1 1.6-0.6 2.5-1 1-0.5 1.5-0.5 0.3 0 0.6 0.1 0.2 0.2 0.3 0.5 0.1 0.4 0.2 0.9 0.1 0.6 0.1 1.5 0 0.6-0.1 1 0 0.5-0.1 0.8 0 0.4-0.2 0.6-0.1 0.3-0.4 0.6-0.2 0.2-1.3 0.8-1.2 0.6-3 1.2-1.8 0.5-4.1 1-2.4 0.4-5.1 0.4-4.7 0-8.2-1.4-3.5-1.5-5.9-4.3-2.4-2.9-3.6-7.2-1.2-4.3-1.2-10 0-5.4 1.2-9.8 1.3-4.3 3.7-7.3 2.3-3.1 5.7-4.7 3.4-1.6 7.5-1.6 4.5 0 7.6 1.6 3.1 1.6 5.2 4.3 2 2.7 2.9 6.3 1 3.6 1 7.8zm-7-2.3q0.1-6.1-2.4-9.6-2.6-3.5-7.6-3.5-2.5 0-4.5 1.1-1.9 1.1-3.2 2.9-1.3 1.8-2 4.1-0.7 2.4-0.8 5zm36.7 22.1q0 1.3-0.2 2.1-0.1 0.8-0.5 1.2-0.3 0.4-1 0.7-0.7 0.3-1.5 0.5-0.9 0.2-1.8 0.4-1 0.1-2 0.1-2.9 0-5-0.8-2.1-0.9-3.5-2.7-1.3-1.7-1.9-4.4-0.6-2.7-0.6-6.4v-24.6h-5.3q-0.6 0-1-0.7-0.4-0.8-0.4-2.5 0-0.9 0.1-1.5 0.1-0.6 0.3-1 0.1-0.4 0.4-0.5 0.3-0.2 0.6-0.2h5.3v-10q0-0.4 0.1-0.6 0.2-0.3 0.6-0.5 0.4-0.2 1-0.3 0.7-0.1 1.7-0.1 1.1 0 1.7 0.1 0.7 0.1 1.1 0.3 0.4 0.2 0.5 0.5 0.2 0.2 0.2 0.6v10h9.7q0.3 0 0.6 0.2 0.3 0.1 0.4 0.5 0.2 0.4 0.3 1 0.1 0.6 0.1 1.5 0 1.7-0.4 2.5-0.4 0.7-1 0.7h-9.7v23.5q0 4.4 1.2 6.6 1.1 2.2 4.1 2.2 1 0 1.7-0.2 0.8-0.2 1.4-0.4 0.6-0.3 1-0.5 0.4-0.2 0.7-0.2 0.2 0 0.4 0.1 0.2 0.1 0.3 0.5 0.1 0.3 0.2 0.9 0.1 0.5 0.1 1.4z"/>
			</g>
			<path id="Layer" fill-rule="evenodd" class="s2" d="m132.9 188.1c0 36.6-26.8 54.9-80.4 54.9-9.4 0-23.8-0.3-43.5-0.9q1.6-41.6 1.6-93.8c0-33.5-0.6-62-1.6-85.6h20q5.7 0 19.1-0.4 13.4-0.4 20.9-0.4c36.5 0 54.8 13.2 54.8 39.7q0 30.5-28.1 40.5v2q15 2.6 26.1 13.1c7.4 6.9 11.1 17.2 11.1 30.9zm-33.4 1.5c0-18.3-14.3-27.4-43.1-27.4q-8.5 0-14.7 0.7 0 28.8 1.1 53c2.8 0.8 7 1.1 12.6 1.1 15.3 0 26.4-2 33.5-6.1q10.6-6.1 10.6-21.3zm-9-77.2c0-16.4-9.2-24.6-27.7-24.6-8.4 0-16 0.7-22.6 2.1 1 9.2 1.4 25.2 1.4 47.8q4.7 0.2 9.9 0.2c26 0 39-8.5 39-25.5zm147.2-1.2l-7.1 32.2c-6.1-2.7-12.3-4.1-18.6-4.1q-18.1 0-24 18.2 0 55 0.8 84.6h-32.9c1.4-27.6 2.1-50.2 2.1-67.8q0-32.8-6.2-62.1l31.6-3.9q2.1 15.2 2.1 17.8h1.9q11.4-19.4 30.3-19.4c6 0 12.6 1.5 20 4.5zm116.6 130.8l-29.1 1.1c-1.4-3.9-2-7.4-2-10.5h-1.6q-13.6 12.9-36.8 13c-10.3 0-18.8-3.2-25.6-9.6-6.8-6.4-10.2-14.9-10.2-25.4q0-21 15.9-34.3c10.6-9 29.1-13.7 55.7-14.2 0.1-1.7 0.2-3.3 0.2-4.7q0-14.9-6.4-19.7c-4.3-3.1-12.2-4.7-23.6-4.7q-18.7 0-36.5 5.5l2.7-25.3q16.9-6.5 47.5-6.5 22.4-0.1 34.5 10.5 12.2 10.4 12.2 36.6c0 3.8-0.1 10.9-0.4 21.1-0.3 10.2-0.5 17-0.5 20.4q0 28.5 4 46.7zm-33-28.7q-0.7-18.6-0.7-32.1-42.2 0-42.2 23.9c0 10.9 6.2 16.4 18.6 16.4 9.7 0 17.8-2.8 24.3-8.2zm168.5 28.8h-32.9q2.7-34.8 2.7-70.5c0-14.5-1.9-24.3-5.7-29.4-3.9-5.1-9.7-7.7-17.5-7.7q-14.2 0-26.7 10.7 0.6 53.8 0.6 96.9h-33.3c1.5-28.7 2.3-51.3 2.3-67.8q0-32.9-6.1-62.1l31.6-3.9 2.2 14.6h1.9c11.3-10.8 24.3-16.2 38.9-16.2q19.1 0 30.5 10c7.6 6.6 11.5 18.9 11.5 36.8q0 4-0.4 10.7-0.3 6.7-0.3 13.7c0 12.4 0.2 33.8 0.7 64.2zm140.6-0.1l-29.3 1.1q-0.8-4.9-0.8-10.1h-1.9c-9.1 8.7-20.6 13.1-34.7 13.1q-23.8 0-37.7-19.1c-9.3-12.8-14-28-14-45.5 0-20.1 5.1-37.6 15.2-52.6 10.2-14.9 24.2-22.4 42.3-22.4q17.5 0 26.3 7.3h1.8c0-21.6-1-43.4-2.9-65.4l35-1.1c-1.4 21.4-2 52.2-2 92.3 0 40.7 0.9 74.8 2.7 102.4zm-31-31.3c0-29.3-0.6-53.6-1.8-72.8-5.7-4.4-12.5-6.5-20.5-6.5-10.9 0-18.9 4.4-24.2 13.5-5.3 8.9-7.9 19.9-7.9 33 0 11.6 2.6 21.6 7.7 30q7.6 12.6 21.2 12.6 18.2 0 25.5-9.8z"/>
			<path id="Layer" fill-rule="evenodd" class="s2" d="m864.1 210.8l-1 30.1h-102.7q1.4-37.3 1.5-93.8-0.1-51.9-1.5-85.6h34.7c-1 20.8-1.5 49.4-1.5 85.6q0 41.5-1.6 65.8c22.8 0 46.8-0.6 72.1-2.1zm50.1 30.1h-33.2q1.7-28.5 1.7-65.5 0-36.6-4.2-64.2l35.6-4c-1 17.9-1.6 40.6-1.6 68.2q0 35.4 1.7 65.5zm5.7-172.5q0 9.4-5.7 16.4-5.8 7-16 7-8.7 0-13.5-6.1c-3.3-4-4.9-8.9-4.9-14.5 0-6.3 1.9-11.7 5.7-16.3q5.8-6.9 16.1-6.9 8.8 0 13.6 6 4.7 6 4.7 14.4zm122.9 172.4l-29.2 1.1c-1.3-3.9-2-7.4-2-10.5h-1.6c-9 8.6-21.3 12.9-36.7 12.9-10.3 0-18.8-3.2-25.6-9.5-6.8-6.4-10.2-14.9-10.2-25.5q0-20.9 15.8-34.2c10.6-9 29.2-13.7 55.7-14.3 0.2-1.6 0.3-3.2 0.3-4.7q0-14.8-6.4-19.6c-4.3-3.2-12.2-4.7-23.7-4.7q-18.6 0-36.4 5.5l2.7-25.4q16.8-6.5 47.5-6.5 22.4 0 34.5 10.5 12.2 10.5 12.2 36.7c0 3.8-0.2 10.9-0.5 21-0.2 10.2-0.4 17.1-0.4 20.5q0 28.5 4 46.7zm-33-28.7q-0.8-18.6-0.8-32.1-42.1 0-42.1 23.8c0 10.9 6.2 16.5 18.5 16.5q14.6-0.1 24.4-8.2zm91.8 28.8h-33.3q1.8-28.5 1.8-65.5 0-36.6-4.2-64.2l35.6-4c-1.1 17.9-1.6 40.6-1.6 68.2q0 35.4 1.7 65.5zm5.7-172.5q0 9.4-5.8 16.4-5.7 7-16 7-8.6 0-13.5-6.1c-3.3-4-4.9-8.9-4.9-14.5q0-9.4 5.8-16.3 5.7-6.9 16.1-6.9 8.8 0 13.5 6 4.8 6 4.8 14.4zm106.2 134.9q0.1 41.3-54.8 41.3-20 0-35-4.8l4.2-27.2q15.4 6.2 30.8 6.2c9.9 0 16.8-0.9 20.6-2.7q5.7-2.7 5.7-9.3c0-6.6-6.9-13-20.8-19.1q-18.1-8-26.4-15.7c-7.6-7.2-11.4-16-11.4-26.3q0-18.3 12.3-29.5c8.1-7.5 20-11.2 35.6-11.2 14.5 0 26 1.5 34.3 4.3l-4.2 27.3q-13.9-6.1-30.1-6.1c-13.2 0-19.8 3.8-19.8 11.3 0 3.9 1.4 7 4.2 9.3q4.2 3.5 17.2 8.9c11.9 4.9 20.6 9.9 26 15.1 7.8 7.3 11.6 16.7 11.6 28.2zm141.3-30.9c0 23.2-6.3 41.3-19.1 54.3-12.8 13.1-27.8 19.6-45.1 19.6q-24.8 0-42.4-17.9-17.7-17.8-17.7-50.2c0-23.2 6.5-41.4 19.3-54.6q19.3-19.7 45.2-19.7 24.6 0 42.2 18 17.6 18 17.6 50.5zm-32.2 4.2c0-13.4-2.8-24.5-8.4-33.6q-8.4-13.6-21.9-13.6-13.1 0-21.3 12.7-8.2 12.7-8.2 31.7 0 19.9 8.4 33.6 8.4 13.5 21.9 13.5 13.1 0 21.3-12.6 8.2-12.8 8.2-31.7zm166.3 64.3h-32.9q2.7-34.9 2.7-70.6c0-14.4-1.9-24.2-5.7-29.3q-5.8-7.7-17.5-7.7-14.2 0-26.8 10.7 0.7 53.8 0.7 96.9h-33.3c1.5-28.7 2.3-51.4 2.3-67.8q0-32.9-6.1-62.2l31.6-3.8 2.1 14.6h2c11.3-10.8 24.3-16.3 38.9-16.3q19.1 0 30.5 10.1c7.6 6.6 11.5 18.9 11.5 36.8 0 2.7-0.2 6.2-0.4 10.7-0.2 4.4-0.3 9-0.3 13.7 0 12.4 0.2 33.8 0.7 64.2z"/>
			<path id="Layer" class="s3" d="m665.2 105.4h60.8v13.6h-60.8z"/>
			<path id="Layer" fill-rule="evenodd" class="s1" d="m1449.5 57v-32.3h12.8q4.8 0 6.9 0.9 2.2 0.8 3.5 3.1 1.3 2.2 1.3 5.1 0 3.6-1.9 6-2 2.3-6 2.9 2 1.3 3.3 2.8 1.3 1.4 3.4 5.2l3.7 6.3h-7.3l-4.3-7q-2.4-3.8-3.2-4.8-0.9-0.9-1.9-1.3-0.9-0.4-3-0.4h-1.2v13.5zm6-18.6h4.5q4.4 0 5.5-0.4 1-0.4 1.7-1.4 0.6-1 0.6-2.4 0-1.6-0.8-2.6-0.8-1.1-2.3-1.3-0.8-0.1-4.4-0.1h-4.8z"/>
			<path id="Layer" class="s3" d="m665.2 231.9h60.8v13.5h-60.8z"/>
			<path id="Layer" class="s3" d="m665.2 168.6h60.8v13.6h-60.8z"/>
		</g>
	</g>
</svg>