<svg id="svg" xmlns="http://www.w3.org/2000/svg" xmlns:xlink="http://www.w3.org/1999/xlink" width="400" height="400" viewBox="0, 0, 400,400"><g id="svgg"><path id="path0" d="M188.055 42.885 C 185.353 44.061,180.401 47.499,177.051 50.525 C 169.481 57.365,164.859 58.577,154.680 56.394 C 137.087 52.621,123.856 59.660,117.170 76.347 C 112.340 88.401,107.895 93.193,99.466 95.435 C 82.249 100.014,75.725 111.052,77.279 132.972 L 78.357 148.172 72.985 154.164 C 58.608 170.202,57.888 186.278,70.885 201.079 L 77.344 208.434 76.909 224.670 C 76.593 236.440,77.096 242.153,78.735 245.439 C 81.429 250.840,81.723 250.628,68.054 253.152 C 53.218 255.892,49.205 259.831,50.875 270.014 C 53.428 285.572,54.749 284.164,32.031 290.106 C 8.196 296.340,4.105 298.742,3.415 306.905 C 2.774 314.487,4.107 315.853,17.139 320.966 L 28.069 325.254 21.847 334.416 C 14.646 345.020,13.926 350.984,19.241 355.978 C 23.959 360.410,23.979 360.408,51.873 353.177 C 65.022 349.769,85.179 345.258,96.664 343.154 C 122.104 338.493,121.252 339.220,119.243 323.879 C 118.366 317.191,117.721 311.603,117.809 311.461 C 121.316 305.801,278.684 305.801,282.191 311.461 C 282.279 311.603,281.634 317.191,280.757 323.879 C 278.748 339.220,277.896 338.493,303.336 343.154 C 314.821 345.258,334.978 349.769,348.127 353.177 C 376.134 360.437,376.552 360.470,380.978 355.759 C 385.949 350.467,385.197 344.789,378.153 334.416 L 371.931 325.254 382.938 320.936 C 394.799 316.282,397.332 313.498,396.578 305.942 C 395.870 298.853,390.902 296.103,367.969 290.109 C 345.151 284.145,346.197 285.305,349.159 269.252 C 350.873 259.965,346.453 255.832,331.946 253.152 C 318.277 250.628,318.571 250.840,321.265 245.439 C 322.904 242.153,323.407 236.440,323.091 224.670 L 322.656 208.434 329.188 200.996 C 342.020 186.383,341.267 170.114,327.021 154.185 L 321.681 148.214 322.640 132.310 C 323.964 110.330,317.682 100.074,299.973 95.305 C 292.028 93.166,286.971 87.624,282.983 76.686 C 276.819 59.780,264.220 52.830,245.980 56.271 C 234.381 58.460,231.851 57.818,223.082 50.461 C 211.423 40.678,199.202 38.035,188.055 42.885 M210.938 54.722 C 225.272 66.183,225.913 66.406,244.488 66.406 C 265.849 66.406,275.000 71.913,275.000 84.767 C 275.000 89.487,283.931 99.324,290.775 102.142 C 312.510 111.092,313.151 112.062,313.225 136.081 L 313.281 154.194 320.703 163.214 C 330.238 174.802,330.814 181.914,323.047 192.183 C 320.254 195.875,317.022 200.173,315.864 201.733 C 312.091 206.818,310.950 215.872,312.800 226.037 C 314.163 233.523,314.113 236.731,312.577 240.439 C 309.281 248.396,308.553 248.538,286.039 245.611 C 268.661 243.351,265.622 242.573,267.639 240.898 C 279.801 230.805,290.747 201.946,290.731 180.018 C 290.673 102.025,203.294 59.658,142.159 107.982 C 103.875 138.244,97.836 199.800,129.453 237.500 L 134.039 242.969 113.592 245.643 C 91.467 248.536,90.715 248.387,87.423 240.439 C 85.887 236.731,85.837 233.523,87.200 226.037 C 89.050 215.872,87.909 206.818,84.136 201.733 C 82.978 200.173,79.746 195.875,76.953 192.183 C 69.741 182.647,69.880 174.559,77.411 165.545 C 87.610 153.338,89.571 146.588,87.154 132.007 C 84.473 115.822,88.269 110.667,109.139 102.157 C 116.868 99.005,122.872 92.023,125.245 83.427 C 129.359 68.529,135.622 64.897,154.607 66.400 C 170.010 67.619,175.483 66.096,184.660 58.039 C 194.581 49.328,202.881 48.280,210.938 54.722 M212.500 98.475 C 268.804 107.211,298.695 171.470,269.572 221.166 L 265.399 228.285 261.361 220.182 C 255.968 209.360,243.126 196.806,231.509 191.001 C 222.103 186.301,222.063 186.252,225.246 183.372 C 250.206 160.783,233.902 119.593,200.000 119.593 C 166.098 119.593,149.794 160.783,174.754 183.372 C 177.937 186.252,177.897 186.301,168.491 191.001 C 156.874 196.806,144.032 209.360,138.639 220.182 L 134.601 228.285 130.428 221.166 C 95.584 161.708,144.899 87.985,212.500 98.475 M210.221 131.062 C 236.908 143.184,229.081 182.813,200.000 182.813 C 177.643 182.813,164.926 155.962,179.232 138.961 C 183.910 133.401,193.955 128.194,200.000 128.194 C 202.148 128.194,206.748 129.484,210.221 131.062 M225.807 199.554 C 242.234 207.959,261.311 233.109,255.595 238.825 C 252.500 241.920,147.446 241.865,144.347 238.767 C 139.699 234.119,155.353 210.826,168.874 202.273 C 185.056 192.036,208.888 190.898,225.807 199.554 M247.820 251.583 C 297.411 255.480,339.096 262.870,338.990 267.748 C 338.747 278.908,330.200 308.589,327.266 308.460 C 325.590 308.387,315.430 306.819,304.688 304.976 C 236.089 293.205,155.322 293.739,86.940 306.413 C 77.609 308.142,69.815 309.341,69.620 309.076 C 69.287 308.622,60.811 269.648,60.364 266.514 C 59.041 257.240,188.543 246.926,247.820 251.583 M59.153 308.166 L 61.734 319.271 79.694 325.850 L 97.653 332.429 88.280 334.316 C 74.307 337.129,42.448 344.815,33.982 347.415 C 24.328 350.380,24.041 349.395,31.378 338.480 C 40.965 324.217,39.151 318.594,22.896 312.192 C 17.872 310.213,13.653 307.928,13.521 307.113 C 13.199 305.126,55.318 293.697,56.020 295.581 C 56.324 296.395,57.734 302.058,59.153 308.166 M382.813 304.595 C 388.684 306.246,387.207 308.213,377.104 312.192 C 360.849 318.594,359.035 324.217,368.622 338.480 C 375.959 349.395,375.672 350.380,366.018 347.415 C 357.552 344.815,325.693 337.129,311.720 334.316 L 302.347 332.429 320.314 325.851 L 338.281 319.272 341.158 306.659 L 344.034 294.045 361.470 298.771 C 371.060 301.370,380.664 303.991,382.813 304.595 M108.612 318.855 C 109.987 326.995,110.395 326.871,98.071 322.069 C 85.234 317.067,85.093 316.392,96.484 314.440 C 101.426 313.594,105.934 312.811,106.503 312.701 C 107.072 312.590,108.021 315.360,108.612 318.855 M305.078 314.932 C 309.160 315.508,312.500 316.433,312.500 316.986 C 312.500 318.110,291.720 326.483,290.860 325.705 C 288.902 323.932,292.743 312.459,295.069 313.134 C 296.492 313.547,300.996 314.356,305.078 314.932 " stroke="none" fill="#000000" fill-rule="evenodd"></path></g></svg>