<svg id="svg" xmlns="http://www.w3.org/2000/svg" xmlns:xlink="http://www.w3.org/1999/xlink" width="400" height="190.14989293361884" viewBox="0, 0, 400,190.14989293361884"><g id="svgg"><path id="path0" d="M334.389 3.225 C 330.656 5.718,330.756 9.196,334.904 21.193 C 339.041 33.160,339.018 32.548,335.332 32.548 C 332.477 32.548,332.334 32.691,332.334 35.546 C 332.334 38.464,332.424 38.544,335.700 38.544 L 339.067 38.544 335.238 49.893 C 330.118 65.069,330.754 68.522,338.673 68.522 C 343.279 68.522,396.529 41.553,398.287 38.330 C 400.906 33.528,399.576 32.566,368.737 16.959 C 341.914 3.385,337.058 1.443,334.389 3.225 M365.744 21.844 C 380.345 29.148,392.291 35.514,392.291 35.991 C 392.291 37.180,338.541 63.880,337.746 63.085 C 337.397 62.736,339.127 56.362,341.590 48.922 L 346.070 35.393 341.772 23.514 C 337.439 11.539,336.755 8.565,338.335 8.565 C 338.809 8.565,351.143 14.541,365.744 21.844 M250.107 35.546 L 250.107 38.544 255.675 38.544 L 261.242 38.544 261.242 35.546 L 261.242 32.548 255.675 32.548 L 250.107 32.548 250.107 35.546 M270.664 35.546 L 270.664 38.544 276.231 38.544 L 281.799 38.544 281.799 35.546 L 281.799 32.548 276.231 32.548 L 270.664 32.548 270.664 35.546 M291.221 35.546 L 291.221 38.544 296.788 38.544 L 302.355 38.544 302.355 35.546 L 302.355 32.548 296.788 32.548 L 291.221 32.548 291.221 35.546 M311.777 35.546 L 311.777 38.544 317.345 38.544 L 322.912 38.544 322.912 35.546 L 322.912 32.548 317.345 32.548 L 311.777 32.548 311.777 35.546 M232.976 34.823 C 228.191 36.483,228.436 36.185,229.656 38.861 C 230.863 41.511,230.970 41.524,236.456 39.730 C 240.227 38.497,240.685 38.079,240.685 35.876 C 240.685 32.946,239.039 32.721,232.976 34.823 M217.994 45.544 C 213.416 50.984,213.205 53.123,217.131 54.269 C 218.482 54.664,219.420 53.890,221.571 50.607 L 224.297 46.444 222.326 44.592 L 220.354 42.740 217.994 45.544 M210.707 68.094 L 210.707 73.662 213.197 73.662 C 215.830 73.662,217.724 64.817,215.440 63.182 C 212.202 60.865,210.707 62.417,210.707 68.094 M210.707 88.651 L 210.707 94.218 213.276 94.218 L 215.846 94.218 215.846 88.651 L 215.846 83.084 213.276 83.084 L 210.707 83.084 210.707 88.651 M210.707 109.208 L 210.707 114.775 213.276 114.775 L 215.846 114.775 215.846 109.208 L 215.846 103.640 213.276 103.640 L 210.707 103.640 210.707 109.208 M210.707 129.764 L 210.707 135.332 213.276 135.332 L 215.846 135.332 215.846 129.764 L 215.846 124.197 213.276 124.197 L 210.707 124.197 210.707 129.764 M210.707 150.224 C 210.707 155.647,210.729 155.697,213.276 156.071 L 215.846 156.448 215.846 150.601 L 215.846 144.754 213.276 144.754 L 210.707 144.754 210.707 150.224 M207.016 167.238 C 206.225 168.769,205.099 170.691,204.514 171.508 C 203.625 172.750,203.758 173.304,205.319 174.864 C 207.612 177.158,208.616 176.500,211.830 170.594 L 214.099 166.426 211.934 165.440 C 208.867 164.043,208.620 164.133,207.016 167.238 M192.055 180.246 C 188.123 181.783,187.566 182.291,187.772 184.154 C 188.086 186.999,190.703 187.317,195.683 185.114 C 199.994 183.207,200.193 182.800,198.054 180.246 L 196.574 178.479 192.055 180.246 M3.426 185.011 L 3.426 187.580 8.565 187.580 L 13.704 187.580 13.704 185.011 L 13.704 182.441 8.565 182.441 L 3.426 182.441 3.426 185.011 M23.126 185.011 L 23.126 187.580 28.694 187.580 L 34.261 187.580 34.261 185.011 L 34.261 182.441 28.694 182.441 L 23.126 182.441 23.126 185.011 M43.683 185.011 L 43.683 187.580 49.251 187.580 L 54.818 187.580 54.818 185.011 L 54.818 182.441 49.251 182.441 L 43.683 182.441 43.683 185.011 M64.240 185.011 L 64.240 187.580 69.807 187.580 L 75.375 187.580 75.375 185.011 L 75.375 182.441 69.807 182.441 L 64.240 182.441 64.240 185.011 M84.797 185.011 L 84.797 187.580 90.364 187.580 L 95.931 187.580 95.931 185.011 L 95.931 182.441 90.364 182.441 L 84.797 182.441 84.797 185.011 M105.353 185.011 L 105.353 187.580 110.921 187.580 L 116.488 187.580 116.488 185.011 L 116.488 182.441 110.921 182.441 L 105.353 182.441 105.353 185.011 M125.910 185.011 L 125.910 187.580 131.478 187.580 L 137.045 187.580 137.045 185.011 L 137.045 182.441 131.478 182.441 L 125.910 182.441 125.910 185.011 M146.467 185.011 L 146.467 187.580 152.034 187.580 L 157.602 187.580 157.602 185.011 L 157.602 182.441 152.034 182.441 L 146.467 182.441 146.467 185.011 M167.024 185.011 L 167.024 187.580 172.591 187.580 L 178.158 187.580 178.158 185.011 L 178.158 182.441 172.591 182.441 L 167.024 182.441 167.024 185.011 " stroke="none" fill="#000000" fill-rule="evenodd"></path></g></svg>