<svg id="svg" version="1.1" xmlns="http://www.w3.org/2000/svg" xmlns:xlink="http://www.w3.org/1999/xlink" width="400" height="383.33333333333337" viewBox="0, 0, 400,383.33333333333337"><g id="svgg"><path id="path0" d="M193.864 37.811 C 193.231 37.900,191.333 38.157,189.645 38.382 C 171.575 40.794,150.941 51.143,140.826 62.866 C 121.686 85.050,122.597 115.357,143.019 135.796 C 147.356 140.137,238.791 215.149,239.745 215.149 C 240.154 215.149,267.498 192.084,267.498 191.740 C 267.498 191.464,251.897 178.607,200.384 136.428 C 174.794 115.475,174.281 115.027,172.034 111.647 C 157.376 89.597,184.658 65.101,212.889 74.965 C 229.957 80.928,237.074 98.216,227.974 111.606 C 226.422 113.890,224.110 116.258,219.934 119.841 C 218.462 121.104,217.172 122.228,217.066 122.340 C 216.961 122.452,215.273 123.916,213.315 125.594 C 211.358 127.272,209.804 128.845,209.864 129.091 C 209.958 129.481,234.041 149.958,236.661 151.875 L 237.655 152.603 245.482 146.029 C 266.316 128.527,272.668 117.516,272.673 98.888 C 272.682 70.792,253.680 49.865,219.306 40.116 C 213.077 38.349,199.065 37.080,193.864 37.811 " stroke="none" fill="#04549c" fill-rule="evenodd"></path><path id="path1" d="M151.392 175.518 C 146.698 179.455,140.480 184.663,137.575 187.093 C 134.670 189.522,132.340 191.644,132.398 191.807 C 132.455 191.970,142.857 200.589,155.513 210.961 C 168.169 221.332,180.594 231.522,183.126 233.605 C 185.657 235.688,196.091 244.252,206.313 252.636 C 218.183 262.373,225.538 268.677,226.672 270.085 C 233.214 278.212,233.737 288.821,228.008 297.150 C 211.806 320.704,168.291 311.688,168.187 284.756 C 168.150 275.313,170.181 272.124,183.701 260.389 C 187.181 257.368,190.029 254.695,190.029 254.449 C 190.029 254.203,186.663 251.173,182.550 247.716 C 161.868 230.334,162.523 230.852,161.875 231.346 C 141.491 246.890,131.890 258.635,128.715 271.908 C 122.144 299.384,136.280 324.917,165.239 337.881 C 190.361 349.128,214.121 348.427,239.003 335.705 C 265.553 322.130,278.075 296.265,270.767 270.095 C 267.279 257.609,261.173 250.158,241.227 234.054 C 238.591 231.925,219.354 216.273,198.479 199.272 C 177.603 182.271,160.389 168.360,160.225 168.360 C 160.061 168.360,156.086 171.581,151.392 175.518 " stroke="none" fill="#dc2424" fill-rule="evenodd"></path><path id="path2" d="M53.883 7.083 C 31.113 10.729,13.220 27.744,7.987 50.729 C 7.028 54.940,6.430 149.947,6.630 266.347 L 6.737 328.859 7.591 332.579 C 12.927 355.818,30.214 372.356,53.500 376.499 C 58.609 377.408,340.045 377.576,345.158 376.673 C 370.663 372.169,388.326 354.572,392.562 329.448 C 393.337 324.847,393.878 60.589,393.122 55.316 C 389.650 31.077,373.195 13.217,348.993 7.420 C 345.226 6.517,59.453 6.191,53.883 7.083 M347.267 26.576 C 360.815 30.786,370.021 40.318,373.643 53.883 C 374.713 57.894,374.814 81.339,374.372 223.969 L 374.052 326.942 373.246 329.874 C 369.530 343.382,359.373 353.662,346.309 357.138 L 343.049 358.006 199.808 358.006 C 41.421 358.006,55.507 358.220,49.117 355.716 C 33.949 349.771,25.916 337.200,25.462 318.696 C 24.926 296.853,25.972 57.331,26.616 54.556 C 30.026 39.851,42.284 28.185,56.910 25.727 C 57.987 25.546,122.982 25.422,201.342 25.451 L 343.816 25.503 347.267 26.576 " stroke="none" fill="#040404" fill-rule="evenodd"></path></g></svg>