<svg id="svg" version="1.1" xmlns="http://www.w3.org/2000/svg" xmlns:xlink="http://www.w3.org/1999/xlink" width="400" height="400" viewBox="0, 0, 400,400"><g id="svgg"><path id="path0" d="M194.500 43.852 C 110.522 48.283,44.959 117.312,45.004 201.250 C 45.056 297.058,130.258 370.823,225.000 357.085 C 307.797 345.079,366.742 270.595,359.405 187.250 C 351.990 103.035,278.815 39.404,194.500 43.852 M212.083 64.000 C 291.648 69.823,349.713 141.507,338.649 220.250 C 328.573 291.960,264.253 343.759,192.120 338.254 C 111.961 332.135,54.017 258.636,66.768 179.250 C 76.868 116.369,130.216 67.791,193.333 64.001 C 194.938 63.905,196.662 63.799,197.167 63.765 C 198.910 63.649,209.593 63.817,212.083 64.000 M89.167 156.333 L 89.167 165.667 108.917 165.667 L 128.667 165.667 128.667 212.667 L 128.667 259.667 139.167 259.667 L 149.667 259.667 149.667 212.667 L 149.667 165.667 169.250 165.667 L 188.833 165.667 188.833 156.333 L 188.833 147.000 139.000 147.000 L 89.167 147.000 89.167 156.333 M197.333 147.421 C 197.333 147.652,197.112 150.858,196.841 154.546 C 196.570 158.233,196.270 162.375,196.173 163.750 C 196.077 165.125,195.772 169.362,195.496 173.167 C 195.220 176.971,194.657 184.771,194.246 190.500 C 193.834 196.229,193.387 202.417,193.251 204.250 C 193.115 206.083,192.550 213.883,191.995 221.583 C 191.441 229.283,190.616 240.721,190.162 247.000 C 189.708 253.279,189.336 258.698,189.335 259.042 L 189.333 259.667 199.488 259.667 L 209.643 259.667 209.738 258.792 C 209.790 258.310,210.399 249.892,211.090 240.083 C 211.781 230.275,212.604 218.688,212.918 214.333 C 213.232 209.979,213.754 202.592,214.078 197.917 C 214.402 193.242,214.686 189.234,214.709 189.012 C 214.735 188.757,215.332 190.026,216.318 192.428 C 218.475 197.688,221.504 205.062,226.034 216.083 C 228.144 221.217,230.717 227.479,231.753 230.000 C 232.789 232.521,235.131 238.221,236.959 242.667 C 238.787 247.112,241.100 252.755,242.099 255.204 L 243.917 259.659 250.917 259.662 L 257.917 259.665 258.435 258.374 C 258.720 257.664,260.773 252.658,262.998 247.250 C 265.222 241.842,267.550 236.179,268.171 234.667 C 268.792 233.154,270.101 229.967,271.082 227.583 C 272.062 225.200,273.526 221.637,274.336 219.667 C 275.145 217.696,276.701 213.908,277.794 211.250 C 278.887 208.592,281.424 202.410,283.432 197.513 L 287.083 188.610 287.370 192.513 C 287.528 194.660,288.259 204.929,288.996 215.333 C 289.733 225.737,290.521 236.800,290.747 239.917 C 290.973 243.033,291.346 248.283,291.575 251.583 C 291.805 254.883,292.038 258.052,292.093 258.625 L 292.193 259.667 302.347 259.667 L 312.500 259.667 312.500 259.037 C 312.500 258.690,312.203 254.284,311.840 249.245 C 311.476 244.206,310.763 234.308,310.255 227.250 C 309.747 220.192,309.145 211.867,308.917 208.750 C 308.689 205.633,308.201 198.883,307.832 193.750 C 306.249 171.711,305.298 158.553,304.913 153.333 C 304.686 150.262,304.501 147.581,304.500 147.375 L 304.500 147.000 294.363 147.000 L 284.226 147.000 267.677 188.042 C 258.575 210.615,251.071 229.187,251.003 229.314 C 250.923 229.462,250.611 228.867,250.129 227.647 C 249.438 225.899,245.948 217.227,241.751 206.833 C 240.807 204.496,239.007 200.033,237.751 196.917 C 236.494 193.800,234.694 189.338,233.750 187.000 C 232.807 184.662,230.931 180.012,229.583 176.667 C 228.235 173.321,226.510 169.046,225.750 167.167 C 222.236 158.475,218.412 148.987,218.042 148.042 L 217.634 147.000 207.484 147.000 L 197.333 147.000 197.333 147.421 " stroke="none" fill="#241c24" fill-rule="evenodd"></path><path id="path1" d="M0.000 200.000 L 0.000 400.000 200.000 400.000 L 400.000 400.000 400.000 200.000 L 400.000 0.000 200.000 0.000 L 0.000 0.000 0.000 200.000 M210.000 43.838 C 307.855 48.919,377.265 139.692,356.320 235.193 C 338.675 315.644,260.951 369.176,179.466 356.999 C 96.547 344.608,37.983 270.011,45.677 186.583 C 53.398 102.859,126.342 39.494,210.000 43.838 M197.167 63.765 C 196.662 63.799,194.938 63.905,193.333 64.001 C 121.744 68.299,65.098 128.890,65.098 201.167 C 65.098 285.997,141.126 350.526,224.917 336.814 C 286.260 326.775,333.697 275.852,339.402 213.917 C 346.473 137.138,289.151 69.640,212.083 64.000 C 209.593 63.817,198.910 63.649,197.167 63.765 M188.833 156.333 L 188.833 165.667 169.250 165.667 L 149.667 165.667 149.667 212.667 L 149.667 259.667 139.167 259.667 L 128.667 259.667 128.667 212.667 L 128.667 165.667 108.917 165.667 L 89.167 165.667 89.167 156.333 L 89.167 147.000 139.000 147.000 L 188.833 147.000 188.833 156.333 M218.042 148.042 C 218.412 148.987,222.236 158.475,225.750 167.167 C 226.510 169.046,228.235 173.321,229.583 176.667 C 230.931 180.012,232.807 184.662,233.750 187.000 C 234.694 189.338,236.494 193.800,237.751 196.917 C 239.007 200.033,240.807 204.496,241.751 206.833 C 245.948 217.227,249.438 225.899,250.129 227.647 C 250.611 228.867,250.923 229.462,251.003 229.314 C 251.071 229.187,258.575 210.615,267.677 188.042 L 284.226 147.000 294.363 147.000 L 304.500 147.000 304.500 147.375 C 304.501 147.581,304.686 150.262,304.913 153.333 C 305.298 158.553,306.249 171.711,307.832 193.750 C 308.201 198.883,308.689 205.633,308.917 208.750 C 309.145 211.867,309.747 220.192,310.255 227.250 C 310.763 234.308,311.476 244.206,311.840 249.245 C 312.203 254.284,312.500 258.690,312.500 259.037 L 312.500 259.667 302.347 259.667 L 292.193 259.667 292.093 258.625 C 292.038 258.052,291.805 254.883,291.575 251.583 C 291.346 248.283,290.973 243.033,290.747 239.917 C 290.521 236.800,289.733 225.737,288.996 215.333 C 288.259 204.929,287.528 194.660,287.370 192.513 L 287.083 188.610 283.432 197.513 C 281.424 202.410,278.887 208.592,277.794 211.250 C 276.701 213.908,275.145 217.696,274.336 219.667 C 273.526 221.637,272.062 225.200,271.082 227.583 C 270.101 229.967,268.792 233.154,268.171 234.667 C 267.550 236.179,265.222 241.842,262.998 247.250 C 260.773 252.658,258.720 257.664,258.435 258.374 L 257.917 259.665 250.917 259.662 L 243.917 259.659 242.099 255.204 C 241.100 252.755,238.787 247.112,236.959 242.667 C 235.131 238.221,232.789 232.521,231.753 230.000 C 230.717 227.479,228.144 221.217,226.034 216.083 C 221.504 205.062,218.475 197.688,216.318 192.428 C 215.332 190.026,214.735 188.757,214.709 189.012 C 214.686 189.234,214.402 193.242,214.078 197.917 C 213.754 202.592,213.232 209.979,212.918 214.333 C 212.604 218.688,211.781 230.275,211.090 240.083 C 210.399 249.892,209.790 258.310,209.738 258.792 L 209.643 259.667 199.488 259.667 L 189.333 259.667 189.335 259.042 C 189.336 258.698,189.708 253.279,190.162 247.000 C 190.616 240.721,191.441 229.283,191.995 221.583 C 192.550 213.883,193.115 206.083,193.251 204.250 C 193.387 202.417,193.834 196.229,194.246 190.500 C 194.657 184.771,195.220 176.971,195.496 173.167 C 195.772 169.362,196.077 165.125,196.173 163.750 C 196.270 162.375,196.570 158.233,196.841 154.546 C 197.112 150.858,197.333 147.652,197.333 147.421 L 197.333 147.000 207.484 147.000 L 217.634 147.000 218.042 148.042 " stroke="none" fill="#fbfbfb" fill-rule="evenodd"></path></g></svg>