<svg id="svg" version="1.1" xmlns="http://www.w3.org/2000/svg" xmlns:xlink="http://www.w3.org/1999/xlink" width="400" height="386.8" viewBox="0, 0, 400,386.8"><g id="svgg"><path id="path0" d="M193.907 0.267 C 194.279 0.364,194.889 0.364,195.261 0.267 C 195.633 0.169,195.329 0.090,194.584 0.090 C 193.839 0.090,193.535 0.169,193.907 0.267 M204.739 0.267 C 205.111 0.364,205.721 0.364,206.093 0.267 C 206.465 0.169,206.161 0.090,205.416 0.090 C 204.671 0.090,204.367 0.169,204.739 0.267 M183.946 1.934 C 182.960 2.358,183.977 2.358,185.300 1.934 C 186.077 1.685,186.115 1.622,185.493 1.613 C 185.068 1.607,184.371 1.751,183.946 1.934 M214.700 1.934 C 216.023 2.358,217.040 2.358,216.054 1.934 C 215.629 1.751,214.932 1.607,214.507 1.613 C 213.885 1.622,213.923 1.685,214.700 1.934 M172.272 6.569 C 167.703 8.880,165.603 10.219,165.971 10.587 C 166.078 10.694,167.381 9.989,168.866 9.019 C 170.352 8.049,172.959 6.586,174.662 5.766 C 176.364 4.947,177.552 4.272,177.301 4.266 C 177.051 4.260,174.788 5.296,172.272 6.569 M225.338 5.742 C 227.041 6.580,229.388 7.882,230.556 8.635 C 232.583 9.943,233.919 10.243,232.301 9.027 C 231.231 8.223,224.392 4.803,223.211 4.481 C 222.679 4.337,223.636 4.904,225.338 5.742 M162.282 12.961 C 160.542 14.308,159.333 14.983,158.897 14.852 C 158.525 14.740,158.221 14.834,158.221 15.061 C 158.221 15.288,158.405 15.474,158.630 15.474 C 158.856 15.474,158.909 15.691,158.749 15.957 C 158.527 16.328,158.589 16.339,159.017 16.003 C 159.323 15.762,160.793 14.652,162.282 13.536 C 164.566 11.824,165.674 10.774,165.119 10.849 C 165.048 10.859,163.772 11.809,162.282 12.961 M234.869 11.148 C 234.946 11.362,236.124 12.379,237.486 13.408 C 241.688 16.585,241.435 16.420,241.199 15.817 C 241.083 15.522,240.427 14.897,239.740 14.429 C 239.053 13.961,237.645 12.944,236.610 12.169 C 235.575 11.394,234.791 10.935,234.869 11.148 M242.166 16.832 C 242.166 17.223,248.464 23.598,248.851 23.598 C 249.025 23.598,249.029 23.359,248.859 23.068 C 248.424 22.324,242.166 16.493,242.166 16.832 M153.808 20.326 C 151.914 22.131,150.484 23.727,150.631 23.874 C 150.778 24.021,152.492 22.539,154.441 20.581 C 158.887 16.114,158.427 15.929,153.808 20.326 M149.136 25.384 C 148.704 26.042,148.643 26.339,148.961 26.233 C 149.605 26.018,150.691 24.371,150.188 24.371 C 149.974 24.371,149.500 24.827,149.136 25.384 M249.869 25.080 C 250.344 25.969,251.451 26.910,251.451 26.426 C 251.451 26.045,250.009 24.371,249.681 24.371 C 249.576 24.371,249.660 24.690,249.869 25.080 M145.215 29.087 C 145.059 29.341,145.129 29.614,145.371 29.695 C 145.623 29.779,145.020 30.942,143.953 32.426 C 142.322 34.696,140.910 37.256,141.889 36.170 C 143.086 34.841,146.581 29.272,146.401 28.980 C 146.098 28.489,145.555 28.539,145.215 29.087 M253.595 28.986 C 253.414 29.280,256.082 33.583,257.318 34.990 C 258.371 36.190,257.377 34.223,255.915 32.213 C 254.919 30.845,254.375 29.779,254.629 29.695 C 254.871 29.614,254.941 29.341,254.785 29.087 C 254.444 28.536,253.902 28.490,253.595 28.986 M140.405 37.427 C 140.086 37.800,139.796 38.241,139.761 38.408 C 139.726 38.575,138.534 40.714,137.112 43.163 C 135.690 45.612,134.618 47.706,134.729 47.817 C 134.840 47.928,135.327 47.224,135.812 46.253 C 136.297 45.282,136.819 44.487,136.971 44.487 C 137.123 44.487,137.356 44.052,137.490 43.520 C 137.623 42.988,137.903 42.553,138.112 42.553 C 138.321 42.553,138.491 42.349,138.491 42.100 C 138.491 41.851,138.723 41.372,139.006 41.036 C 139.289 40.700,139.993 39.599,140.570 38.588 C 141.610 36.766,141.519 36.126,140.405 37.427 M260.088 39.555 C 261.146 41.069,264.603 46.856,264.612 47.128 C 264.617 47.271,264.977 47.824,265.412 48.356 L 266.203 49.323 265.744 48.356 C 264.500 45.734,260.223 38.685,259.876 38.685 C 259.658 38.685,259.754 39.076,260.088 39.555 M131.549 52.998 C 130.444 54.913,129.406 56.480,129.242 56.480 C 128.851 56.480,127.956 58.453,128.225 58.722 C 128.515 59.012,131.048 54.964,133.318 50.580 C 134.541 48.219,133.434 49.733,131.549 52.998 M198.839 49.903 C 198.418 50.176,198.735 50.278,200.000 50.278 C 201.265 50.278,201.582 50.176,201.161 49.903 C 200.841 49.697,200.319 49.528,200.000 49.528 C 199.681 49.528,199.159 49.697,198.839 49.903 M195.540 50.992 C 193.456 52.160,192.064 53.314,192.369 53.620 C 192.533 53.784,192.912 53.569,193.211 53.143 C 193.510 52.716,194.463 52.048,195.330 51.657 C 196.196 51.266,196.905 50.799,196.905 50.618 C 196.905 50.212,196.954 50.199,195.540 50.992 M203.095 50.654 C 203.095 50.815,203.804 51.266,204.670 51.657 C 205.537 52.048,206.490 52.716,206.789 53.143 C 207.088 53.569,207.460 53.791,207.616 53.635 C 207.943 53.308,205.851 51.485,205.126 51.465 C 204.860 51.457,204.642 51.297,204.642 51.109 C 204.642 50.921,204.294 50.676,203.868 50.565 C 203.443 50.454,203.095 50.494,203.095 50.654 M269.119 54.843 C 271.366 58.817,271.491 59.005,271.738 58.758 C 271.993 58.504,271.042 56.495,270.495 56.131 C 270.303 56.004,269.666 55.073,269.079 54.062 C 268.492 53.051,267.928 52.224,267.825 52.224 C 267.723 52.224,268.305 53.403,269.119 54.843 M189.629 55.504 C 188.631 56.456,187.988 57.234,188.201 57.232 C 188.682 57.228,189.419 56.618,190.885 55.015 C 192.563 53.179,191.723 53.505,189.629 55.504 M209.655 55.466 C 210.604 56.449,211.552 57.253,211.762 57.253 C 212.262 57.253,209.705 54.600,208.704 54.080 C 208.279 53.860,208.706 54.483,209.655 55.466 M127.350 59.652 C 127.095 59.907,126.886 60.255,126.886 60.426 C 126.886 60.996,127.469 60.743,127.957 59.961 C 128.486 59.114,128.090 58.912,127.350 59.652 M272.043 59.961 C 272.531 60.743,273.114 60.996,273.114 60.426 C 273.114 60.024,272.276 59.188,271.873 59.188 C 271.701 59.188,271.778 59.536,272.043 59.961 M184.187 62.536 C 183.279 63.927,182.630 65.157,182.743 65.271 C 182.857 65.384,183.158 65.019,183.413 64.460 C 183.668 63.901,184.128 63.443,184.436 63.443 C 184.775 63.443,184.908 63.214,184.773 62.863 C 184.633 62.498,184.777 62.282,185.160 62.282 C 185.543 62.282,185.687 62.067,185.547 61.702 C 185.411 61.349,185.546 61.122,185.892 61.122 C 186.499 61.122,186.666 60.521,186.149 60.201 C 185.977 60.095,185.095 61.146,184.187 62.536 M213.803 60.213 C 213.386 60.631,213.496 61.131,213.982 61.025 C 214.226 60.972,214.579 61.494,214.767 62.186 C 214.955 62.877,215.337 63.443,215.616 63.443 C 215.895 63.443,216.332 63.901,216.587 64.460 C 216.842 65.019,217.141 65.387,217.251 65.276 C 217.362 65.165,216.790 64.060,215.980 62.819 C 214.012 59.806,214.103 59.914,213.803 60.213 M125.910 62.379 L 125.300 63.636 126.093 62.723 C 126.529 62.221,126.886 61.655,126.886 61.466 C 126.886 60.790,126.509 61.142,125.910 62.379 M273.114 61.466 C 273.114 61.655,273.471 62.221,273.907 62.723 L 274.700 63.636 274.090 62.379 C 273.491 61.142,273.114 60.790,273.114 61.466 M123.272 66.773 C 122.281 68.396,121.475 69.920,121.482 70.161 C 121.489 70.402,121.913 69.903,122.426 69.052 C 122.938 68.201,123.498 67.321,123.671 67.095 C 124.274 66.308,125.361 64.111,125.219 63.968 C 125.139 63.889,124.264 65.151,123.272 66.773 M274.705 64.032 C 275.154 65.220,278.340 70.396,278.439 70.099 C 278.503 69.906,277.777 68.485,276.825 66.941 C 275.174 64.263,274.381 63.175,274.705 64.032 M180.110 69.108 C 179.741 70.068,180.147 70.199,180.640 69.279 C 180.878 68.835,180.910 68.472,180.713 68.472 C 180.515 68.472,180.244 68.758,180.110 69.108 M219.342 69.246 C 219.570 69.671,219.926 70.019,220.133 70.019 C 220.342 70.019,220.294 69.674,220.026 69.246 C 219.761 68.820,219.405 68.472,219.236 68.472 C 219.067 68.472,219.115 68.820,219.342 69.246 M178.891 71.277 C 178.741 71.755,178.507 72.234,178.369 72.340 C 178.087 72.559,175.242 77.335,175.242 77.591 C 175.242 77.682,175.571 77.427,175.974 77.024 C 176.684 76.315,179.884 71.080,179.884 70.629 C 179.884 70.023,179.128 70.515,178.891 71.277 M220.116 70.631 C 220.116 71.102,222.848 75.491,223.653 76.314 C 224.299 76.974,224.198 76.631,223.221 74.855 C 222.520 73.578,221.780 72.427,221.578 72.297 C 221.376 72.167,221.203 71.906,221.194 71.717 C 221.151 70.790,220.116 69.749,220.116 70.631 M118.126 75.622 C 116.479 77.503,113.449 83.172,114.091 83.172 C 114.447 83.172,115.057 82.011,114.955 81.528 C 114.921 81.368,115.068 81.238,115.280 81.238 C 115.493 81.238,115.667 80.991,115.667 80.690 C 115.667 80.388,115.812 80.084,115.990 80.013 C 116.308 79.886,119.338 74.655,119.086 74.668 C 119.014 74.672,118.582 75.102,118.126 75.622 M281.988 76.789 C 282.689 78.066,283.503 79.385,283.798 79.721 C 284.092 80.057,284.333 80.536,284.333 80.785 C 284.333 81.034,284.507 81.238,284.720 81.238 C 284.932 81.238,285.079 81.368,285.045 81.528 C 284.942 82.013,285.554 83.172,285.912 83.172 C 286.098 83.172,286.104 82.783,285.926 82.302 C 285.749 81.823,285.681 81.214,285.774 80.948 C 285.868 80.682,285.712 80.464,285.429 80.464 C 285.145 80.464,284.422 79.588,283.821 78.519 C 283.220 77.450,282.275 76.101,281.721 75.521 C 280.777 74.535,280.794 74.616,281.988 76.789 M173.501 80.464 C 173.171 81.103,172.988 81.625,173.094 81.625 C 173.201 81.625,173.558 81.103,173.888 80.464 C 174.218 79.826,174.401 79.304,174.295 79.304 C 174.188 79.304,173.831 79.826,173.501 80.464 M316.059 82.616 C 314.679 83.560,313.374 84.339,313.158 84.347 C 312.942 84.354,312.244 84.805,311.605 85.348 C 310.240 86.510,310.841 86.235,315.341 83.636 C 317.881 82.169,318.798 81.811,319.149 82.148 C 319.502 82.487,319.579 82.417,319.477 81.850 C 319.263 80.670,318.729 80.789,316.059 82.616 M171.049 84.705 C 170.163 86.190,169.439 87.526,169.439 87.675 C 169.439 87.825,169.150 88.266,168.797 88.657 C 168.443 89.047,168.244 89.456,168.353 89.565 C 168.532 89.744,170.600 86.918,170.600 86.494 C 170.600 86.398,171.149 85.435,171.821 84.354 C 172.492 83.274,172.955 82.304,172.850 82.199 C 172.744 82.093,171.934 83.221,171.049 84.705 M227.079 82.323 C 227.079 82.494,227.602 83.457,228.240 84.464 C 228.878 85.470,229.400 86.441,229.400 86.620 C 229.400 86.799,229.662 87.163,229.981 87.427 C 230.900 88.191,230.675 87.596,228.953 84.708 C 227.382 82.074,227.079 81.689,227.079 82.323 M317.988 84.913 C 317.988 85.232,318.162 85.493,318.375 85.493 C 318.588 85.493,318.762 85.232,318.762 84.913 C 318.762 84.594,318.588 84.333,318.375 84.333 C 318.162 84.333,317.988 84.594,317.988 84.913 M109.702 89.973 C 108.498 92.031,107.584 93.786,107.672 93.874 C 107.759 93.962,108.814 92.347,110.014 90.285 C 111.215 88.223,112.129 86.468,112.045 86.384 C 111.961 86.300,110.907 87.915,109.702 89.973 M287.879 86.570 C 288.383 87.752,292.187 94.015,292.321 93.882 C 292.508 93.694,288.234 86.267,287.939 86.267 C 287.835 86.267,287.808 86.403,287.879 86.570 M308.704 87.073 L 307.737 87.861 308.994 87.247 C 309.686 86.910,310.251 86.551,310.251 86.450 C 310.251 86.066,309.635 86.313,308.704 87.073 M304.642 89.311 C 299.753 91.994,299.280 92.295,299.100 92.835 C 298.918 93.383,302.246 91.612,303.219 90.644 C 303.500 90.364,303.979 90.135,304.283 90.135 C 304.587 90.135,304.836 89.951,304.836 89.726 C 304.836 89.500,305.010 89.424,305.222 89.555 C 305.435 89.687,305.609 89.610,305.609 89.385 C 305.609 89.159,305.849 88.975,306.142 88.975 C 306.435 88.975,306.892 88.714,307.157 88.395 C 307.826 87.588,307.698 87.634,304.642 89.311 M166.821 91.683 C 166.553 92.111,166.506 92.456,166.714 92.456 C 166.921 92.456,167.277 92.108,167.505 91.683 C 167.733 91.257,167.781 90.909,167.612 90.909 C 167.442 90.909,167.087 91.257,166.821 91.683 M232.495 91.683 C 232.723 92.108,233.079 92.456,233.286 92.456 C 233.494 92.456,233.447 92.111,233.179 91.683 C 232.913 91.257,232.558 90.909,232.388 90.909 C 232.219 90.909,232.267 91.257,232.495 91.683 M165.660 93.617 C 165.257 94.262,165.274 94.391,165.761 94.391 C 166.082 94.391,166.344 94.318,166.344 94.229 C 166.344 94.140,166.450 93.792,166.579 93.455 C 166.915 92.579,166.234 92.699,165.660 93.617 M233.269 93.203 C 233.269 93.400,233.507 93.800,233.798 94.091 C 234.089 94.382,234.449 95.004,234.598 95.473 C 234.747 95.941,235.031 96.325,235.229 96.325 C 235.428 96.325,235.590 96.673,235.590 97.099 C 235.590 97.524,235.763 97.872,235.973 97.872 C 236.184 97.872,236.897 98.830,237.558 100.000 C 238.218 101.170,238.846 102.128,238.952 102.128 C 239.137 102.128,238.272 100.516,235.262 95.261 C 233.991 93.041,233.269 92.295,233.269 93.203 M297.256 93.845 L 296.132 94.846 297.389 94.221 C 298.080 93.878,298.646 93.428,298.646 93.220 C 298.646 92.671,298.499 92.737,297.256 93.845 M164.368 95.877 C 161.921 100.179,160.888 102.128,161.055 102.128 C 161.162 102.128,161.858 101.040,162.602 99.710 C 163.346 98.380,164.319 96.874,164.763 96.362 C 165.589 95.411,165.797 94.776,165.280 94.780 C 165.121 94.781,164.710 95.275,164.368 95.877 M106.339 96.035 C 106.087 96.514,105.689 97.033,105.455 97.189 C 105.158 97.388,105.172 97.475,105.503 97.480 C 105.763 97.483,106.246 96.963,106.576 96.325 C 106.906 95.687,107.091 95.164,106.987 95.164 C 106.882 95.164,106.591 95.556,106.339 96.035 M103.733 99.832 C 103.063 100.910,102.515 101.871,102.515 101.968 C 102.515 102.064,102.079 102.832,101.547 103.675 C 100.491 105.349,100.407 105.609,100.925 105.609 C 101.115 105.609,101.379 105.174,101.513 104.642 C 101.646 104.110,101.926 103.675,102.135 103.675 C 102.344 103.675,102.515 103.471,102.515 103.222 C 102.515 102.973,102.751 102.494,103.041 102.158 C 104.007 101.038,105.688 97.872,105.317 97.872 C 105.116 97.872,104.403 98.754,103.733 99.832 M158.685 105.687 C 158.429 105.942,158.221 106.294,158.221 106.468 C 158.221 106.642,157.773 107.495,157.225 108.361 C 156.678 109.228,156.310 110.017,156.407 110.114 C 156.593 110.301,158.675 107.047,159.104 105.899 C 159.402 105.102,159.314 105.057,158.685 105.687 M240.619 105.404 C 240.619 105.932,244.288 111.799,244.618 111.799 C 244.801 111.799,244.575 111.233,244.116 110.542 C 243.657 109.850,243.100 108.806,242.879 108.221 C 242.658 107.635,242.320 107.157,242.129 107.157 C 241.937 107.157,241.779 106.917,241.779 106.624 C 241.779 106.331,241.518 105.874,241.199 105.609 C 240.880 105.344,240.619 105.252,240.619 105.404 M97.295 111.122 C 95.632 114.019,95.190 114.752,94.268 116.149 C 93.881 116.735,93.732 117.215,93.937 117.215 C 94.230 117.215,96.151 114.045,98.920 108.994 C 99.007 108.835,98.990 108.704,98.881 108.704 C 98.773 108.704,98.059 109.792,97.295 111.122 M155.513 111.219 C 155.248 111.538,155.161 111.799,155.319 111.799 C 155.478 111.799,155.402 112.046,155.151 112.349 C 154.778 112.798,154.833 112.862,155.447 112.702 C 155.953 112.569,156.183 112.198,156.147 111.572 C 156.083 110.469,156.118 110.489,155.513 111.219 M153.668 114.120 C 153.400 114.549,153.353 114.894,153.561 114.894 C 153.769 114.894,154.124 114.545,154.352 114.120 C 154.580 113.694,154.628 113.346,154.459 113.346 C 154.290 113.346,153.934 113.694,153.668 114.120 M245.648 114.120 C 245.876 114.545,246.236 114.894,246.449 114.894 C 246.698 114.894,246.688 114.618,246.422 114.120 C 246.194 113.694,245.834 113.346,245.621 113.346 C 245.372 113.346,245.382 113.622,245.648 114.120 M152.576 115.957 C 151.378 117.914,149.280 121.857,149.438 121.857 C 149.679 121.857,152.418 117.248,152.418 116.842 C 152.418 116.667,152.679 116.424,152.998 116.301 C 153.317 116.179,153.578 115.899,153.578 115.679 C 153.578 115.058,153.034 115.209,152.576 115.957 M246.422 115.679 C 246.422 115.899,246.683 116.179,247.002 116.301 C 247.321 116.424,247.582 116.677,247.582 116.863 C 247.582 117.050,248.122 118.080,248.781 119.151 C 249.440 120.223,249.884 121.348,249.768 121.652 C 249.626 122.021,249.745 122.132,250.125 121.986 C 250.657 121.782,249.748 119.753,247.424 115.957 C 246.966 115.209,246.422 115.058,246.422 115.679 M92.456 119.149 C 92.229 119.574,92.181 119.923,92.350 119.923 C 92.519 119.923,92.875 119.574,93.140 119.149 C 93.408 118.720,93.456 118.375,93.247 118.375 C 93.040 118.375,92.684 118.723,92.456 119.149 M90.580 122.269 C 89.910 123.347,89.362 124.392,89.362 124.591 C 89.362 124.789,89.111 124.952,88.805 124.952 C 88.500 124.952,88.262 125.256,88.277 125.629 C 88.292 126.001,88.181 126.654,88.030 127.079 L 87.756 127.853 88.236 127.079 C 88.499 126.654,88.829 126.219,88.968 126.112 C 89.108 126.006,89.616 125.093,90.099 124.083 C 90.581 123.074,91.134 122.150,91.327 122.031 C 91.871 121.695,92.526 120.309,92.141 120.309 C 91.953 120.309,91.250 121.191,90.580 122.269 M308.317 122.050 C 308.317 122.701,308.388 122.728,309.253 122.396 C 310.117 122.064,310.013 121.470,309.091 121.470 C 308.661 121.470,308.317 121.728,308.317 122.050 M148.356 123.404 C 148.026 124.043,147.843 124.565,147.949 124.565 C 148.056 124.565,148.413 124.043,148.743 123.404 C 149.073 122.766,149.256 122.244,149.149 122.244 C 149.043 122.244,148.686 122.766,148.356 123.404 M242.750 125.719 C 240.624 126.989,238.815 128.237,238.729 128.493 C 238.574 128.959,241.820 127.244,242.970 126.252 C 243.306 125.962,243.785 125.725,244.034 125.725 C 244.284 125.725,244.487 125.555,244.487 125.346 C 244.487 125.137,244.923 124.857,245.455 124.724 C 245.986 124.590,246.422 124.315,246.422 124.113 C 246.422 123.911,246.596 123.853,246.809 123.985 C 247.021 124.116,247.195 124.039,247.195 123.814 C 247.195 123.135,246.775 123.316,242.750 125.719 M307.544 125.145 C 307.544 125.464,307.718 125.725,307.930 125.725 C 308.143 125.725,308.317 125.464,308.317 125.145 C 308.317 124.826,308.143 124.565,307.930 124.565 C 307.718 124.565,307.544 124.826,307.544 125.145 M145.236 128.512 C 145.087 128.981,144.727 129.602,144.436 129.894 C 144.145 130.185,143.907 130.671,143.907 130.975 C 143.907 131.279,143.733 131.528,143.520 131.528 C 143.308 131.528,143.133 131.702,143.133 131.915 C 143.133 132.760,143.812 132.219,144.706 130.661 C 145.964 128.471,146.274 127.660,145.855 127.660 C 145.663 127.660,145.385 128.043,145.236 128.512 M237.718 128.855 C 237.505 129.066,236.983 129.501,236.557 129.822 C 235.913 130.307,235.994 130.303,237.041 129.796 C 237.732 129.461,238.298 129.017,238.298 128.810 C 238.298 128.354,238.218 128.360,237.718 128.855 M86.087 130.208 C 85.726 130.758,85.520 131.296,85.627 131.404 C 85.735 131.512,86.101 131.062,86.442 130.403 C 87.194 128.949,86.987 128.834,86.087 130.208 M306.383 129.787 C 306.383 130.106,306.557 130.368,306.770 130.368 C 306.983 130.368,307.157 130.106,307.157 129.787 C 307.157 129.468,306.983 129.207,306.770 129.207 C 306.557 129.207,306.383 129.468,306.383 129.787 M233.690 131.148 C 232.965 131.553,232.204 132.052,231.999 132.256 C 231.795 132.461,231.387 132.536,231.094 132.424 C 230.801 132.311,230.561 132.397,230.561 132.616 C 230.561 132.834,229.942 133.395,229.187 133.862 C 228.431 134.329,227.883 134.782,227.970 134.869 C 228.111 135.010,234.993 131.094,235.508 130.579 C 235.956 130.130,234.950 130.445,233.690 131.148 M83.728 134.333 C 82.950 135.662,82.193 136.838,82.045 136.944 C 81.439 137.382,80.009 140.099,80.256 140.346 C 80.525 140.615,81.167 139.751,81.170 139.115 C 81.171 138.926,81.332 138.665,81.528 138.535 C 81.805 138.350,83.691 135.251,85.378 132.205 C 85.467 132.045,85.450 131.915,85.341 131.915 C 85.232 131.915,84.507 133.003,83.728 134.333 M305.609 132.882 C 305.609 133.201,305.783 133.462,305.996 133.462 C 306.209 133.462,306.383 133.201,306.383 132.882 C 306.383 132.563,306.209 132.302,305.996 132.302 C 305.783 132.302,305.609 132.563,305.609 132.882 M142.299 133.752 C 141.582 134.607,140.426 136.459,140.426 136.752 C 140.426 137.238,141.913 135.515,142.514 134.333 C 143.226 132.932,143.153 132.734,142.299 133.752 M225.819 135.832 C 224.850 136.374,224.976 137.332,226.015 137.325 C 226.722 137.320,226.777 137.247,226.306 136.938 C 225.796 136.604,225.795 136.512,226.294 136.191 C 227.079 135.687,226.653 135.365,225.819 135.832 M139.123 138.975 L 138.427 140.232 139.224 139.265 C 139.931 138.407,140.245 137.718,139.929 137.718 C 139.868 137.718,139.505 138.283,139.123 138.975 M233.849 139.265 C 234.275 139.448,234.971 139.592,235.397 139.586 C 236.018 139.577,235.981 139.514,235.203 139.265 C 233.880 138.841,232.863 138.841,233.849 139.265 M137.392 141.861 C 136.266 144.058,136.339 144.408,137.550 142.625 C 138.097 141.821,138.472 140.954,138.385 140.698 C 138.298 140.442,137.851 140.965,137.392 141.861 M239.458 140.812 C 239.458 141.025,239.720 141.199,240.039 141.199 C 240.358 141.199,240.619 141.025,240.619 140.812 C 240.619 140.600,240.358 140.426,240.039 140.426 C 239.720 140.426,239.458 140.600,239.458 140.812 M79.304 141.586 C 79.076 142.012,79.028 142.360,79.197 142.360 C 79.366 142.360,79.722 142.012,79.988 141.586 C 80.255 141.157,80.303 140.812,80.094 140.812 C 79.887 140.812,79.531 141.161,79.304 141.586 M241.006 141.138 C 241.006 141.579,243.262 142.166,243.612 141.816 C 243.946 141.483,243.676 141.323,242.263 141.020 C 241.503 140.857,241.006 140.904,241.006 141.138 M244.101 141.928 C 244.101 142.116,244.492 142.374,244.971 142.503 C 246.286 142.855,246.883 142.793,246.599 142.333 C 246.458 142.106,246.105 142.011,245.815 142.123 C 245.524 142.235,245.183 142.159,245.057 141.956 C 244.770 141.491,244.101 141.471,244.101 141.928 M77.900 144.004 C 77.287 145.188,77.288 145.229,77.911 144.713 C 78.808 143.969,79.448 142.747,78.940 142.747 C 78.726 142.747,78.257 143.312,77.900 144.004 M253.385 144.263 C 253.385 144.683,255.656 145.247,255.992 144.911 C 256.118 144.784,255.855 144.681,255.406 144.681 C 254.958 144.681,254.484 144.507,254.352 144.294 C 254.052 143.808,253.385 143.787,253.385 144.263 M135.248 145.634 C 134.470 146.822,134.468 147.002,135.235 147.002 C 135.572 147.002,135.770 146.784,135.674 146.518 C 135.579 146.252,135.658 145.730,135.849 145.358 C 136.365 144.354,135.966 144.538,135.248 145.634 M256.713 145.003 C 256.455 145.421,258.703 146.068,259.086 145.685 C 259.213 145.558,258.974 145.455,258.556 145.455 C 258.137 145.455,257.606 145.265,257.374 145.034 C 257.097 144.757,256.872 144.746,256.713 145.003 M76.983 146.249 C 76.983 146.737,77.177 146.997,77.466 146.893 C 77.732 146.798,78.254 146.876,78.627 147.068 C 79.655 147.597,79.438 147.247,78.143 146.289 L 76.983 145.431 76.983 146.249 M133.849 147.969 C 133.576 148.298,133.439 148.655,133.545 148.761 C 133.652 148.868,133.963 148.685,134.236 148.356 C 134.509 148.026,134.646 147.670,134.540 147.564 C 134.433 147.457,134.123 147.640,133.849 147.969 M81.157 148.604 C 81.858 149.053,82.527 149.324,82.644 149.206 C 82.761 149.089,82.327 148.719,81.680 148.384 C 79.988 147.509,79.662 147.646,81.157 148.604 M267.892 148.162 C 268.317 148.345,269.014 148.490,269.439 148.484 C 270.061 148.474,270.023 148.411,269.246 148.162 C 267.923 147.739,266.906 147.739,267.892 148.162 M83.946 149.873 C 83.946 149.978,84.773 150.542,85.783 151.126 C 86.794 151.710,87.708 152.305,87.814 152.449 C 88.575 153.480,94.391 156.531,94.391 155.899 C 94.391 155.687,94.130 155.513,93.810 155.513 C 93.491 155.513,93.230 155.328,93.230 155.103 C 93.230 154.878,93.071 154.792,92.876 154.912 C 92.682 155.032,92.464 154.984,92.393 154.805 C 92.196 154.311,83.946 149.494,83.946 149.873 M132.141 150.732 C 131.772 151.693,132.178 151.824,132.671 150.904 C 132.908 150.460,132.941 150.097,132.744 150.097 C 132.546 150.097,132.275 150.383,132.141 150.732 M323.313 151.172 C 322.305 151.751,321.392 152.454,321.283 152.735 C 321.175 153.016,322.069 152.684,323.270 151.997 C 325.621 150.652,325.372 150.604,326.793 152.674 C 327.062 153.065,326.928 152.645,326.495 151.741 C 325.572 149.808,325.659 149.824,323.313 151.172 M131.335 152.418 C 131.466 152.631,131.389 152.805,131.164 152.805 C 130.939 152.805,130.754 153.051,130.754 153.353 C 130.754 153.654,130.609 153.959,130.432 154.030 C 130.150 154.143,127.825 157.973,126.538 160.445 C 125.723 162.010,126.460 161.357,127.362 159.715 C 128.812 157.073,129.121 156.580,129.481 156.331 C 130.464 155.650,132.168 152.031,131.505 152.031 C 131.280 152.031,131.203 152.205,131.335 152.418 M285.880 152.805 C 285.880 153.017,286.141 153.191,286.460 153.191 C 286.779 153.191,287.041 153.017,287.041 152.805 C 287.041 152.592,286.779 152.418,286.460 152.418 C 286.141 152.418,285.880 152.592,285.880 152.805 M287.427 153.191 C 287.427 153.404,287.689 153.578,288.008 153.578 C 288.327 153.578,288.588 153.404,288.588 153.191 C 288.588 152.979,288.327 152.805,288.008 152.805 C 287.689 152.805,287.427 152.979,287.427 153.191 M319.149 153.872 L 318.182 154.857 319.439 154.134 C 320.131 153.737,320.696 153.275,320.696 153.108 C 320.696 152.582,320.149 152.852,319.149 153.872 M288.975 153.578 C 288.975 153.791,289.236 153.965,289.555 153.965 C 289.874 153.965,290.135 153.791,290.135 153.578 C 290.135 153.366,289.874 153.191,289.555 153.191 C 289.236 153.191,288.975 153.366,288.975 153.578 M292.311 154.274 C 292.183 154.481,292.468 154.755,292.944 154.883 C 294.255 155.234,294.852 155.172,294.568 154.713 C 294.427 154.485,294.090 154.385,293.818 154.489 C 293.547 154.593,293.149 154.503,292.934 154.288 C 292.683 154.037,292.461 154.032,292.311 154.274 M328.653 156.093 C 329.238 157.157,330.038 158.442,330.429 158.950 C 330.821 159.457,331.141 160.110,331.141 160.400 C 331.141 160.691,331.315 160.928,331.528 160.928 C 331.741 160.928,331.915 161.177,331.915 161.481 C 331.915 161.785,332.153 162.272,332.444 162.563 C 332.735 162.854,333.095 163.476,333.244 163.945 C 333.393 164.413,333.671 164.797,333.863 164.797 C 334.311 164.797,333.943 163.814,332.819 162.009 C 332.328 161.220,332.029 160.306,332.155 159.978 C 332.302 159.595,332.165 159.381,331.773 159.381 C 331.436 159.381,330.887 158.851,330.552 158.202 C 330.216 157.554,329.693 156.727,329.388 156.365 C 329.084 156.002,328.555 155.358,328.212 154.932 C 327.869 154.507,328.068 155.029,328.653 156.093 M314.395 156.535 C 312.737 157.516,311.455 158.392,311.545 158.483 C 311.682 158.619,317.447 155.395,317.956 154.896 C 318.601 154.266,316.924 155.037,314.395 156.535 M298.259 155.940 C 298.259 156.131,298.694 156.286,299.226 156.286 C 300.487 156.286,300.486 155.723,299.226 155.650 C 298.694 155.620,298.259 155.750,298.259 155.940 M95.438 157.011 C 96.323 157.863,97.099 158.087,97.099 157.492 C 97.099 157.304,96.794 157.043,96.422 156.911 C 96.049 156.780,95.484 156.564,95.164 156.431 C 94.845 156.298,94.969 156.559,95.438 157.011 M97.866 158.407 C 98.134 158.730,98.515 158.994,98.712 158.994 C 98.909 158.994,100.550 159.885,102.359 160.974 C 104.168 162.062,105.731 162.870,105.832 162.768 C 106.013 162.588,99.567 158.701,98.117 158.116 C 97.489 157.864,97.452 157.907,97.866 158.407 M309.768 159.215 C 309.183 159.533,308.704 159.874,308.704 159.974 C 308.704 160.379,309.445 160.110,310.305 159.394 C 311.394 158.487,311.218 158.429,309.768 159.215 M307.328 160.703 C 306.915 161.005,306.708 161.382,306.867 161.542 C 307.026 161.701,307.157 161.628,307.157 161.380 C 307.157 161.132,307.418 160.928,307.737 160.928 C 308.056 160.928,308.317 160.754,308.317 160.542 C 308.317 160.035,308.220 160.051,307.328 160.703 M303.205 162.992 C 302.275 163.702,300.338 164.940,298.900 165.745 C 297.462 166.549,296.350 167.272,296.429 167.351 C 296.664 167.586,305.609 162.415,305.609 162.044 C 305.609 161.415,304.908 161.692,303.205 162.992 M107.401 163.823 C 107.524 164.143,107.780 164.309,107.971 164.192 C 108.161 164.074,108.317 164.172,108.317 164.410 C 108.317 164.648,108.476 164.744,108.671 164.624 C 108.866 164.504,109.113 164.624,109.221 164.891 C 109.370 165.261,109.424 165.264,109.447 164.904 C 109.464 164.643,108.960 164.162,108.328 163.835 C 107.312 163.310,107.204 163.309,107.401 163.823 M124.013 164.742 C 123.138 166.434,123.275 166.760,124.233 165.264 C 124.681 164.564,124.952 163.895,124.835 163.778 C 124.718 163.660,124.348 164.094,124.013 164.742 M92.263 164.797 C 91.277 165.221,92.294 165.221,93.617 164.797 C 94.394 164.548,94.432 164.485,93.810 164.476 C 93.385 164.470,92.689 164.614,92.263 164.797 M109.865 165.121 C 109.865 165.507,117.205 169.964,117.445 169.724 C 117.518 169.651,117.235 169.298,116.816 168.939 C 116.397 168.580,116.054 168.384,116.054 168.503 C 116.054 168.623,115.781 168.447,115.446 168.113 C 115.112 167.778,114.590 167.505,114.286 167.505 C 113.982 167.505,113.733 167.342,113.733 167.144 C 113.733 166.946,113.341 166.662,112.863 166.513 C 112.384 166.364,111.514 165.906,110.928 165.494 C 110.343 165.081,109.865 164.914,109.865 165.121 M334.245 165.474 C 334.249 165.633,334.608 166.199,335.042 166.731 L 335.830 167.698 335.216 166.441 C 334.633 165.246,334.226 164.841,334.245 165.474 M95.938 166.925 C 95.938 167.244,96.112 167.505,96.325 167.505 C 96.538 167.505,96.712 167.244,96.712 166.925 C 96.712 166.605,96.538 166.344,96.325 166.344 C 96.112 166.344,95.938 166.605,95.938 166.925 M122.095 168.071 C 121.751 168.596,121.470 169.178,121.470 169.366 C 121.470 169.756,120.138 171.037,119.885 170.891 C 119.792 170.837,119.845 170.954,120.003 171.150 C 120.387 171.630,121.938 169.892,122.500 168.352 C 123.040 166.870,122.931 166.795,122.095 168.071 M335.848 168.185 C 335.919 168.346,336.996 170.261,338.242 172.440 C 340.377 176.175,341.142 177.280,340.510 175.716 C 340.045 174.566,336.126 167.892,335.915 167.892 C 335.807 167.892,335.777 168.024,335.848 168.185 M291.879 169.553 C 291.029 170.022,290.246 170.511,290.138 170.638 C 290.030 170.766,289.535 171.085,289.038 171.347 C 288.541 171.609,288.211 171.899,288.305 171.993 C 288.460 172.148,293.364 169.434,293.903 168.895 C 294.398 168.400,293.348 168.741,291.879 169.553 M64.894 171.640 C 64.521 171.737,64.217 171.978,64.217 172.175 C 64.217 172.650,64.324 172.634,65.623 171.956 C 66.680 171.405,66.347 171.260,64.894 171.640 M286.557 172.755 C 285.972 173.073,285.493 173.511,285.493 173.729 C 285.493 173.947,286.015 173.816,286.654 173.439 C 288.414 172.400,288.328 171.794,286.557 172.755 M55.609 173.968 C 54.386 174.289,53.385 174.721,53.385 174.927 C 53.385 175.333,55.241 175.028,56.867 174.357 C 57.398 174.137,58.038 173.990,58.288 174.029 C 58.538 174.069,58.853 173.923,58.988 173.705 C 59.312 173.180,58.319 173.257,55.609 173.968 M50.415 175.352 C 50.304 175.532,50.289 175.757,50.383 175.850 C 50.674 176.141,52.998 175.552,52.998 175.187 C 52.998 174.757,50.692 174.904,50.415 175.352 M282.504 175.291 C 282.027 175.768,283.482 178.923,284.877 180.437 C 285.282 180.878,284.977 180.078,284.199 178.660 C 283.394 177.193,282.886 175.817,283.020 175.468 C 283.296 174.747,283.111 174.684,282.504 175.291 M44.682 177.086 C 43.406 177.420,42.536 177.746,42.748 177.812 C 42.960 177.877,44.352 177.603,45.841 177.202 C 47.331 176.800,48.201 176.474,47.776 176.476 C 47.350 176.478,45.958 176.752,44.682 177.086 M341.586 178.337 C 341.995 179.101,342.747 179.401,342.747 178.801 C 342.747 178.394,341.906 177.563,341.495 177.563 C 341.317 177.563,341.358 177.911,341.586 178.337 M342.712 180.206 C 342.921 180.596,343.389 181.162,343.752 181.463 C 344.375 181.980,344.376 181.939,343.764 180.754 C 343.406 180.063,342.938 179.497,342.723 179.497 C 342.464 179.497,342.461 179.736,342.712 180.206 M286.060 182.495 C 286.398 183.187,286.756 183.752,286.857 183.752 C 287.242 183.752,286.994 183.136,286.235 182.205 L 285.447 181.238 286.060 182.495 M345.465 184.543 C 346.097 185.616,346.615 186.661,346.615 186.864 C 346.615 187.068,346.789 187.234,347.002 187.234 C 347.602 187.234,347.234 186.359,345.398 183.419 C 344.311 181.679,344.371 182.689,345.465 184.543 M20.890 183.527 C 20.890 184.128,23.502 185.911,23.859 185.554 C 23.981 185.432,23.453 185.034,22.687 184.669 C 21.602 184.151,21.388 183.891,21.719 183.491 C 22.043 183.102,21.995 182.979,21.517 182.979 C 21.172 182.979,20.890 183.226,20.890 183.527 M100.628 183.559 C 100.610 183.772,100.837 184.816,101.133 185.880 C 101.429 186.944,101.674 187.466,101.676 187.041 C 101.682 186.217,100.684 182.904,100.628 183.559 M24.371 185.860 C 24.371 185.967,24.894 186.324,25.532 186.654 C 26.170 186.984,26.692 187.167,26.692 187.060 C 26.692 186.954,26.170 186.597,25.532 186.267 C 24.894 185.937,24.371 185.754,24.371 185.860 M289.174 188.008 C 290.838 191.319,293.454 195.632,294.337 196.518 C 295.203 197.388,295.171 197.253,294.017 195.164 C 293.311 193.888,292.497 192.650,292.208 192.414 C 291.919 192.178,291.683 191.699,291.683 191.350 C 291.683 191.001,291.528 190.716,291.338 190.716 C 291.148 190.716,290.884 190.280,290.750 189.749 C 290.617 189.217,290.326 188.781,290.105 188.781 C 289.884 188.781,289.778 188.651,289.870 188.491 C 289.961 188.332,289.689 187.853,289.265 187.427 C 288.495 186.654,288.495 186.655,289.174 188.008 M27.144 187.621 C 27.240 187.910,27.570 188.285,27.876 188.455 C 28.183 188.625,29.945 189.638,31.793 190.707 C 35.335 192.755,35.989 193.017,35.203 192.070 C 34.938 191.750,34.482 191.489,34.189 191.489 C 33.896 191.489,33.656 191.305,33.656 191.080 C 33.656 190.854,33.482 190.778,33.269 190.909 C 33.056 191.041,32.882 190.964,32.882 190.738 C 32.882 190.513,32.678 190.329,32.429 190.329 C 32.180 190.329,31.701 190.092,31.365 189.802 C 30.118 188.727,26.970 187.101,27.144 187.621 M349.914 192.166 C 350.488 193.177,351.563 195.092,352.304 196.422 C 353.044 197.751,353.818 198.839,354.024 198.839 C 354.229 198.839,354.290 199.014,354.159 199.226 C 354.027 199.439,354.104 199.613,354.329 199.613 C 354.851 199.613,354.848 199.577,354.186 198.016 C 353.882 197.299,353.291 196.424,352.873 196.073 C 352.454 195.722,351.469 194.286,350.684 192.882 C 349.899 191.478,349.169 190.329,349.063 190.329 C 348.957 190.329,349.340 191.156,349.914 192.166 M102.580 191.489 C 102.600 192.495,103.209 194.145,103.222 193.230 C 103.229 192.805,103.084 192.108,102.901 191.683 C 102.698 191.209,102.573 191.134,102.580 191.489 M35.977 192.823 C 35.977 192.930,36.499 193.287,37.137 193.617 C 37.776 193.947,38.298 194.130,38.298 194.024 C 38.298 193.917,37.776 193.560,37.137 193.230 C 36.499 192.900,35.977 192.717,35.977 192.823 M38.685 194.289 C 38.685 194.505,42.391 196.905,42.724 196.905 C 43.380 196.905,45.507 198.700,45.361 199.130 C 45.271 199.396,45.396 199.613,45.639 199.613 C 45.882 199.613,45.982 199.454,45.862 199.259 C 45.742 199.065,45.848 198.837,46.099 198.754 C 46.350 198.670,45.524 198.024,44.264 197.317 C 43.004 196.611,41.233 195.604,40.329 195.078 C 39.425 194.553,38.685 194.198,38.685 194.289 M103.545 195.350 C 103.671 196.090,104.008 197.395,104.293 198.251 C 104.786 199.734,104.799 199.744,104.579 198.461 C 104.452 197.721,104.116 196.415,103.831 195.560 C 103.338 194.076,103.324 194.067,103.545 195.350 M296.142 199.420 C 296.299 199.845,296.416 200.498,296.401 200.870 C 296.385 201.243,296.623 201.547,296.929 201.547 C 297.235 201.547,297.485 201.787,297.485 202.080 C 297.485 202.373,297.774 202.852,298.126 203.144 C 298.699 203.620,298.696 203.540,298.091 202.371 C 297.131 200.512,295.802 198.502,296.142 199.420 M44.487 200.774 C 44.260 201.199,44.212 201.547,44.381 201.547 C 44.550 201.547,44.906 201.199,45.171 200.774 C 45.439 200.345,45.487 200.000,45.278 200.000 C 45.071 200.000,44.715 200.348,44.487 200.774 M354.829 200.774 C 355.094 201.199,355.454 201.547,355.628 201.547 C 355.803 201.547,355.858 201.688,355.752 201.860 C 355.646 202.032,355.987 202.685,356.510 203.311 L 357.461 204.449 356.777 202.907 C 356.035 201.233,355.132 200.000,354.650 200.000 C 354.482 200.000,354.563 200.348,354.829 200.774 M43.133 203.095 C 42.803 203.733,42.613 204.255,42.710 204.255 C 42.808 204.255,43.259 203.733,43.714 203.095 C 44.168 202.456,44.359 201.934,44.137 201.934 C 43.915 201.934,43.464 202.456,43.133 203.095 M105.609 204.062 C 105.609 204.381,105.783 204.642,105.996 204.642 C 106.209 204.642,106.383 204.381,106.383 204.062 C 106.383 203.743,106.209 203.482,105.996 203.482 C 105.783 203.482,105.609 203.743,105.609 204.062 M299.213 204.932 C 299.550 205.624,299.909 206.190,300.010 206.190 C 300.395 206.190,300.147 205.573,299.388 204.642 L 298.599 203.675 299.213 204.932 M40.476 207.604 C 39.479 209.236,38.719 210.740,38.787 210.945 C 38.856 211.151,39.730 209.873,40.729 208.106 C 43.036 204.028,42.867 203.691,40.476 207.604 M357.447 204.764 C 357.447 204.902,358.111 206.106,358.923 207.440 C 359.734 208.774,360.538 210.213,360.708 210.638 C 360.879 211.064,361.091 211.220,361.180 210.986 C 361.269 210.752,360.563 209.297,359.611 207.753 C 357.824 204.855,357.447 204.334,357.447 204.764 M106.383 206.770 C 106.383 207.089,106.557 207.350,106.770 207.350 C 106.983 207.350,107.157 207.089,107.157 206.770 C 107.157 206.451,106.983 206.190,106.770 206.190 C 106.557 206.190,106.383 206.451,106.383 206.770 M106.770 208.317 C 106.770 208.636,106.944 208.897,107.157 208.897 C 107.369 208.897,107.544 208.636,107.544 208.317 C 107.544 207.998,107.369 207.737,107.157 207.737 C 106.944 207.737,106.770 207.998,106.770 208.317 M107.157 209.865 C 107.157 210.184,107.331 210.445,107.544 210.445 C 107.756 210.445,107.930 210.184,107.930 209.865 C 107.930 209.545,107.756 209.284,107.544 209.284 C 107.331 209.284,107.157 209.545,107.157 209.865 M303.294 212.282 C 304.187 213.931,305.158 215.472,305.451 215.706 C 305.744 215.939,305.871 216.244,305.732 216.383 C 305.594 216.521,305.651 216.634,305.860 216.634 C 306.069 216.634,306.632 217.331,307.110 218.182 C 307.589 219.033,308.066 219.729,308.171 219.729 C 308.277 219.729,308.291 219.599,308.202 219.439 C 306.443 216.264,304.635 213.318,304.384 213.217 C 304.207 213.146,304.062 212.854,304.062 212.568 C 304.062 212.282,303.795 211.780,303.468 211.453 C 303.141 211.127,302.858 210.723,302.838 210.555 C 302.756 209.850,302.406 209.284,302.051 209.284 C 301.842 209.284,302.401 210.633,303.294 212.282 M37.656 212.766 C 37.279 213.404,36.747 213.926,36.474 213.926 C 35.942 213.926,35.813 214.407,36.232 214.827 C 36.373 214.967,36.694 214.779,36.947 214.408 C 38.207 212.555,38.753 211.605,38.558 211.605 C 38.439 211.605,38.033 212.128,37.656 212.766 M364.811 217.602 C 365.507 218.878,366.312 220.197,366.598 220.533 C 366.884 220.869,367.118 221.348,367.118 221.597 C 367.118 221.846,367.273 222.050,367.463 222.050 C 367.653 222.050,367.917 222.485,368.051 223.017 C 368.184 223.549,368.476 223.985,368.700 223.985 C 369.258 223.985,366.111 218.161,364.694 216.570 L 363.544 215.280 364.811 217.602 M35.358 216.544 C 34.759 216.943,32.882 220.002,32.882 220.578 C 32.882 221.284,33.751 220.260,34.997 218.085 C 36.070 216.214,36.110 216.041,35.358 216.544 M31.600 222.525 C 31.267 223.212,31.073 223.852,31.169 223.948 C 31.431 224.210,32.454 222.684,32.245 222.345 C 32.145 222.183,32.247 222.050,32.472 222.050 C 32.698 222.050,32.882 221.876,32.882 221.663 C 32.882 220.855,32.181 221.326,31.600 222.525 M309.865 223.026 C 309.865 223.523,313.038 228.677,313.227 228.488 C 313.316 228.399,312.663 227.131,311.775 225.671 C 309.968 222.702,309.865 222.559,309.865 223.026 M87.899 226.172 C 87.200 227.366,86.700 228.415,86.788 228.503 C 86.875 228.590,87.405 227.879,87.965 226.923 C 89.270 224.697,89.560 224.542,90.829 225.395 C 92.457 226.490,94.778 227.468,94.778 227.060 C 94.778 226.858,94.516 226.692,94.197 226.692 C 93.878 226.692,93.617 226.508,93.617 226.283 C 93.617 226.057,93.443 225.981,93.230 226.112 C 93.017 226.244,92.843 226.179,92.843 225.968 C 92.843 225.757,92.460 225.462,91.991 225.314 C 91.522 225.165,90.900 224.805,90.609 224.514 C 89.712 223.616,89.215 223.920,87.899 226.172 M29.931 225.629 C 29.381 226.692,29.373 226.809,29.879 226.390 C 30.422 225.939,31.082 224.371,30.728 224.371 C 30.647 224.371,30.288 224.937,29.931 225.629 M369.052 224.715 C 369.052 224.905,369.409 225.470,369.845 225.973 L 370.638 226.886 370.029 225.629 C 369.429 224.391,369.052 224.039,369.052 224.715 M27.853 227.458 C 27.853 227.640,28.015 227.847,28.213 227.917 C 28.410 227.988,27.709 229.506,26.654 231.291 C 25.598 233.075,24.809 234.609,24.898 234.698 C 25.021 234.821,28.697 228.792,29.308 227.465 C 29.364 227.344,29.059 227.218,28.631 227.186 C 28.203 227.154,27.853 227.276,27.853 227.458 M370.642 227.276 C 370.967 228.115,375.334 235.590,375.499 235.590 C 375.595 235.590,375.612 235.459,375.537 235.300 C 374.615 233.359,374.140 232.486,373.404 231.377 C 372.926 230.656,372.534 229.838,372.534 229.560 C 372.534 229.281,372.074 228.566,371.512 227.970 C 370.951 227.374,370.559 227.061,370.642 227.276 M95.164 227.650 C 95.164 227.751,95.730 228.107,96.422 228.442 L 97.679 229.052 96.766 228.259 C 95.910 227.516,95.164 227.232,95.164 227.650 M85.987 229.497 C 85.531 230.087,85.066 231.335,85.302 231.335 C 85.396 231.335,85.743 230.812,86.074 230.174 C 86.691 228.980,86.648 228.643,85.987 229.497 M97.872 229.135 C 97.872 229.339,99.602 230.409,102.768 232.164 C 104.958 233.378,106.109 233.686,104.255 232.563 C 101.693 231.009,97.872 228.958,97.872 229.135 M313.877 230.077 C 314.234 230.769,314.740 231.321,315.000 231.304 C 315.363 231.281,315.361 231.228,314.990 231.078 C 314.724 230.971,314.507 230.658,314.507 230.383 C 314.507 230.107,314.219 229.643,313.867 229.351 C 313.278 228.862,313.279 228.920,313.877 230.077 M84.036 232.495 C 83.768 232.924,83.720 233.269,83.929 233.269 C 84.136 233.269,84.492 232.921,84.720 232.495 C 84.947 232.070,84.995 231.721,84.826 231.721 C 84.657 231.721,84.301 232.070,84.036 232.495 M315.280 232.495 C 315.508 232.921,315.864 233.269,316.071 233.269 C 316.280 233.269,316.232 232.924,315.964 232.495 C 315.699 232.070,315.343 231.721,315.174 231.721 C 315.005 231.721,315.053 232.070,315.280 232.495 M105.432 234.016 C 105.168 234.443,105.778 234.905,106.136 234.548 C 106.503 234.180,106.435 233.656,106.019 233.656 C 105.819 233.656,105.555 233.818,105.432 234.016 M106.770 234.398 C 106.770 234.617,107.292 235.066,107.930 235.397 C 108.569 235.727,109.091 235.856,109.091 235.683 C 109.091 235.511,108.569 235.061,107.930 234.684 C 107.292 234.307,106.770 234.178,106.770 234.398 M82.670 234.720 C 80.255 239.077,79.656 240.232,79.814 240.232 C 79.918 240.232,80.487 239.408,81.077 238.401 C 81.668 237.393,82.468 236.229,82.855 235.813 C 83.242 235.397,83.559 234.916,83.559 234.743 C 83.559 234.349,82.886 234.331,82.670 234.720 M316.441 234.711 C 316.441 234.901,316.758 235.397,317.145 235.813 C 317.532 236.229,318.332 237.393,318.923 238.401 C 320.618 241.293,320.535 240.532,318.818 237.436 C 317.416 234.908,316.441 233.790,316.441 234.711 M109.478 235.909 C 109.478 236.293,113.920 239.072,114.534 239.072 C 114.985 239.072,114.956 237.201,114.489 236.170 C 114.239 235.619,114.203 235.813,114.366 236.847 C 114.645 238.627,114.255 238.688,112.062 237.203 C 109.747 235.636,109.478 235.501,109.478 235.909 M23.017 237.137 C 22.886 237.350,22.919 237.527,23.091 237.530 C 23.263 237.533,23.143 237.705,22.824 237.911 C 22.459 238.147,22.418 238.288,22.714 238.292 C 22.972 238.295,23.370 237.950,23.598 237.524 C 24.019 236.736,23.485 236.380,23.017 237.137 M21.741 239.149 C 21.485 239.404,21.277 239.730,21.277 239.874 C 21.277 240.017,20.473 241.471,19.491 243.104 C 18.509 244.738,17.807 246.175,17.929 246.298 C 18.052 246.421,18.361 246.064,18.616 245.505 C 18.871 244.945,19.226 244.487,19.404 244.487 C 19.583 244.487,19.729 244.284,19.729 244.034 C 19.729 243.785,19.961 243.306,20.244 242.970 C 21.942 240.956,23.236 237.654,21.741 239.149 M377.593 239.121 C 377.610 239.413,378.133 240.435,378.756 241.393 C 379.380 242.350,379.995 243.438,380.125 243.810 C 380.255 244.183,380.487 244.487,380.641 244.487 C 380.794 244.487,381.129 244.945,381.384 245.505 C 381.639 246.064,381.948 246.421,382.071 246.298 C 382.193 246.175,381.491 244.738,380.509 243.104 C 379.527 241.471,378.723 240.003,378.723 239.844 C 378.723 239.684,378.462 239.336,378.143 239.072 C 377.675 238.683,377.569 238.693,377.593 239.121 M77.563 243.714 C 77.233 244.352,77.050 244.874,77.156 244.874 C 77.263 244.874,77.620 244.352,77.950 243.714 C 78.280 243.075,78.463 242.553,78.356 242.553 C 78.250 242.553,77.893 243.075,77.563 243.714 M75.778 246.905 C 75.526 247.384,75.215 247.863,75.087 247.969 C 74.959 248.075,74.621 248.578,74.335 249.086 C 74.049 249.594,73.512 250.551,73.141 251.214 C 72.454 252.440,72.474 253.385,73.188 253.385 C 73.406 253.385,73.486 253.129,73.366 252.817 C 73.246 252.504,73.806 251.155,74.611 249.819 C 76.079 247.381,76.716 246.035,76.404 246.035 C 76.312 246.035,76.030 246.426,75.778 246.905 M323.500 246.483 C 323.632 246.836,324.440 248.278,325.296 249.687 C 326.152 251.096,326.754 252.504,326.634 252.817 C 326.514 253.129,326.590 253.385,326.803 253.385 C 327.615 253.385,327.554 252.287,326.661 250.834 C 326.151 250.003,325.624 249.018,325.491 248.646 C 325.357 248.274,325.094 247.969,324.907 247.969 C 324.719 247.969,324.565 247.729,324.565 247.436 C 324.565 247.143,324.271 246.664,323.912 246.372 C 323.344 245.910,323.291 245.925,323.500 246.483 M13.945 252.901 C 12.860 254.763,11.694 256.678,11.355 257.157 C 11.015 257.635,10.914 258.027,11.131 258.027 C 11.441 258.027,13.328 254.927,16.134 249.807 C 16.222 249.647,16.209 249.516,16.106 249.516 C 16.003 249.516,15.031 251.040,13.945 252.901 M384.626 251.161 C 385.147 252.065,386.223 253.980,387.017 255.416 C 387.811 256.852,388.642 258.027,388.862 258.027 C 389.082 258.027,388.985 257.635,388.645 257.157 C 388.306 256.678,387.140 254.763,386.055 252.901 C 384.969 251.040,383.991 249.516,383.880 249.516 C 383.769 249.516,384.105 250.256,384.626 251.161 M70.883 254.932 C 70.615 255.361,70.568 255.706,70.776 255.706 C 70.983 255.706,71.339 255.358,71.567 254.932 C 71.794 254.507,71.842 254.159,71.673 254.159 C 71.504 254.159,71.149 254.507,70.883 254.932 M328.370 254.498 C 328.654 254.678,328.858 254.976,328.824 255.159 C 328.790 255.343,328.966 255.561,329.216 255.644 C 329.558 255.759,329.562 255.596,329.231 254.977 C 328.990 254.527,328.581 254.161,328.323 254.165 C 327.990 254.169,328.003 254.266,328.370 254.498 M69.791 256.770 C 68.537 258.817,66.499 262.669,66.669 262.669 C 66.884 262.669,69.262 258.676,69.717 257.552 C 69.869 257.175,70.174 256.867,70.394 256.867 C 70.613 256.867,70.793 256.692,70.793 256.480 C 70.793 255.869,70.245 256.028,69.791 256.770 M329.594 256.188 C 329.594 256.457,330.405 257.968,332.189 261.025 C 333.746 263.692,333.658 262.902,332.081 260.058 C 330.465 257.142,329.594 255.787,329.594 256.188 M390.012 260.928 C 390.255 261.460,390.579 261.896,390.733 261.896 C 390.886 261.896,391.113 262.280,391.235 262.749 C 391.358 263.218,391.565 263.496,391.694 263.367 C 392.008 263.053,390.417 259.961,389.942 259.961 C 389.725 259.961,389.754 260.360,390.012 260.928 M65.571 264.217 C 65.241 264.855,65.058 265.377,65.164 265.377 C 65.270 265.377,65.627 264.855,65.957 264.217 C 66.288 263.578,66.471 263.056,66.364 263.056 C 66.258 263.056,65.901 263.578,65.571 264.217 M334.029 264.120 C 334.367 264.811,334.725 265.377,334.826 265.377 C 335.211 265.377,334.963 264.761,334.204 263.830 L 333.416 262.863 334.029 264.120 M6.450 266.848 C 5.358 269.212,5.144 270.233,5.828 269.810 C 6.055 269.670,6.153 269.467,6.045 269.359 C 5.937 269.251,6.276 268.197,6.798 267.017 C 7.320 265.837,7.688 264.812,7.615 264.740 C 7.543 264.667,7.018 265.616,6.450 266.848 M392.287 264.652 C 392.274 264.785,392.688 265.855,393.207 267.029 C 393.726 268.202,394.063 269.251,393.955 269.359 C 393.847 269.467,393.945 269.670,394.172 269.810 C 394.421 269.964,394.584 269.687,394.584 269.107 C 394.584 268.581,394.454 268.092,394.294 268.021 C 394.134 267.950,393.623 267.108,393.157 266.151 C 392.692 265.193,392.300 264.519,392.287 264.652 M64.217 266.344 C 63.943 266.674,63.807 267.030,63.913 267.137 C 64.019 267.243,64.330 267.061,64.603 266.731 C 64.877 266.402,65.014 266.045,64.907 265.939 C 64.801 265.832,64.490 266.015,64.217 266.344 M335.010 266.104 C 335.010 266.290,335.271 266.660,335.590 266.925 C 336.220 267.447,336.299 267.322,335.935 266.376 C 335.687 265.728,335.010 265.529,335.010 266.104 M62.441 269.439 C 62.308 269.971,62.055 270.406,61.880 270.406 C 61.704 270.406,61.439 270.798,61.289 271.277 C 61.140 271.755,60.895 272.234,60.746 272.340 C 60.132 272.778,58.372 276.200,58.859 276.009 C 59.790 275.645,63.779 268.472,63.051 268.472 C 62.849 268.472,62.575 268.907,62.441 269.439 M336.836 269.149 C 337.200 270.118,340.426 275.484,341.196 276.402 C 341.552 276.828,342.316 278.003,342.892 279.014 C 343.468 280.024,344.034 280.851,344.148 280.851 C 344.263 280.851,344.018 280.285,343.603 279.594 C 343.188 278.902,342.101 277.031,341.186 275.435 C 340.271 273.839,339.377 272.476,339.200 272.405 C 339.023 272.334,338.878 272.042,338.878 271.756 C 338.878 271.469,338.611 270.968,338.284 270.641 C 337.957 270.314,337.674 269.910,337.655 269.743 C 337.576 269.068,337.229 268.472,336.915 268.472 C 336.731 268.472,336.696 268.777,336.836 269.149 M57.399 277.853 C 57.043 278.544,56.498 279.545,56.188 280.077 C 55.647 281.005,55.651 281.013,56.276 280.271 C 57.039 279.365,58.517 276.596,58.238 276.596 C 58.133 276.596,57.756 277.162,57.399 277.853 M2.542 277.977 C 2.400 278.544,2.358 279.083,2.449 279.174 C 2.540 279.265,2.731 278.876,2.874 278.309 C 3.016 277.742,3.058 277.204,2.967 277.112 C 2.875 277.021,2.684 277.410,2.542 277.977 M396.960 277.369 C 396.960 277.689,397.109 278.298,397.292 278.723 C 397.502 279.211,397.625 279.283,397.625 278.917 C 397.625 278.598,397.475 277.988,397.292 277.563 C 397.083 277.075,396.960 277.004,396.960 277.369 M266.909 280.107 C 266.516 280.841,266.547 280.873,267.282 280.480 L 268.085 280.050 268.085 294.764 L 268.085 309.478 299.903 309.383 L 331.721 309.289 300.097 309.188 L 268.472 309.086 268.472 294.195 C 268.472 278.750,268.328 277.455,266.909 280.107 M53.820 284.428 C 52.943 286.200,52.231 287.817,52.239 288.022 C 52.248 288.227,53.039 286.850,53.997 284.962 C 54.956 283.074,55.667 281.457,55.578 281.368 C 55.489 281.279,54.698 282.656,53.820 284.428 M264.793 282.402 C 264.184 283.039,263.812 283.559,263.968 283.559 C 264.419 283.559,266.328 281.673,266.104 281.449 C 265.992 281.337,265.402 281.766,264.793 282.402 M344.295 281.321 C 344.293 281.701,347.742 288.463,347.761 288.115 C 347.784 287.672,346.040 283.884,345.128 282.398 C 344.671 281.654,344.296 281.169,344.295 281.321 M260.603 286.525 C 259.148 287.905,258.058 289.134,258.180 289.257 C 258.302 289.379,259.549 288.305,260.950 286.869 C 264.237 283.499,264.021 283.284,260.603 286.525 M255.927 290.724 C 254.443 292.099,254.882 292.770,256.396 291.442 C 257.623 290.365,257.956 289.749,257.310 289.749 C 257.128 289.749,256.506 290.188,255.927 290.724 M0.098 291.876 C 0.102 292.727,0.181 293.030,0.274 292.549 C 0.366 292.067,0.363 291.371,0.266 291.001 C 0.169 290.631,0.093 291.025,0.098 291.876 M399.711 291.876 C 399.715 292.727,399.794 293.030,399.887 292.549 C 399.979 292.067,399.976 291.371,399.879 291.001 C 399.782 290.631,399.706 291.025,399.711 291.876 M252.590 294.636 C 251.368 295.924,251.347 295.984,252.337 295.355 C 253.239 294.781,254.493 293.230,254.055 293.230 C 253.983 293.230,253.324 293.863,252.590 294.636 M49.774 296.196 C 49.383 296.588,49.478 299.535,49.903 300.193 C 50.168 300.602,50.280 300.060,50.284 298.356 C 50.290 295.919,50.245 295.726,49.774 296.196 M349.710 298.259 C 349.710 299.739,349.855 300.536,350.097 300.387 C 350.309 300.255,350.484 299.298,350.484 298.259 C 350.484 297.220,350.309 296.263,350.097 296.132 C 349.855 295.982,349.710 296.780,349.710 298.259 M246.326 300.519 C 245.741 300.872,245.262 301.378,245.262 301.644 C 245.261 302.517,245.815 302.176,247.146 300.482 C 247.777 299.679,247.712 299.682,246.326 300.519 M50.167 301.219 C 49.932 301.455,50.518 302.648,51.451 303.830 C 52.133 304.695,55.288 306.777,55.878 306.753 C 56.103 306.743,55.625 306.386,54.816 305.960 C 54.007 305.533,53.249 304.932,53.131 304.625 C 53.013 304.318,52.761 304.163,52.571 304.280 C 52.380 304.398,52.224 304.318,52.224 304.102 C 52.224 303.504,50.416 300.970,50.167 301.219 M349.154 301.638 C 348.808 302.690,346.171 305.461,344.874 306.135 C 344.236 306.467,343.888 306.745,344.101 306.753 C 345.893 306.818,350.880 301.884,349.736 301.177 C 349.540 301.055,349.278 301.263,349.154 301.638 M0.098 305.029 C 0.102 305.880,0.181 306.183,0.274 305.701 C 0.366 305.220,0.363 304.524,0.266 304.154 C 0.169 303.784,0.093 304.178,0.098 305.029 M399.613 305.065 C 399.613 305.829,399.254 308.223,398.814 310.384 C 394.113 333.512,376.584 350.418,350.867 356.626 C 342.034 358.759,342.492 358.736,304.062 358.970 L 268.279 359.188 268.177 373.017 L 268.075 386.847 334.038 386.847 L 400.000 386.847 400.000 345.261 C 400.000 322.389,399.913 303.675,399.807 303.675 C 399.700 303.675,399.613 304.301,399.613 305.065 M341.006 307.544 C 340.518 307.753,340.447 307.876,340.812 307.876 C 341.132 307.876,341.741 307.726,342.166 307.544 C 342.654 307.334,342.726 307.211,342.360 307.211 C 342.041 307.211,341.431 307.361,341.006 307.544 M132.589 309.381 L 196.900 309.480 197.002 334.527 L 197.104 359.574 197.198 334.333 L 197.292 309.091 132.785 309.186 L 68.279 309.282 132.589 309.381 M1.613 313.540 C 1.607 313.965,1.751 314.662,1.934 315.087 C 2.358 316.073,2.358 315.056,1.934 313.733 C 1.685 312.956,1.622 312.918,1.613 313.540 M2.349 316.275 C 2.310 316.860,3.537 320.383,3.717 320.203 C 3.799 320.121,3.531 319.111,3.122 317.957 C 2.713 316.804,2.365 316.047,2.349 316.275 M222.437 323.381 C 222.437 323.920,223.148 324.262,223.639 323.959 C 223.937 323.775,223.908 323.594,223.542 323.362 C 222.852 322.924,222.437 322.932,222.437 323.381 M5.029 323.594 C 5.029 323.947,6.184 326.112,6.373 326.112 C 6.652 326.112,5.746 323.802,5.378 323.574 C 5.186 323.456,5.029 323.465,5.029 323.594 M7.350 328.258 C 7.350 328.375,7.995 329.463,8.783 330.676 C 9.572 331.889,10.183 333.007,10.141 333.161 C 10.100 333.314,10.437 333.638,10.892 333.881 C 11.346 334.124,12.144 334.782,12.664 335.343 L 13.611 336.364 12.835 335.203 C 12.408 334.565,11.696 333.658,11.252 333.188 C 10.808 332.718,10.445 332.233,10.445 332.109 C 10.445 331.782,8.757 329.424,8.414 329.271 C 8.254 329.201,8.124 328.896,8.124 328.594 C 8.124 328.293,7.950 328.046,7.737 328.046 C 7.524 328.046,7.350 328.142,7.350 328.258 M213.693 334.364 C 213.821 334.754,213.926 335.233,213.926 335.428 C 213.926 335.624,214.117 335.783,214.349 335.783 C 215.031 335.783,248.349 369.376,247.846 369.556 C 247.595 369.646,247.529 369.869,247.700 370.052 C 247.871 370.234,248.137 370.181,248.290 369.933 C 248.467 369.647,250.845 371.800,254.798 375.827 C 258.224 379.317,260.831 382.243,260.591 382.329 C 260.337 382.420,260.298 382.629,260.498 382.829 C 260.697 383.029,260.919 382.953,261.027 382.648 C 261.150 382.303,262.053 382.957,263.671 384.561 C 265.023 385.901,266.184 386.920,266.251 386.826 C 266.318 386.731,254.467 374.729,239.916 360.155 C 225.364 345.580,213.564 333.975,213.693 334.364 M15.870 339.168 C 17.023 340.498,18.097 341.586,18.256 341.586 C 18.844 341.586,18.026 340.566,15.929 338.685 L 13.772 336.750 15.870 339.168 M19.342 342.940 C 19.342 343.259,19.502 343.520,19.698 343.520 C 19.893 343.520,20.372 343.637,20.761 343.779 C 21.431 344.024,21.429 343.992,20.733 343.199 C 19.873 342.220,19.342 342.121,19.342 342.940 M21.859 344.684 C 21.991 344.898,22.654 345.348,23.332 345.685 L 24.565 346.296 23.441 345.295 C 22.321 344.298,21.400 343.942,21.859 344.684 M28.003 348.736 C 28.581 349.272,29.225 349.710,29.436 349.710 C 29.996 349.710,32.939 351.259,33.562 351.882 C 34.130 352.450,35.226 352.617,35.170 352.128 C 35.152 351.968,33.296 350.921,31.045 349.800 C 27.938 348.253,27.205 347.997,28.003 348.736 M35.679 352.490 C 35.871 353.068,36.750 353.387,36.750 352.878 C 36.750 352.671,36.475 352.395,36.138 352.265 C 35.761 352.121,35.584 352.207,35.679 352.490 M37.137 353.150 C 37.137 353.579,38.327 354.065,38.632 353.760 C 38.755 353.637,38.600 353.374,38.287 353.176 C 37.563 352.719,37.137 352.709,37.137 353.150 M41.779 355.119 C 42.437 355.551,43.598 355.655,43.188 355.245 C 43.041 355.097,42.533 354.923,42.060 354.857 C 41.377 354.761,41.319 354.816,41.779 355.119 M43.910 355.508 C 43.805 355.678,44.174 355.931,44.729 356.070 C 46.061 356.405,46.212 356.195,45.040 355.642 C 44.524 355.398,44.015 355.338,43.910 355.508 M234.429 357.060 C 234.429 357.273,234.691 357.447,235.010 357.447 C 235.329 357.447,235.590 357.273,235.590 357.060 C 235.590 356.847,235.329 356.673,235.010 356.673 C 234.691 356.673,234.429 356.847,234.429 357.060 M56.190 358.487 C 56.562 358.584,57.171 358.584,57.544 358.487 C 57.916 358.390,57.611 358.310,56.867 358.310 C 56.122 358.310,55.817 358.390,56.190 358.487 M59.671 358.874 C 60.044 358.971,60.653 358.971,61.025 358.874 C 61.397 358.777,61.093 358.697,60.348 358.697 C 59.603 358.697,59.299 358.777,59.671 358.874 M64.127 359.275 C 64.822 359.361,65.867 359.359,66.448 359.271 C 67.029 359.182,66.460 359.112,65.184 359.114 C 63.907 359.116,63.432 359.188,64.127 359.275 " stroke="none" fill="#f2f8f4" fill-rule="evenodd"></path><path id="path1" d="M192.263 0.556 C 183.586 1.808,175.729 4.609,169.389 8.710 C 167.835 9.715,166.326 10.573,166.036 10.615 C 165.746 10.658,165.392 10.879,165.250 11.106 C 165.107 11.333,163.511 12.634,161.702 13.996 C 158.305 16.556,152.445 22.351,147.247 28.291 C 146.899 28.689,146.615 29.082,146.615 29.166 C 146.615 29.250,145.559 30.860,144.268 32.745 C 142.977 34.629,141.316 37.215,140.577 38.491 C 138.737 41.670,138.373 42.245,137.814 42.855 C 137.548 43.145,137.331 43.616,137.331 43.903 C 137.331 44.189,137.183 44.481,137.003 44.552 C 136.822 44.623,136.236 45.464,135.699 46.422 C 131.608 53.725,128.720 58.624,128.381 58.833 C 128.161 58.969,127.997 59.235,128.017 59.424 C 128.036 59.613,127.834 60.042,127.566 60.377 C 126.993 61.093,126.129 62.580,124.884 64.990 C 124.390 65.948,123.894 66.818,123.781 66.925 C 123.506 67.186,119.632 73.820,117.794 77.176 C 116.979 78.665,116.167 79.942,115.990 80.013 C 115.812 80.084,115.667 80.388,115.667 80.690 C 115.667 80.991,115.483 81.238,115.258 81.238 C 115.032 81.238,114.939 81.386,115.051 81.566 C 115.162 81.747,114.909 82.264,114.488 82.717 C 114.066 83.169,113.547 83.935,113.334 84.419 C 113.121 84.904,112.470 86.095,111.889 87.067 C 111.307 88.039,109.721 90.780,108.364 93.160 C 107.007 95.539,105.774 97.485,105.624 97.485 C 105.474 97.485,105.351 97.710,105.351 97.984 C 105.351 98.417,104.806 99.419,102.788 102.692 C 102.531 103.108,102.103 103.686,101.838 103.976 C 101.572 104.267,101.354 104.753,101.354 105.057 C 101.354 105.361,101.170 105.609,100.944 105.609 C 100.719 105.609,100.633 105.768,100.753 105.963 C 100.874 106.158,100.820 106.375,100.633 106.447 C 100.447 106.518,98.949 108.970,97.305 111.896 C 95.660 114.821,94.148 117.215,93.943 117.215 C 93.739 117.215,93.679 117.389,93.810 117.602 C 93.942 117.814,93.855 117.988,93.617 117.988 C 93.379 117.988,93.276 118.136,93.387 118.317 C 93.499 118.497,93.292 118.983,92.927 119.396 C 92.562 119.808,92.207 120.401,92.137 120.711 C 92.068 121.022,91.718 121.625,91.360 122.050 C 91.001 122.476,90.362 123.520,89.939 124.371 C 89.516 125.222,88.996 126.130,88.782 126.389 C 88.569 126.647,88.177 127.119,87.911 127.436 C 87.645 127.754,87.427 128.136,87.427 128.286 C 87.427 128.985,82.672 136.920,82.367 136.731 C 82.176 136.613,82.116 136.765,82.232 137.067 C 82.348 137.370,82.166 137.895,81.827 138.234 C 81.488 138.573,81.218 138.987,81.227 139.154 C 81.237 139.322,81.021 139.720,80.747 140.039 C 80.474 140.358,80.213 140.793,80.167 141.006 C 80.121 141.219,79.865 141.666,79.597 142.000 C 79.329 142.335,79.054 142.857,78.985 143.161 C 78.915 143.465,78.480 144.121,78.017 144.618 L 77.176 145.523 78.337 146.474 C 78.975 146.997,80.019 147.654,80.658 147.932 C 82.607 148.783,92.254 154.417,92.393 154.785 C 92.464 154.975,92.682 155.032,92.876 154.912 C 93.071 154.792,93.230 154.878,93.230 155.103 C 93.230 155.328,93.491 155.513,93.810 155.513 C 94.130 155.513,94.391 155.654,94.391 155.827 C 94.391 156.000,95.000 156.381,95.745 156.673 C 96.489 156.965,97.099 157.334,97.099 157.493 C 97.099 157.652,97.430 157.887,97.835 158.015 C 99.381 158.506,108.277 163.936,108.014 164.227 C 107.862 164.396,107.981 164.393,108.279 164.220 C 108.631 164.016,109.005 164.156,109.343 164.618 C 109.630 165.011,109.865 165.199,109.865 165.038 C 109.865 164.876,110.343 165.081,110.928 165.494 C 111.514 165.906,112.384 166.364,112.863 166.513 C 113.341 166.662,113.733 166.927,113.733 167.102 C 113.733 167.277,114.168 167.530,114.700 167.664 C 115.232 167.797,115.667 168.087,115.667 168.309 C 115.667 168.530,115.841 168.603,116.054 168.472 C 116.267 168.340,116.441 168.390,116.441 168.581 C 116.441 168.773,117.287 169.390,118.320 169.952 C 120.190 170.970,121.470 170.685,121.470 169.252 C 121.470 169.076,121.905 168.361,122.437 167.664 C 122.969 166.966,123.404 166.281,123.404 166.140 C 123.404 165.685,130.082 154.163,130.423 154.030 C 130.605 153.959,130.754 153.654,130.754 153.353 C 130.754 153.051,130.939 152.805,131.164 152.805 C 131.389 152.805,131.466 152.631,131.335 152.418 C 131.203 152.205,131.280 152.031,131.505 152.031 C 131.731 152.031,131.915 151.782,131.915 151.478 C 131.915 151.174,132.175 150.665,132.494 150.347 C 132.812 150.029,133.247 149.363,133.460 148.869 C 133.903 147.840,134.447 146.941,135.686 145.190 C 136.165 144.513,136.557 143.814,136.557 143.637 C 136.557 143.460,137.274 142.099,138.151 140.613 C 139.028 139.127,140.181 137.128,140.713 136.170 C 141.246 135.213,142.073 133.994,142.553 133.462 C 143.032 132.930,143.344 132.278,143.246 132.012 C 143.149 131.746,143.239 131.528,143.446 131.528 C 143.654 131.528,143.933 131.093,144.066 130.561 C 144.200 130.029,144.480 129.594,144.688 129.594 C 144.897 129.594,145.068 129.345,145.068 129.041 C 145.068 128.737,145.299 128.257,145.582 127.974 C 145.865 127.691,146.344 126.996,146.646 126.429 C 148.783 122.418,152.593 115.934,153.127 115.400 C 153.482 115.046,153.736 114.656,153.691 114.534 C 153.647 114.413,153.944 113.878,154.352 113.346 C 154.760 112.814,155.057 112.267,155.013 112.130 C 154.969 111.992,155.210 111.557,155.550 111.162 C 155.890 110.768,156.277 110.184,156.408 109.865 C 156.540 109.545,157.133 108.472,157.724 107.479 C 158.316 106.487,160.192 103.223,161.891 100.226 C 163.714 97.013,165.222 94.775,165.566 94.772 C 166.004 94.767,166.029 94.689,165.667 94.458 C 165.300 94.226,165.373 93.947,165.965 93.311 C 166.395 92.849,166.742 92.338,166.736 92.174 C 166.730 92.010,166.996 91.559,167.328 91.171 C 167.661 90.783,168.100 90.087,168.305 89.624 C 168.693 88.748,169.119 87.998,172.522 82.205 C 173.647 80.290,174.913 78.114,175.336 77.369 C 177.439 73.662,178.128 72.517,178.363 72.340 C 178.504 72.234,178.741 71.755,178.891 71.277 C 179.040 70.798,179.325 70.406,179.523 70.406 C 179.722 70.406,179.884 70.158,179.884 69.854 C 179.884 69.550,180.144 69.040,180.463 68.722 C 180.781 68.404,181.224 67.739,181.446 67.244 C 182.360 65.214,185.754 59.961,186.152 59.961 C 186.321 59.961,186.460 59.725,186.460 59.435 C 186.460 57.969,194.867 50.717,197.002 50.341 C 197.162 50.313,197.336 50.277,197.389 50.261 C 199.193 49.709,202.515 49.727,202.515 50.289 C 202.515 50.321,202.942 50.426,203.465 50.522 C 203.988 50.618,204.510 50.840,204.625 51.016 C 204.741 51.191,205.040 51.404,205.291 51.489 C 206.784 51.997,213.540 58.504,213.540 59.435 C 213.540 59.725,213.732 59.961,213.968 59.961 C 214.203 59.961,214.292 60.231,214.166 60.562 C 214.039 60.892,214.099 61.061,214.299 60.937 C 214.499 60.814,215.237 61.642,215.938 62.777 C 216.640 63.913,217.433 65.180,217.699 65.593 C 217.966 66.006,218.348 66.723,218.549 67.187 C 218.750 67.650,219.229 68.395,219.612 68.843 C 219.996 69.291,220.230 69.695,220.134 69.742 C 220.037 69.788,220.256 70.174,220.620 70.600 C 220.985 71.025,221.267 71.528,221.247 71.717 C 221.227 71.906,221.365 72.167,221.554 72.297 C 222.296 72.808,223.636 75.446,223.372 75.875 C 223.217 76.124,223.252 76.229,223.448 76.108 C 223.644 75.987,225.020 77.978,226.506 80.532 C 227.991 83.086,229.684 85.987,230.268 86.979 C 230.851 87.970,231.501 89.178,231.713 89.662 C 231.924 90.146,232.441 90.912,232.863 91.364 C 233.284 91.817,233.538 92.335,233.426 92.515 C 233.314 92.696,233.378 92.843,233.567 92.843 C 233.757 92.843,235.203 95.116,236.782 97.894 C 238.360 100.672,240.039 103.587,240.513 104.373 C 240.987 105.160,241.486 106.107,241.622 106.480 C 241.758 106.852,242.012 107.157,242.185 107.157 C 242.359 107.157,242.623 107.548,242.771 108.027 C 242.920 108.506,243.383 109.382,243.801 109.975 C 244.218 110.568,244.599 111.322,244.648 111.650 C 244.696 111.979,244.984 112.405,245.288 112.598 C 245.593 112.790,245.711 112.950,245.551 112.953 C 245.392 112.957,245.616 113.314,246.049 113.747 C 246.482 114.180,246.742 114.688,246.627 114.875 C 246.511 115.062,246.580 115.273,246.780 115.344 C 246.979 115.415,247.930 116.858,248.892 118.549 L 250.641 121.624 249.015 122.584 C 248.121 123.112,247.330 123.688,247.259 123.864 C 247.188 124.039,246.970 124.084,246.775 123.964 C 246.581 123.844,246.422 123.930,246.422 124.155 C 246.422 124.380,246.173 124.565,245.869 124.565 C 245.565 124.565,245.079 124.782,244.789 125.048 C 244.499 125.314,243.921 125.742,243.504 125.999 C 240.451 127.881,239.520 128.405,239.039 128.508 C 238.738 128.573,238.394 128.757,238.275 128.917 C 237.999 129.287,228.207 135.010,227.851 135.010 C 227.200 135.010,225.770 136.613,226.190 136.872 C 226.432 137.022,229.734 137.909,233.528 138.844 C 237.321 139.779,240.513 140.648,240.619 140.775 C 240.725 140.902,241.422 141.055,242.166 141.116 C 242.911 141.176,243.575 141.384,243.642 141.578 C 243.709 141.771,243.996 141.840,244.280 141.731 C 244.564 141.622,244.913 141.722,245.055 141.953 C 245.198 142.184,245.484 142.268,245.692 142.139 C 245.899 142.011,246.315 142.110,246.615 142.360 C 246.916 142.609,247.331 142.708,247.539 142.580 C 247.746 142.452,248.020 142.516,248.148 142.723 C 248.276 142.930,248.619 143.008,248.909 142.897 C 249.200 142.785,249.548 142.872,249.683 143.090 C 249.818 143.308,250.166 143.395,250.457 143.284 C 250.748 143.172,251.096 143.259,251.231 143.477 C 251.365 143.695,251.713 143.782,252.004 143.670 C 252.295 143.559,252.650 143.656,252.792 143.887 C 252.935 144.118,253.221 144.202,253.429 144.074 C 253.636 143.945,254.032 144.028,254.308 144.257 C 254.584 144.486,255.324 144.730,255.952 144.799 C 256.581 144.868,257.261 145.018,257.464 145.133 C 257.667 145.248,264.014 146.876,271.567 148.751 C 279.120 150.626,285.352 152.286,285.415 152.441 C 285.478 152.596,285.870 152.634,286.285 152.525 C 286.701 152.416,287.041 152.506,287.041 152.723 C 287.041 152.941,287.389 153.028,287.814 152.917 C 288.240 152.805,288.588 152.892,288.588 153.110 C 288.588 153.328,288.936 153.415,289.362 153.304 C 289.811 153.186,290.135 153.292,290.135 153.556 C 290.135 153.806,290.317 153.899,290.539 153.761 C 290.761 153.624,291.189 153.716,291.489 153.965 C 291.790 154.215,292.205 154.314,292.413 154.186 C 292.620 154.057,292.901 154.132,293.037 154.352 C 293.173 154.572,293.453 154.647,293.661 154.518 C 293.868 154.390,294.284 154.489,294.584 154.739 C 294.885 154.988,295.300 155.087,295.508 154.959 C 295.715 154.831,295.996 154.906,296.132 155.126 C 296.267 155.345,296.548 155.420,296.755 155.292 C 296.963 155.164,297.343 155.207,297.599 155.387 C 299.600 156.795,299.732 156.510,302.837 144.101 C 304.433 137.718,305.890 132.394,306.074 132.271 C 306.258 132.147,306.298 131.756,306.161 131.400 C 306.025 131.045,306.090 130.754,306.305 130.754 C 306.521 130.754,306.606 130.406,306.495 129.981 C 306.377 129.529,306.483 129.207,306.751 129.207 C 307.033 129.207,307.114 128.910,306.963 128.433 C 306.816 127.970,306.894 127.660,307.157 127.660 C 307.420 127.660,307.497 127.349,307.350 126.886 C 307.215 126.460,307.274 126.112,307.481 126.112 C 307.688 126.112,307.767 125.764,307.656 125.338 C 307.535 124.876,307.644 124.565,307.927 124.565 C 308.187 124.565,308.302 124.309,308.182 123.997 C 308.062 123.685,308.114 123.336,308.298 123.223 C 308.481 123.109,308.540 122.669,308.429 122.243 C 308.308 121.781,308.418 121.470,308.700 121.470 C 308.961 121.470,309.076 121.214,308.956 120.902 C 308.836 120.590,308.911 120.227,309.124 120.096 C 309.336 119.965,309.403 119.524,309.274 119.116 C 309.133 118.673,309.221 118.375,309.493 118.375 C 309.743 118.375,309.849 118.120,309.729 117.807 C 309.610 117.495,309.690 117.129,309.908 116.995 C 310.126 116.860,310.219 116.527,310.115 116.256 C 310.010 115.984,310.062 115.610,310.228 115.424 C 310.395 115.239,312.064 108.907,313.937 101.354 C 315.809 93.801,317.493 87.520,317.678 87.397 C 317.863 87.273,317.903 86.881,317.767 86.526 C 317.630 86.171,317.695 85.880,317.911 85.880 C 318.126 85.880,318.212 85.532,318.100 85.106 C 317.979 84.642,318.089 84.333,318.375 84.333 C 318.658 84.333,318.772 84.025,318.655 83.578 C 318.546 83.162,318.644 82.760,318.872 82.684 C 319.099 82.608,319.166 82.353,319.020 82.116 C 318.848 81.838,316.713 82.866,312.947 85.040 C 309.752 86.885,306.795 88.566,306.374 88.776 C 305.953 88.986,305.609 89.301,305.609 89.476 C 305.609 89.651,305.435 89.687,305.222 89.555 C 305.010 89.424,304.836 89.500,304.836 89.726 C 304.836 89.951,304.587 90.135,304.283 90.135 C 303.979 90.135,303.500 90.364,303.219 90.644 C 302.320 91.539,299.170 93.238,298.903 92.972 C 298.762 92.830,298.646 92.902,298.646 93.132 C 298.646 93.530,293.664 96.540,293.462 96.264 C 293.218 95.928,288.528 87.755,287.396 85.691 C 286.697 84.417,285.815 83.042,285.436 82.635 C 285.057 82.227,284.838 81.747,284.949 81.566 C 285.061 81.386,285.009 81.238,284.834 81.238 C 284.659 81.238,284.344 80.907,284.134 80.503 C 283.334 78.963,274.969 64.501,274.267 63.443 C 274.055 63.124,273.667 62.427,273.404 61.896 C 273.141 61.364,272.626 60.597,272.260 60.193 C 271.893 59.788,271.685 59.310,271.796 59.129 C 271.908 58.948,271.842 58.801,271.650 58.801 C 271.459 58.801,270.371 57.103,269.233 55.029 C 268.096 52.955,266.589 50.340,265.884 49.219 C 265.180 48.098,264.603 47.103,264.603 47.008 C 264.603 46.743,261.073 40.930,260.284 39.897 C 259.900 39.393,259.680 38.827,259.796 38.639 C 259.912 38.451,259.812 38.298,259.574 38.298 C 259.337 38.298,259.250 38.124,259.381 37.911 C 259.513 37.698,259.462 37.524,259.269 37.524 C 258.976 37.524,253.887 30.313,253.433 29.255 C 253.353 29.069,253.005 28.607,252.660 28.229 C 252.314 27.851,251.509 26.932,250.870 26.186 C 248.130 22.986,240.846 15.901,238.464 14.120 C 237.042 13.056,235.509 11.838,235.057 11.412 C 234.605 10.986,234.099 10.638,233.932 10.638 C 233.764 10.638,233.503 10.464,233.351 10.251 C 233.200 10.039,232.894 9.833,232.672 9.794 C 232.450 9.756,231.007 8.947,229.465 7.997 C 219.481 1.841,204.345 -1.186,192.263 0.556 M318.375 154.739 C 314.652 156.861,311.344 158.781,311.025 159.004 C 310.706 159.227,309.966 159.615,309.381 159.867 C 308.796 160.118,308.317 160.460,308.317 160.626 C 308.317 160.793,308.056 160.928,307.737 160.928 C 307.418 160.928,307.157 161.113,307.157 161.338 C 307.157 161.563,306.983 161.640,306.770 161.509 C 306.557 161.377,306.383 161.464,306.383 161.702 C 306.383 161.940,306.209 162.027,305.996 161.896 C 305.783 161.764,305.609 161.825,305.609 162.031 C 305.609 162.237,303.825 163.404,301.644 164.625 C 299.463 165.846,296.896 167.284,295.938 167.820 C 294.981 168.357,292.921 169.550,291.361 170.471 C 289.801 171.393,288.364 172.147,288.169 172.147 C 287.974 172.147,287.814 172.284,287.814 172.450 C 287.814 172.899,285.643 174.102,285.354 173.813 C 285.218 173.677,285.106 173.779,285.106 174.040 C 285.106 174.300,284.951 174.417,284.760 174.300 C 284.570 174.182,284.310 174.357,284.183 174.688 C 284.055 175.020,283.794 175.194,283.602 175.075 C 282.507 174.398,282.985 176.449,284.574 179.244 C 285.561 180.979,286.927 183.413,287.611 184.653 C 288.295 185.893,289.141 187.242,289.491 187.651 C 289.841 188.060,290.030 188.395,289.911 188.395 C 289.791 188.395,289.967 188.668,290.301 189.002 C 290.636 189.337,290.909 189.859,290.909 190.163 C 290.909 190.467,291.083 190.716,291.296 190.716 C 291.509 190.716,291.683 191.064,291.683 191.489 C 291.683 191.915,291.839 192.263,292.030 192.263 C 292.221 192.263,293.918 194.983,295.801 198.308 C 297.685 201.632,299.616 204.983,300.093 205.754 C 300.569 206.526,301.132 207.553,301.344 208.037 C 301.556 208.521,302.074 209.287,302.495 209.740 C 302.917 210.192,303.170 210.710,303.059 210.890 C 302.947 211.071,303.028 211.219,303.239 211.219 C 303.450 211.219,303.745 211.610,303.895 212.089 C 304.044 212.568,304.277 213.046,304.413 213.153 C 305.093 213.685,305.995 215.549,305.759 215.931 C 305.611 216.171,305.651 216.267,305.848 216.145 C 306.046 216.023,307.509 218.211,309.100 221.006 C 310.691 223.801,312.473 226.877,313.060 227.841 C 313.647 228.805,314.233 229.898,314.362 230.271 C 314.491 230.643,314.780 230.948,315.003 230.948 C 315.227 230.948,315.304 231.053,315.175 231.182 C 315.046 231.311,315.272 231.773,315.677 232.208 C 316.083 232.643,316.323 233.147,316.211 233.327 C 316.100 233.508,316.203 233.656,316.441 233.656 C 316.679 233.656,316.766 233.830,316.634 234.043 C 316.503 234.255,316.566 234.429,316.775 234.429 C 316.984 234.429,318.344 236.537,319.796 239.113 C 321.249 241.689,322.821 244.431,323.289 245.206 C 323.758 245.981,324.267 246.876,324.421 247.195 C 324.576 247.515,324.802 247.863,324.923 247.969 C 325.663 248.615,327.662 252.480,327.394 252.748 C 327.266 252.875,327.447 253.089,327.795 253.223 C 328.144 253.357,328.333 253.622,328.215 253.812 C 328.097 254.003,328.169 254.159,328.374 254.159 C 328.579 254.159,329.950 256.291,331.420 258.897 C 335.004 265.250,335.130 265.461,335.687 266.067 C 335.953 266.356,336.170 266.815,336.170 267.085 C 336.170 267.356,336.596 268.073,337.115 268.678 C 337.635 269.283,337.973 269.919,337.866 270.092 C 337.759 270.265,337.845 270.406,338.056 270.406 C 338.267 270.406,338.561 270.798,338.711 271.277 C 338.860 271.755,339.111 272.234,339.267 272.340 C 339.679 272.620,346.203 284.174,346.886 285.834 C 347.203 286.604,347.688 287.756,347.964 288.395 C 348.858 290.461,349.060 291.094,348.980 291.586 C 348.937 291.852,349.096 292.070,349.332 292.070 C 349.586 292.070,349.661 292.386,349.516 292.843 C 349.378 293.279,349.447 293.617,349.674 293.617 C 349.912 293.617,349.986 294.073,349.855 294.731 C 349.728 295.364,349.816 295.958,350.058 296.107 C 350.605 296.446,350.615 300.066,350.070 300.403 C 349.843 300.544,349.742 300.879,349.845 301.149 C 350.359 302.488,347.476 305.314,344.100 306.782 C 338.512 309.211,338.398 309.218,301.644 309.376 L 268.085 309.521 268.085 294.807 L 268.085 280.094 267.118 280.535 C 266.586 280.777,266.151 281.127,266.151 281.313 C 266.151 281.801,258.542 289.362,258.051 289.362 C 257.825 289.362,257.640 289.587,257.640 289.863 C 257.640 290.139,257.106 290.792,256.453 291.314 C 255.800 291.836,254.973 292.587,254.616 292.982 C 252.972 294.799,245.509 302.128,245.301 302.130 C 245.173 302.131,244.475 302.830,243.750 303.684 C 242.120 305.605,235.979 311.647,234.864 312.428 C 234.412 312.744,234.043 313.255,234.043 313.562 C 234.043 313.869,233.870 314.120,233.659 314.120 C 233.156 314.120,213.884 333.535,214.017 333.907 C 214.398 334.967,266.583 386.847,267.270 386.847 C 268.069 386.847,268.076 386.740,268.177 373.017 L 268.279 359.188 304.062 358.970 C 342.492 358.736,342.034 358.759,350.867 356.626 C 386.729 347.969,405.642 318.918,398.422 283.579 C 397.623 279.669,395.687 273.058,394.677 270.793 C 394.345 270.048,394.050 269.352,394.020 269.246 C 393.455 267.222,391.160 262.291,390.450 261.578 C 389.973 261.097,389.790 260.534,389.896 259.865 C 389.921 259.705,389.758 259.574,389.532 259.574 C 389.307 259.574,389.230 259.400,389.362 259.188 C 389.493 258.975,389.406 258.801,389.168 258.801 C 388.930 258.801,388.843 258.627,388.975 258.414 C 389.106 258.201,389.045 258.027,388.838 258.027 C 388.631 258.027,387.379 256.069,386.056 253.675 C 383.363 248.804,381.009 244.779,380.681 244.487 C 380.065 243.939,377.563 239.398,377.563 238.829 C 377.563 238.537,377.379 238.298,377.153 238.298 C 376.928 238.298,376.851 238.124,376.983 237.911 C 377.114 237.698,377.050 237.524,376.841 237.524 C 376.632 237.524,375.185 235.305,373.627 232.592 C 372.068 229.879,370.582 227.311,370.325 226.886 C 370.067 226.460,369.634 225.677,369.362 225.145 C 369.090 224.613,368.648 223.948,368.380 223.667 C 368.111 223.386,367.892 222.907,367.892 222.603 C 367.892 222.299,367.759 222.050,367.597 222.050 C 367.434 222.050,367.130 221.716,366.920 221.307 C 366.062 219.636,363.019 214.376,361.822 212.494 C 361.118 211.388,360.542 210.390,360.542 210.277 C 360.542 210.164,359.845 208.934,358.994 207.544 C 358.143 206.153,357.447 204.920,357.447 204.803 C 357.447 204.686,356.991 203.993,356.434 203.262 C 355.877 202.532,355.535 201.934,355.675 201.934 C 355.815 201.934,355.581 201.560,355.154 201.102 C 354.728 200.644,354.470 200.122,354.582 199.941 C 354.693 199.761,354.590 199.613,354.352 199.613 C 354.114 199.613,354.027 199.439,354.159 199.226 C 354.290 199.014,354.237 198.839,354.041 198.839 C 353.628 198.839,347.653 188.443,347.649 187.718 C 347.648 187.452,347.415 187.234,347.131 187.234 C 346.847 187.234,346.615 187.068,346.615 186.864 C 346.615 186.661,346.097 185.616,345.465 184.543 C 344.832 183.470,344.429 182.592,344.570 182.592 C 344.711 182.592,344.370 182.113,343.814 181.528 C 343.258 180.943,342.746 180.218,342.678 179.916 C 342.609 179.615,342.242 179.043,341.862 178.645 C 341.482 178.247,341.265 177.769,341.381 177.582 C 341.496 177.395,341.431 177.184,341.235 177.112 C 340.925 176.999,338.883 173.628,335.982 168.441 C 334.328 165.486,334.043 165.020,333.559 164.494 C 333.293 164.205,333.075 163.719,333.075 163.415 C 333.075 163.111,332.913 162.863,332.715 162.863 C 332.516 162.863,332.232 162.471,332.082 161.992 C 331.933 161.514,331.704 161.035,331.573 160.928 C 331.442 160.822,331.041 160.213,330.682 159.574 C 327.753 154.363,325.638 150.871,325.413 150.875 C 325.266 150.877,322.099 152.616,318.375 154.739 M83.172 167.358 C 76.896 168.940,71.499 170.345,71.180 170.478 C 70.861 170.612,70.395 170.690,70.145 170.650 C 69.895 170.611,69.585 170.750,69.456 170.959 C 69.327 171.168,68.965 171.241,68.653 171.122 C 68.341 171.002,68.085 171.091,68.085 171.320 C 68.085 171.549,67.831 171.638,67.520 171.519 C 67.209 171.400,66.404 171.576,65.732 171.912 C 65.060 172.247,64.369 172.434,64.196 172.328 C 64.024 172.221,63.770 172.318,63.631 172.543 C 63.492 172.768,63.044 172.846,62.637 172.717 C 62.194 172.576,61.896 172.664,61.896 172.936 C 61.896 173.186,61.640 173.292,61.328 173.172 C 61.015 173.053,60.650 173.133,60.515 173.351 C 60.380 173.569,60.032 173.656,59.741 173.544 C 59.450 173.433,59.107 173.512,58.977 173.722 C 58.848 173.931,58.538 174.069,58.288 174.029 C 58.038 173.990,57.340 174.161,56.737 174.409 C 56.133 174.658,55.089 174.903,54.416 174.955 C 53.742 175.006,53.104 175.150,52.998 175.275 C 52.892 175.400,46.625 177.035,39.072 178.910 C 31.518 180.784,25.148 182.465,24.916 182.645 C 24.684 182.825,24.383 182.862,24.248 182.727 C 24.114 182.592,23.765 182.679,23.475 182.920 C 23.184 183.161,22.836 183.249,22.701 183.114 C 22.566 182.979,22.186 183.092,21.856 183.366 C 21.342 183.793,21.961 184.271,26.199 186.721 C 32.484 190.354,32.632 190.446,32.973 190.909 C 33.162 191.167,33.261 191.167,33.269 190.909 C 33.277 190.651,33.375 190.651,33.565 190.909 C 33.905 191.372,33.915 191.378,40.972 195.415 C 44.039 197.169,46.344 198.672,46.096 198.755 C 45.847 198.838,45.742 199.065,45.862 199.259 C 45.982 199.454,45.886 199.613,45.648 199.613 C 45.410 199.613,45.307 199.761,45.418 199.941 C 45.530 200.122,45.272 200.644,44.846 201.102 C 44.419 201.560,44.185 201.934,44.325 201.934 C 44.465 201.934,44.123 202.532,43.566 203.262 C 43.009 203.993,42.553 204.667,42.553 204.761 C 42.553 204.855,41.397 206.912,39.985 209.332 C 38.572 211.753,36.645 215.126,35.703 216.828 C 34.760 218.530,33.683 220.187,33.309 220.511 C 32.935 220.834,32.701 221.313,32.788 221.574 C 32.875 221.836,32.748 222.050,32.505 222.050 C 32.262 222.050,32.154 222.198,32.266 222.379 C 32.377 222.559,32.124 223.077,31.702 223.529 C 31.281 223.981,30.762 224.748,30.549 225.232 C 30.335 225.716,29.685 226.907,29.104 227.879 C 28.522 228.851,26.936 231.593,25.579 233.972 C 24.222 236.351,22.960 238.298,22.774 238.298 C 22.589 238.298,22.481 238.438,22.534 238.610 C 22.648 238.978,19.933 243.940,19.319 244.487 C 19.013 244.760,16.787 248.570,13.952 253.675 C 12.622 256.069,11.366 258.027,11.160 258.027 C 10.955 258.027,10.894 258.201,11.025 258.414 C 11.157 258.627,11.070 258.801,10.832 258.801 C 10.594 258.801,10.507 258.975,10.638 259.188 C 10.770 259.400,10.683 259.574,10.445 259.574 C 10.207 259.574,10.120 259.749,10.251 259.961 C 10.383 260.174,10.296 260.348,10.058 260.348 C 9.820 260.348,9.733 260.522,9.865 260.735 C 9.996 260.948,9.938 261.122,9.736 261.122 C 9.419 261.122,6.283 267.754,6.013 268.997 C 5.960 269.240,5.647 270.048,5.318 270.793 C 0.658 281.331,-1.198 298.805,1.136 310.164 C 2.506 316.831,5.957 326.219,7.357 327.083 C 7.573 327.217,7.649 327.488,7.527 327.686 C 7.405 327.884,7.489 328.046,7.714 328.046 C 7.939 328.046,8.124 328.293,8.124 328.594 C 8.124 328.896,8.254 329.201,8.414 329.271 C 8.838 329.460,10.445 331.820,10.445 332.254 C 10.445 332.457,10.592 332.682,10.771 332.753 C 10.950 332.824,11.893 333.934,12.866 335.220 C 13.839 336.506,15.424 338.287,16.390 339.176 C 17.355 340.066,18.333 341.147,18.564 341.577 C 18.794 342.008,19.225 342.360,19.521 342.360 C 19.818 342.360,20.402 342.795,20.821 343.327 C 21.239 343.859,21.747 344.294,21.949 344.294 C 22.151 344.294,22.797 344.707,23.384 345.211 C 24.741 346.377,29.671 349.304,32.689 350.736 C 33.965 351.342,35.097 351.925,35.203 352.031 C 35.309 352.137,35.658 352.281,35.977 352.350 C 36.296 352.419,36.612 352.627,36.679 352.812 C 36.746 352.997,37.028 353.061,37.306 352.954 C 37.584 352.847,38.053 353.002,38.348 353.297 C 38.643 353.592,39.101 353.762,39.365 353.674 C 39.629 353.586,39.845 353.731,39.845 353.997 C 39.845 354.263,39.960 354.366,40.100 354.226 C 40.240 354.086,40.558 354.141,40.807 354.348 C 41.056 354.554,41.681 354.801,42.197 354.896 C 42.712 354.991,43.221 355.108,43.327 355.156 C 43.433 355.204,43.694 355.277,43.907 355.318 C 44.120 355.359,44.741 355.577,45.288 355.803 C 46.735 356.401,52.944 357.701,58.045 358.473 C 62.092 359.086,68.298 359.155,129.691 359.277 L 196.905 359.410 196.905 334.455 L 196.905 309.501 130.851 309.369 C 70.978 309.250,64.530 309.177,61.946 308.595 C 56.843 307.443,51.927 305.243,52.475 304.356 C 52.616 304.128,52.553 304.052,52.336 304.186 C 50.886 305.082,48.810 298.175,49.910 296.118 C 50.176 295.622,50.290 294.949,50.165 294.623 C 50.040 294.296,50.115 293.918,50.333 293.784 C 50.551 293.649,50.638 293.301,50.527 293.010 C 50.415 292.719,50.471 292.391,50.650 292.280 C 50.829 292.169,51.098 291.423,51.248 290.623 C 51.398 289.823,51.649 288.994,51.807 288.781 C 51.965 288.569,52.322 287.785,52.601 287.041 C 53.566 284.458,58.532 275.849,58.919 276.088 C 59.141 276.226,59.187 276.134,59.027 275.875 C 58.781 275.476,60.062 272.862,60.759 272.340 C 60.901 272.234,61.140 271.755,61.289 271.277 C 61.439 270.798,61.723 270.406,61.922 270.406 C 62.120 270.406,62.282 270.158,62.282 269.854 C 62.282 269.550,62.514 269.069,62.797 268.787 C 63.080 268.504,63.558 267.805,63.861 267.235 C 66.127 262.955,70.213 256.093,70.494 256.093 C 70.684 256.093,70.747 255.945,70.636 255.765 C 70.524 255.584,70.782 255.062,71.208 254.604 C 71.635 254.146,71.857 253.772,71.701 253.772 C 71.546 253.772,71.757 253.516,72.170 253.204 C 72.583 252.891,72.793 252.630,72.637 252.624 C 72.279 252.608,74.438 248.646,75.338 247.666 C 75.604 247.377,75.822 246.968,75.822 246.758 C 75.822 246.548,75.967 246.466,76.144 246.575 C 76.322 246.685,76.467 246.547,76.467 246.269 C 76.467 245.522,82.813 234.429,83.240 234.429 C 83.441 234.429,83.497 234.255,83.366 234.043 C 83.234 233.830,83.321 233.656,83.559 233.656 C 83.797 233.656,83.900 233.508,83.789 233.327 C 83.677 233.147,83.930 232.629,84.352 232.177 C 84.773 231.725,85.292 230.958,85.506 230.474 C 85.719 229.990,86.418 228.723,87.060 227.660 C 87.702 226.596,88.423 225.334,88.663 224.855 C 89.160 223.863,89.840 223.744,90.609 224.514 C 90.900 224.805,91.522 225.165,91.991 225.314 C 92.460 225.462,92.843 225.757,92.843 225.968 C 92.843 226.179,93.017 226.244,93.230 226.112 C 93.443 225.981,93.617 226.057,93.617 226.283 C 93.617 226.508,93.864 226.692,94.165 226.692 C 94.466 226.692,94.771 226.823,94.842 226.983 C 94.913 227.142,95.493 227.560,96.132 227.911 C 99.597 229.818,105.055 233.003,105.222 233.216 C 105.329 233.352,106.243 233.878,107.253 234.386 C 108.264 234.895,109.091 235.431,109.091 235.579 C 109.091 235.727,109.322 235.848,109.604 235.848 C 109.887 235.848,110.919 236.399,111.899 237.073 C 113.746 238.344,114.507 238.584,114.507 237.895 C 114.507 237.401,111.091 223.632,110.768 222.824 C 110.640 222.505,110.481 221.828,110.414 221.319 C 110.347 220.811,110.173 220.114,110.028 219.772 C 109.882 219.429,109.697 218.643,109.617 218.024 C 109.537 217.405,109.283 216.673,109.054 216.397 C 108.825 216.121,108.750 215.713,108.887 215.491 C 109.024 215.269,108.940 215.087,108.701 215.087 C 108.441 215.087,108.364 214.774,108.511 214.313 C 108.658 213.850,108.580 213.540,108.317 213.540 C 108.054 213.540,107.977 213.229,108.124 212.766 C 108.271 212.303,108.193 211.992,107.930 211.992 C 107.667 211.992,107.590 211.682,107.737 211.219 C 107.888 210.742,107.806 210.445,107.524 210.445 C 107.257 210.445,107.151 210.123,107.269 209.671 C 107.380 209.246,107.293 208.897,107.075 208.897 C 106.858 208.897,106.771 208.549,106.882 208.124 C 106.993 207.698,106.906 207.350,106.688 207.350 C 106.471 207.350,106.384 207.002,106.495 206.576 C 106.606 206.151,106.521 205.803,106.305 205.803 C 106.090 205.803,106.009 205.553,106.126 205.247 C 106.244 204.942,106.215 204.637,106.063 204.570 C 105.911 204.504,104.153 197.921,102.156 189.942 C 100.159 181.963,98.392 175.283,98.229 175.098 C 98.066 174.912,98.018 174.538,98.122 174.267 C 98.227 173.995,98.134 173.662,97.916 173.528 C 97.698 173.393,97.611 173.045,97.722 172.754 C 97.834 172.463,97.736 172.109,97.506 171.966 C 97.275 171.823,97.191 171.537,97.319 171.330 C 97.447 171.122,97.348 170.707,97.099 170.406 C 96.849 170.106,96.750 169.690,96.878 169.483 C 97.006 169.275,96.922 168.989,96.692 168.846 C 96.461 168.704,96.366 168.344,96.480 168.046 C 96.594 167.748,96.499 167.505,96.268 167.505 C 96.037 167.505,95.939 167.157,96.050 166.731 C 96.161 166.306,96.083 165.957,95.876 165.957 C 95.669 165.957,95.610 165.609,95.745 165.184 C 96.089 164.098,96.121 164.093,83.172 167.358 M193.230 187.628 C 192.379 187.812,190.464 187.977,188.975 187.993 C 186.464 188.021,182.306 188.480,179.787 189.007 L 178.723 189.230 178.723 216.665 L 178.723 244.101 185.300 244.101 L 191.876 244.101 191.876 235.070 L 191.876 226.040 197.690 225.788 C 214.958 225.040,222.448 218.531,221.547 205.052 C 220.822 194.194,215.094 189.385,201.203 187.975 C 199.158 187.768,196.876 187.529,196.132 187.445 C 195.387 187.361,194.081 187.443,193.230 187.628 M245.605 187.402 C 245.475 187.534,242.864 187.814,239.802 188.025 C 236.741 188.235,233.322 188.590,232.205 188.815 L 230.174 189.223 230.174 216.662 L 230.174 244.101 236.750 244.101 L 243.327 244.101 243.327 234.220 L 243.327 224.339 246.315 224.452 L 249.303 224.565 251.763 228.046 C 253.116 229.961,255.179 233.182,256.347 235.203 C 257.516 237.224,259.176 240.053,260.037 241.489 L 261.603 244.101 268.906 244.101 C 274.186 244.101,276.209 243.976,276.209 243.652 C 276.209 242.643,271.393 234.141,267.374 228.055 L 263.084 221.558 265.294 220.243 C 270.663 217.051,273.114 212.569,273.114 205.944 C 273.114 195.394,266.290 189.415,252.653 188.017 C 250.609 187.808,248.240 187.530,247.389 187.399 C 246.538 187.269,245.735 187.270,245.605 187.402 M130.368 216.248 L 130.368 244.101 150.290 244.101 L 170.213 244.101 170.213 238.491 L 170.213 232.882 156.867 232.882 L 143.520 232.882 143.520 226.692 L 143.520 220.503 154.739 220.503 L 165.957 220.503 165.957 215.358 C 165.957 208.678,167.124 209.284,154.275 209.284 L 143.520 209.284 143.520 204.454 L 143.520 199.624 155.996 199.522 L 168.472 199.420 168.579 193.907 L 168.687 188.395 149.527 188.395 L 130.368 188.395 130.368 216.248 M200.000 199.175 C 200.000 199.360,200.690 199.604,201.533 199.717 C 206.513 200.385,208.981 204.205,207.569 209.062 C 206.505 212.719,203.749 213.999,195.841 214.507 L 191.876 214.762 191.876 206.801 L 191.876 198.839 195.938 198.839 C 198.172 198.839,200.000 198.991,200.000 199.175 M251.359 199.184 C 251.729 199.374,253.024 199.815,254.237 200.165 C 259.491 201.681,261.021 206.925,257.335 210.788 C 255.497 212.715,253.926 213.163,248.066 213.429 L 243.327 213.644 243.327 206.242 L 243.327 198.839 247.007 198.839 C 249.031 198.839,250.990 198.995,251.359 199.184 " stroke="none" fill="#0bb34b" fill-rule="evenodd"></path></g></svg>