<svg id="svg" xmlns="http://www.w3.org/2000/svg" xmlns:xlink="http://www.w3.org/1999/xlink" width="400" height="189.2933618843683" viewBox="0, 0, 400,189.2933618843683"><g id="svgg"><path id="path0" d="M3.426 5.139 L 3.426 7.709 8.565 7.709 L 13.704 7.709 13.704 5.139 L 13.704 2.570 8.565 2.570 L 3.426 2.570 3.426 5.139 M23.126 5.139 L 23.126 7.709 28.694 7.709 L 34.261 7.709 34.261 5.139 L 34.261 2.570 28.694 2.570 L 23.126 2.570 23.126 5.139 M43.683 5.139 L 43.683 7.709 49.251 7.709 L 54.818 7.709 54.818 5.139 L 54.818 2.570 49.251 2.570 L 43.683 2.570 43.683 5.139 M64.240 5.139 L 64.240 7.709 69.807 7.709 L 75.375 7.709 75.375 5.139 L 75.375 2.570 69.807 2.570 L 64.240 2.570 64.240 5.139 M84.797 5.139 L 84.797 7.709 90.364 7.709 L 95.931 7.709 95.931 5.139 L 95.931 2.570 90.364 2.570 L 84.797 2.570 84.797 5.139 M105.353 5.139 L 105.353 7.709 110.921 7.709 L 116.488 7.709 116.488 5.139 L 116.488 2.570 110.921 2.570 L 105.353 2.570 105.353 5.139 M125.910 5.139 L 125.910 7.709 131.478 7.709 L 137.045 7.709 137.045 5.139 L 137.045 2.570 131.478 2.570 L 125.910 2.570 125.910 5.139 M146.467 5.139 L 146.467 7.709 152.034 7.709 L 157.602 7.709 157.602 5.139 L 157.602 2.570 152.034 2.570 L 146.467 2.570 146.467 5.139 M167.024 5.139 L 167.024 7.709 172.591 7.709 L 178.158 7.709 178.158 5.139 L 178.158 2.570 172.591 2.570 L 167.024 2.570 167.024 5.139 M187.580 5.763 C 187.580 8.087,188.018 8.484,192.316 10.068 L 197.051 11.812 198.348 9.304 C 199.641 6.803,199.636 6.792,196.445 5.458 C 190.001 2.766,187.580 2.849,187.580 5.763 M204.978 15.531 L 203.152 17.358 205.591 20.726 C 206.933 22.578,208.182 24.546,208.366 25.099 C 208.801 26.403,213.276 24.495,213.276 23.006 C 213.276 21.752,208.176 13.704,207.382 13.704 C 207.064 13.704,205.983 14.526,204.978 15.531 M210.707 39.829 L 210.707 45.396 213.276 45.396 L 215.846 45.396 215.846 39.829 L 215.846 34.261 213.276 34.261 L 210.707 34.261 210.707 39.829 M210.707 60.385 L 210.707 65.953 213.276 65.953 L 215.846 65.953 215.846 60.385 L 215.846 54.818 213.276 54.818 L 210.707 54.818 210.707 60.385 M210.707 80.942 L 210.707 86.510 213.276 86.510 L 215.846 86.510 215.846 80.942 L 215.846 75.375 213.276 75.375 L 210.707 75.375 210.707 80.942 M210.707 101.499 L 210.707 107.066 213.276 107.066 L 215.846 107.066 215.846 101.499 L 215.846 95.931 213.276 95.931 L 210.707 95.931 210.707 101.499 M210.707 122.056 L 210.707 127.623 213.276 127.623 L 215.846 127.623 215.846 122.056 L 215.846 116.488 213.276 116.488 L 210.707 116.488 210.707 122.056 M333.191 123.340 C 330.750 125.781,331.030 128.512,334.904 140.043 C 339.036 152.344,339.009 151.606,335.332 151.606 C 332.477 151.606,332.334 151.749,332.334 154.604 C 332.334 157.459,332.477 157.602,335.332 157.602 C 338.987 157.602,339.024 156.663,334.904 168.308 C 331.039 179.230,330.641 183.317,333.191 185.867 C 336.447 189.124,339.170 188.153,368.737 173.191 C 408.385 153.126,408.360 155.365,369.152 135.754 C 339.284 120.814,336.632 119.899,333.191 123.340 M367.666 141.415 C 381.210 148.190,392.291 154.024,392.291 154.380 C 392.291 155.224,339.594 181.585,337.907 181.585 C 336.227 181.585,335.964 182.694,341.192 167.714 L 345.768 154.604 341.621 142.207 C 339.340 135.388,337.473 129.120,337.473 128.277 C 337.473 126.280,336.976 126.063,367.666 141.415 M215.244 136.359 L 213.357 137.271 215.000 140.370 C 215.904 142.074,217.402 144.428,218.329 145.599 L 220.014 147.730 222.112 145.759 L 224.209 143.788 221.526 139.610 C 218.676 135.171,218.207 134.928,215.244 136.359 M229.688 151.218 C 229.141 152.418,228.694 153.555,228.694 153.744 C 228.694 154.549,238.052 156.953,239.308 156.471 C 242.602 155.207,240.882 151.981,236.113 150.478 C 230.416 148.682,230.867 148.630,229.688 151.218 M250.107 154.604 L 250.107 157.602 255.675 157.602 L 261.242 157.602 261.242 154.604 L 261.242 151.606 255.675 151.606 L 250.107 151.606 250.107 154.604 M270.664 154.604 L 270.664 157.602 276.231 157.602 L 281.799 157.602 281.799 154.604 L 281.799 151.606 276.231 151.606 L 270.664 151.606 270.664 154.604 M291.221 154.604 L 291.221 157.602 296.788 157.602 L 302.355 157.602 302.355 154.604 L 302.355 151.606 296.788 151.606 L 291.221 151.606 291.221 154.604 M311.777 154.604 L 311.777 157.602 317.345 157.602 L 322.912 157.602 322.912 154.604 L 322.912 151.606 317.345 151.606 L 311.777 151.606 311.777 154.604 " stroke="none" fill="#000000" fill-rule="evenodd"></path></g></svg>