<svg id="svg" version="1.1" xmlns="http://www.w3.org/2000/svg" xmlns:xlink="http://www.w3.org/1999/xlink" width="400" height="400" viewBox="0, 0, 400,400"><g id="svgg"><path id="path0" d="M189.259 119.023 C 189.259 119.301,188.747 120.759,188.121 122.264 C 187.496 123.769,186.726 125.750,186.411 126.667 C 186.096 127.583,185.536 129.000,185.166 129.815 C 184.797 130.630,181.890 137.796,178.705 145.741 C 175.521 153.685,172.669 160.725,172.368 161.385 L 171.820 162.585 153.966 162.682 L 136.111 162.778 134.922 165.000 C 134.269 166.222,133.124 168.889,132.379 170.926 C 131.634 172.963,126.058 187.046,119.989 202.222 C 107.518 233.405,107.487 233.482,106.848 235.000 C 106.367 236.145,90.920 274.949,89.560 278.432 C 89.141 279.505,88.652 280.473,88.473 280.584 C 88.294 280.694,88.148 280.941,88.148 281.133 C 88.148 281.349,110.140 281.481,146.111 281.481 C 190.594 281.481,204.074 281.379,204.074 281.042 C 204.074 280.800,207.930 271.008,212.642 259.283 C 217.355 247.557,221.291 237.671,221.389 237.315 C 221.558 236.701,219.882 236.666,189.951 236.661 C 171.274 236.658,158.112 236.515,157.793 236.313 C 157.330 236.021,157.378 235.661,158.127 233.819 C 159.686 229.981,163.566 222.062,164.353 221.111 L 165.120 220.185 196.868 220.000 L 228.616 219.815 236.364 200.556 C 240.626 189.963,244.271 180.910,244.464 180.439 C 245.303 178.388,247.440 178.519,213.148 178.519 C 186.097 178.519,181.481 178.442,181.481 177.995 C 181.481 177.706,181.968 176.165,182.563 174.569 C 183.158 172.973,184.334 169.750,185.177 167.407 C 186.020 165.065,186.875 162.981,187.077 162.778 C 187.313 162.539,198.940 162.341,219.707 162.222 L 251.970 162.037 254.884 154.815 C 256.487 150.843,259.034 144.509,260.544 140.741 C 262.054 136.972,264.633 130.588,266.274 126.554 C 267.916 122.520,269.259 119.062,269.259 118.869 C 269.259 118.651,254.168 118.519,229.259 118.519 C 195.745 118.519,189.259 118.600,189.259 119.023 M51.944 121.003 C 51.312 122.365,51.356 122.988,52.067 122.715 C 52.409 122.584,52.580 122.213,52.478 121.825 C 52.381 121.453,52.541 121.068,52.842 120.952 C 53.138 120.839,53.277 120.578,53.150 120.373 C 52.775 119.767,52.436 119.944,51.944 121.003 M362.963 120.556 C 362.963 120.861,363.130 121.111,363.333 121.111 C 363.537 121.111,363.704 120.861,363.704 120.556 C 363.704 120.250,363.537 120.000,363.333 120.000 C 363.130 120.000,362.963 120.250,362.963 120.556 M362.222 122.037 C 362.222 122.343,362.389 122.593,362.593 122.593 C 362.796 122.593,362.963 122.343,362.963 122.037 C 362.963 121.731,362.796 121.481,362.593 121.481 C 362.389 121.481,362.222 121.731,362.222 122.037 M361.481 123.519 C 361.481 123.824,361.648 124.074,361.852 124.074 C 362.056 124.074,362.222 123.824,362.222 123.519 C 362.222 123.213,362.056 122.963,361.852 122.963 C 361.648 122.963,361.481 123.213,361.481 123.519 M51.111 123.889 C 51.111 124.194,51.278 124.444,51.481 124.444 C 51.685 124.444,51.852 124.194,51.852 123.889 C 51.852 123.583,51.685 123.333,51.481 123.333 C 51.278 123.333,51.111 123.583,51.111 123.889 M50.370 125.370 C 50.370 125.676,50.537 125.926,50.741 125.926 C 50.944 125.926,51.111 125.676,51.111 125.370 C 51.111 125.065,50.944 124.815,50.741 124.815 C 50.537 124.815,50.370 125.065,50.370 125.370 M360.741 125.370 C 360.741 125.676,360.907 125.926,361.111 125.926 C 361.315 125.926,361.481 125.676,361.481 125.370 C 361.481 125.065,361.315 124.815,361.111 124.815 C 360.907 124.815,360.741 125.065,360.741 125.370 M360.272 126.518 C 360.151 126.639,360.144 126.981,360.257 127.276 C 360.371 127.572,360.167 128.030,359.805 128.295 C 359.442 128.560,359.265 128.968,359.410 129.203 C 359.822 129.870,360.370 129.704,360.370 128.911 C 360.370 128.515,360.537 128.089,360.741 127.963 C 361.187 127.687,361.239 126.296,360.802 126.296 C 360.633 126.296,360.394 126.396,360.272 126.518 M49.630 127.222 C 49.630 127.528,49.796 127.778,50.000 127.778 C 50.204 127.778,50.370 127.528,50.370 127.222 C 50.370 126.917,50.204 126.667,50.000 126.667 C 49.796 126.667,49.630 126.917,49.630 127.222 M48.889 128.889 C 48.889 129.296,49.056 129.630,49.259 129.630 C 49.463 129.630,49.630 129.296,49.630 128.889 C 49.630 128.481,49.463 128.148,49.259 128.148 C 49.056 128.148,48.889 128.481,48.889 128.889 M358.889 130.185 C 358.889 130.491,359.056 130.741,359.259 130.741 C 359.463 130.741,359.630 130.491,359.630 130.185 C 359.630 129.880,359.463 129.630,359.259 129.630 C 359.056 129.630,358.889 129.880,358.889 130.185 M48.148 130.556 C 48.148 130.861,48.315 131.111,48.519 131.111 C 48.722 131.111,48.889 130.861,48.889 130.556 C 48.889 130.250,48.722 130.000,48.519 130.000 C 48.315 130.000,48.148 130.250,48.148 130.556 M47.407 132.253 C 47.407 133.156,48.273 133.028,48.453 132.099 C 48.524 131.733,48.335 131.481,47.990 131.481 C 47.647 131.481,47.407 131.798,47.407 132.253 M358.148 132.222 C 358.148 132.630,357.981 132.963,357.778 132.963 C 357.574 132.963,357.407 133.213,357.407 133.519 C 357.407 133.824,357.574 134.074,357.778 134.074 C 357.981 134.074,358.148 133.824,358.148 133.519 C 358.148 133.213,358.315 132.963,358.519 132.963 C 358.722 132.963,358.889 132.630,358.889 132.222 C 358.889 131.815,358.722 131.481,358.519 131.481 C 358.315 131.481,358.148 131.815,358.148 132.222 M46.296 135.556 C 46.296 135.963,46.463 136.296,46.667 136.296 C 46.870 136.296,47.037 135.963,47.037 135.556 C 47.037 135.148,46.870 134.815,46.667 134.815 C 46.463 134.815,46.296 135.148,46.296 135.556 M356.111 136.667 C 355.841 137.104,356.191 137.778,356.689 137.778 C 356.880 137.778,357.037 137.444,357.037 137.037 C 357.037 136.256,356.498 136.040,356.111 136.667 M45.556 137.593 C 45.556 137.898,45.722 138.148,45.926 138.148 C 46.130 138.148,46.296 137.898,46.296 137.593 C 46.296 137.287,46.130 137.037,45.926 137.037 C 45.722 137.037,45.556 137.287,45.556 137.593 M355.556 138.844 C 355.556 139.226,355.307 139.745,355.004 139.997 C 354.701 140.248,354.544 140.602,354.656 140.783 C 355.020 141.373,355.556 141.128,355.556 140.370 C 355.556 139.963,355.722 139.630,355.926 139.630 C 356.130 139.630,356.296 139.296,356.296 138.889 C 356.296 138.481,356.130 138.148,355.926 138.148 C 355.722 138.148,355.556 138.461,355.556 138.844 M44.537 139.521 C 43.979 140.724,43.943 141.481,44.444 141.481 C 44.648 141.481,44.815 141.065,44.815 140.556 C 44.815 140.046,44.981 139.630,45.185 139.630 C 45.389 139.630,45.556 139.380,45.556 139.074 C 45.556 138.203,45.045 138.427,44.537 139.521 M354.074 142.200 C 354.074 142.596,353.907 143.022,353.704 143.148 C 353.500 143.274,353.333 143.617,353.333 143.911 C 353.333 144.204,353.500 144.444,353.704 144.444 C 353.907 144.444,354.074 144.111,354.074 143.704 C 354.074 143.296,354.241 142.963,354.444 142.963 C 354.648 142.963,354.815 142.630,354.815 142.222 C 354.815 141.815,354.648 141.481,354.444 141.481 C 354.241 141.481,354.074 141.805,354.074 142.200 M43.333 142.581 C 43.333 143.077,43.511 143.242,43.889 143.097 C 44.194 142.980,44.444 142.652,44.444 142.368 C 44.444 142.084,44.194 141.852,43.889 141.852 C 43.583 141.852,43.333 142.180,43.333 142.581 M352.593 145.370 C 352.593 145.676,352.759 145.926,352.963 145.926 C 353.167 145.926,353.333 145.676,353.333 145.370 C 353.333 145.065,353.167 144.815,352.963 144.815 C 352.759 144.815,352.593 145.065,352.593 145.370 M42.222 145.926 C 42.222 146.333,42.389 146.667,42.593 146.667 C 42.796 146.667,42.963 146.333,42.963 145.926 C 42.963 145.519,42.796 145.185,42.593 145.185 C 42.389 145.185,42.222 145.519,42.222 145.926 M351.852 147.222 C 351.852 147.528,352.019 147.778,352.222 147.778 C 352.426 147.778,352.593 147.528,352.593 147.222 C 352.593 146.917,352.426 146.667,352.222 146.667 C 352.019 146.667,351.852 146.917,351.852 147.222 M351.368 148.385 C 351.072 148.681,351.407 149.259,351.874 149.259 C 352.065 149.259,352.222 149.009,352.222 148.704 C 352.222 148.131,351.785 147.968,351.368 148.385 M40.741 149.259 C 40.741 149.667,40.907 150.000,41.111 150.000 C 41.315 150.000,41.481 149.667,41.481 149.259 C 41.481 148.852,41.315 148.519,41.111 148.519 C 40.907 148.519,40.741 148.852,40.741 149.259 M350.741 150.185 C 350.741 150.491,350.907 150.741,351.111 150.741 C 351.315 150.741,351.481 150.491,351.481 150.185 C 351.481 149.880,351.315 149.630,351.111 149.630 C 350.907 149.630,350.741 149.880,350.741 150.185 M350.000 152.037 C 350.000 152.343,350.167 152.593,350.370 152.593 C 350.574 152.593,350.741 152.343,350.741 152.037 C 350.741 151.731,350.574 151.481,350.370 151.481 C 350.167 151.481,350.000 151.731,350.000 152.037 M38.963 153.379 C 38.465 154.973,38.551 155.438,39.260 155.000 C 39.491 154.857,39.583 154.486,39.463 154.175 C 39.344 153.864,39.524 153.406,39.865 153.157 C 40.205 152.909,40.365 152.513,40.220 152.278 C 39.762 151.537,39.454 151.807,38.963 153.379 M349.259 154.074 C 349.259 154.481,349.093 154.815,348.889 154.815 C 348.685 154.815,348.519 155.065,348.519 155.370 C 348.519 155.676,348.685 155.926,348.889 155.926 C 349.093 155.926,349.259 155.676,349.259 155.370 C 349.259 155.065,349.426 154.815,349.630 154.815 C 349.833 154.815,350.000 154.481,350.000 154.074 C 350.000 153.667,349.833 153.333,349.630 153.333 C 349.426 153.333,349.259 153.667,349.259 154.074 M38.148 156.111 C 38.148 156.417,38.315 156.667,38.519 156.667 C 38.722 156.667,38.889 156.417,38.889 156.111 C 38.889 155.806,38.722 155.556,38.519 155.556 C 38.315 155.556,38.148 155.806,38.148 156.111 M347.778 157.333 C 347.778 157.700,347.633 158.158,347.455 158.352 C 346.934 158.920,346.610 160.741,347.030 160.741 C 347.238 160.741,347.407 160.505,347.407 160.216 C 347.407 159.927,347.560 159.636,347.747 159.568 C 348.270 159.377,348.684 156.667,348.189 156.667 C 347.963 156.667,347.778 156.967,347.778 157.333 M37.407 157.963 C 37.407 158.269,37.574 158.519,37.778 158.519 C 37.981 158.519,38.148 158.269,38.148 157.963 C 38.148 157.657,37.981 157.407,37.778 157.407 C 37.574 157.407,37.407 157.657,37.407 157.963 M36.667 159.444 C 36.667 159.750,36.833 160.000,37.037 160.000 C 37.241 160.000,37.407 159.750,37.407 159.444 C 37.407 159.139,37.241 158.889,37.037 158.889 C 36.833 158.889,36.667 159.139,36.667 159.444 M36.296 161.852 C 36.296 162.463,36.434 162.963,36.603 162.963 C 36.771 162.963,36.835 162.463,36.746 161.852 C 36.656 161.241,36.518 160.741,36.439 160.741 C 36.361 160.741,36.296 161.241,36.296 161.852 M316.111 161.852 C 315.966 162.086,316.910 162.222,318.682 162.222 C 320.301 162.222,321.481 162.066,321.481 161.852 C 321.481 161.641,320.378 161.481,318.911 161.481 C 317.497 161.481,316.237 161.648,316.111 161.852 M331.111 161.852 C 331.111 162.061,332.168 162.222,333.540 162.222 C 335.066 162.222,335.884 162.084,335.741 161.852 C 335.615 161.648,334.522 161.481,333.311 161.481 C 332.091 161.481,331.111 161.646,331.111 161.852 M310.648 162.152 C 308.907 162.356,309.531 162.963,311.481 162.963 C 312.500 162.963,313.333 162.816,313.333 162.636 C 313.333 162.232,312.008 161.993,310.648 162.152 M339.259 162.593 C 339.259 162.796,340.186 162.963,341.318 162.963 C 342.596 162.963,343.290 162.823,343.148 162.593 C 343.022 162.389,342.096 162.222,341.089 162.222 C 340.083 162.222,339.259 162.389,339.259 162.593 M82.469 162.840 C 82.085 163.224,82.179 164.444,82.593 164.444 C 82.796 164.444,82.963 164.291,82.963 164.104 C 82.963 163.917,83.064 163.501,83.188 163.178 C 83.412 162.594,82.938 162.371,82.469 162.840 M305.463 162.841 C 304.264 163.167,304.802 163.704,306.327 163.704 C 307.371 163.704,307.792 163.560,307.687 163.241 C 307.523 162.741,306.505 162.559,305.463 162.841 M72.222 163.333 C 72.222 163.537,72.972 163.704,73.889 163.704 C 74.806 163.704,75.556 163.537,75.556 163.333 C 75.556 163.130,74.806 162.963,73.889 162.963 C 72.972 162.963,72.222 163.130,72.222 163.333 M80.370 163.333 C 80.370 163.537,80.704 163.704,81.111 163.704 C 81.519 163.704,81.852 163.537,81.852 163.333 C 81.852 163.130,81.519 162.963,81.111 162.963 C 80.704 162.963,80.370 163.130,80.370 163.333 M301.358 163.580 C 300.830 164.108,301.158 164.444,302.200 164.444 C 303.433 164.444,303.998 163.896,303.116 163.557 C 302.352 163.264,301.665 163.273,301.358 163.580 M297.778 164.444 C 297.778 164.648,298.194 164.815,298.704 164.815 C 299.213 164.815,299.630 164.648,299.630 164.444 C 299.630 164.241,299.213 164.074,298.704 164.074 C 298.194 164.074,297.778 164.241,297.778 164.444 M81.852 165.370 C 81.852 165.676,82.019 165.926,82.222 165.926 C 82.426 165.926,82.593 165.676,82.593 165.370 C 82.593 165.065,82.426 164.815,82.222 164.815 C 82.019 164.815,81.852 165.065,81.852 165.370 M295.000 165.185 C 294.870 165.395,295.181 165.556,295.719 165.556 C 296.240 165.556,296.667 165.389,296.667 165.185 C 296.667 164.981,296.343 164.815,295.948 164.815 C 295.552 164.815,295.126 164.981,295.000 165.185 M292.222 165.926 C 292.222 166.130,292.639 166.296,293.148 166.296 C 293.657 166.296,294.074 166.130,294.074 165.926 C 294.074 165.722,293.657 165.556,293.148 165.556 C 292.639 165.556,292.222 165.722,292.222 165.926 M81.111 167.037 C 81.111 167.444,81.278 167.778,81.481 167.778 C 81.685 167.778,81.852 167.444,81.852 167.037 C 81.852 166.630,81.685 166.296,81.481 166.296 C 81.278 166.296,81.111 166.630,81.111 167.037 M290.000 166.667 C 290.000 166.870,290.333 167.037,290.741 167.037 C 291.148 167.037,291.481 166.870,291.481 166.667 C 291.481 166.463,291.148 166.296,290.741 166.296 C 290.333 166.296,290.000 166.463,290.000 166.667 M286.019 167.678 C 285.764 167.767,285.556 167.992,285.556 168.179 C 285.556 168.616,286.929 168.623,287.198 168.187 C 287.445 167.788,286.666 167.452,286.019 167.678 M283.889 168.519 C 283.763 168.722,284.003 168.889,284.423 168.889 C 284.842 168.889,285.185 168.722,285.185 168.519 C 285.185 168.315,284.945 168.148,284.651 168.148 C 284.358 168.148,284.015 168.315,283.889 168.519 M80.370 169.074 C 80.370 169.380,80.537 169.630,80.741 169.630 C 80.944 169.630,81.111 169.380,81.111 169.074 C 81.111 168.769,80.944 168.519,80.741 168.519 C 80.537 168.519,80.370 168.769,80.370 169.074 M280.741 170.000 C 280.741 170.204,280.991 170.370,281.296 170.370 C 281.602 170.370,281.852 170.204,281.852 170.000 C 281.852 169.796,281.602 169.630,281.296 169.630 C 280.991 169.630,280.741 169.796,280.741 170.000 M279.259 170.741 C 279.259 170.944,279.509 171.111,279.815 171.111 C 280.120 171.111,280.370 170.944,280.370 170.741 C 280.370 170.537,280.120 170.370,279.815 170.370 C 279.509 170.370,279.259 170.537,279.259 170.741 M277.912 171.296 C 277.794 171.602,277.466 171.852,277.183 171.852 C 276.899 171.852,276.667 172.019,276.667 172.222 C 276.667 172.426,276.917 172.593,277.222 172.593 C 277.528 172.593,277.778 172.426,277.778 172.222 C 277.778 172.019,278.028 171.852,278.333 171.852 C 278.639 171.852,278.889 171.602,278.889 171.296 C 278.889 170.991,278.717 170.741,278.507 170.741 C 278.297 170.741,278.029 170.991,277.912 171.296 M78.889 172.407 C 78.889 172.747,79.068 172.965,79.287 172.892 C 79.506 172.819,79.685 172.601,79.685 172.407 C 79.685 172.214,79.506 171.996,79.287 171.923 C 79.068 171.850,78.889 172.068,78.889 172.407 M275.432 172.469 C 275.006 172.895,275.162 173.333,275.741 173.333 C 276.046 173.333,276.296 173.083,276.296 172.778 C 276.296 172.199,275.858 172.043,275.432 172.469 M78.148 174.074 C 78.148 174.957,78.717 175.057,79.034 174.229 C 79.352 173.401,79.327 173.333,78.704 173.333 C 78.395 173.333,78.148 173.663,78.148 174.074 M77.778 175.741 C 77.778 176.046,77.944 176.296,78.148 176.296 C 78.352 176.296,78.519 176.046,78.519 175.741 C 78.519 175.435,78.352 175.185,78.148 175.185 C 77.944 175.185,77.778 175.435,77.778 175.741 M270.463 175.430 C 270.009 175.614,269.795 176.667,270.212 176.667 C 270.487 176.667,271.481 175.672,271.481 175.397 C 271.481 175.152,271.123 175.164,270.463 175.430 M77.037 177.407 C 77.037 177.815,77.204 178.148,77.407 178.148 C 77.611 178.148,77.778 177.815,77.778 177.407 C 77.778 177.000,77.611 176.667,77.407 176.667 C 77.204 176.667,77.037 177.000,77.037 177.407 M267.905 177.539 C 267.669 177.772,266.586 178.827,265.497 179.882 C 262.993 182.311,262.462 182.956,262.742 183.235 C 262.865 183.359,264.293 182.104,265.916 180.448 C 267.539 178.792,268.747 177.365,268.600 177.276 C 268.453 177.187,268.140 177.306,267.905 177.539 M76.296 179.074 C 76.296 179.380,76.463 179.630,76.667 179.630 C 76.870 179.630,77.037 179.380,77.037 179.074 C 77.037 178.769,76.870 178.519,76.667 178.519 C 76.463 178.519,76.296 178.769,76.296 179.074 M75.556 180.741 C 75.556 181.148,75.722 181.481,75.926 181.481 C 76.130 181.481,76.296 181.148,76.296 180.741 C 76.296 180.333,76.130 180.000,75.926 180.000 C 75.722 180.000,75.556 180.333,75.556 180.741 M74.537 183.225 C 73.977 184.430,73.955 184.815,74.444 184.815 C 74.648 184.815,74.815 184.481,74.815 184.074 C 74.815 183.667,74.981 183.333,75.185 183.333 C 75.389 183.333,75.556 183.083,75.556 182.778 C 75.556 181.907,75.045 182.131,74.537 183.225 M261.759 184.233 C 261.403 184.496,261.111 184.887,261.111 185.103 C 261.111 185.318,260.966 185.549,260.790 185.617 C 260.307 185.803,259.887 187.407,260.320 187.407 C 260.524 187.407,260.809 187.032,260.954 186.574 C 261.099 186.116,261.543 185.457,261.941 185.110 C 262.835 184.332,262.674 183.559,261.759 184.233 M73.120 186.869 C 72.856 188.281,73.172 189.082,73.537 187.923 C 73.658 187.538,73.912 186.933,74.101 186.579 C 74.565 185.709,74.536 185.556,73.906 185.556 C 73.582 185.556,73.269 186.080,73.120 186.869 M72.222 189.444 C 72.222 189.750,72.389 190.000,72.593 190.000 C 72.796 190.000,72.963 189.750,72.963 189.444 C 72.963 189.139,72.796 188.889,72.593 188.889 C 72.389 188.889,72.222 189.139,72.222 189.444 M258.715 189.738 C 258.557 190.103,258.531 190.506,258.658 190.633 C 259.034 191.009,259.337 190.481,259.164 189.751 C 259.011 189.104,258.991 189.104,258.715 189.738 M71.481 191.111 C 71.481 191.519,71.648 191.852,71.852 191.852 C 72.056 191.852,72.222 191.519,72.222 191.111 C 72.222 190.704,72.056 190.370,71.852 190.370 C 71.648 190.370,71.481 190.704,71.481 191.111 M257.778 192.222 C 257.778 192.630,257.944 192.963,258.148 192.963 C 258.352 192.963,258.519 192.630,258.519 192.222 C 258.519 191.815,258.352 191.481,258.148 191.481 C 257.944 191.481,257.778 191.815,257.778 192.222 M70.741 192.778 C 70.741 193.083,70.907 193.333,71.111 193.333 C 71.315 193.333,71.481 193.083,71.481 192.778 C 71.481 192.472,71.315 192.222,71.111 192.222 C 70.907 192.222,70.741 192.472,70.741 192.778 M70.000 194.444 C 70.000 194.852,70.167 195.185,70.370 195.185 C 70.574 195.185,70.741 194.852,70.741 194.444 C 70.741 194.037,70.574 193.704,70.370 193.704 C 70.167 193.704,70.000 194.037,70.000 194.444 M257.037 197.037 C 257.037 198.519,257.196 199.630,257.407 199.630 C 257.619 199.630,257.778 198.519,257.778 197.037 C 257.778 195.556,257.619 194.444,257.407 194.444 C 257.196 194.444,257.037 195.556,257.037 197.037 M69.259 196.254 C 69.259 196.786,69.430 196.948,69.830 196.795 C 70.463 196.552,70.385 195.869,69.699 195.640 C 69.455 195.559,69.259 195.832,69.259 196.254 M68.148 199.815 C 68.148 200.120,68.315 200.370,68.519 200.370 C 68.722 200.370,68.889 200.120,68.889 199.815 C 68.889 199.509,68.722 199.259,68.519 199.259 C 68.315 199.259,68.148 199.509,68.148 199.815 M257.778 201.852 C 257.778 202.259,257.944 202.593,258.148 202.593 C 258.352 202.593,258.519 202.259,258.519 201.852 C 258.519 201.444,258.352 201.111,258.148 201.111 C 257.944 201.111,257.778 201.444,257.778 201.852 M66.667 203.148 C 66.667 203.454,66.833 203.704,67.037 203.704 C 67.241 203.704,67.407 203.454,67.407 203.148 C 67.407 202.843,67.241 202.593,67.037 202.593 C 66.833 202.593,66.667 202.843,66.667 203.148 M258.519 204.074 C 258.519 204.481,258.685 204.815,258.889 204.815 C 259.093 204.815,259.259 204.481,259.259 204.074 C 259.259 203.667,259.093 203.333,258.889 203.333 C 258.685 203.333,258.519 203.667,258.519 204.074 M65.926 204.860 C 65.926 205.517,66.017 205.570,66.481 205.185 C 66.787 204.932,67.037 204.578,67.037 204.399 C 67.037 204.220,66.787 204.074,66.481 204.074 C 66.162 204.074,65.926 204.408,65.926 204.860 M259.259 205.741 C 259.259 206.046,259.426 206.296,259.630 206.296 C 259.833 206.296,260.000 206.046,260.000 205.741 C 260.000 205.435,259.833 205.185,259.630 205.185 C 259.426 205.185,259.259 205.435,259.259 205.741 M65.185 206.481 C 65.185 206.821,65.364 207.039,65.583 206.966 C 65.802 206.893,65.981 206.675,65.981 206.481 C 65.981 206.288,65.802 206.070,65.583 205.997 C 65.364 205.924,65.185 206.142,65.185 206.481 M260.209 207.500 C 260.352 207.958,260.613 208.389,260.790 208.457 C 260.966 208.525,261.111 208.816,261.111 209.105 C 261.111 209.394,261.278 209.630,261.481 209.630 C 261.685 209.630,261.852 209.380,261.852 209.074 C 261.852 208.769,261.703 208.519,261.522 208.519 C 261.340 208.519,261.087 208.102,260.959 207.593 C 260.831 207.083,260.552 206.667,260.338 206.667 C 260.106 206.667,260.054 207.001,260.209 207.500 M64.815 208.170 C 64.815 208.589,64.981 208.830,65.185 208.704 C 65.389 208.578,65.556 208.235,65.556 207.941 C 65.556 207.648,65.389 207.407,65.185 207.407 C 64.981 207.407,64.815 207.751,64.815 208.170 M64.074 210.000 C 64.074 210.407,63.907 210.741,63.704 210.741 C 63.500 210.741,63.333 211.074,63.333 211.481 C 63.333 211.889,63.500 212.222,63.704 212.222 C 63.907 212.222,64.074 211.899,64.074 211.503 C 64.074 211.108,64.241 210.681,64.444 210.556 C 64.648 210.430,64.815 210.086,64.815 209.793 C 64.815 209.499,64.648 209.259,64.444 209.259 C 64.241 209.259,64.074 209.593,64.074 210.000 M262.593 211.066 C 262.593 211.531,263.679 212.370,263.942 212.107 C 264.063 211.986,263.904 211.629,263.589 211.314 C 262.945 210.670,262.593 210.582,262.593 211.066 M62.774 213.241 C 62.627 213.699,62.359 214.074,62.179 214.074 C 61.999 214.074,61.852 214.407,61.852 214.815 C 61.852 215.222,62.019 215.556,62.222 215.556 C 62.426 215.556,62.593 215.236,62.593 214.846 C 62.593 214.455,62.778 214.074,63.005 213.998 C 63.232 213.923,63.333 213.534,63.230 213.134 C 63.053 212.452,63.025 212.459,62.774 213.241 M267.037 215.886 C 267.037 216.068,267.287 216.313,267.593 216.430 C 267.931 216.560,268.148 216.431,268.148 216.099 C 268.148 215.800,267.898 215.556,267.593 215.556 C 267.287 215.556,267.037 215.704,267.037 215.886 M60.833 217.299 C 60.212 218.637,60.247 219.283,60.926 219.023 C 61.231 218.906,61.481 218.504,61.481 218.130 C 61.481 217.757,61.651 217.346,61.858 217.218 C 62.243 216.981,62.014 216.294,61.552 216.299 C 61.411 216.301,61.088 216.751,60.833 217.299 M269.259 217.708 C 269.259 218.141,270.705 219.630,271.126 219.630 C 271.690 219.630,271.548 219.292,270.572 218.316 C 269.625 217.369,269.259 217.199,269.259 217.708 M60.000 220.185 C 60.000 220.491,60.167 220.741,60.370 220.741 C 60.574 220.741,60.741 220.491,60.741 220.185 C 60.741 219.880,60.574 219.630,60.370 219.630 C 60.167 219.630,60.000 219.880,60.000 220.185 M272.593 220.652 C 272.593 220.806,272.950 221.156,273.387 221.429 C 274.091 221.868,274.154 221.854,273.943 221.303 C 273.811 220.960,273.704 220.610,273.704 220.525 C 273.704 220.440,273.454 220.370,273.148 220.370 C 272.843 220.370,272.593 220.497,272.593 220.652 M59.259 222.037 C 59.259 222.343,59.426 222.593,59.630 222.593 C 59.833 222.593,60.000 222.343,60.000 222.037 C 60.000 221.731,59.833 221.481,59.630 221.481 C 59.426 221.481,59.259 221.731,59.259 222.037 M274.444 221.839 C 274.444 222.273,275.910 223.103,276.187 222.825 C 276.444 222.568,275.356 221.481,274.841 221.481 C 274.623 221.481,274.444 221.642,274.444 221.839 M58.519 223.519 C 58.519 223.824,58.685 224.074,58.889 224.074 C 59.093 224.074,59.259 223.824,59.259 223.519 C 59.259 223.213,59.093 222.963,58.889 222.963 C 58.685 222.963,58.519 223.213,58.519 223.519 M276.667 223.333 C 276.667 223.537,276.917 223.704,277.222 223.704 C 277.528 223.704,277.778 223.865,277.778 224.061 C 277.778 224.495,279.243 225.325,279.520 225.048 C 279.778 224.790,278.690 223.704,278.175 223.704 C 277.956 223.704,277.778 223.537,277.778 223.333 C 277.778 223.130,277.528 222.963,277.222 222.963 C 276.917 222.963,276.667 223.130,276.667 223.333 M57.778 225.185 C 57.778 225.593,57.944 225.926,58.148 225.926 C 58.352 225.926,58.519 225.593,58.519 225.185 C 58.519 224.778,58.352 224.444,58.148 224.444 C 57.944 224.444,57.778 224.778,57.778 225.185 M57.037 227.015 C 57.037 227.411,56.870 227.837,56.667 227.963 C 56.463 228.089,56.296 228.432,56.296 228.726 C 56.296 229.019,56.463 229.259,56.667 229.259 C 56.870 229.259,57.037 228.936,57.037 228.540 C 57.037 228.145,57.204 227.718,57.407 227.593 C 57.611 227.467,57.778 227.124,57.778 226.830 C 57.778 226.536,57.611 226.296,57.407 226.296 C 57.204 226.296,57.037 226.620,57.037 227.015 M282.963 226.666 C 282.963 227.090,285.230 228.123,285.648 227.889 C 286.203 227.579,285.908 227.037,285.185 227.037 C 284.778 227.037,284.444 226.870,284.444 226.667 C 284.444 226.463,284.111 226.296,283.704 226.296 C 283.296 226.296,282.963 226.462,282.963 226.666 M285.926 228.148 C 285.926 228.352,286.259 228.519,286.667 228.519 C 287.074 228.519,287.407 228.352,287.407 228.148 C 287.407 227.944,287.074 227.778,286.667 227.778 C 286.259 227.778,285.926 227.944,285.926 228.148 M289.259 229.630 C 289.259 229.833,289.593 230.000,290.000 230.000 C 290.407 230.000,290.741 229.833,290.741 229.630 C 290.741 229.426,290.407 229.259,290.000 229.259 C 289.593 229.259,289.259 229.426,289.259 229.630 M55.926 230.556 C 55.926 230.861,55.759 231.111,55.556 231.111 C 55.352 231.111,55.185 231.444,55.185 231.852 C 55.185 232.259,55.352 232.593,55.556 232.593 C 55.759 232.593,55.926 232.269,55.926 231.874 C 55.926 231.478,56.093 231.052,56.296 230.926 C 56.500 230.800,56.667 230.540,56.667 230.349 C 56.667 230.157,56.500 230.000,56.296 230.000 C 56.093 230.000,55.926 230.250,55.926 230.556 M292.960 230.922 C 293.422 231.479,294.074 231.361,294.074 230.719 C 294.074 230.527,293.720 230.370,293.288 230.370 C 292.634 230.370,292.579 230.463,292.960 230.922 M294.886 231.509 C 294.959 231.728,295.177 231.907,295.370 231.907 C 295.564 231.907,295.782 231.728,295.855 231.509 C 295.928 231.290,295.710 231.111,295.370 231.111 C 295.031 231.111,294.813 231.290,294.886 231.509 M297.037 232.222 C 297.037 232.426,297.454 232.593,297.963 232.593 C 298.472 232.593,298.889 232.426,298.889 232.222 C 298.889 232.019,298.472 231.852,297.963 231.852 C 297.454 231.852,297.037 232.019,297.037 232.222 M299.259 232.963 C 299.259 233.167,299.593 233.333,300.000 233.333 C 300.407 233.333,300.741 233.167,300.741 232.963 C 300.741 232.759,300.407 232.593,300.000 232.593 C 299.593 232.593,299.259 232.759,299.259 232.963 M54.167 234.336 C 53.608 235.539,53.572 236.296,54.074 236.296 C 54.278 236.296,54.444 235.880,54.444 235.370 C 54.444 234.861,54.611 234.444,54.815 234.444 C 55.019 234.444,55.185 234.194,55.185 233.889 C 55.185 233.018,54.675 233.242,54.167 234.336 M301.852 233.704 C 301.852 233.907,302.269 234.074,302.778 234.074 C 303.287 234.074,303.704 233.907,303.704 233.704 C 303.704 233.500,303.287 233.333,302.778 233.333 C 302.269 233.333,301.852 233.500,301.852 233.704 M304.444 234.444 C 304.444 234.648,304.861 234.815,305.370 234.815 C 305.880 234.815,306.296 234.648,306.296 234.444 C 306.296 234.241,305.880 234.074,305.370 234.074 C 304.861 234.074,304.444 234.241,304.444 234.444 M307.244 234.988 C 308.058 235.604,309.115 235.718,309.420 235.224 C 309.676 234.811,308.768 234.444,307.492 234.444 C 306.562 234.444,306.553 234.465,307.244 234.988 M310.741 235.515 C 310.741 235.932,312.507 236.393,312.980 236.101 C 313.736 235.634,313.274 235.185,312.037 235.185 C 311.324 235.185,310.741 235.334,310.741 235.515 M52.963 237.222 C 52.963 237.528,53.130 237.778,53.333 237.778 C 53.537 237.778,53.704 237.528,53.704 237.222 C 53.704 236.917,53.537 236.667,53.333 236.667 C 53.130 236.667,52.963 236.917,52.963 237.222 M315.259 238.222 C 314.654 238.827,314.701 239.259,315.370 239.259 C 315.679 239.259,315.926 238.930,315.926 238.519 C 315.926 237.655,315.857 237.625,315.259 238.222 M52.222 238.920 C 52.222 239.822,53.088 239.695,53.268 238.766 C 53.339 238.400,53.150 238.148,52.805 238.148 C 52.461 238.148,52.222 238.465,52.222 238.920 M314.444 240.185 C 314.444 240.491,314.611 240.741,314.815 240.741 C 315.019 240.741,315.185 240.491,315.185 240.185 C 315.185 239.880,315.019 239.630,314.815 239.630 C 314.611 239.630,314.444 239.880,314.444 240.185 M51.472 240.950 C 51.009 242.170,51.012 242.963,51.481 242.963 C 51.685 242.963,51.852 242.546,51.852 242.037 C 51.852 241.528,52.019 241.111,52.222 241.111 C 52.426 241.111,52.593 240.861,52.593 240.556 C 52.593 239.661,51.865 239.917,51.472 240.950 M313.704 241.667 C 313.704 241.972,313.870 242.222,314.074 242.222 C 314.278 242.222,314.444 241.972,314.444 241.667 C 314.444 241.361,314.278 241.111,314.074 241.111 C 313.870 241.111,313.704 241.361,313.704 241.667 M312.963 243.519 C 312.963 243.824,313.130 244.074,313.333 244.074 C 313.537 244.074,313.704 243.824,313.704 243.519 C 313.704 243.213,313.537 242.963,313.333 242.963 C 313.130 242.963,312.963 243.213,312.963 243.519 M50.370 244.074 C 50.370 244.481,50.204 244.815,50.000 244.815 C 49.796 244.815,49.630 245.148,49.630 245.556 C 49.630 245.963,49.796 246.296,50.000 246.296 C 50.204 246.296,50.370 245.973,50.370 245.577 C 50.370 245.182,50.537 244.756,50.741 244.630 C 50.944 244.504,51.111 244.161,51.111 243.867 C 51.111 243.573,50.944 243.333,50.741 243.333 C 50.537 243.333,50.370 243.667,50.370 244.074 M312.479 244.681 C 312.183 244.977,312.518 245.556,312.985 245.556 C 313.177 245.556,313.333 245.306,313.333 245.000 C 313.333 244.427,312.896 244.264,312.479 244.681 M311.667 246.667 C 311.365 247.155,311.807 247.849,312.248 247.577 C 312.698 247.299,312.695 246.296,312.244 246.296 C 312.052 246.296,311.793 246.463,311.667 246.667 M48.889 247.593 C 48.889 247.932,49.068 248.150,49.287 248.077 C 49.506 248.004,49.685 247.786,49.685 247.593 C 49.685 247.399,49.506 247.181,49.287 247.108 C 49.068 247.035,48.889 247.253,48.889 247.593 M310.370 250.370 C 310.370 250.778,310.537 251.111,310.741 251.111 C 310.944 251.111,311.111 250.778,311.111 250.370 C 311.111 249.963,310.944 249.630,310.741 249.630 C 310.537 249.630,310.370 249.963,310.370 250.370 M47.407 250.957 C 47.407 251.279,47.605 251.477,47.847 251.397 C 48.534 251.168,48.648 250.370,47.994 250.370 C 47.671 250.370,47.407 250.634,47.407 250.957 M309.630 252.222 C 309.630 252.630,309.463 252.963,309.259 252.963 C 309.056 252.963,308.889 253.346,308.889 253.815 C 308.889 254.283,308.708 254.848,308.486 255.069 C 308.196 255.359,308.196 255.542,308.487 255.721 C 308.889 255.970,309.630 254.527,309.630 253.494 C 309.630 253.202,309.796 252.963,310.000 252.963 C 310.204 252.963,310.370 252.630,310.370 252.222 C 310.370 251.815,310.204 251.481,310.000 251.481 C 309.796 251.481,309.630 251.815,309.630 252.222 M46.296 254.259 C 46.296 254.565,46.463 254.815,46.667 254.815 C 46.870 254.815,47.037 254.565,47.037 254.259 C 47.037 253.954,46.870 253.704,46.667 253.704 C 46.463 253.704,46.296 253.954,46.296 254.259 M45.556 255.926 C 45.556 256.333,45.389 256.667,45.185 256.667 C 44.981 256.667,44.815 257.000,44.815 257.407 C 44.815 257.815,44.981 258.148,45.185 258.148 C 45.389 258.148,45.556 257.815,45.556 257.407 C 45.556 257.000,45.722 256.667,45.926 256.667 C 46.130 256.667,46.296 256.333,46.296 255.926 C 46.296 255.519,46.130 255.185,45.926 255.185 C 45.722 255.185,45.556 255.519,45.556 255.926 M307.654 256.543 C 307.203 256.994,307.399 257.778,307.963 257.778 C 308.272 257.778,308.519 257.449,308.519 257.037 C 308.519 256.299,308.124 256.074,307.654 256.543 M307.037 258.704 C 307.037 259.009,307.204 259.259,307.407 259.259 C 307.611 259.259,307.778 259.009,307.778 258.704 C 307.778 258.398,307.611 258.148,307.407 258.148 C 307.204 258.148,307.037 258.398,307.037 258.704 M44.074 259.259 C 44.074 259.667,44.241 260.000,44.444 260.000 C 44.648 260.000,44.815 259.667,44.815 259.259 C 44.815 258.852,44.648 258.519,44.444 258.519 C 44.241 258.519,44.074 258.852,44.074 259.259 M306.296 260.556 C 306.296 260.861,306.463 261.111,306.667 261.111 C 306.870 261.111,307.037 260.861,307.037 260.556 C 307.037 260.250,306.870 260.000,306.667 260.000 C 306.463 260.000,306.296 260.250,306.296 260.556 M43.196 261.574 C 42.871 262.788,42.914 263.333,43.333 263.333 C 43.537 263.333,43.704 263.010,43.704 262.614 C 43.704 262.219,43.870 261.793,44.074 261.667 C 44.616 261.331,44.526 260.741,43.932 260.741 C 43.650 260.741,43.319 261.116,43.196 261.574 M305.556 262.407 C 305.556 262.917,305.389 263.333,305.185 263.333 C 304.981 263.333,304.815 263.667,304.815 264.074 C 304.815 264.481,304.981 264.815,305.185 264.815 C 305.389 264.815,305.556 264.481,305.556 264.074 C 305.556 263.667,305.722 263.333,305.926 263.333 C 306.130 263.333,306.296 262.917,306.296 262.407 C 306.296 261.898,306.130 261.481,305.926 261.481 C 305.722 261.481,305.556 261.898,305.556 262.407 M42.222 264.630 C 42.222 264.935,42.389 265.185,42.593 265.185 C 42.796 265.185,42.963 264.935,42.963 264.630 C 42.963 264.324,42.796 264.074,42.593 264.074 C 42.389 264.074,42.222 264.324,42.222 264.630 M41.481 266.481 C 41.481 266.787,41.648 267.037,41.852 267.037 C 42.056 267.037,42.222 266.787,42.222 266.481 C 42.222 266.176,42.056 265.926,41.852 265.926 C 41.648 265.926,41.481 266.176,41.481 266.481 M303.584 266.944 C 303.139 267.700,302.908 269.707,303.294 269.469 C 303.519 269.330,303.704 268.975,303.704 268.682 C 303.704 268.388,303.870 268.148,304.074 268.148 C 304.278 268.148,304.444 267.815,304.444 267.407 C 304.444 266.682,303.908 266.394,303.584 266.944 M40.741 267.963 C 40.741 268.269,40.907 268.519,41.111 268.519 C 41.315 268.519,41.481 268.269,41.481 267.963 C 41.481 267.657,41.315 267.407,41.111 267.407 C 40.907 267.407,40.741 267.657,40.741 267.963 M40.000 269.630 C 40.000 270.037,40.167 270.370,40.370 270.370 C 40.574 270.370,40.741 270.037,40.741 269.630 C 40.741 269.222,40.574 268.889,40.370 268.889 C 40.167 268.889,40.000 269.222,40.000 269.630 M302.102 270.519 C 301.893 271.064,302.132 271.481,302.654 271.481 C 302.824 271.481,302.963 271.148,302.963 270.741 C 302.963 269.892,302.399 269.746,302.102 270.519 M39.259 271.527 C 39.259 272.181,39.352 272.236,39.811 271.855 C 40.368 271.393,40.249 270.741,39.608 270.741 C 39.416 270.741,39.259 271.094,39.259 271.527 M301.481 272.407 C 301.481 272.713,301.648 272.963,301.852 272.963 C 302.056 272.963,302.222 272.713,302.222 272.407 C 302.222 272.102,302.056 271.852,301.852 271.852 C 301.648 271.852,301.481 272.102,301.481 272.407 M300.741 274.074 C 300.741 274.481,300.907 274.815,301.111 274.815 C 301.315 274.815,301.481 274.481,301.481 274.074 C 301.481 273.667,301.315 273.333,301.111 273.333 C 300.907 273.333,300.741 273.667,300.741 274.074 M38.148 274.815 C 38.148 275.222,37.981 275.556,37.778 275.556 C 37.574 275.556,37.407 275.889,37.407 276.296 C 37.407 276.704,37.574 277.037,37.778 277.037 C 37.981 277.037,38.148 276.714,38.148 276.318 C 38.148 275.923,38.315 275.496,38.519 275.370 C 38.722 275.244,38.889 274.901,38.889 274.608 C 38.889 274.314,38.722 274.074,38.519 274.074 C 38.315 274.074,38.148 274.407,38.148 274.815 M300.000 275.741 C 300.000 276.046,300.167 276.296,300.370 276.296 C 300.574 276.296,300.741 276.046,300.741 275.741 C 300.741 275.435,300.574 275.185,300.370 275.185 C 300.167 275.185,300.000 275.435,300.000 275.741 M299.506 276.914 C 299.055 277.365,299.251 278.148,299.815 278.148 C 300.123 278.148,300.370 277.819,300.370 277.407 C 300.370 276.670,299.976 276.444,299.506 276.914 M36.464 279.037 C 36.334 279.730,36.307 280.605,36.404 280.982 C 36.501 281.358,36.600 281.042,36.624 280.278 C 36.647 279.514,36.833 278.889,37.037 278.889 C 37.241 278.889,37.407 278.639,37.407 278.333 C 37.407 277.261,36.698 277.791,36.464 279.037 M298.776 278.755 C 298.480 279.051,298.814 279.630,299.281 279.630 C 299.473 279.630,299.630 279.380,299.630 279.074 C 299.630 278.501,299.193 278.338,298.776 278.755 M298.148 280.926 C 298.148 281.231,298.315 281.481,298.519 281.481 C 298.722 281.481,298.889 281.231,298.889 280.926 C 298.889 280.620,298.722 280.370,298.519 280.370 C 298.315 280.370,298.148 280.620,298.148 280.926 " stroke="none" fill="#fafbfb" fill-rule="evenodd"></path><path id="path1" d="M53.394 119.107 C 53.121 119.415,52.993 119.915,53.110 120.218 C 53.226 120.521,53.084 120.860,52.795 120.971 C 52.501 121.083,52.366 121.424,52.488 121.743 C 52.611 122.064,52.453 122.456,52.129 122.638 C 51.779 122.833,51.627 123.254,51.744 123.703 C 51.853 124.118,51.756 124.444,51.525 124.444 C 51.297 124.444,51.111 124.778,51.111 125.185 C 51.111 125.593,50.944 125.926,50.741 125.926 C 50.537 125.926,50.370 126.343,50.370 126.852 C 50.370 127.361,50.204 127.778,50.000 127.778 C 49.796 127.778,49.630 128.194,49.630 128.704 C 49.630 129.213,49.463 129.630,49.259 129.630 C 49.056 129.630,48.889 129.963,48.889 130.370 C 48.889 130.778,48.738 131.111,48.553 131.111 C 48.369 131.111,48.304 131.442,48.410 131.847 C 48.533 132.318,48.383 132.668,47.994 132.817 C 47.599 132.969,47.463 133.295,47.607 133.748 C 47.729 134.133,47.651 134.444,47.432 134.444 C 47.215 134.444,47.037 134.861,47.037 135.370 C 47.037 135.880,46.870 136.296,46.667 136.296 C 46.463 136.296,46.296 136.713,46.296 137.222 C 46.296 137.731,46.130 138.148,45.926 138.148 C 45.722 138.148,45.556 138.481,45.556 138.889 C 45.556 139.296,45.389 139.630,45.185 139.630 C 44.981 139.630,44.815 140.046,44.815 140.556 C 44.815 141.065,44.664 141.481,44.479 141.481 C 44.294 141.481,44.225 141.792,44.324 142.171 C 44.434 142.593,44.267 142.952,43.893 143.095 C 43.479 143.254,43.358 143.569,43.518 144.072 C 43.653 144.499,43.585 144.815,43.358 144.815 C 43.141 144.815,42.963 145.231,42.963 145.741 C 42.963 146.250,42.796 146.667,42.593 146.667 C 42.389 146.667,42.222 147.000,42.222 147.407 C 42.222 147.815,42.056 148.148,41.852 148.148 C 41.648 148.148,41.481 148.565,41.481 149.074 C 41.481 149.583,41.315 150.000,41.111 150.000 C 40.907 150.000,40.741 150.333,40.741 150.741 C 40.741 151.148,40.563 151.481,40.345 151.481 C 40.118 151.481,40.050 151.797,40.186 152.224 C 40.344 152.721,40.226 153.042,39.829 153.194 C 39.448 153.340,39.316 153.670,39.459 154.120 C 39.596 154.552,39.475 154.897,39.141 155.026 C 38.820 155.149,38.677 155.524,38.788 155.950 C 38.891 156.344,38.789 156.667,38.562 156.667 C 38.334 156.667,38.148 157.083,38.148 157.593 C 38.148 158.102,37.981 158.519,37.778 158.519 C 37.574 158.519,37.407 158.852,37.407 159.259 C 37.407 159.667,37.231 160.000,37.015 160.000 C 36.787 160.000,36.670 160.585,36.737 161.389 L 36.852 162.778 60.088 162.778 C 83.154 162.778,83.323 162.783,83.095 163.519 C 82.968 163.926,82.738 164.309,82.583 164.370 C 82.428 164.430,82.386 164.805,82.490 165.203 C 82.594 165.601,82.493 165.926,82.265 165.926 C 82.038 165.926,81.852 166.343,81.852 166.852 C 81.852 167.361,81.685 167.778,81.481 167.778 C 81.278 167.778,81.111 168.194,81.111 168.704 C 81.111 169.213,80.944 169.630,80.741 169.630 C 80.537 169.630,80.370 169.953,80.370 170.349 C 80.370 170.744,80.192 171.177,79.975 171.312 C 79.757 171.446,79.671 171.796,79.783 172.089 C 79.896 172.381,79.751 172.711,79.462 172.822 C 79.172 172.933,79.020 173.243,79.123 173.511 C 79.225 173.779,79.073 174.219,78.785 174.488 C 78.496 174.758,78.338 175.275,78.433 175.637 C 78.527 176.000,78.419 176.296,78.191 176.296 C 77.964 176.296,77.778 176.713,77.778 177.222 C 77.778 177.731,77.611 178.148,77.407 178.148 C 77.204 178.148,77.037 178.481,77.037 178.889 C 77.037 179.296,76.870 179.630,76.667 179.630 C 76.463 179.630,76.296 180.046,76.296 180.556 C 76.296 181.065,76.130 181.481,75.926 181.481 C 75.722 181.481,75.556 181.898,75.556 182.407 C 75.556 182.917,75.389 183.333,75.185 183.333 C 74.981 183.333,74.815 183.667,74.815 184.074 C 74.815 184.481,74.630 184.815,74.405 184.815 C 74.179 184.815,74.093 185.071,74.214 185.385 C 74.334 185.699,74.268 186.282,74.068 186.681 C 73.868 187.081,73.537 187.738,73.333 188.143 C 73.130 188.548,72.963 189.131,72.963 189.439 C 72.963 189.748,72.796 190.000,72.593 190.000 C 72.389 190.000,72.222 190.417,72.222 190.926 C 72.222 191.435,72.056 191.852,71.852 191.852 C 71.648 191.852,71.481 192.185,71.481 192.593 C 71.481 193.000,71.315 193.333,71.111 193.333 C 70.907 193.333,70.741 193.750,70.741 194.259 C 70.741 194.769,70.563 195.185,70.345 195.185 C 70.127 195.185,70.049 195.497,70.171 195.882 C 70.315 196.335,70.179 196.661,69.784 196.812 C 69.395 196.962,69.245 197.312,69.368 197.782 C 69.474 198.187,69.409 198.519,69.225 198.519 C 69.040 198.519,68.889 198.935,68.889 199.444 C 68.889 199.954,68.722 200.370,68.519 200.370 C 68.315 200.370,68.148 200.704,68.148 201.111 C 68.148 201.519,67.981 201.852,67.778 201.852 C 67.574 201.852,67.407 202.269,67.407 202.778 C 67.407 203.287,67.231 203.704,67.015 203.704 C 66.799 203.704,66.732 203.881,66.866 204.097 C 67.000 204.314,66.827 204.803,66.481 205.185 C 66.136 205.567,65.964 206.058,66.098 206.276 C 66.233 206.494,66.084 206.772,65.766 206.893 C 65.449 207.015,65.291 207.280,65.416 207.482 C 65.621 207.813,65.364 208.565,64.401 210.458 C 64.221 210.812,64.074 211.353,64.074 211.662 C 64.074 211.970,63.907 212.222,63.704 212.222 C 63.500 212.222,63.333 212.639,63.333 213.148 C 63.333 213.657,63.167 214.074,62.963 214.074 C 62.759 214.074,62.593 214.407,62.593 214.815 C 62.593 215.222,62.406 215.556,62.179 215.556 C 61.948 215.556,61.851 215.882,61.959 216.296 C 62.066 216.703,62.002 217.130,61.817 217.244 C 61.633 217.358,61.481 217.757,61.481 218.130 C 61.481 218.504,61.244 218.901,60.955 219.012 C 60.632 219.136,60.505 219.510,60.628 219.977 C 60.741 220.412,60.649 220.741,60.414 220.741 C 60.186 220.741,60.000 221.157,60.000 221.667 C 60.000 222.176,59.833 222.593,59.630 222.593 C 59.426 222.593,59.259 222.926,59.259 223.333 C 59.259 223.741,59.093 224.074,58.889 224.074 C 58.685 224.074,58.519 224.491,58.519 225.000 C 58.519 225.509,58.352 225.926,58.148 225.926 C 57.944 225.926,57.778 226.249,57.778 226.645 C 57.778 227.040,57.611 227.467,57.407 227.593 C 57.204 227.718,57.037 228.145,57.037 228.540 C 57.037 228.936,56.859 229.259,56.642 229.259 C 56.421 229.259,56.346 229.572,56.472 229.969 C 56.595 230.359,56.523 230.786,56.311 230.917 C 56.099 231.048,55.926 231.478,55.926 231.874 C 55.926 232.269,55.759 232.593,55.556 232.593 C 55.352 232.593,55.185 233.009,55.185 233.519 C 55.185 234.028,55.019 234.444,54.815 234.444 C 54.611 234.444,54.444 234.861,54.444 235.370 C 54.444 235.880,54.278 236.296,54.074 236.296 C 53.870 236.296,53.704 236.630,53.704 237.037 C 53.704 237.444,53.553 237.778,53.368 237.778 C 53.183 237.778,53.119 238.109,53.225 238.514 C 53.343 238.966,53.202 239.333,52.861 239.464 C 52.525 239.593,52.379 239.962,52.492 240.394 C 52.595 240.789,52.493 241.111,52.265 241.111 C 52.038 241.111,51.852 241.528,51.852 242.037 C 51.852 242.546,51.685 242.963,51.481 242.963 C 51.278 242.963,51.111 243.286,51.111 243.682 C 51.111 244.077,50.944 244.504,50.741 244.630 C 50.537 244.756,50.370 245.182,50.370 245.577 C 50.370 245.973,50.184 246.296,49.957 246.296 C 49.721 246.296,49.629 246.625,49.743 247.060 C 49.865 247.527,49.738 247.902,49.416 248.025 C 49.126 248.136,48.889 248.533,48.889 248.907 C 48.889 249.280,48.730 249.684,48.535 249.805 C 48.340 249.925,48.274 250.267,48.388 250.564 C 48.506 250.872,48.328 251.208,47.974 251.343 C 47.535 251.512,47.417 251.839,47.572 252.458 C 47.695 252.949,47.626 253.333,47.414 253.333 C 47.207 253.333,47.037 253.667,47.037 254.074 C 47.037 254.481,46.870 254.815,46.667 254.815 C 46.463 254.815,46.296 255.231,46.296 255.741 C 46.296 256.250,46.130 256.667,45.926 256.667 C 45.722 256.667,45.556 257.000,45.556 257.407 C 45.556 257.815,45.389 258.148,45.185 258.148 C 44.981 258.148,44.815 258.565,44.815 259.074 C 44.815 259.583,44.637 260.000,44.419 260.000 C 44.198 260.000,44.123 260.313,44.249 260.710 C 44.373 261.100,44.301 261.526,44.089 261.657 C 43.877 261.788,43.704 262.219,43.704 262.614 C 43.704 263.010,43.537 263.333,43.333 263.333 C 43.130 263.333,42.963 263.750,42.963 264.259 C 42.963 264.769,42.796 265.185,42.593 265.185 C 42.389 265.185,42.222 265.602,42.222 266.111 C 42.222 266.620,42.056 267.037,41.852 267.037 C 41.648 267.037,41.481 267.370,41.481 267.778 C 41.481 268.185,41.315 268.519,41.111 268.519 C 40.907 268.519,40.741 268.935,40.741 269.444 C 40.741 269.954,40.556 270.370,40.331 270.370 C 40.105 270.370,40.012 270.608,40.124 270.899 C 40.235 271.190,40.086 271.627,39.793 271.870 C 39.499 272.114,39.259 272.626,39.259 273.008 C 39.259 273.391,39.108 273.704,38.924 273.704 C 38.739 273.704,38.670 274.018,38.771 274.403 C 38.871 274.787,38.772 275.214,38.551 275.350 C 38.329 275.487,38.148 275.923,38.148 276.318 C 38.148 276.714,37.981 277.037,37.778 277.037 C 37.574 277.037,37.407 277.454,37.407 277.963 C 37.407 278.472,37.241 278.889,37.037 278.889 C 36.833 278.889,36.667 279.472,36.667 280.185 L 36.667 281.481 62.388 281.481 L 88.110 281.481 89.240 279.114 C 89.862 277.811,90.370 276.626,90.370 276.479 C 90.370 276.260,105.286 238.714,106.848 235.000 C 107.487 233.482,107.518 233.405,119.989 202.222 C 126.058 187.046,131.634 172.963,132.379 170.926 C 133.124 168.889,134.269 166.222,134.922 165.000 L 136.111 162.778 153.966 162.682 L 171.820 162.585 172.368 161.385 C 172.669 160.725,175.521 153.685,178.705 145.741 C 181.890 137.796,184.797 130.630,185.166 129.815 C 185.536 129.000,186.096 127.583,186.411 126.667 C 186.726 125.750,187.496 123.769,188.121 122.264 C 188.747 120.759,189.259 119.301,189.259 119.023 C 189.259 118.219,54.105 118.303,53.394 119.107 M266.679 125.472 C 265.157 129.287,262.467 135.991,260.699 140.370 C 258.932 144.750,256.246 151.417,254.731 155.185 L 251.977 162.037 219.711 162.222 C 198.941 162.341,187.313 162.539,187.077 162.778 C 186.875 162.981,186.020 165.065,185.177 167.407 C 184.334 169.750,183.158 172.973,182.563 174.569 C 181.968 176.165,181.481 177.706,181.481 177.995 C 181.481 178.442,186.097 178.519,213.148 178.519 C 247.440 178.519,245.303 178.388,244.464 180.439 C 244.271 180.910,240.626 189.963,236.364 200.556 L 228.616 219.815 196.868 220.000 L 165.120 220.185 164.353 221.111 C 163.566 222.062,159.686 229.981,158.127 233.819 C 157.378 235.661,157.330 236.021,157.793 236.313 C 158.112 236.515,171.274 236.658,189.951 236.661 C 219.882 236.666,221.558 236.701,221.389 237.315 C 221.291 237.671,217.355 247.557,212.642 259.283 C 207.930 271.008,204.074 280.800,204.074 281.042 C 204.074 281.379,215.060 281.481,251.111 281.481 C 292.675 281.481,298.148 281.417,298.148 280.926 C 298.148 280.620,298.334 280.370,298.562 280.370 C 298.797 280.370,298.889 280.041,298.776 279.607 C 298.659 279.160,298.777 278.766,299.062 278.657 C 299.332 278.553,299.465 278.155,299.361 277.758 C 299.250 277.331,299.398 276.961,299.732 276.832 C 300.067 276.704,300.214 276.334,300.101 275.902 C 299.998 275.508,300.100 275.185,300.327 275.185 C 300.555 275.185,300.741 274.769,300.741 274.259 C 300.741 273.750,300.907 273.333,301.111 273.333 C 301.315 273.333,301.481 273.000,301.481 272.593 C 301.481 272.185,301.666 271.852,301.891 271.852 C 302.117 271.852,302.207 271.607,302.092 271.307 C 301.977 271.007,302.114 270.531,302.396 270.249 C 302.679 269.967,303.026 269.115,303.168 268.357 C 303.310 267.598,303.661 266.888,303.947 266.778 C 304.262 266.657,304.380 266.305,304.245 265.882 C 304.123 265.497,304.201 265.185,304.419 265.185 C 304.637 265.185,304.815 264.769,304.815 264.259 C 304.815 263.750,304.981 263.333,305.185 263.333 C 305.389 263.333,305.556 262.917,305.556 262.407 C 305.556 261.898,305.722 261.481,305.926 261.481 C 306.130 261.481,306.296 261.148,306.296 260.741 C 306.296 260.333,306.463 260.000,306.667 260.000 C 306.870 260.000,307.037 259.583,307.037 259.074 C 307.037 258.565,307.198 258.148,307.396 258.148 C 307.593 258.148,307.649 257.874,307.521 257.539 C 307.380 257.172,307.546 256.741,307.940 256.453 C 308.299 256.190,308.490 255.809,308.364 255.606 C 308.239 255.403,308.305 255.132,308.512 255.004 C 308.720 254.876,308.889 254.364,308.889 253.867 C 308.889 253.370,309.056 252.963,309.259 252.963 C 309.463 252.963,309.630 252.630,309.630 252.222 C 309.630 251.815,309.796 251.481,310.000 251.481 C 310.204 251.481,310.370 251.065,310.370 250.556 C 310.370 250.046,310.537 249.630,310.741 249.630 C 310.944 249.630,311.111 249.296,311.111 248.889 C 311.111 248.481,311.289 248.148,311.506 248.148 C 311.728 248.148,311.802 247.835,311.675 247.435 C 311.529 246.973,311.671 246.597,312.078 246.370 C 312.467 246.152,312.617 245.783,312.471 245.402 C 312.332 245.040,312.444 244.707,312.743 244.592 C 313.035 244.480,313.172 244.091,313.064 243.680 C 312.961 243.286,313.063 242.963,313.290 242.963 C 313.518 242.963,313.704 242.546,313.704 242.037 C 313.704 241.528,313.870 241.111,314.074 241.111 C 314.278 241.111,314.444 240.778,314.444 240.370 C 314.444 239.963,314.621 239.630,314.837 239.630 C 315.052 239.630,315.119 239.452,314.986 239.236 C 314.852 239.019,315.043 238.510,315.411 238.103 C 316.533 236.863,315.699 236.114,313.177 236.098 C 311.841 236.089,310.957 235.905,310.765 235.595 C 310.558 235.259,310.095 235.187,309.290 235.364 C 308.532 235.530,307.915 235.453,307.544 235.145 C 307.228 234.882,306.401 234.706,305.707 234.753 C 305.013 234.800,304.444 234.666,304.444 234.456 C 304.444 234.246,303.861 234.074,303.148 234.074 C 302.435 234.074,301.852 233.907,301.852 233.704 C 301.852 233.500,301.269 233.333,300.556 233.333 C 299.843 233.333,299.259 233.167,299.259 232.963 C 299.259 232.759,298.759 232.593,298.148 232.593 C 297.537 232.593,297.037 232.406,297.037 232.179 C 297.037 231.934,296.647 231.840,296.082 231.948 C 295.456 232.068,295.055 231.945,294.920 231.591 C 294.802 231.285,294.420 231.128,294.037 231.228 C 293.665 231.325,293.164 231.168,292.924 230.879 C 292.680 230.585,292.185 230.450,291.800 230.572 C 291.421 230.692,291.111 230.613,291.111 230.395 C 291.111 230.178,290.694 230.000,290.185 230.000 C 289.676 230.000,289.259 229.833,289.259 229.630 C 289.259 229.426,288.926 229.259,288.519 229.259 C 288.111 229.259,287.778 229.093,287.778 228.889 C 287.778 228.685,287.361 228.519,286.852 228.519 C 286.343 228.519,285.926 228.352,285.926 228.148 C 285.926 227.944,285.801 227.814,285.648 227.858 C 285.104 228.016,282.963 227.068,282.963 226.670 C 282.963 226.446,282.755 226.289,282.500 226.320 C 281.776 226.408,280.370 225.875,280.370 225.512 C 280.370 225.332,280.037 225.185,279.630 225.185 C 279.222 225.185,278.556 224.852,278.148 224.444 C 277.741 224.037,277.241 223.704,277.037 223.704 C 276.833 223.704,276.667 223.537,276.667 223.333 C 276.667 223.130,276.417 222.963,276.111 222.963 C 275.806 222.963,275.222 222.630,274.815 222.222 C 274.407 221.815,274.032 221.492,273.981 221.505 C 273.558 221.615,272.580 220.914,272.411 220.380 C 272.295 220.016,271.739 219.626,271.176 219.513 C 270.583 219.394,269.931 218.897,269.630 218.334 C 269.344 217.799,268.643 217.085,268.073 216.749 C 267.503 216.412,267.037 215.997,267.037 215.826 C 267.037 215.654,266.037 214.533,264.815 213.333 C 263.593 212.134,262.593 210.978,262.593 210.764 C 262.593 210.551,262.259 210.168,261.852 209.914 C 261.444 209.660,261.111 209.242,261.111 208.985 C 261.111 208.728,260.958 208.519,260.770 208.519 C 260.583 208.519,260.319 208.019,260.185 207.407 C 260.051 206.796,259.788 206.296,259.600 206.296 C 259.413 206.296,259.259 205.963,259.259 205.556 C 259.259 205.148,259.093 204.815,258.889 204.815 C 258.685 204.815,258.519 204.315,258.519 203.704 C 258.519 203.093,258.352 202.593,258.148 202.593 C 257.944 202.593,257.778 201.926,257.778 201.111 C 257.778 200.296,257.611 199.630,257.407 199.630 C 257.196 199.630,257.037 198.519,257.037 197.037 C 257.037 195.556,257.196 194.444,257.407 194.444 C 257.611 194.444,257.778 193.778,257.778 192.963 C 257.778 192.148,257.944 191.481,258.148 191.481 C 258.352 191.481,258.519 191.176,258.519 190.804 C 258.519 190.431,258.934 189.306,259.443 188.304 C 259.951 187.301,260.368 186.273,260.369 186.019 C 260.370 185.764,260.537 185.556,260.741 185.556 C 260.944 185.556,261.111 185.346,261.111 185.089 C 261.111 184.833,261.444 184.414,261.852 184.160 C 262.259 183.906,262.593 183.525,262.593 183.315 C 262.593 182.856,263.027 182.317,265.051 180.260 C 267.450 177.823,268.284 177.199,268.968 177.333 C 269.394 177.416,269.682 177.143,269.843 176.503 C 269.999 175.881,270.422 175.465,271.059 175.308 C 271.597 175.175,272.307 174.760,272.636 174.385 C 272.965 174.010,273.424 173.704,273.655 173.704 C 273.885 173.704,274.074 173.519,274.074 173.294 C 274.074 173.068,274.310 172.974,274.599 173.085 C 274.888 173.196,275.222 173.030,275.343 172.716 C 275.466 172.395,275.804 172.238,276.114 172.357 C 276.418 172.474,276.667 172.408,276.667 172.211 C 276.667 172.013,276.899 171.852,277.183 171.852 C 277.466 171.852,277.801 171.585,277.926 171.258 C 278.057 170.919,278.391 170.755,278.707 170.876 C 279.011 170.992,279.259 170.926,279.259 170.729 C 279.259 170.532,279.593 170.370,280.000 170.370 C 280.407 170.370,280.741 170.204,280.741 170.000 C 280.741 169.796,281.074 169.630,281.481 169.630 C 281.889 169.630,282.222 169.463,282.222 169.259 C 282.222 169.056,282.546 168.889,282.941 168.889 C 283.336 168.889,283.772 168.708,283.909 168.486 C 284.046 168.265,284.464 168.164,284.839 168.262 C 285.214 168.360,285.583 168.252,285.659 168.023 C 285.736 167.793,286.244 167.643,286.788 167.688 C 287.332 167.733,287.778 167.605,287.778 167.403 C 287.778 167.202,288.278 167.037,288.889 167.037 C 289.500 167.037,290.000 166.870,290.000 166.667 C 290.000 166.463,290.500 166.296,291.111 166.296 C 291.722 166.296,292.222 166.130,292.222 165.926 C 292.222 165.722,292.796 165.556,293.497 165.556 C 294.198 165.556,294.874 165.389,295.000 165.185 C 295.126 164.981,295.802 164.815,296.503 164.815 C 297.204 164.815,297.778 164.629,297.778 164.402 C 297.778 164.125,298.309 164.070,299.399 164.233 C 300.704 164.429,301.065 164.359,301.251 163.872 C 301.438 163.387,301.782 163.319,303.010 163.526 C 304.119 163.714,304.621 163.647,304.848 163.281 C 305.062 162.936,305.829 162.801,307.291 162.852 C 308.478 162.894,309.531 162.753,309.666 162.534 C 309.809 162.303,311.140 162.159,312.894 162.184 C 314.549 162.208,315.981 162.062,316.109 161.855 C 316.422 161.349,335.428 161.346,335.741 161.852 C 335.867 162.056,337.527 162.222,339.444 162.222 C 341.361 162.222,343.022 162.388,343.148 162.593 C 343.610 163.340,345.926 163.031,345.926 162.222 C 345.926 161.815,346.078 161.481,346.264 161.481 C 346.450 161.481,346.714 160.816,346.852 160.002 C 346.989 159.188,347.254 158.428,347.440 158.313 C 347.626 158.198,347.778 157.781,347.778 157.386 C 347.778 156.990,347.944 156.667,348.148 156.667 C 348.352 156.667,348.519 156.250,348.519 155.741 C 348.519 155.231,348.685 154.815,348.889 154.815 C 349.093 154.815,349.259 154.481,349.259 154.074 C 349.259 153.667,349.426 153.333,349.630 153.333 C 349.833 153.333,350.000 152.917,350.000 152.407 C 350.000 151.898,350.167 151.481,350.370 151.481 C 350.574 151.481,350.741 151.065,350.741 150.556 C 350.741 150.046,350.925 149.630,351.151 149.630 C 351.376 149.630,351.462 149.373,351.342 149.060 C 351.222 148.747,351.352 148.403,351.632 148.295 C 351.924 148.183,352.061 147.795,351.953 147.383 C 351.850 146.989,351.952 146.667,352.179 146.667 C 352.406 146.667,352.593 146.250,352.593 145.741 C 352.593 145.231,352.759 144.815,352.963 144.815 C 353.167 144.815,353.333 144.491,353.333 144.096 C 353.333 143.701,353.500 143.274,353.704 143.148 C 353.907 143.022,354.074 142.596,354.074 142.200 C 354.074 141.805,354.259 141.481,354.484 141.481 C 354.710 141.481,354.803 141.244,354.691 140.953 C 354.580 140.662,354.729 140.225,355.022 139.982 C 355.315 139.738,355.556 139.226,355.556 138.844 C 355.556 138.461,355.733 138.148,355.951 138.148 C 356.178 138.148,356.246 137.832,356.111 137.406 C 355.953 136.908,356.071 136.588,356.467 136.436 C 356.847 136.290,356.980 135.959,356.838 135.512 C 356.716 135.127,356.794 134.815,357.012 134.815 C 357.230 134.815,357.407 134.398,357.407 133.889 C 357.407 133.380,357.574 132.963,357.778 132.963 C 357.981 132.963,358.148 132.630,358.148 132.222 C 358.148 131.815,358.315 131.481,358.519 131.481 C 358.722 131.481,358.889 131.065,358.889 130.556 C 358.889 130.046,359.065 129.630,359.281 129.630 C 359.497 129.630,359.555 129.438,359.410 129.203 C 359.265 128.968,359.442 128.560,359.805 128.295 C 360.190 128.013,360.370 127.569,360.238 127.226 C 360.110 126.894,360.233 126.554,360.521 126.444 C 360.813 126.332,360.949 125.943,360.842 125.532 C 360.739 125.137,360.840 124.815,361.068 124.815 C 361.295 124.815,361.481 124.398,361.481 123.889 C 361.481 123.380,361.648 122.963,361.852 122.963 C 362.056 122.963,362.222 122.630,362.222 122.222 C 362.222 121.815,362.389 121.481,362.593 121.481 C 362.796 121.481,362.963 121.148,362.963 120.741 C 362.963 120.333,363.130 120.000,363.333 120.000 C 363.537 120.000,363.704 119.667,363.704 119.259 C 363.704 118.522,363.460 118.519,316.574 118.528 L 269.444 118.537 266.679 125.472 " stroke="none" fill="#046c9c" fill-rule="evenodd"></path></g></svg>