<svg id="svg" version="1.1" xmlns="http://www.w3.org/2000/svg" xmlns:xlink="http://www.w3.org/1999/xlink" width="400" height="307.05009276437846" viewBox="0, 0, 400,307.05009276437846"><g id="svgg"><path id="path0" d="M38.312 0.196 C 18.556 1.740,2.601 17.190,0.281 37.024 C -0.146 40.667,-0.146 266.383,0.281 270.026 C 2.500 288.997,16.777 303.662,35.900 306.614 C 38.783 307.059,360.056 307.163,363.173 306.720 C 383.683 303.804,398.435 288.175,399.812 267.904 C 400.062 264.222,400.062 42.828,399.812 39.147 C 398.460 19.239,384.132 3.716,364.080 0.433 C 361.917 0.079,42.783 -0.153,38.312 0.196 M362.330 26.681 C 368.380 28.556,372.689 33.444,373.647 39.518 C 373.913 41.198,373.913 265.852,373.647 267.532 C 372.674 273.702,368.308 278.612,362.229 280.372 L 360.761 280.798 200.000 280.798 C 47.037 280.798,39.182 280.782,38.056 280.471 C 32.459 278.924,28.405 275.036,26.687 269.567 L 26.252 268.182 26.252 153.525 L 26.252 38.868 26.687 37.483 C 28.514 31.667,33.202 27.454,39.054 26.372 C 39.618 26.268,102.849 26.210,200.464 26.226 L 360.946 26.252 362.330 26.681 M151.250 46.038 C 146.532 46.715,142.495 50.217,140.838 55.071 L 140.353 56.494 140.353 106.494 L 140.353 156.494 140.787 157.885 C 142.149 162.247,145.204 165.334,149.629 166.818 L 150.928 167.254 192.440 167.303 L 233.952 167.353 233.952 201.209 L 233.952 235.065 153.525 235.065 L 73.098 235.065 73.098 215.213 L 73.098 195.362 60.012 195.362 L 46.925 195.362 46.983 222.774 L 47.042 250.186 47.467 251.574 C 48.897 256.246,52.262 259.519,56.957 260.802 C 58.105 261.116,62.733 261.132,153.525 261.132 L 248.887 261.132 250.363 260.704 C 255.019 259.356,258.579 255.710,259.637 251.206 C 260.132 249.100,260.065 152.922,259.567 150.977 C 258.422 146.497,254.988 143.005,250.371 141.622 C 249.317 141.306,247.074 141.285,207.839 141.235 L 166.419 141.182 166.419 106.583 L 166.419 71.985 246.660 71.985 L 326.902 71.985 326.902 90.816 L 326.902 109.647 339.889 109.647 L 352.876 109.647 352.873 83.349 C 352.870 54.075,352.951 55.969,351.582 53.154 C 349.792 49.474,346.257 46.815,342.217 46.111 C 340.332 45.782,153.531 45.711,151.250 46.038 M93.506 138.497 L 93.506 221.892 106.494 221.892 L 119.481 221.892 119.481 138.497 L 119.481 55.102 106.494 55.102 L 93.506 55.102 93.506 138.497 M280.519 173.098 L 280.519 261.039 293.506 261.039 L 306.494 261.039 306.494 173.098 L 306.494 85.158 293.506 85.158 L 280.519 85.158 280.519 173.098 " stroke="none" fill="#000000" fill-rule="evenodd"></path></g></svg>