<svg id="svg" version="1.1" xmlns="http://www.w3.org/2000/svg" xmlns:xlink="http://www.w3.org/1999/xlink" width="400" height="400" viewBox="0, 0, 400,400"><g id="svgg"><path id="path0" d="M259.630 117.128 L 259.630 139.070 246.298 125.743 L 232.967 112.416 228.889 116.482 L 224.810 120.548 240.924 136.664 C 249.786 145.528,257.037 152.946,257.037 153.148 C 257.037 153.350,249.786 160.768,240.924 169.632 L 224.810 185.749 228.889 189.815 L 232.967 193.881 246.298 180.553 L 259.630 167.226 259.630 189.169 L 259.630 211.111 262.687 211.111 L 265.744 211.111 282.222 194.630 L 298.700 178.149 286.203 165.647 L 273.705 153.145 286.203 140.647 L 298.701 128.149 282.223 111.667 L 265.744 95.185 262.687 95.185 L 259.630 95.185 259.630 117.128 M128.704 97.655 C 107.263 100.038,87.238 109.201,72.410 123.414 L 69.815 125.902 74.624 130.729 C 80.275 136.399,79.432 136.154,82.723 133.090 C 113.854 104.104,163.579 104.155,194.544 133.204 C 197.682 136.147,196.962 136.355,202.401 130.940 C 207.812 125.552,207.664 126.027,204.755 123.376 C 189.861 109.803,173.832 101.919,154.074 98.452 C 149.913 97.722,132.909 97.188,128.704 97.655 M277.037 122.778 L 282.398 128.148 277.037 133.519 C 274.089 136.472,271.549 138.889,271.394 138.889 C 271.238 138.889,271.111 134.056,271.111 128.148 C 271.111 122.241,271.238 117.407,271.394 117.407 C 271.549 117.407,274.089 119.824,277.037 122.778 M317.278 126.240 L 313.682 129.849 314.953 132.610 C 320.720 145.136,320.736 160.696,314.994 173.650 L 313.739 176.481 317.147 179.915 C 321.076 183.872,320.579 183.957,323.123 178.889 C 331.469 162.260,331.519 143.395,323.261 126.747 C 322.221 124.652,321.259 122.869,321.122 122.785 C 320.986 122.700,319.256 124.255,317.278 126.240 M131.296 124.849 C 116.238 126.403,99.757 134.060,90.383 143.858 L 89.100 145.200 93.896 150.007 C 99.231 155.354,99.066 155.264,100.579 153.665 C 102.901 151.211,109.360 146.629,113.278 144.657 C 133.692 134.381,157.435 137.214,174.618 151.974 C 178.677 155.462,177.668 155.690,183.346 150.001 L 188.150 145.188 187.327 144.353 C 173.420 130.269,151.777 122.735,131.296 124.849 M296.850 146.668 L 290.204 153.322 296.774 159.878 C 300.673 163.768,303.474 166.293,303.664 166.087 C 306.613 162.889,306.670 143.541,303.740 140.285 C 303.606 140.136,300.505 143.009,296.850 146.668 M132.407 152.109 C 124.916 153.098,115.856 157.372,110.360 162.512 L 108.333 164.408 113.143 169.241 C 118.396 174.520,118.361 174.499,119.652 173.124 C 128.500 163.707,146.680 163.569,157.131 172.841 C 158.996 174.496,158.648 174.670,163.882 169.458 C 168.676 164.686,168.965 164.240,167.865 163.323 C 156.623 153.948,145.393 150.397,132.407 152.109 M277.037 172.778 L 282.398 178.148 277.037 183.519 C 274.089 186.472,271.549 188.889,271.394 188.889 C 271.238 188.889,271.111 184.056,271.111 178.148 C 271.111 172.241,271.238 167.407,271.394 167.407 C 271.549 167.407,274.089 169.824,277.037 172.778 M135.142 183.822 C 123.111 188.321,125.928 205.358,138.704 205.366 C 152.979 205.374,153.518 184.117,139.259 183.451 C 137.522 183.370,135.980 183.509,135.142 183.822 M295.741 223.933 C 275.840 226.927,264.322 241.771,264.306 264.444 C 264.285 293.173,283.075 308.761,311.481 303.582 C 317.064 302.565,324.074 300.224,324.074 299.378 C 324.074 299.057,321.420 290.592,321.264 290.416 C 321.196 290.339,319.842 290.792,318.255 291.424 C 296.744 299.984,279.573 291.789,276.468 271.481 C 272.013 242.338,292.996 225.186,318.313 237.277 C 319.321 237.758,320.258 238.026,320.397 237.872 C 320.760 237.470,323.333 230.060,323.333 229.418 C 323.333 226.461,304.206 222.659,295.741 223.933 M208.333 225.204 C 206.500 225.385,203.833 225.748,202.407 226.011 L 199.815 226.491 199.720 264.542 L 199.626 302.593 205.183 302.593 L 210.741 302.593 210.741 288.333 L 210.741 274.074 218.193 274.074 C 243.140 274.074,253.860 266.671,253.860 249.444 C 253.860 230.605,238.206 222.270,208.333 225.204 M90.146 226.574 C 90.258 227.134,90.613 229.093,90.935 230.926 C 95.422 256.485,100.969 279.117,108.023 300.648 L 108.660 302.593 114.291 302.593 L 119.921 302.593 120.927 300.093 C 126.412 286.456,132.648 269.543,136.405 258.107 L 138.670 251.215 142.605 262.922 C 146.537 274.622,148.894 281.067,154.336 295.000 L 157.229 302.407 162.932 302.407 L 168.635 302.407 169.517 299.815 C 174.480 285.216,181.730 255.840,185.742 234.074 C 186.474 230.102,187.160 226.560,187.265 226.204 C 187.442 225.606,187.009 225.556,181.692 225.556 C 178.520 225.556,175.926 225.629,175.926 225.720 C 175.926 228.628,167.114 270.739,163.998 282.723 L 162.472 288.593 157.707 275.871 C 153.369 264.286,147.040 245.863,144.585 237.675 L 143.610 234.424 138.782 234.527 L 133.954 234.630 131.677 242.037 C 127.830 254.551,123.100 268.086,116.233 286.226 L 115.348 288.564 113.974 283.449 C 110.774 271.536,106.196 250.355,102.921 232.315 L 101.694 225.556 95.818 225.556 L 89.941 225.556 90.146 226.574 M228.282 234.999 C 238.282 236.507,243.211 242.465,242.157 251.773 C 241.140 260.763,234.784 264.199,218.241 264.703 L 210.741 264.931 210.741 249.898 L 210.741 234.864 211.759 234.710 C 214.414 234.308,224.913 234.492,228.282 234.999 " stroke="none" fill="#000000" fill-rule="evenodd"></path></g></svg>