<svg id="svg" version="1.1" xmlns="http://www.w3.org/2000/svg" xmlns:xlink="http://www.w3.org/1999/xlink" width="400" height="493.3333333333333" viewBox="0, 0, 400,493.3333333333333"><g id="svgg"><path id="path0" d="M397.302 222.196 C 396.588 222.506,395.579 223.174,395.061 223.680 C 393.356 225.343,392.001 226.400,391.573 226.400 C 391.342 226.400,391.264 226.580,391.400 226.800 C 391.536 227.020,391.481 227.200,391.277 227.200 C 391.074 227.200,389.877 228.190,388.618 229.400 C 387.358 230.610,386.202 231.600,386.047 231.600 C 385.893 231.600,384.874 232.422,383.783 233.428 C 382.692 234.433,381.178 235.738,380.418 236.328 C 379.657 236.917,377.878 238.525,376.463 239.900 C 375.048 241.275,373.741 242.400,373.559 242.400 C 373.377 242.400,371.955 243.660,370.400 245.200 C 368.845 246.740,367.394 248.000,367.176 248.000 C 366.957 248.000,366.007 248.765,365.063 249.700 C 364.120 250.635,362.733 251.850,361.983 252.400 C 361.233 252.950,359.396 254.615,357.901 256.100 C 356.406 257.585,354.994 258.800,354.763 258.800 C 354.532 258.800,354.099 259.025,353.801 259.300 C 353.503 259.575,352.069 260.880,350.615 262.200 C 349.160 263.520,347.172 265.365,346.196 266.300 C 345.220 267.235,344.318 268.000,344.192 268.000 C 344.067 268.000,343.546 268.405,343.035 268.900 C 342.524 269.395,341.342 270.418,340.408 271.174 C 339.475 271.930,337.966 273.233,337.056 274.070 C 336.145 274.907,335.001 275.954,334.514 276.396 C 334.027 276.838,333.432 277.200,333.191 277.200 C 332.950 277.200,332.864 277.380,333.000 277.600 C 333.136 277.820,333.039 278.000,332.784 278.000 C 332.529 278.000,331.844 278.496,331.260 279.101 C 330.677 279.707,329.515 280.713,328.679 281.338 C 327.842 281.962,326.302 283.312,325.257 284.337 C 324.211 285.361,322.877 286.452,322.292 286.760 C 321.706 287.068,321.322 287.473,321.437 287.660 C 321.553 287.847,321.475 288.000,321.264 288.000 C 321.053 288.000,319.962 288.900,318.839 290.000 C 317.715 291.100,316.641 292.000,316.451 292.000 C 316.261 292.000,314.895 293.170,313.415 294.600 C 311.935 296.030,310.653 297.200,310.567 297.200 C 310.313 297.200,308.817 298.477,307.046 300.205 C 306.141 301.088,304.770 302.249,304.000 302.784 C 303.230 303.319,301.671 304.711,300.535 305.878 C 299.399 307.045,298.313 308.000,298.122 308.000 C 297.931 308.000,296.831 308.900,295.678 310.000 C 294.525 311.100,293.499 312.000,293.397 312.000 C 293.111 312.000,290.945 313.947,287.947 316.900 C 286.439 318.385,285.012 319.600,284.774 319.600 C 284.537 319.600,284.104 319.825,283.813 320.100 C 283.522 320.375,282.079 321.680,280.606 323.000 C 279.134 324.320,277.066 326.210,276.011 327.200 C 273.399 329.652,272.461 330.400,271.999 330.400 C 271.783 330.400,271.382 330.760,271.107 331.200 C 270.832 331.640,270.487 332.000,270.339 332.000 C 270.192 332.000,269.020 332.991,267.735 334.203 C 264.434 337.318,263.658 338.000,263.416 338.000 C 263.300 338.000,262.285 338.900,261.161 340.000 C 260.038 341.100,258.986 342.000,258.824 342.000 C 258.662 342.000,257.235 343.250,255.652 344.777 C 254.069 346.305,252.417 347.668,251.981 347.806 C 251.545 347.944,251.292 348.225,251.418 348.429 C 251.544 348.633,251.481 348.800,251.277 348.800 C 251.074 348.800,249.877 349.790,248.618 351.000 C 247.358 352.210,246.188 353.200,246.017 353.200 C 245.846 353.200,244.579 354.280,243.200 355.600 C 241.821 356.920,240.629 358.000,240.551 358.000 C 240.312 358.000,238.777 359.316,237.046 361.005 C 236.141 361.888,234.770 363.055,234.000 363.598 C 233.230 364.141,231.671 365.533,230.535 366.693 C 229.399 367.852,228.292 368.800,228.075 368.800 C 227.858 368.800,226.762 369.700,225.639 370.800 C 224.515 371.900,223.529 372.800,223.448 372.800 C 223.194 372.800,220.842 374.896,218.060 377.600 C 216.590 379.030,214.914 380.445,214.336 380.745 C 213.758 381.045,212.302 382.215,211.100 383.345 C 209.899 384.475,207.883 386.300,206.620 387.400 C 205.357 388.500,203.899 389.805,203.380 390.300 C 202.861 390.795,202.280 391.200,202.088 391.200 C 201.897 391.200,201.034 391.917,200.170 392.793 C 198.732 394.253,197.335 395.084,198.325 393.891 C 199.004 393.072,201.200 388.763,201.200 388.248 C 201.200 387.989,201.560 387.517,202.000 387.200 C 202.440 386.883,202.800 386.303,202.800 385.912 C 202.800 385.520,202.980 385.200,203.200 385.200 C 203.420 385.200,203.600 384.840,203.600 384.400 C 203.600 383.960,203.780 383.600,204.000 383.600 C 204.220 383.600,204.400 383.259,204.400 382.843 C 204.400 382.426,204.625 381.999,204.900 381.892 C 205.175 381.786,205.850 380.779,206.400 379.656 C 206.950 378.532,207.535 377.610,207.700 377.606 C 207.865 377.603,208.000 377.240,208.000 376.800 C 208.000 376.360,208.158 376.000,208.351 376.000 C 208.545 376.000,208.927 375.460,209.200 374.800 C 209.473 374.140,209.866 373.600,210.072 373.600 C 210.278 373.600,210.345 373.435,210.220 373.232 C 210.095 373.030,210.264 372.593,210.596 372.261 C 210.928 371.929,211.200 371.374,211.200 371.029 C 211.200 370.683,211.380 370.400,211.600 370.400 C 211.820 370.400,212.000 370.074,212.000 369.675 C 212.000 369.277,212.360 368.564,212.800 368.092 C 213.240 367.620,213.600 366.956,213.600 366.617 C 213.600 366.278,213.780 366.000,214.000 366.000 C 214.220 366.000,214.400 365.659,214.400 365.243 C 214.400 364.826,214.670 364.382,215.000 364.255 C 215.330 364.129,215.600 363.749,215.600 363.413 C 215.600 363.076,215.758 362.800,215.951 362.800 C 216.145 362.800,216.536 362.215,216.821 361.500 C 217.106 360.785,217.668 359.722,218.070 359.138 C 218.471 358.554,218.800 357.789,218.800 357.438 C 218.800 357.087,218.945 356.800,219.121 356.800 C 219.298 356.800,219.883 355.903,220.421 354.806 C 220.960 353.710,221.535 352.810,221.700 352.806 C 221.865 352.803,222.000 352.440,222.000 352.000 C 222.000 351.560,222.180 351.200,222.400 351.200 C 222.620 351.200,222.800 350.840,222.800 350.400 C 222.800 349.960,222.980 349.600,223.200 349.600 C 223.420 349.600,223.600 349.330,223.600 349.000 C 223.600 348.670,223.780 348.400,224.000 348.400 C 224.220 348.400,224.400 348.040,224.400 347.600 C 224.400 347.160,224.539 346.800,224.709 346.800 C 224.879 346.800,225.372 346.125,225.805 345.300 C 226.238 344.475,226.704 343.710,226.842 343.600 C 227.069 343.417,229.910 338.246,230.960 336.103 C 231.202 335.610,231.535 335.205,231.700 335.203 C 231.865 335.201,232.000 334.840,232.000 334.400 C 232.000 333.960,232.180 333.600,232.400 333.600 C 232.620 333.600,232.800 333.240,232.800 332.800 C 232.800 332.360,232.980 332.000,233.200 332.000 C 233.420 332.000,233.600 331.640,233.600 331.200 C 233.600 330.760,233.759 330.400,233.954 330.400 C 234.149 330.400,234.644 329.753,235.054 328.961 C 235.464 328.170,235.978 327.180,236.195 326.761 C 236.412 326.343,236.727 326.000,236.895 326.000 C 237.063 326.000,237.200 325.640,237.200 325.200 C 237.200 324.760,237.353 324.400,237.540 324.400 C 237.727 324.400,238.489 323.185,239.232 321.700 C 239.976 320.215,240.692 318.910,240.824 318.800 C 240.956 318.690,241.319 318.015,241.630 317.300 C 241.941 316.585,242.331 316.000,242.498 316.000 C 242.664 316.000,242.800 315.640,242.800 315.200 C 242.800 314.760,242.980 314.400,243.200 314.400 C 243.420 314.400,243.600 314.040,243.600 313.600 C 243.600 313.160,243.780 312.800,244.000 312.800 C 244.220 312.800,244.400 312.459,244.400 312.043 C 244.400 311.626,244.631 311.197,244.914 311.089 C 245.196 310.980,245.871 310.016,246.414 308.946 C 246.956 307.876,247.535 306.940,247.700 306.867 C 247.865 306.793,248.000 306.388,248.000 305.967 C 248.000 305.545,248.145 305.200,248.321 305.200 C 248.498 305.200,249.083 304.303,249.621 303.206 C 250.160 302.110,250.735 301.210,250.900 301.206 C 251.065 301.203,251.200 300.840,251.200 300.400 C 251.200 299.960,251.344 299.600,251.520 299.600 C 251.695 299.600,252.067 298.970,252.346 298.200 C 252.624 297.430,253.020 296.800,253.226 296.800 C 253.432 296.800,253.600 296.440,253.600 296.000 C 253.600 295.560,253.780 295.200,254.000 295.200 C 254.220 295.200,254.400 294.859,254.400 294.443 C 254.400 294.026,254.670 293.582,255.000 293.455 C 255.330 293.329,255.600 292.949,255.600 292.613 C 255.600 292.276,255.780 292.000,256.000 292.000 C 256.220 292.000,256.404 291.775,256.409 291.500 C 256.414 291.225,256.770 290.550,257.200 290.000 C 257.630 289.450,257.986 288.685,257.991 288.300 C 257.996 287.915,258.180 287.600,258.400 287.600 C 258.620 287.600,258.800 287.240,258.800 286.800 C 258.800 286.360,258.952 286.000,259.137 286.000 C 259.323 286.000,259.908 285.145,260.437 284.100 C 260.967 283.055,261.535 282.140,261.700 282.067 C 261.865 281.993,262.000 281.588,262.000 281.167 C 262.000 280.745,262.180 280.400,262.400 280.400 C 262.620 280.400,262.800 280.130,262.800 279.800 C 262.800 279.470,262.993 279.200,263.228 279.200 C 263.463 279.200,263.598 278.795,263.528 278.300 L 263.400 277.400 134.000 277.292 C 11.184 277.190,4.483 277.221,2.303 277.892 L 0.007 278.600 0.003 349.703 L 0.000 420.806 27.500 420.703 C 57.834 420.589,57.420 420.631,51.965 418.259 C 47.063 416.128,45.181 414.275,41.889 408.336 C 34.994 395.896,37.923 379.347,49.418 365.796 C 50.692 364.295,52.708 361.342,53.900 359.233 C 60.749 347.113,65.752 346.889,68.010 358.600 C 69.324 365.413,71.676 370.040,76.353 375.017 C 85.398 384.642,86.668 398.351,79.781 412.025 C 78.265 415.036,72.502 419.200,69.852 419.200 C 68.601 419.200,68.824 420.368,70.118 420.599 C 72.010 420.935,399.083 420.650,399.422 420.311 C 400.207 419.526,400.143 221.599,399.358 221.616 C 398.941 221.624,398.016 221.885,397.302 222.196 M66.800 420.800 C 66.800 421.301,67.224 421.301,68.000 420.800 C 68.485 420.486,68.428 420.411,67.700 420.406 C 67.205 420.403,66.800 420.580,66.800 420.800 M57.000 424.115 C 56.779 424.382,56.103 425.200,55.497 425.934 C 54.891 426.667,54.496 427.432,54.621 427.634 C 54.745 427.835,54.588 428.000,54.272 428.000 C 53.956 428.000,53.473 428.540,53.200 429.200 C 52.927 429.860,52.545 430.400,52.351 430.400 C 52.158 430.400,52.000 430.653,52.000 430.962 C 52.000 431.628,50.332 434.941,49.900 435.133 C 49.735 435.207,49.600 435.520,49.600 435.830 C 49.600 436.140,49.240 436.618,48.800 436.893 C 48.360 437.168,48.000 437.624,48.000 437.907 C 48.000 438.190,47.185 439.236,46.189 440.232 C 45.194 441.227,44.484 442.213,44.613 442.421 C 44.742 442.629,44.612 442.805,44.324 442.811 C 43.790 442.823,41.200 446.760,41.200 447.560 C 41.200 447.802,41.020 448.000,40.800 448.000 C 40.580 448.000,40.400 448.360,40.400 448.800 C 40.400 449.240,40.220 449.600,40.000 449.600 C 39.780 449.600,39.600 449.960,39.600 450.400 C 39.600 450.840,39.420 451.200,39.200 451.200 C 38.980 451.200,38.800 451.442,38.800 451.739 C 38.800 452.035,38.499 452.880,38.132 453.616 C 37.485 454.914,37.045 456.592,36.539 459.700 C 36.405 460.525,36.138 461.200,35.947 461.200 C 35.212 461.200,35.999 474.137,36.830 475.695 C 37.033 476.077,37.200 476.842,37.200 477.395 C 37.200 477.948,37.380 478.400,37.600 478.400 C 37.820 478.400,38.000 478.940,38.000 479.600 C 38.000 480.260,38.180 480.800,38.400 480.800 C 38.620 480.800,38.804 481.115,38.809 481.500 C 38.814 481.885,39.170 482.650,39.600 483.200 C 40.030 483.750,40.386 484.410,40.391 484.667 C 40.396 484.923,40.567 485.193,40.770 485.267 C 40.974 485.340,41.199 485.667,41.270 485.994 C 41.486 486.984,45.494 490.716,47.097 491.421 C 47.924 491.784,49.032 492.288,49.559 492.541 C 51.157 493.305,70.492 493.161,71.200 492.379 C 71.310 492.258,72.034 491.864,72.810 491.503 C 74.370 490.778,76.830 488.808,76.200 488.788 C 75.980 488.781,76.115 488.592,76.500 488.368 C 76.885 488.144,77.200 487.699,77.200 487.380 C 77.200 487.061,77.380 486.800,77.600 486.800 C 77.820 486.800,78.000 486.440,78.000 486.000 C 78.000 485.560,78.180 485.200,78.400 485.200 C 78.620 485.200,78.800 484.750,78.800 484.200 C 78.800 483.650,78.980 483.200,79.200 483.200 C 79.420 483.200,79.600 482.761,79.600 482.224 C 79.600 481.687,79.780 481.136,80.000 481.000 C 80.220 480.864,80.400 480.223,80.400 479.576 C 80.400 478.929,80.580 478.400,80.800 478.400 C 81.020 478.400,81.200 477.680,81.200 476.800 C 81.200 475.920,81.380 475.200,81.600 475.200 C 81.850 475.200,82.000 472.808,82.000 468.824 C 82.000 465.004,81.840 462.348,81.600 462.200 C 81.380 462.064,81.200 461.243,81.200 460.376 C 81.200 459.509,81.020 458.800,80.800 458.800 C 80.580 458.800,80.400 458.545,80.400 458.233 C 80.400 456.828,76.002 449.712,75.082 449.629 C 74.495 449.576,72.955 447.798,72.390 446.522 C 72.082 445.826,71.688 445.345,71.515 445.452 C 71.342 445.560,71.200 445.367,71.200 445.024 C 71.200 444.681,71.020 444.400,70.800 444.400 C 70.580 444.400,70.400 444.055,70.400 443.633 C 70.400 443.212,70.265 442.807,70.100 442.733 C 69.627 442.523,68.000 439.198,68.000 438.442 C 68.000 438.067,67.851 437.589,67.670 437.380 C 67.244 436.890,66.467 434.206,66.219 432.366 C 66.112 431.577,65.935 430.677,65.824 430.366 C 65.714 430.054,65.532 429.261,65.420 428.603 C 65.309 427.945,65.034 427.345,64.809 427.270 C 64.584 427.195,64.394 426.833,64.387 426.467 C 64.344 424.185,58.483 422.320,57.000 424.115 " stroke="none" fill="#34ac5c" fill-rule="evenodd"></path><path id="path1" d="M60.540 350.570 C 58.997 351.253,56.762 354.169,53.900 359.233 C 52.708 361.342,50.692 364.295,49.418 365.796 C 37.923 379.347,34.994 395.896,41.889 408.336 C 45.181 414.274,47.063 416.128,51.961 418.257 C 53.628 418.982,55.054 419.761,55.129 419.987 C 55.205 420.214,55.702 420.400,56.233 420.400 C 56.765 420.400,57.200 420.580,57.200 420.800 C 57.200 421.044,59.067 421.200,62.000 421.200 C 64.933 421.200,66.800 421.044,66.800 420.800 C 66.800 420.580,67.256 420.400,67.813 420.400 C 68.369 420.400,68.929 420.130,69.055 419.800 C 69.182 419.470,69.540 419.200,69.852 419.200 C 72.502 419.200,78.265 415.036,79.781 412.025 C 86.668 398.351,85.398 384.642,76.353 375.017 C 71.519 369.873,69.410 365.616,67.826 357.803 C 66.577 351.642,63.969 349.054,60.540 350.570 " stroke="none" fill="#f7faf8" fill-rule="evenodd"></path><path id="path2" d="M141.300 0.282 C 140.805 0.378,140.400 0.623,140.400 0.828 C 140.400 1.033,140.148 1.200,139.840 1.200 C 139.084 1.200,136.400 3.926,136.400 4.693 C 136.400 5.030,136.072 5.597,135.670 5.953 C 134.704 6.810,133.600 9.095,133.600 10.238 C 133.600 10.741,133.420 11.264,133.200 11.400 C 132.980 11.536,132.800 12.681,132.800 13.944 C 132.800 15.207,132.616 16.424,132.391 16.649 C 131.512 17.528,132.335 55.200,133.234 55.200 C 133.435 55.200,133.600 55.734,133.600 56.386 C 133.600 57.665,134.741 60.400,135.274 60.400 C 135.453 60.400,135.600 60.675,135.600 61.011 C 135.600 61.780,138.985 65.200,139.747 65.200 C 140.059 65.200,140.418 65.470,140.545 65.800 C 140.671 66.130,141.130 66.400,141.564 66.400 C 141.998 66.400,142.464 66.580,142.600 66.800 C 143.488 68.237,151.926 66.977,153.188 65.219 C 153.512 64.769,153.985 64.400,154.239 64.400 C 154.494 64.400,154.924 64.132,155.196 63.804 C 155.846 63.021,156.400 63.402,156.400 64.634 C 156.400 66.447,166.524 67.320,167.609 65.600 C 167.832 65.246,167.990 57.733,167.994 47.300 L 168.000 29.600 158.400 29.600 L 148.800 29.600 148.800 20.971 C 148.800 11.835,149.014 10.689,150.512 11.785 C 151.080 12.200,151.196 13.254,151.290 18.837 L 151.400 25.400 159.600 25.400 L 167.800 25.400 167.914 20.834 C 167.983 18.066,167.864 16.104,167.614 15.854 C 167.386 15.626,167.200 14.587,167.200 13.544 C 167.200 12.501,167.020 11.536,166.800 11.400 C 166.580 11.264,166.400 10.831,166.400 10.438 C 166.400 9.498,165.244 7.200,164.771 7.200 C 164.567 7.200,164.400 6.840,164.400 6.400 C 164.400 5.960,164.220 5.600,164.000 5.600 C 163.780 5.600,163.600 5.349,163.600 5.042 C 163.600 3.901,159.935 0.800,158.052 0.347 C 156.879 0.066,142.711 0.011,141.300 0.282 M249.700 0.282 C 249.205 0.378,248.800 0.623,248.800 0.828 C 248.800 1.033,248.509 1.200,248.154 1.200 C 247.426 1.200,244.929 3.765,244.576 4.875 C 244.450 5.274,244.178 5.600,243.973 5.600 C 243.768 5.600,243.600 5.960,243.600 6.400 C 243.600 6.840,243.420 7.200,243.200 7.200 C 242.980 7.200,242.800 7.549,242.800 7.976 C 242.800 8.403,242.620 8.864,242.400 9.000 C 242.180 9.136,242.000 9.856,242.000 10.600 C 242.000 11.344,241.820 12.064,241.600 12.200 C 241.091 12.514,241.069 21.711,241.573 23.372 C 241.778 24.047,242.174 25.410,242.453 26.400 C 243.027 28.437,244.611 31.200,245.205 31.200 C 245.422 31.200,245.600 31.483,245.600 31.829 C 245.600 32.550,246.535 33.600,247.178 33.600 C 247.418 33.600,248.220 34.185,248.961 34.900 C 250.538 36.421,250.762 36.598,253.400 38.398 C 255.507 39.835,256.400 40.599,256.400 40.962 C 256.400 41.083,253.115 41.231,249.100 41.291 L 241.800 41.400 241.935 48.000 C 242.010 51.630,242.235 54.771,242.435 54.980 C 242.636 55.189,242.800 55.768,242.800 56.266 C 242.800 58.320,247.426 64.400,248.989 64.400 C 249.325 64.400,249.600 64.580,249.600 64.800 C 249.600 65.020,249.945 65.200,250.367 65.200 C 250.788 65.200,251.200 65.399,251.281 65.642 C 251.717 66.951,265.200 68.073,265.200 66.800 C 265.200 66.580,265.746 66.400,266.413 66.400 C 267.121 66.400,267.721 66.151,267.855 65.800 C 267.982 65.470,268.426 65.200,268.843 65.200 C 269.259 65.200,269.600 65.020,269.600 64.800 C 269.600 64.580,269.878 64.400,270.218 64.400 C 270.974 64.400,272.800 62.637,272.800 61.906 C 272.800 61.615,273.160 61.117,273.600 60.800 C 274.040 60.483,274.400 59.828,274.400 59.345 C 274.400 58.862,274.597 58.401,274.838 58.321 C 276.651 57.716,276.649 38.683,274.835 38.078 C 274.596 37.999,274.400 37.408,274.400 36.767 C 274.400 36.125,274.220 35.600,274.000 35.600 C 273.780 35.600,273.596 35.285,273.591 34.900 C 273.586 34.515,273.230 33.750,272.800 33.200 C 272.370 32.650,272.014 32.044,272.009 31.854 C 271.998 31.420,269.164 28.800,268.705 28.800 C 268.519 28.800,267.980 28.440,267.508 28.000 C 267.036 27.560,266.413 27.200,266.125 27.200 C 265.836 27.200,265.600 27.020,265.600 26.800 C 265.600 26.580,265.407 26.400,265.171 26.400 C 264.936 26.400,264.515 26.175,264.237 25.900 C 263.959 25.625,262.947 24.770,261.989 24.000 C 261.030 23.230,259.966 22.265,259.623 21.855 C 259.280 21.446,258.775 20.874,258.500 20.584 C 258.225 20.294,258.000 19.695,258.000 19.252 C 258.000 18.809,257.820 18.336,257.600 18.200 C 256.940 17.792,257.110 13.232,257.811 12.532 C 259.082 11.261,259.600 12.538,259.603 16.949 C 259.607 22.106,259.443 22.005,267.780 21.987 C 275.264 21.971,275.200 22.007,275.200 17.856 C 275.200 16.085,275.032 14.800,274.800 14.800 C 274.574 14.800,274.400 13.667,274.400 12.200 C 274.400 10.733,274.226 9.600,274.000 9.600 C 273.780 9.600,273.600 9.060,273.600 8.400 C 273.600 7.740,273.420 7.200,273.200 7.200 C 272.980 7.200,272.800 6.840,272.800 6.400 C 272.800 5.960,272.620 5.600,272.400 5.600 C 272.180 5.600,272.000 5.254,272.000 4.832 C 272.000 3.548,268.670 0.549,266.925 0.261 C 265.257 -0.015,251.151 0.003,249.700 0.282 M0.400 33.170 L 0.400 65.951 2.100 66.200 C 5.809 66.743,26.403 66.243,26.809 65.600 C 27.017 65.270,27.191 61.895,27.194 58.100 L 27.200 51.200 22.000 51.200 L 16.800 51.200 16.800 45.014 L 16.800 38.827 21.100 38.714 L 25.400 38.600 25.510 32.100 C 25.605 26.494,25.536 25.600,25.010 25.600 C 24.674 25.600,24.400 25.420,24.400 25.200 C 24.400 24.961,22.867 24.800,20.600 24.800 L 16.800 24.800 16.800 20.200 L 16.800 15.600 20.924 15.600 C 26.751 15.600,26.443 16.059,26.310 7.598 L 26.200 0.600 13.300 0.494 L 0.400 0.389 0.400 33.170 M29.280 0.880 C 28.420 1.740,28.605 64.662,29.470 65.529 C 30.193 66.252,38.671 66.738,41.457 66.216 L 42.800 65.964 42.800 55.582 C 42.800 48.927,42.944 45.200,43.200 45.200 C 43.420 45.200,43.600 45.909,43.600 46.776 C 43.600 47.643,43.756 48.449,43.947 48.568 C 44.139 48.686,44.411 49.506,44.552 50.391 C 44.694 51.276,44.987 52.000,45.205 52.000 C 45.422 52.000,45.600 52.720,45.600 53.600 C 45.600 54.480,45.780 55.200,46.000 55.200 C 46.220 55.200,46.400 56.010,46.400 57.000 C 46.400 57.990,46.580 58.800,46.800 58.800 C 47.020 58.800,47.200 59.520,47.200 60.400 C 47.200 61.280,47.380 62.000,47.600 62.000 C 47.820 62.000,48.000 62.643,48.000 63.429 C 48.000 65.908,48.637 66.183,54.736 66.332 C 57.703 66.405,60.732 66.352,61.466 66.214 L 62.800 65.964 62.800 33.182 L 62.800 0.400 55.800 0.400 L 48.800 0.400 48.800 10.000 C 48.800 16.133,48.656 19.600,48.400 19.600 C 48.180 19.600,48.000 18.880,48.000 18.000 C 48.000 17.120,47.840 16.400,47.644 16.400 C 47.448 16.400,47.186 15.815,47.063 15.100 C 46.536 12.053,46.282 10.977,46.002 10.600 C 45.838 10.380,45.583 9.525,45.434 8.700 C 45.285 7.875,44.992 7.200,44.782 7.200 C 44.572 7.200,44.400 6.581,44.400 5.824 C 44.400 5.067,44.220 4.336,44.000 4.200 C 43.780 4.064,43.600 3.263,43.600 2.419 C 43.600 1.390,43.392 0.806,42.967 0.643 C 41.727 0.167,29.786 0.374,29.280 0.880 M67.200 1.000 C 67.200 1.330,67.020 1.600,66.800 1.600 C 66.068 1.600,66.294 64.426,67.030 65.400 C 67.740 66.341,91.140 66.888,92.795 66.003 C 93.556 65.596,93.600 65.176,93.600 58.386 L 93.600 51.200 88.200 51.200 L 82.800 51.200 82.800 45.013 L 82.800 38.826 87.300 38.713 L 91.800 38.600 91.910 32.282 C 92.047 24.462,92.276 24.800,86.829 24.800 L 82.800 24.800 82.800 20.200 L 82.800 15.600 86.900 15.595 C 93.390 15.586,92.800 16.371,92.800 7.753 L 92.800 0.400 80.000 0.400 C 68.889 0.400,67.200 0.479,67.200 1.000 M95.600 32.986 C 95.600 64.793,95.618 65.582,96.374 65.986 C 97.360 66.514,109.595 66.534,110.974 66.010 L 112.000 65.620 112.000 51.407 C 112.000 37.293,112.006 37.197,112.800 37.693 C 113.574 38.176,113.600 38.629,113.606 51.596 C 113.610 59.344,113.772 65.253,113.992 65.600 C 114.588 66.544,127.977 66.480,128.929 65.529 C 129.718 64.739,129.976 41.079,129.200 40.600 C 128.980 40.464,128.800 39.463,128.800 38.376 C 128.800 37.289,128.620 36.400,128.400 36.400 C 128.180 36.400,128.000 36.075,128.000 35.678 C 128.000 35.282,127.370 34.346,126.600 33.600 C 124.911 31.963,124.865 31.544,126.304 30.906 C 128.495 29.937,129.116 27.571,129.454 18.900 C 129.583 15.603,129.507 14.000,129.223 14.000 C 128.973 14.000,128.800 13.027,128.800 11.624 C 128.800 10.317,128.620 9.136,128.400 9.000 C 128.180 8.864,128.000 8.403,128.000 7.976 C 128.000 7.549,127.820 7.200,127.600 7.200 C 127.380 7.200,127.200 6.909,127.200 6.553 C 127.200 5.713,124.287 2.800,123.447 2.800 C 123.091 2.800,122.800 2.620,122.800 2.400 C 122.800 2.180,122.451 2.000,122.024 2.000 C 121.597 2.000,121.136 1.820,121.000 1.600 C 120.864 1.380,120.054 1.200,119.200 1.200 C 118.346 1.200,117.536 1.020,117.400 0.800 C 117.245 0.549,113.129 0.400,106.376 0.400 L 95.600 0.400 95.600 32.986 M168.000 2.000 C 168.000 2.880,168.180 3.600,168.400 3.600 C 168.620 3.600,168.800 4.309,168.800 5.176 C 168.800 6.043,168.980 6.864,169.200 7.000 C 169.420 7.136,169.600 7.957,169.600 8.824 C 169.600 9.691,169.762 10.400,169.960 10.400 C 170.158 10.400,170.422 11.165,170.547 12.100 C 171.094 16.189,171.306 17.218,171.642 17.426 C 171.839 17.548,172.000 18.346,172.000 19.200 C 172.000 20.054,172.180 20.864,172.400 21.000 C 172.620 21.136,172.800 21.856,172.800 22.600 C 172.800 23.344,172.961 24.052,173.158 24.174 C 173.355 24.295,173.608 25.071,173.721 25.897 C 174.074 28.480,174.849 31.200,175.232 31.200 C 175.435 31.200,175.600 31.999,175.600 32.976 C 175.600 33.953,175.780 34.864,176.000 35.000 C 176.220 35.136,176.400 35.946,176.400 36.800 C 176.400 37.654,176.580 38.464,176.800 38.600 C 177.020 38.736,177.200 39.557,177.200 40.424 C 177.200 41.291,177.380 42.000,177.600 42.000 C 177.858 42.000,178.000 46.251,178.000 53.953 L 178.000 65.907 178.900 66.148 C 180.071 66.462,190.729 66.462,191.900 66.148 L 192.800 65.907 192.800 53.553 C 192.800 45.584,192.942 41.200,193.200 41.200 C 193.420 41.200,193.600 40.491,193.600 39.624 C 193.600 38.757,193.780 37.936,194.000 37.800 C 194.220 37.664,194.400 36.921,194.400 36.148 C 194.400 35.375,194.670 34.473,195.000 34.143 C 195.330 33.813,195.600 33.026,195.600 32.395 C 195.600 31.764,195.760 31.148,195.956 31.027 C 196.151 30.906,196.427 30.131,196.567 29.304 C 197.185 25.676,197.308 25.181,197.644 24.973 C 197.840 24.852,198.000 24.144,198.000 23.400 C 198.000 22.656,198.180 21.936,198.400 21.800 C 198.620 21.664,198.800 20.944,198.800 20.200 C 198.800 19.456,198.980 18.736,199.200 18.600 C 199.420 18.464,199.600 17.643,199.600 16.776 C 199.600 15.909,199.780 15.200,200.000 15.200 C 200.220 15.200,200.400 14.480,200.400 13.600 C 200.400 12.720,200.580 12.000,200.800 12.000 C 201.020 12.000,201.200 11.381,201.200 10.624 C 201.200 9.867,201.380 9.136,201.600 9.000 C 201.820 8.864,202.000 8.133,202.000 7.376 C 202.000 6.619,202.180 6.000,202.400 6.000 C 202.620 6.000,202.800 5.280,202.800 4.400 C 202.800 3.520,202.980 2.800,203.200 2.800 C 203.420 2.800,203.600 2.260,203.600 1.600 L 203.600 0.400 195.800 0.400 L 188.000 0.400 188.000 2.600 C 188.000 3.810,187.820 4.800,187.600 4.800 C 187.372 4.800,187.200 5.992,187.200 7.576 C 187.200 9.103,187.020 10.464,186.800 10.600 C 186.580 10.736,186.400 12.097,186.400 13.624 C 186.400 15.825,186.276 16.400,185.800 16.400 C 185.467 16.400,185.200 16.044,185.200 15.600 C 185.200 15.160,185.020 14.800,184.800 14.800 C 184.572 14.800,184.400 13.608,184.400 12.024 C 184.400 10.497,184.220 9.136,184.000 9.000 C 183.780 8.864,183.600 7.604,183.600 6.200 C 183.600 4.796,183.420 3.536,183.200 3.400 C 182.980 3.264,182.800 2.533,182.800 1.776 L 182.800 0.400 175.400 0.400 L 168.000 0.400 168.000 2.000 M222.246 1.025 C 221.832 2.103,221.974 64.939,222.391 65.600 C 222.708 66.101,224.098 66.200,230.800 66.200 C 237.501 66.200,238.892 66.101,239.210 65.600 C 239.445 65.230,239.554 52.677,239.495 32.800 L 239.400 0.600 230.946 0.492 C 223.499 0.397,222.462 0.461,222.246 1.025 M297.200 33.153 L 297.200 65.907 298.100 66.148 C 298.595 66.281,303.967 66.392,310.039 66.395 C 324.082 66.401,322.800 67.240,322.800 58.053 L 322.800 51.200 318.200 51.200 L 313.600 51.200 313.600 25.800 L 313.600 0.400 305.400 0.400 L 297.200 0.400 297.200 33.153 M323.867 0.667 C 323.438 1.095,323.561 64.918,323.992 65.600 C 324.590 66.546,338.775 66.482,339.729 65.529 C 340.595 64.662,340.781 1.741,339.920 0.880 C 339.401 0.361,324.372 0.162,323.867 0.667 M343.867 0.667 C 343.438 1.095,343.561 64.918,343.992 65.600 C 344.401 66.247,358.216 66.522,359.700 65.913 C 360.347 65.647,360.400 64.610,360.400 52.213 L 360.400 38.800 364.609 38.800 L 368.819 38.800 368.709 31.900 L 368.600 25.000 364.500 24.886 L 360.400 24.772 360.400 20.186 L 360.400 15.600 364.367 15.600 C 370.090 15.600,369.600 16.334,369.600 7.757 L 369.600 0.400 356.867 0.400 C 349.863 0.400,344.013 0.520,343.867 0.667 M371.206 32.700 C 371.210 52.366,371.361 65.235,371.592 65.600 C 371.916 66.113,373.832 66.200,384.800 66.200 C 399.961 66.200,398.388 67.034,398.388 59.000 C 398.389 50.488,398.886 51.200,392.953 51.200 L 388.000 51.200 388.000 45.013 L 388.000 38.826 392.500 38.713 L 397.000 38.600 397.110 32.100 C 397.205 26.494,397.136 25.600,396.610 25.600 C 396.274 25.600,396.000 25.420,396.000 25.200 C 396.000 24.960,394.400 24.800,392.000 24.800 L 388.000 24.800 388.000 20.200 L 388.000 15.600 391.967 15.600 C 397.690 15.600,397.200 16.334,397.200 7.757 L 397.200 0.400 384.200 0.400 L 371.200 0.400 371.206 32.700 M113.120 14.080 C 113.756 14.716,113.769 23.192,113.136 24.581 C 112.234 26.561,112.000 25.536,112.000 19.600 C 112.000 13.746,112.133 13.093,113.120 14.080 M151.200 47.400 L 151.200 53.600 150.000 53.600 L 148.800 53.600 148.800 47.400 L 148.800 41.200 150.000 41.200 L 151.200 41.200 151.200 47.400 M259.600 44.996 C 259.600 45.548,259.780 46.000,260.000 46.000 C 260.658 46.000,260.503 52.354,259.829 53.029 C 257.886 54.971,257.200 53.413,257.200 47.061 L 257.200 41.481 258.400 42.737 C 259.081 43.449,259.600 44.427,259.600 44.996 M0.266 100.900 C -0.300 146.340,-0.057 278.400,0.592 278.400 C 1.731 278.400,4.400 277.108,4.400 276.557 C 4.400 276.250,4.630 276.000,4.912 276.000 C 5.193 276.000,5.683 275.640,6.000 275.200 C 6.317 274.760,6.807 274.400,7.088 274.400 C 7.370 274.400,7.600 274.220,7.600 274.000 C 7.600 273.780,7.790 273.600,8.022 273.600 C 8.254 273.600,9.504 272.520,10.800 271.200 C 12.096 269.880,13.301 268.799,13.478 268.798 C 13.655 268.798,15.224 267.448,16.965 265.798 C 18.706 264.149,20.293 262.800,20.491 262.800 C 20.690 262.800,21.695 261.945,22.726 260.900 C 23.757 259.855,25.320 258.466,26.200 257.812 C 27.080 257.159,28.643 255.764,29.674 254.712 C 30.705 253.661,31.705 252.800,31.896 252.800 C 32.087 252.800,32.885 252.215,33.670 251.500 C 34.454 250.785,36.137 249.300,37.408 248.200 C 38.680 247.100,40.679 245.255,41.851 244.100 C 43.024 242.945,44.122 242.000,44.291 242.000 C 44.461 241.999,45.140 241.537,45.800 240.971 C 49.548 237.762,50.379 236.952,50.389 236.500 C 50.395 236.225,50.641 236.000,50.936 236.000 C 51.231 236.000,52.302 235.235,53.316 234.300 C 56.738 231.144,57.613 230.400,57.907 230.396 C 58.293 230.390,62.000 226.966,62.000 226.615 C 62.000 226.237,63.072 225.202,63.471 225.193 C 63.907 225.183,66.128 223.384,68.160 221.395 C 69.062 220.512,70.430 219.350,71.200 218.814 C 71.970 218.277,72.690 217.717,72.800 217.569 C 74.201 215.680,74.667 215.200,75.095 215.200 C 75.373 215.200,75.600 215.059,75.600 214.886 C 75.600 214.714,76.141 214.253,76.801 213.863 C 77.860 213.237,79.730 211.580,84.288 207.230 C 84.996 206.553,85.686 206.000,85.819 206.000 C 85.953 206.000,86.754 205.280,87.600 204.400 C 88.446 203.520,89.316 202.800,89.534 202.800 C 89.752 202.800,90.990 201.757,92.285 200.481 C 93.580 199.206,95.347 197.631,96.212 196.981 C 97.076 196.332,98.736 194.855,99.901 193.700 C 101.065 192.545,102.174 191.600,102.366 191.600 C 102.558 191.600,103.246 191.104,103.895 190.498 C 104.544 189.892,106.115 188.497,107.388 187.398 C 108.660 186.299,110.646 184.473,111.802 183.340 C 112.957 182.207,114.306 181.065,114.799 180.800 C 116.392 179.948,120.400 176.255,120.400 175.640 C 120.400 175.398,120.675 175.200,121.011 175.200 C 121.346 175.200,122.393 174.435,123.337 173.500 C 124.280 172.565,125.663 171.350,126.408 170.800 C 128.592 169.189,131.932 166.228,131.967 165.871 C 132.011 165.428,133.062 164.400,133.471 164.400 C 133.989 164.399,138.830 160.245,142.677 156.500 C 143.863 155.345,145.006 154.400,145.217 154.400 C 145.428 154.400,145.600 154.259,145.600 154.086 C 145.600 153.914,146.141 153.453,146.801 153.063 C 147.462 152.673,149.064 151.329,150.363 150.077 C 151.661 148.825,153.293 147.364,153.991 146.832 C 154.688 146.299,156.146 144.994,157.231 143.932 C 158.316 142.869,159.362 142.000,159.556 142.000 C 159.749 142.000,161.078 140.875,162.510 139.500 C 163.941 138.125,165.617 136.640,166.234 136.200 C 166.850 135.760,168.306 134.455,169.469 133.300 C 170.631 132.145,171.755 131.200,171.965 131.200 C 172.175 131.200,173.750 129.850,175.466 128.200 C 177.181 126.550,178.727 125.200,178.900 125.200 C 179.073 125.200,180.385 124.030,181.815 122.600 C 183.245 121.170,184.610 120.000,184.849 120.000 C 185.087 120.000,186.543 118.740,188.083 117.200 C 189.623 115.660,191.049 114.400,191.252 114.400 C 191.455 114.400,192.393 113.635,193.337 112.700 C 194.280 111.765,195.666 110.550,196.415 110.000 C 197.164 109.450,198.547 108.302,199.488 107.449 C 200.701 106.351,201.200 106.088,201.200 106.549 C 201.200 106.907,201.020 107.200,200.800 107.200 C 200.580 107.200,200.400 107.560,200.400 108.000 C 200.400 108.440,200.220 108.800,200.000 108.800 C 199.780 108.800,199.600 109.078,199.600 109.417 C 199.600 109.756,199.240 110.420,198.800 110.892 C 198.360 111.364,198.000 111.987,198.000 112.275 C 198.000 112.564,197.820 112.800,197.600 112.800 C 197.380 112.800,197.200 113.149,197.200 113.576 C 197.200 114.003,197.020 114.464,196.800 114.600 C 196.580 114.736,196.400 115.197,196.400 115.624 C 196.400 116.051,196.220 116.400,196.000 116.400 C 195.780 116.400,195.600 116.717,195.600 117.104 C 195.600 117.491,195.281 118.007,194.890 118.251 C 194.500 118.495,193.825 119.436,193.390 120.343 C 192.956 121.249,192.465 121.993,192.300 121.995 C 192.135 121.998,192.000 122.360,192.000 122.800 C 192.000 123.240,191.854 123.600,191.675 123.600 C 191.496 123.600,191.102 124.230,190.800 125.000 C 190.498 125.770,190.104 126.400,189.925 126.400 C 189.746 126.400,189.600 126.760,189.600 127.200 C 189.600 127.640,189.420 128.000,189.200 128.000 C 188.980 128.000,188.800 128.360,188.800 128.800 C 188.800 129.240,188.620 129.600,188.400 129.600 C 188.180 129.600,188.000 129.870,188.000 130.200 C 188.000 130.530,187.820 130.800,187.600 130.800 C 187.380 130.800,187.200 131.070,187.200 131.400 C 187.200 131.730,187.020 132.000,186.800 132.000 C 186.580 132.000,186.400 132.360,186.400 132.800 C 186.400 133.240,186.220 133.600,186.000 133.600 C 185.780 133.600,185.600 133.932,185.600 134.338 C 185.600 134.744,185.239 135.403,184.798 135.802 C 184.356 136.202,184.075 136.609,184.173 136.707 C 184.272 136.805,184.003 137.260,183.576 137.718 C 183.149 138.176,182.800 138.787,182.800 139.075 C 182.800 139.364,182.620 139.600,182.400 139.600 C 182.180 139.600,182.000 139.960,182.000 140.400 C 182.000 140.840,181.820 141.200,181.600 141.200 C 181.380 141.200,181.200 141.560,181.200 142.000 C 181.200 142.440,181.020 142.800,180.800 142.800 C 180.580 142.800,180.400 143.070,180.400 143.400 C 180.400 143.730,180.220 144.000,180.000 144.000 C 179.780 144.000,179.600 144.360,179.600 144.800 C 179.600 145.240,179.420 145.600,179.200 145.600 C 178.980 145.600,178.800 145.960,178.800 146.400 C 178.800 146.840,178.620 147.200,178.400 147.200 C 178.180 147.200,178.000 147.478,178.000 147.817 C 178.000 148.156,177.640 148.820,177.200 149.292 C 176.760 149.764,176.400 150.387,176.400 150.675 C 176.400 150.964,176.220 151.200,176.000 151.200 C 175.780 151.200,175.600 151.545,175.600 151.967 C 175.600 152.388,175.451 152.793,175.269 152.867 C 174.862 153.030,172.000 157.895,172.000 158.421 C 172.000 158.630,171.820 158.800,171.600 158.800 C 171.380 158.800,171.200 159.160,171.200 159.600 C 171.200 160.040,171.020 160.400,170.800 160.400 C 170.580 160.400,170.400 160.760,170.400 161.200 C 170.400 161.640,170.253 162.000,170.074 162.000 C 169.665 162.000,168.000 165.081,168.000 165.838 C 168.000 166.147,167.820 166.400,167.600 166.400 C 167.380 166.400,167.200 166.720,167.200 167.112 C 167.200 167.503,166.840 168.083,166.400 168.400 C 165.960 168.717,165.600 169.297,165.600 169.688 C 165.600 170.080,165.463 170.400,165.295 170.400 C 165.127 170.400,164.812 170.748,164.595 171.173 C 162.399 175.469,161.858 176.400,161.553 176.400 C 161.359 176.400,161.200 176.760,161.200 177.200 C 161.200 177.640,161.020 178.000,160.800 178.000 C 160.580 178.000,160.400 178.360,160.400 178.800 C 160.400 179.240,160.220 179.600,160.000 179.600 C 159.780 179.600,159.600 179.878,159.600 180.217 C 159.600 180.556,159.240 181.220,158.800 181.692 C 158.360 182.164,158.000 182.787,158.000 183.075 C 158.000 183.364,157.820 183.600,157.600 183.600 C 157.380 183.600,157.200 183.949,157.200 184.376 C 157.200 184.803,157.020 185.264,156.800 185.400 C 156.580 185.536,156.400 185.982,156.400 186.390 C 156.400 186.799,156.243 187.193,156.052 187.267 C 155.596 187.441,152.800 191.838,152.800 192.381 C 152.800 192.611,152.654 192.800,152.475 192.800 C 152.296 192.800,151.902 193.430,151.600 194.200 C 151.298 194.970,150.904 195.600,150.725 195.600 C 150.546 195.600,150.400 195.960,150.400 196.400 C 150.400 196.840,150.220 197.200,150.000 197.200 C 149.780 197.200,149.600 197.560,149.600 198.000 C 149.600 198.440,149.420 198.800,149.200 198.800 C 148.980 198.800,148.800 199.120,148.800 199.512 C 148.800 199.903,148.440 200.483,148.000 200.800 C 147.560 201.117,147.200 201.697,147.200 202.088 C 147.200 202.480,147.020 202.800,146.800 202.800 C 146.580 202.800,146.400 203.160,146.400 203.600 C 146.400 204.040,146.220 204.400,146.000 204.400 C 145.780 204.400,145.600 204.751,145.600 205.179 C 145.600 205.608,145.157 206.437,144.615 207.022 C 144.073 207.607,143.399 208.606,143.117 209.243 C 142.835 209.879,142.469 210.400,142.302 210.400 C 142.136 210.400,142.000 210.760,142.000 211.200 C 142.000 211.640,141.820 212.000,141.600 212.000 C 141.380 212.000,141.200 212.360,141.200 212.800 C 141.200 213.240,141.020 213.600,140.800 213.600 C 140.580 213.600,140.400 213.870,140.400 214.200 C 140.400 214.530,140.220 214.800,140.000 214.800 C 139.780 214.800,139.600 215.160,139.600 215.600 C 139.600 216.040,139.420 216.400,139.200 216.400 C 138.980 216.400,138.800 216.760,138.800 217.200 C 138.800 217.640,138.620 218.000,138.400 218.000 C 138.180 218.000,138.000 218.278,138.000 218.617 C 138.000 218.956,137.640 219.620,137.200 220.092 C 136.760 220.564,136.400 221.367,136.400 221.875 L 136.400 222.800 265.900 222.807 C 388.626 222.814,395.520 222.778,397.697 222.107 L 399.993 221.400 399.997 150.500 L 400.000 79.600 200.265 79.600 L 0.531 79.600 0.266 100.900 M78.000 249.600 L 78.000 272.000 96.776 272.000 C 108.863 272.000,115.641 271.857,115.800 271.600 C 115.936 271.380,116.836 271.200,117.800 271.200 C 118.764 271.200,119.664 271.020,119.800 270.800 C 119.936 270.580,120.487 270.400,121.024 270.400 C 121.561 270.400,122.000 270.220,122.000 270.000 C 122.000 269.780,122.276 269.600,122.614 269.600 C 122.952 269.600,123.627 269.242,124.114 268.805 C 124.601 268.367,125.675 267.449,126.500 266.763 C 127.325 266.078,128.000 265.266,128.000 264.959 C 128.000 264.651,128.180 264.400,128.400 264.400 C 128.620 264.400,128.800 264.040,128.800 263.600 C 128.800 263.160,128.980 262.800,129.200 262.800 C 129.420 262.800,129.600 262.271,129.600 261.624 C 129.600 260.977,129.780 260.336,130.000 260.200 C 130.220 260.064,130.400 259.254,130.400 258.400 C 130.400 257.546,130.220 256.736,130.000 256.600 C 129.780 256.464,129.600 255.913,129.600 255.376 C 129.600 254.839,129.420 254.400,129.200 254.400 C 128.980 254.400,128.800 254.124,128.800 253.787 C 128.800 253.101,126.258 250.400,125.613 250.400 C 125.386 250.400,125.200 250.220,125.200 250.000 C 125.200 249.780,124.840 249.600,124.400 249.600 C 123.960 249.600,123.600 249.420,123.600 249.200 C 123.600 248.980,123.240 248.800,122.800 248.800 C 122.267 248.800,122.000 248.533,122.000 248.000 C 122.000 247.560,122.174 247.200,122.387 247.200 C 122.599 247.200,123.364 246.580,124.087 245.822 C 126.071 243.739,126.400 243.287,126.400 242.640 C 126.400 242.314,126.580 241.936,126.800 241.800 C 127.288 241.498,127.334 236.660,126.857 235.695 C 125.603 233.153,124.896 232.069,123.740 230.914 C 122.081 229.254,119.863 228.000,118.588 228.000 C 118.045 228.000,117.600 227.820,117.600 227.600 C 117.600 227.339,110.733 227.200,97.800 227.200 L 78.000 227.200 78.000 249.600 M178.000 249.603 L 178.000 272.006 201.700 271.903 L 225.400 271.800 225.400 266.600 L 225.400 261.400 211.300 261.295 L 197.200 261.190 197.200 257.395 L 197.200 253.600 210.812 253.600 L 224.423 253.600 224.312 248.300 L 224.200 243.000 210.700 242.895 L 197.200 242.789 197.200 240.400 L 197.200 238.010 211.300 237.905 L 225.400 237.800 225.512 232.500 L 225.623 227.200 201.812 227.200 L 178.000 227.200 178.000 249.603 M275.600 249.600 L 275.600 272.000 299.200 272.000 L 322.800 272.000 322.800 266.600 L 322.800 261.200 308.600 261.200 L 294.400 261.200 294.400 257.405 L 294.400 253.611 308.100 253.505 L 321.800 253.400 321.913 248.657 C 322.067 242.194,323.533 242.800,307.751 242.800 L 294.400 242.800 294.400 240.400 L 294.400 238.000 308.600 238.000 L 322.800 238.000 322.800 232.600 L 322.800 227.200 299.200 227.200 L 275.600 227.200 275.600 249.600 M106.400 238.400 C 106.400 238.620,106.760 238.800,107.200 238.800 C 107.893 238.800,108.000 239.067,108.000 240.800 C 108.000 242.533,107.893 242.800,107.200 242.800 C 106.760 242.800,106.400 242.980,106.400 243.200 C 106.400 243.445,104.467 243.600,101.400 243.600 L 96.400 243.600 96.400 240.800 L 96.400 238.000 101.400 238.000 C 104.467 238.000,106.400 238.155,106.400 238.400 M109.418 255.382 C 110.099 256.062,110.400 256.808,110.400 257.810 C 110.400 260.272,110.025 260.400,102.829 260.400 L 96.400 260.400 96.400 257.400 L 96.400 254.400 102.418 254.400 C 108.275 254.400,108.463 254.426,109.418 255.382 M14.200 431.600 C 14.064 431.820,13.153 432.000,12.176 432.000 C 11.199 432.000,10.400 432.180,10.400 432.400 C 10.400 432.620,9.860 432.800,9.200 432.800 C 8.540 432.800,8.000 432.980,8.000 433.200 C 8.000 433.420,7.750 433.600,7.445 433.600 C 6.630 433.600,2.800 437.327,2.800 438.120 C 2.800 438.494,2.620 438.800,2.400 438.800 C 2.180 438.800,2.000 439.239,2.000 439.776 C 2.000 440.313,1.820 440.864,1.600 441.000 C 1.380 441.136,1.200 441.741,1.200 442.344 C 1.200 442.947,0.975 443.665,0.700 443.940 C 0.314 444.326,0.200 448.677,0.200 462.959 C 0.200 481.834,0.186 481.623,1.647 484.495 C 1.841 484.877,2.000 485.417,2.000 485.695 C 2.002 486.822,7.015 492.000,8.106 492.000 C 8.400 492.000,8.865 492.225,9.140 492.500 C 9.508 492.868,11.845 493.000,18.000 493.000 C 24.154 493.000,26.492 492.868,26.860 492.500 C 27.135 492.225,27.684 492.000,28.080 492.000 C 28.476 492.000,28.800 491.820,28.800 491.600 C 28.800 491.380,29.064 491.200,29.387 491.200 C 30.074 491.200,32.800 488.797,32.800 488.191 C 32.800 487.963,33.160 487.517,33.600 487.200 C 34.057 486.871,34.400 486.165,34.400 485.554 C 34.400 484.967,34.646 484.391,34.947 484.276 C 36.591 483.645,37.052 469.682,35.495 467.700 C 34.918 466.966,21.274 467.017,20.300 467.757 C 19.681 468.227,19.600 469.084,19.600 475.144 L 19.600 482.000 18.442 482.000 L 17.283 482.000 16.996 476.258 C 16.463 465.587,16.898 445.045,17.674 444.268 C 19.436 442.507,19.600 443.100,19.600 451.253 C 19.600 461.149,18.875 460.400,28.452 460.400 C 36.555 460.400,36.496 460.425,37.120 456.771 C 37.705 453.346,35.942 440.847,34.821 440.474 C 34.590 440.397,34.400 439.988,34.400 439.567 C 34.400 439.145,34.220 438.800,34.000 438.800 C 33.780 438.800,33.600 438.475,33.600 438.078 C 33.600 436.509,29.110 432.800,27.211 432.800 C 26.791 432.800,26.336 432.620,26.200 432.400 C 26.064 432.180,25.254 432.000,24.400 432.000 C 23.546 432.000,22.736 431.820,22.600 431.600 C 22.462 431.377,20.604 431.200,18.400 431.200 C 16.196 431.200,14.338 431.377,14.200 431.600 M144.000 432.400 C 144.000 432.620,143.010 432.800,141.800 432.800 C 140.590 432.800,139.600 432.980,139.600 433.200 C 139.600 433.420,139.060 433.600,138.400 433.600 C 137.740 433.600,137.200 433.780,137.200 434.000 C 137.200 434.220,136.950 434.400,136.645 434.400 C 135.830 434.400,132.000 438.127,132.000 438.920 C 132.000 439.294,131.820 439.600,131.600 439.600 C 131.380 439.600,131.200 439.960,131.200 440.400 C 131.200 440.840,131.020 441.200,130.800 441.200 C 130.580 441.200,130.400 441.704,130.400 442.320 C 130.400 442.936,130.210 443.630,129.977 443.863 C 129.154 444.686,129.969 457.600,130.844 457.600 C 131.040 457.600,131.200 457.960,131.200 458.400 C 131.200 458.840,131.380 459.200,131.600 459.200 C 131.820 459.200,132.000 459.393,132.000 459.629 C 132.000 459.864,132.225 460.283,132.500 460.558 C 132.775 460.834,133.450 461.629,134.000 462.326 C 134.550 463.023,135.233 463.594,135.517 463.596 C 135.801 463.598,136.420 463.960,136.892 464.400 C 137.364 464.840,137.987 465.200,138.275 465.200 C 138.564 465.200,138.800 465.380,138.800 465.600 C 138.800 465.820,139.078 466.000,139.417 466.000 C 139.756 466.000,140.420 466.360,140.892 466.800 C 141.364 467.240,141.987 467.600,142.275 467.600 C 142.564 467.600,142.800 467.768,142.800 467.973 C 142.800 468.178,143.191 468.470,143.669 468.622 C 147.789 469.930,146.321 470.400,138.118 470.400 C 131.163 470.400,130.053 470.485,129.843 471.033 C 129.439 472.084,129.571 478.735,130.000 479.000 C 130.220 479.136,130.400 480.126,130.400 481.200 C 130.400 482.274,130.580 483.264,130.800 483.400 C 131.020 483.536,131.200 483.986,131.200 484.401 C 131.200 485.993,135.183 491.200,136.401 491.200 C 136.639 491.200,137.209 491.550,137.668 491.978 C 139.138 493.347,160.658 493.827,161.100 492.500 C 161.192 492.225,161.486 492.000,161.755 492.000 C 163.060 492.000,167.200 486.896,167.200 485.288 C 167.200 484.888,167.392 484.368,167.628 484.132 C 168.220 483.540,168.230 470.470,167.639 469.879 C 167.398 469.638,167.200 469.037,167.200 468.544 C 167.200 468.051,167.020 467.536,166.800 467.400 C 166.580 467.264,166.400 466.881,166.400 466.550 C 166.400 465.441,162.135 460.400,161.197 460.400 C 160.960 460.400,160.380 460.040,159.908 459.600 C 159.436 459.160,158.813 458.800,158.525 458.800 C 158.236 458.800,158.000 458.620,158.000 458.400 C 158.000 458.180,157.828 458.000,157.618 458.000 C 157.250 458.000,154.716 456.445,153.717 455.606 C 153.451 455.383,152.956 455.200,152.617 455.200 C 152.278 455.200,152.000 455.020,152.000 454.800 C 152.000 454.580,151.765 454.400,151.478 454.400 C 150.703 454.400,148.000 451.793,148.000 451.046 C 148.000 450.691,147.820 450.400,147.600 450.400 C 147.369 450.400,147.200 449.133,147.200 447.400 L 147.200 444.400 148.400 444.400 L 149.600 444.400 149.603 448.500 C 149.607 453.763,149.326 453.603,158.580 453.591 C 167.399 453.580,167.387 453.586,167.057 448.765 C 166.748 444.255,166.393 441.879,165.959 441.420 C 165.762 441.211,165.600 440.759,165.600 440.416 C 165.600 440.073,165.150 439.307,164.600 438.713 C 164.050 438.120,163.600 437.531,163.600 437.404 C 163.600 436.896,160.786 434.400,160.213 434.400 C 159.876 434.400,159.600 434.220,159.600 434.000 C 159.600 433.780,159.071 433.600,158.424 433.600 C 157.777 433.600,157.136 433.420,157.000 433.200 C 156.864 432.980,155.874 432.800,154.800 432.800 C 153.726 432.800,152.736 432.620,152.600 432.400 C 152.461 432.175,150.529 432.000,148.176 432.000 C 145.659 432.000,144.000 432.159,144.000 432.400 M89.280 433.280 C 88.915 433.645,88.800 440.898,88.800 463.480 L 88.800 493.200 96.029 493.200 C 105.253 493.200,104.389 494.214,104.446 483.329 C 104.472 478.528,104.575 474.915,104.676 475.300 C 104.776 475.685,105.025 476.000,105.229 476.000 C 105.433 476.000,105.600 476.540,105.600 477.200 C 105.600 477.860,105.780 478.400,106.000 478.400 C 106.220 478.400,106.400 479.030,106.400 479.800 C 106.400 480.570,106.580 481.200,106.800 481.200 C 107.020 481.200,107.200 481.819,107.200 482.576 C 107.200 483.333,107.380 484.064,107.600 484.200 C 107.820 484.336,108.000 484.977,108.000 485.624 C 108.000 486.271,108.180 486.800,108.400 486.800 C 108.620 486.800,108.800 487.340,108.800 488.000 C 108.800 488.660,108.980 489.200,109.200 489.200 C 109.420 489.200,109.600 489.830,109.600 490.600 C 109.600 491.370,109.780 492.000,110.000 492.000 C 110.220 492.000,110.400 492.274,110.400 492.608 C 110.400 493.136,111.448 493.203,118.300 493.108 L 126.200 493.000 126.310 463.800 C 126.371 447.740,126.322 434.195,126.203 433.700 C 125.946 432.640,112.703 432.257,111.680 433.280 C 111.334 433.626,111.200 436.409,111.200 443.280 C 111.200 449.360,111.055 452.800,110.800 452.800 C 110.580 452.800,110.400 452.260,110.400 451.600 C 110.400 450.940,110.220 450.400,110.000 450.400 C 109.780 450.400,109.600 449.860,109.600 449.200 C 109.600 448.540,109.420 448.000,109.200 448.000 C 108.980 448.000,108.800 447.460,108.800 446.800 C 108.800 446.140,108.620 445.600,108.400 445.600 C 108.180 445.600,108.000 445.161,108.000 444.624 C 108.000 444.087,107.820 443.536,107.600 443.400 C 107.380 443.264,107.200 442.724,107.200 442.200 C 107.200 441.676,107.020 441.136,106.800 441.000 C 106.580 440.864,106.400 440.313,106.400 439.776 C 106.400 439.239,106.240 438.800,106.045 438.800 C 105.849 438.800,105.571 438.170,105.426 437.400 C 105.282 436.630,104.992 436.000,104.782 436.000 C 104.572 436.000,104.400 435.525,104.400 434.944 C 104.400 433.043,103.586 432.827,96.380 432.813 C 91.749 432.804,89.616 432.944,89.280 433.280 M171.685 433.275 C 171.314 433.646,171.200 440.722,171.200 463.480 L 171.200 493.200 185.656 493.200 C 202.915 493.200,201.175 493.963,201.175 486.400 C 201.175 479.255,201.495 479.600,194.856 479.600 L 189.600 479.600 189.600 474.600 L 189.600 469.600 193.924 469.600 C 199.931 469.600,199.646 469.967,199.511 462.397 L 199.400 456.200 194.500 456.088 L 189.600 455.975 189.600 451.388 L 189.600 446.800 194.609 446.800 L 199.619 446.800 199.509 439.900 L 199.400 433.000 185.785 432.895 C 175.530 432.816,172.051 432.909,171.685 433.275 M203.500 433.534 C 202.608 434.468,202.395 491.835,203.280 492.720 C 203.624 493.064,206.231 493.200,212.480 493.200 L 221.200 493.200 221.200 479.967 C 221.200 469.522,221.305 466.782,221.700 466.966 C 221.975 467.095,222.498 467.306,222.861 467.436 C 223.853 467.791,224.064 469.867,224.345 482.000 L 224.600 493.000 232.750 493.108 C 240.155 493.207,240.949 493.152,241.437 492.508 C 242.102 491.633,242.253 474.604,241.600 474.200 C 241.380 474.064,241.200 472.613,241.200 470.976 C 241.200 469.259,241.031 468.000,240.800 468.000 C 240.580 468.000,240.400 467.550,240.400 467.000 C 240.400 466.450,240.220 466.000,240.000 466.000 C 239.780 466.000,239.600 465.722,239.600 465.382 C 239.600 464.593,237.823 462.800,237.042 462.800 C 236.715 462.800,236.336 462.620,236.200 462.400 C 236.064 462.180,236.305 462.000,236.736 462.000 C 237.974 462.000,240.400 459.325,240.400 457.960 C 240.400 457.322,240.580 456.800,240.800 456.800 C 241.051 456.800,241.200 454.333,241.200 450.200 C 241.200 446.067,241.051 443.600,240.800 443.600 C 240.580 443.600,240.400 443.060,240.400 442.400 C 240.400 441.740,240.220 441.200,240.000 441.200 C 239.780 441.200,239.600 440.934,239.600 440.609 C 239.600 439.772,235.904 436.000,235.083 436.000 C 234.708 436.000,234.400 435.820,234.400 435.600 C 234.400 435.380,234.040 435.200,233.600 435.200 C 233.160 435.200,232.800 435.020,232.800 434.800 C 232.800 434.580,232.296 434.400,231.680 434.400 C 231.064 434.400,230.389 434.233,230.180 434.029 C 229.095 432.970,204.475 432.513,203.500 433.534 M242.182 433.500 C 241.799 434.381,241.968 439.263,242.399 439.800 C 242.576 440.020,242.821 441.190,242.944 442.400 C 243.067 443.610,243.345 445.770,243.563 447.200 C 243.781 448.630,244.146 451.048,244.373 452.573 C 244.601 454.099,244.970 455.530,245.193 455.753 C 245.417 455.977,245.600 457.294,245.600 458.680 C 245.600 460.093,245.776 461.200,246.000 461.200 C 246.225 461.200,246.400 462.325,246.400 463.776 C 246.400 465.193,246.580 466.464,246.800 466.600 C 247.020 466.736,247.200 467.906,247.200 469.200 C 247.200 470.494,247.380 471.664,247.600 471.800 C 247.820 471.936,248.000 473.117,248.000 474.424 C 248.000 475.741,248.178 476.800,248.400 476.800 C 248.626 476.800,248.800 477.933,248.800 479.400 C 248.800 480.830,248.965 482.000,249.166 482.000 C 249.367 482.000,249.634 483.125,249.759 484.500 C 250.376 491.290,250.506 492.236,250.887 492.700 C 251.200 493.081,254.365 493.200,264.202 493.200 L 277.107 493.200 277.388 492.100 C 277.757 490.656,278.381 486.061,278.650 482.800 C 278.768 481.370,279.030 480.029,279.232 479.820 C 279.435 479.611,279.600 478.227,279.600 476.744 C 279.600 475.261,279.780 473.936,280.000 473.800 C 280.220 473.664,280.400 472.404,280.400 471.000 C 280.400 469.596,280.580 468.336,280.800 468.200 C 281.020 468.064,281.200 466.714,281.200 465.200 C 281.200 463.686,281.380 462.336,281.600 462.200 C 281.820 462.064,282.000 460.613,282.000 458.976 C 282.000 457.259,282.169 456.000,282.400 456.000 C 282.626 456.000,282.800 454.867,282.800 453.400 C 282.800 451.933,282.974 450.800,283.200 450.800 C 283.433 450.800,283.600 449.467,283.600 447.600 C 283.600 445.733,283.767 444.400,284.000 444.400 C 284.225 444.400,284.400 443.278,284.400 441.833 C 284.400 440.422,284.578 439.207,284.796 439.133 C 285.014 439.060,285.306 437.910,285.445 436.577 C 285.844 432.751,285.969 432.800,275.943 432.800 C 266.040 432.800,266.400 432.651,266.400 436.748 C 266.400 438.291,266.220 439.664,266.000 439.800 C 265.774 439.940,265.600 441.911,265.600 444.344 C 265.600 446.707,265.423 448.817,265.208 449.032 C 264.992 449.248,264.711 451.309,264.582 453.612 C 264.454 455.916,264.260 458.234,264.151 458.765 L 263.952 459.730 263.376 458.619 C 263.001 457.896,262.800 456.268,262.800 453.954 C 262.800 451.851,262.637 450.400,262.400 450.400 C 262.160 450.400,262.000 448.808,262.000 446.424 C 262.000 444.204,261.823 442.338,261.600 442.200 C 261.377 442.062,261.200 440.217,261.200 438.038 C 261.200 432.511,261.756 432.800,251.111 432.800 C 243.279 432.800,242.458 432.864,242.182 433.500 M286.900 433.062 C 286.506 433.223,286.400 439.637,286.400 463.238 L 286.400 493.210 300.900 493.105 L 315.400 493.000 315.510 486.300 L 315.619 479.600 310.010 479.600 L 304.400 479.600 304.400 474.600 L 304.400 469.600 308.500 469.595 C 314.979 469.586,314.439 470.232,314.310 462.651 L 314.200 456.200 309.300 456.088 L 304.400 455.975 304.400 451.388 L 304.400 446.800 309.409 446.800 L 314.419 446.800 314.309 439.900 L 314.200 433.000 300.800 432.929 C 293.430 432.890,287.175 432.950,286.900 433.062 M339.867 433.067 C 339.720 433.213,339.600 446.803,339.600 463.267 L 339.600 493.200 348.400 493.200 L 357.200 493.200 357.200 463.633 C 357.200 447.371,357.091 433.781,356.957 433.433 C 356.704 432.774,340.506 432.427,339.867 433.067 M359.280 433.280 C 358.946 433.614,358.800 435.742,358.800 440.280 L 358.800 446.800 363.800 446.800 L 368.800 446.800 368.800 470.000 L 368.800 493.200 377.520 493.200 C 383.769 493.200,386.376 493.064,386.720 492.720 C 387.082 492.358,387.200 486.658,387.200 469.520 L 387.200 446.800 391.800 446.800 L 396.400 446.800 396.400 440.433 C 396.400 436.931,396.291 433.781,396.157 433.433 C 395.839 432.603,360.105 432.455,359.280 433.280 M222.837 445.713 C 225.193 447.515,224.609 455.569,222.096 455.928 C 221.206 456.055,221.200 456.021,221.200 450.628 C 221.200 445.003,221.344 444.571,222.837 445.713 M148.618 472.182 C 149.158 472.722,149.600 473.442,149.600 473.782 C 149.600 474.122,149.780 474.400,150.000 474.400 C 150.220 474.400,150.400 474.940,150.400 475.600 C 150.400 476.260,150.580 476.800,150.800 476.800 C 151.020 476.800,151.200 477.430,151.200 478.200 C 151.200 478.970,151.020 479.600,150.800 479.600 C 150.580 479.600,150.400 480.119,150.400 480.753 C 150.400 481.635,150.188 481.945,149.500 482.069 C 147.238 482.476,147.200 482.386,147.200 476.571 C 147.200 470.721,147.190 470.753,148.618 472.182 " stroke="none" fill="#044c9c" fill-rule="evenodd"></path></g></svg>