<svg id="svg" version="1.1" xmlns="http://www.w3.org/2000/svg" xmlns:xlink="http://www.w3.org/1999/xlink" width="400" height="103.07076101468624" viewBox="0, 0, 400,103.07076101468624"><g id="svgg"><path id="path0" d="M388.351 2.086 C 382.050 3.856,380.030 12.426,384.728 17.455 C 389.015 22.043,396.572 19.700,398.077 13.316 C 399.650 6.645,394.263 0.426,388.351 2.086 M393.250 3.330 C 398.124 5.744,399.145 12.948,395.186 16.993 C 390.617 21.663,383.375 18.378,382.891 11.417 C 382.467 5.320,388.212 0.836,393.250 3.330 M387.000 10.925 L 387.000 15.351 387.875 15.300 L 388.750 15.250 388.798 13.439 L 388.845 11.627 389.370 11.732 C 390.086 11.875,390.279 12.081,391.334 13.822 L 392.250 15.332 393.292 15.333 C 393.865 15.333,394.333 15.292,394.333 15.241 C 394.333 14.937,392.417 11.966,392.039 11.684 C 391.665 11.405,391.638 11.343,391.891 11.339 C 393.347 11.314,394.193 8.858,393.209 7.514 C 392.585 6.663,391.972 6.501,389.375 6.500 L 387.000 6.500 387.000 10.925 M391.571 8.429 C 392.435 9.292,391.603 10.167,389.917 10.167 L 388.667 10.167 388.667 9.167 L 388.667 8.167 389.988 8.167 C 390.967 8.167,391.377 8.235,391.571 8.429 M177.500 29.917 L 177.500 31.833 185.750 31.833 L 194.000 31.833 194.000 29.917 L 194.000 28.000 185.750 28.000 L 177.500 28.000 177.500 29.917 M177.500 46.750 L 177.500 48.667 185.750 48.667 L 194.000 48.667 194.000 46.750 L 194.000 44.833 185.750 44.833 L 177.500 44.833 177.500 46.750 M177.500 63.667 L 177.500 65.500 185.750 65.500 L 194.000 65.500 194.000 63.667 L 194.000 61.833 185.750 61.833 L 177.500 61.833 177.500 63.667 M58.542 79.110 C 58.189 79.253,58.243 96.430,58.597 96.566 C 58.998 96.720,59.651 96.687,60.011 96.494 C 60.323 96.327,60.333 96.055,60.333 87.833 C 60.333 79.612,60.323 79.340,60.011 79.173 C 59.679 78.995,58.909 78.962,58.542 79.110 M217.542 79.172 L 217.167 79.323 217.167 87.908 L 217.167 96.494 217.560 96.592 C 217.777 96.647,218.208 96.667,218.519 96.637 L 219.083 96.583 219.126 87.895 L 219.170 79.206 218.793 79.105 C 218.298 78.973,217.997 78.989,217.542 79.172 M238.838 79.363 C 237.746 79.930,237.311 80.876,237.204 82.910 L 237.122 84.484 236.356 84.533 C 234.892 84.629,234.871 86.333,236.334 86.333 L 237.162 86.333 237.206 91.458 L 237.250 96.583 237.815 96.637 C 238.125 96.667,238.557 96.647,238.773 96.592 L 239.167 96.494 239.167 91.413 L 239.167 86.333 240.409 86.333 L 241.652 86.333 241.758 85.768 C 241.948 84.754,241.661 84.500,240.327 84.500 L 239.167 84.500 239.168 83.542 C 239.170 81.540,239.740 80.699,240.957 80.900 C 242.294 81.122,242.246 81.139,242.299 80.417 C 242.399 79.055,240.527 78.485,238.838 79.363 M293.542 79.118 C 293.168 79.190,293.167 79.198,293.167 82.544 L 293.167 85.899 292.625 85.374 C 289.971 82.806,286.388 84.820,285.825 89.197 C 285.044 95.264,288.971 98.978,292.615 95.619 L 293.333 94.958 293.333 95.711 C 293.333 96.506,293.487 96.667,294.250 96.667 C 295.226 96.667,295.167 97.236,295.167 87.895 L 295.167 79.325 294.739 79.163 C 294.302 78.996,294.193 78.992,293.542 79.118 M370.957 79.108 C 370.681 79.187,370.666 79.711,370.707 87.888 L 370.750 96.583 371.471 96.635 C 372.650 96.720,372.666 96.677,372.675 93.355 C 372.684 90.539,372.696 90.434,372.967 90.828 C 373.123 91.054,374.082 92.442,375.100 93.911 L 376.950 96.583 377.933 96.583 C 379.552 96.583,379.622 96.749,375.577 90.994 L 374.694 89.738 376.569 87.646 C 379.043 84.885,379.174 84.357,377.335 84.554 C 376.507 84.643,376.686 84.475,374.152 87.556 L 372.667 89.363 372.664 84.473 C 372.661 78.881,372.585 78.642,370.957 79.108 M121.826 79.717 C 118.913 80.540,118.308 83.751,120.446 87.041 C 120.738 87.490,120.736 87.503,120.347 87.776 C 118.129 89.329,117.288 91.606,118.066 93.949 C 119.043 96.890,123.420 97.702,126.535 95.520 L 127.436 94.889 128.145 95.518 C 129.140 96.401,130.203 96.888,130.831 96.751 C 131.536 96.596,131.628 94.833,130.932 94.833 C 130.703 94.833,130.132 94.509,129.606 94.080 L 128.682 93.327 128.994 92.789 C 129.734 91.513,130.399 88.250,130.030 87.698 C 129.934 87.554,129.606 87.497,129.067 87.531 L 128.250 87.583 128.136 88.839 C 128.073 89.530,127.856 90.540,127.652 91.084 L 127.282 92.072 126.139 90.828 C 124.211 88.728,123.559 87.824,123.854 87.658 C 129.572 84.458,127.921 77.995,121.826 79.717 M63.667 80.167 C 62.993 80.841,63.299 82.218,64.161 82.390 C 65.227 82.604,65.974 81.854,65.743 80.803 C 65.529 79.825,64.365 79.469,63.667 80.167 M298.917 79.948 C 297.617 80.259,298.028 82.500,299.385 82.500 C 300.273 82.500,300.583 82.160,300.583 81.188 C 300.583 80.107,300.017 79.686,298.917 79.948 M7.897 80.227 C 1.981 81.721,0.904 93.416,6.424 96.216 C 9.125 97.586,13.500 96.362,13.500 94.236 C 13.500 93.177,13.205 92.919,12.617 93.463 C 10.918 95.034,8.011 95.058,6.614 93.512 C 4.962 91.683,4.656 87.139,6.001 84.394 C 7.220 81.907,9.987 81.408,12.392 83.242 C 13.275 83.916,13.500 83.759,13.500 82.470 C 13.500 80.873,10.343 79.609,7.897 80.227 M143.029 80.312 C 142.740 80.495,137.822 95.625,137.875 96.167 C 137.909 96.508,138.018 96.593,138.481 96.637 C 139.669 96.751,139.726 96.685,140.426 94.420 L 141.070 92.333 144.029 92.333 L 146.989 92.333 147.597 94.292 C 148.346 96.703,148.339 96.695,149.402 96.633 C 150.436 96.572,150.509 96.357,150.027 94.803 C 147.989 88.235,145.417 80.541,145.203 80.375 C 144.904 80.141,143.369 80.096,143.029 80.312 M269.042 80.339 L 268.667 80.489 268.667 88.378 C 268.667 97.013,268.624 96.667,269.686 96.667 C 270.929 96.667,270.833 97.352,270.833 88.478 L 270.833 80.492 270.406 80.329 C 269.893 80.134,269.544 80.137,269.042 80.339 M332.427 80.597 C 332.193 80.831,332.168 81.739,332.207 88.722 L 332.250 96.583 333.167 96.583 L 334.083 96.583 334.167 89.693 L 334.250 82.802 336.564 89.443 C 339.349 97.438,338.982 96.667,340.002 96.667 C 341.029 96.667,340.713 97.308,343.598 89.365 L 345.917 82.980 346.005 89.782 C 346.053 93.523,346.109 96.602,346.130 96.625 C 346.150 96.648,346.578 96.667,347.080 96.667 C 348.269 96.667,348.190 97.293,348.132 88.400 C 348.076 79.729,348.197 80.333,346.509 80.333 C 344.924 80.333,344.980 80.242,342.409 87.089 C 341.177 90.369,340.149 93.074,340.123 93.099 C 340.097 93.125,339.104 90.432,337.915 87.115 C 336.548 83.301,335.618 80.945,335.384 80.708 C 334.915 80.231,332.870 80.154,332.427 80.597 M124.894 82.022 C 125.802 83.022,125.267 84.453,123.501 85.749 C 122.518 86.471,122.445 86.443,121.753 85.075 C 120.641 82.877,121.528 81.180,123.667 81.415 C 124.236 81.477,124.532 81.624,124.894 82.022 M392.292 81.680 C 392.050 81.821,392.000 82.093,392.000 83.258 L 392.000 84.667 391.158 84.667 L 390.316 84.667 390.366 85.542 L 390.417 86.417 391.193 86.467 L 391.970 86.517 392.029 90.550 C 392.100 95.398,392.239 95.922,393.606 96.527 C 395.325 97.288,397.000 96.716,397.000 95.369 L 397.000 94.623 396.375 94.748 C 394.192 95.184,394.010 94.803,394.004 89.792 L 394.000 86.500 395.313 86.500 C 396.829 86.500,397.049 86.352,396.969 85.387 L 396.917 84.750 395.458 84.702 L 394.000 84.654 394.000 83.178 C 394.000 81.986,393.949 81.683,393.736 81.601 C 393.340 81.449,392.621 81.488,392.292 81.680 M145.147 86.444 C 145.733 88.337,146.248 90.024,146.292 90.193 C 146.367 90.481,146.223 90.500,144.000 90.500 C 141.822 90.500,141.634 90.476,141.705 90.208 C 142.045 88.928,143.931 83.000,143.998 83.001 C 144.045 83.002,144.562 84.551,145.147 86.444 M18.647 84.563 C 15.570 85.663,14.216 89.716,15.567 93.783 C 16.866 97.696,22.604 97.909,24.473 94.113 C 27.096 88.784,23.470 82.840,18.647 84.563 M31.583 84.650 C 31.217 84.820,30.654 85.236,30.333 85.574 L 29.750 86.189 29.667 85.386 C 29.577 84.522,29.226 84.324,28.230 84.573 L 27.833 84.673 27.833 90.583 L 27.833 96.494 28.227 96.592 C 28.443 96.647,28.875 96.667,29.185 96.637 L 29.750 96.583 29.795 92.449 L 29.839 88.315 30.803 87.324 C 31.661 86.442,31.839 86.333,32.429 86.333 C 34.151 86.333,34.381 87.003,34.494 92.333 L 34.583 96.583 35.304 96.635 C 36.520 96.723,36.500 96.796,36.500 92.237 L 36.500 88.182 37.402 87.257 C 38.408 86.227,39.005 86.057,39.951 86.531 C 40.796 86.954,40.910 87.578,41.000 92.250 L 41.083 96.583 41.648 96.637 C 41.959 96.667,42.396 96.645,42.620 96.589 L 43.027 96.487 42.972 91.868 C 42.917 87.258,42.916 87.248,42.469 86.295 C 41.378 83.967,38.916 83.651,36.860 85.575 L 36.046 86.336 35.595 85.655 C 34.788 84.434,33.008 83.989,31.583 84.650 M49.750 84.808 C 49.292 85.077,48.729 85.500,48.500 85.748 L 48.083 86.198 48.000 85.390 L 47.917 84.583 47.083 84.583 L 46.250 84.583 46.206 92.667 C 46.158 101.583,46.110 101.167,47.185 101.167 C 48.182 101.167,48.167 101.214,48.167 98.141 L 48.167 95.318 48.941 95.909 C 53.002 99.010,57.119 93.470,55.263 87.402 C 54.451 84.748,51.896 83.546,49.750 84.808 M70.573 84.634 C 69.190 85.124,68.666 85.583,68.669 86.303 C 68.674 87.394,68.817 87.438,70.177 86.767 C 72.482 85.632,74.099 86.037,74.487 87.845 C 74.844 89.508,74.907 89.440,72.910 89.542 C 69.801 89.700,68.321 90.829,68.203 93.132 C 68.031 96.482,71.844 98.068,74.375 95.700 L 74.833 95.271 74.833 95.868 C 74.833 96.511,75.027 96.667,75.827 96.667 C 76.709 96.667,76.728 96.548,76.619 91.702 C 76.496 86.232,76.305 85.517,74.755 84.711 C 73.986 84.311,71.608 84.267,70.573 84.634 M83.462 84.676 C 83.120 84.857,82.580 85.265,82.262 85.582 L 81.685 86.160 81.634 85.372 L 81.583 84.583 80.750 84.583 L 79.917 84.583 79.873 90.462 L 79.829 96.340 80.268 96.507 C 80.510 96.599,80.961 96.627,81.271 96.568 L 81.833 96.463 81.833 92.365 L 81.833 88.266 82.808 87.319 C 84.272 85.895,85.394 85.837,86.207 87.145 C 86.568 87.726,86.585 87.922,86.635 92.050 L 86.687 96.349 87.134 96.519 C 87.379 96.612,87.830 96.642,88.135 96.585 L 88.690 96.481 88.635 91.782 C 88.576 86.655,88.520 86.323,87.533 85.271 C 86.615 84.294,84.713 84.016,83.462 84.676 M94.077 84.728 C 90.734 86.284,90.146 93.793,93.194 96.001 C 95.424 97.616,99.333 96.580,99.333 94.374 C 99.333 93.409,99.052 93.344,98.003 94.065 C 95.354 95.888,93.333 94.382,93.333 90.583 C 93.333 86.766,95.471 85.058,97.914 86.924 C 98.812 87.608,99.124 87.645,99.265 87.082 C 99.785 85.012,96.584 83.560,94.077 84.728 M104.265 84.587 C 99.905 86.241,99.845 95.246,104.185 96.523 C 106.691 97.260,110.000 96.376,110.000 94.969 C 110.000 94.170,109.730 94.038,108.829 94.399 C 105.646 95.673,103.402 94.648,103.119 91.792 L 103.041 91.000 106.487 91.000 C 110.473 91.000,110.333 91.055,110.333 89.497 C 110.333 85.721,107.442 83.382,104.265 84.587 M156.481 84.563 C 155.794 84.809,155.069 85.294,154.583 85.835 L 154.250 86.206 154.167 85.395 C 154.078 84.530,153.216 84.142,152.572 84.676 C 152.143 85.032,152.224 100.763,152.656 100.994 C 154.132 101.784,154.525 101.134,154.466 97.999 L 154.417 95.371 155.000 95.829 C 158.825 98.836,162.726 94.597,161.677 88.572 C 161.100 85.261,159.020 83.656,156.481 84.563 M168.388 84.596 C 168.005 84.737,167.352 85.169,166.937 85.556 L 166.182 86.259 166.132 85.421 L 166.083 84.583 165.333 84.583 L 164.583 84.583 164.540 92.739 C 164.493 101.535,164.456 101.159,165.386 101.164 C 166.477 101.170,166.500 101.106,166.500 98.060 L 166.500 95.299 167.113 95.837 C 170.896 99.158,175.152 93.897,173.588 87.833 C 172.866 85.035,170.757 83.722,168.388 84.596 M180.063 84.573 C 179.777 84.697,179.290 85.116,178.980 85.502 L 178.417 86.206 178.333 85.394 C 178.244 84.522,177.896 84.323,176.897 84.573 L 176.500 84.673 176.500 90.483 C 176.500 96.986,176.449 96.725,177.696 96.635 L 178.417 96.583 178.461 92.689 L 178.506 88.794 179.177 87.838 C 180.035 86.615,180.387 86.427,181.547 86.572 L 182.454 86.685 182.561 86.020 C 182.796 84.548,181.649 83.883,180.063 84.573 M187.373 84.510 C 184.856 85.006,183.595 87.062,183.598 90.667 C 183.601 94.106,184.401 95.682,186.548 96.476 C 190.325 97.874,193.428 95.434,193.628 90.907 C 193.840 86.113,191.480 83.700,187.373 84.510 M208.101 84.596 C 206.586 85.082,206.000 85.593,206.000 86.428 C 206.000 87.329,206.314 87.405,207.503 86.792 C 210.023 85.492,212.000 86.340,212.000 88.719 L 212.000 89.450 210.375 89.551 C 207.661 89.721,206.173 90.542,205.696 92.134 C 204.649 95.630,208.002 98.032,211.222 96.093 C 212.140 95.541,212.167 95.535,212.167 95.895 C 212.167 96.573,213.138 96.944,213.803 96.522 C 214.158 96.297,214.004 87.130,213.633 86.333 C 212.844 84.642,210.374 83.866,208.101 84.596 M224.260 84.582 C 222.791 85.105,222.000 86.229,222.000 87.792 C 222.000 89.466,222.653 90.270,224.878 91.337 C 226.399 92.067,227.000 92.611,227.000 93.262 C 227.000 94.965,225.122 95.533,223.034 94.462 C 221.846 93.853,221.674 93.924,221.669 95.030 C 221.661 96.901,226.182 97.463,227.943 95.809 C 229.982 93.893,229.193 91.250,226.121 89.704 C 223.787 88.529,223.332 87.788,224.265 86.679 C 224.840 85.995,226.203 85.947,227.373 86.569 C 228.238 87.028,228.500 86.916,228.500 86.087 C 228.500 84.706,226.202 83.890,224.260 84.582 M246.167 84.554 C 241.279 85.980,241.173 95.454,246.032 96.642 C 250.142 97.647,252.831 94.908,252.632 89.920 C 252.466 85.738,249.771 83.502,246.167 84.554 M258.750 84.640 C 258.475 84.807,258.006 85.222,257.708 85.561 L 257.167 86.178 257.167 85.526 C 257.167 84.720,256.879 84.463,256.053 84.531 L 255.417 84.583 255.417 90.583 L 255.417 96.583 255.981 96.637 C 256.292 96.667,256.723 96.647,256.940 96.592 L 257.333 96.494 257.333 92.620 L 257.333 88.746 257.920 87.874 C 258.760 86.627,259.119 86.433,260.336 86.570 L 261.333 86.683 261.333 85.691 C 261.333 84.366,260.053 83.845,258.750 84.640 M278.072 84.648 C 277.700 84.818,277.119 85.199,276.781 85.495 L 276.167 86.035 276.167 85.454 C 276.167 84.720,275.859 84.465,275.053 84.531 L 274.417 84.583 274.417 90.583 L 274.417 96.583 275.137 96.635 C 276.352 96.723,276.333 96.790,276.333 92.295 L 276.333 88.298 276.840 87.659 C 278.205 85.935,280.049 85.853,280.788 87.483 C 281.008 87.967,281.079 88.904,281.155 92.333 L 281.250 96.583 281.815 96.637 C 282.125 96.667,282.564 96.645,282.790 96.588 L 283.201 96.485 283.131 91.951 C 283.071 88.045,283.019 87.313,282.756 86.667 C 281.944 84.675,279.927 83.806,278.072 84.648 M305.833 84.560 C 304.051 85.093,303.499 85.523,303.503 86.375 C 303.507 87.417,303.691 87.475,304.948 86.830 C 307.624 85.457,309.500 86.337,309.500 88.965 L 309.500 89.450 307.875 89.550 C 304.681 89.748,303.246 90.774,303.044 93.003 C 302.739 96.364,306.273 98.049,309.103 95.890 L 309.644 95.478 309.697 96.031 C 309.756 96.642,311.032 96.980,311.356 96.469 C 311.550 96.164,311.534 88.634,311.337 87.431 C 310.943 85.025,308.515 83.758,305.833 84.560 M319.417 84.447 C 318.418 84.671,317.873 84.944,317.222 85.543 L 316.500 86.209 316.500 85.456 C 316.500 84.647,316.348 84.498,315.528 84.503 C 314.635 84.508,314.659 84.330,314.706 90.678 L 314.750 96.583 315.667 96.583 L 316.583 96.583 316.628 92.489 L 316.672 88.395 317.357 87.682 C 318.615 86.373,319.381 86.091,320.339 86.586 C 321.331 87.099,321.408 87.475,321.500 92.250 L 321.583 96.583 322.500 96.583 L 323.417 96.583 323.417 91.917 L 323.417 87.250 322.980 86.318 C 322.444 85.176,320.267 83.843,319.769 84.353 C 319.759 84.363,319.600 84.406,319.417 84.447 M354.000 84.557 C 352.113 84.973,351.137 85.863,351.404 86.924 C 351.533 87.438,351.765 87.437,352.776 86.921 C 355.453 85.555,357.150 86.179,357.303 88.585 L 357.372 89.667 355.931 89.667 C 352.643 89.667,350.950 90.940,350.964 93.402 C 350.981 96.657,354.526 98.056,357.077 95.816 L 357.667 95.299 357.667 95.992 L 357.667 96.685 358.458 96.634 L 359.250 96.583 359.294 92.177 C 359.343 87.413,359.208 86.362,358.444 85.519 C 357.628 84.619,355.654 84.192,354.000 84.557 M366.250 84.572 C 365.660 84.860,365.219 85.238,364.707 85.897 L 364.333 86.378 364.333 85.526 C 364.333 84.589,364.004 84.337,363.081 84.569 L 362.662 84.674 362.706 90.629 L 362.750 96.583 363.471 96.635 C 364.679 96.722,364.667 96.764,364.667 92.536 L 364.667 88.779 365.186 87.970 C 366.053 86.619,366.859 86.232,367.917 86.658 C 368.594 86.931,369.056 85.197,368.442 84.687 C 368.060 84.371,366.799 84.304,366.250 84.572 M383.062 84.629 C 378.393 86.299,378.411 95.349,383.087 96.647 C 385.477 97.311,388.662 96.417,388.662 95.083 C 388.662 94.183,388.528 94.140,387.113 94.590 C 383.954 95.593,382.050 94.620,381.796 91.875 L 381.716 91.000 385.271 91.000 L 388.827 91.000 388.935 90.571 C 389.876 86.820,386.497 83.402,383.062 84.629 M63.700 84.700 C 63.413 84.987,63.413 96.180,63.700 96.467 C 63.947 96.714,65.274 96.732,65.423 96.490 C 65.557 96.273,65.544 84.872,65.409 84.655 C 65.270 84.430,63.935 84.465,63.700 84.700 M194.896 84.744 C 194.779 85.047,198.317 96.127,198.630 96.440 C 198.860 96.670,200.246 96.754,200.734 96.567 C 200.902 96.502,201.460 95.020,202.317 92.358 C 205.059 83.845,204.946 84.500,203.669 84.500 C 202.634 84.500,202.759 84.253,201.258 89.250 C 200.542 91.633,199.904 93.641,199.841 93.713 C 199.777 93.784,199.105 91.834,198.347 89.379 C 197.590 86.925,196.892 84.823,196.798 84.708 C 196.548 84.406,195.014 84.435,194.896 84.744 M298.625 84.680 C 298.255 84.895,298.168 96.101,298.533 96.467 C 298.871 96.804,300.127 96.719,300.327 96.344 C 300.689 95.668,300.551 84.872,300.178 84.673 C 299.771 84.455,299.005 84.458,298.625 84.680 M106.719 86.187 C 107.697 86.691,108.333 87.709,108.333 88.770 L 108.333 89.333 105.750 89.333 L 103.167 89.333 103.167 88.906 C 103.167 87.061,105.278 85.445,106.719 86.187 M21.683 86.619 C 23.568 87.733,23.655 93.047,21.810 94.385 C 20.183 95.565,18.039 94.711,17.424 92.639 C 16.212 88.559,18.793 84.912,21.683 86.619 M52.281 86.619 C 53.460 87.392,53.916 91.570,53.019 93.391 C 52.063 95.332,50.148 95.288,48.625 93.290 C 48.180 92.706,48.167 92.628,48.167 90.535 L 48.167 88.380 48.869 87.583 C 50.031 86.262,51.223 85.926,52.281 86.619 M170.857 87.010 C 173.170 89.730,171.088 96.184,168.403 94.619 C 166.736 93.647,166.500 93.142,166.500 90.548 L 166.500 88.309 167.292 87.481 C 168.625 86.087,169.926 85.915,170.857 87.010 M190.082 86.642 C 191.882 87.694,192.133 92.445,190.477 94.138 C 188.386 96.277,185.625 94.372,185.601 90.775 C 185.577 87.139,187.653 85.224,190.082 86.642 M248.781 86.491 C 251.160 87.571,251.282 93.385,248.952 94.614 C 246.725 95.788,244.815 94.189,244.695 91.051 C 244.551 87.303,246.291 85.360,248.781 86.491 M291.460 86.645 C 291.646 86.745,292.107 87.176,292.483 87.604 L 293.167 88.380 293.167 90.599 L 293.167 92.818 292.276 93.731 C 289.952 96.111,287.833 94.610,287.833 90.583 C 287.833 87.175,289.357 85.520,291.460 86.645 M385.801 86.504 C 386.448 86.898,386.991 87.976,386.996 88.875 L 387.000 89.500 384.355 89.500 L 381.710 89.500 381.857 88.714 C 382.245 86.636,384.211 85.534,385.801 86.504 M158.668 86.809 C 159.750 87.891,160.041 91.624,159.181 93.391 C 158.272 95.258,156.433 95.310,155.006 93.508 L 154.500 92.869 154.500 90.590 C 154.500 88.373,154.512 88.295,154.948 87.723 C 156.054 86.274,157.722 85.863,158.668 86.809 M122.288 89.543 C 122.493 89.840,123.367 90.871,124.231 91.833 C 125.980 93.781,125.975 93.753,124.641 94.430 C 121.073 96.238,118.365 92.401,121.132 89.458 C 121.683 88.872,121.835 88.883,122.288 89.543 M74.667 92.300 C 74.667 94.439,72.263 95.826,70.808 94.526 C 69.180 93.071,70.576 91.186,73.292 91.173 L 74.667 91.167 74.667 92.300 M212.000 92.300 C 212.000 93.391,211.977 93.454,211.375 94.030 C 209.647 95.682,207.667 95.270,207.667 93.258 C 207.667 91.794,208.549 91.208,210.792 91.181 L 212.000 91.167 212.000 92.300 M309.500 92.299 C 309.500 94.805,306.117 96.184,305.222 94.043 C 304.773 92.967,305.398 91.639,306.463 91.404 C 306.713 91.349,306.992 91.279,307.083 91.249 C 307.175 91.218,307.756 91.187,308.375 91.180 L 309.500 91.167 309.500 92.299 M357.333 92.385 C 357.333 94.590,354.783 95.990,353.462 94.511 C 352.009 92.885,353.416 91.231,356.292 91.184 L 357.333 91.167 357.333 92.385 " stroke="none" fill="#848484" fill-rule="evenodd"></path><path id="path1" d="M162.930 12.693 C 160.645 12.771,158.762 12.854,158.745 12.876 C 158.727 12.898,158.811 14.229,158.929 15.833 C 159.407 22.273,159.636 30.333,159.342 30.333 C 159.255 30.333,158.860 30.115,158.465 29.849 C 155.702 27.984,149.847 27.848,146.231 29.566 C 134.931 34.932,133.209 56.669,143.526 63.710 C 147.795 66.625,154.736 66.298,158.953 62.984 C 160.224 61.985,160.148 61.951,160.298 63.603 L 160.417 64.917 161.917 64.878 C 162.742 64.857,164.533 64.792,165.897 64.735 L 168.376 64.630 168.264 62.440 C 167.576 49.023,167.499 24.988,168.110 14.375 L 168.218 12.500 167.650 12.526 C 167.339 12.540,165.214 12.615,162.930 12.693 M239.502 12.857 C 235.040 13.596,233.208 19.902,236.500 23.193 C 238.457 25.151,242.301 24.936,244.077 22.769 C 247.368 18.752,245.059 12.114,240.570 12.686 C 240.486 12.697,240.005 12.774,239.502 12.857 M289.917 12.776 C 288.106 13.041,287.493 13.395,286.292 14.873 C 283.751 17.997,284.871 23.444,288.241 24.354 C 292.252 25.437,295.583 22.705,295.583 18.333 C 295.583 14.462,293.352 12.274,289.917 12.776 M203.125 21.542 C 203.287 28.296,203.286 51.669,203.123 58.792 L 202.996 64.333 216.734 64.333 L 230.472 64.333 230.563 63.125 C 230.613 62.460,230.696 60.614,230.747 59.022 L 230.839 56.127 229.294 56.235 C 226.264 56.448,219.353 56.662,215.469 56.665 L 211.521 56.667 211.587 56.125 C 211.779 54.560,211.860 50.712,211.999 36.667 C 212.083 28.188,212.205 20.144,212.269 18.792 L 212.385 16.333 207.692 16.333 L 202.999 16.333 203.125 21.542 M6.875 16.625 L 2.333 16.672 2.339 17.128 C 2.342 17.378,2.416 19.646,2.503 22.167 C 2.717 28.318,2.712 52.418,2.497 59.148 C 2.401 62.117,2.363 64.586,2.412 64.634 C 2.610 64.832,17.114 64.874,19.083 64.682 C 29.786 63.640,35.153 59.122,35.454 50.900 C 35.695 44.343,32.079 39.433,26.375 38.569 C 25.300 38.407,25.499 38.103,27.241 37.250 C 34.820 33.539,35.289 21.919,28.008 18.254 C 24.523 16.500,23.852 16.449,6.875 16.625 M19.295 23.751 C 22.161 24.427,23.672 26.092,23.963 28.897 C 24.503 34.089,21.573 36.437,14.319 36.622 L 11.221 36.702 11.106 31.142 C 11.043 28.085,10.947 25.236,10.893 24.812 L 10.795 24.040 12.189 23.852 C 12.956 23.748,13.771 23.637,14.000 23.604 C 15.168 23.439,18.345 23.527,19.295 23.751 M343.417 27.775 C 332.532 29.537,326.068 41.207,329.179 53.478 C 332.620 67.043,349.654 70.245,358.088 58.911 C 361.787 53.939,362.918 45.242,360.735 38.554 C 358.370 31.308,350.779 26.583,343.417 27.775 M261.083 28.189 C 258.358 28.352,255.432 28.819,253.667 29.371 L 252.417 29.763 252.038 33.156 C 251.596 37.123,251.480 36.776,253.110 36.350 C 259.398 34.705,266.326 34.941,268.117 36.861 C 268.959 37.764,269.621 40.614,269.376 42.283 L 269.303 42.783 266.719 42.981 C 262.224 43.327,259.374 43.974,256.750 45.247 C 248.268 49.360,248.038 61.912,256.393 64.735 C 260.031 65.964,265.605 65.006,268.773 62.608 C 270.002 61.677,269.937 61.685,270.070 62.458 C 270.129 62.802,270.264 63.440,270.371 63.876 L 270.564 64.669 272.073 64.585 C 272.904 64.538,274.697 64.455,276.059 64.399 L 278.534 64.297 278.426 63.773 C 277.651 60.015,277.469 56.480,277.529 46.341 L 277.583 37.250 277.128 35.597 C 275.472 29.594,271.124 27.586,261.083 28.189 M309.417 28.321 C 304.011 29.589,301.077 32.934,300.724 38.227 C 300.383 43.344,302.790 46.264,310.433 50.006 C 316.105 52.782,317.701 55.035,315.472 57.117 C 313.713 58.760,306.032 58.647,301.894 56.918 C 301.553 56.775,301.223 56.717,301.159 56.788 C 301.034 56.928,299.938 63.995,300.028 64.081 C 300.506 64.537,306.195 65.326,309.035 65.330 C 319.079 65.345,324.031 61.746,324.042 54.423 C 324.051 48.725,321.786 46.066,313.983 42.615 C 308.873 40.355,307.559 38.933,308.585 36.770 C 309.592 34.648,315.404 34.316,320.345 36.099 C 321.803 36.625,321.604 36.937,322.175 33.223 C 322.441 31.496,322.697 29.875,322.743 29.620 C 322.971 28.363,313.266 27.417,309.417 28.321 M384.599 28.190 C 381.567 28.579,379.035 29.714,376.595 31.779 C 375.521 32.688,375.518 32.685,375.151 30.000 C 375.044 29.221,374.940 28.563,374.920 28.539 C 374.878 28.488,366.451 29.493,366.388 29.557 C 366.365 29.580,366.495 30.420,366.677 31.424 C 368.080 39.159,368.331 49.885,367.415 63.044 L 367.325 64.339 371.871 64.294 L 376.417 64.250 376.395 62.083 C 376.383 60.892,376.353 55.079,376.328 49.167 L 376.283 38.417 377.183 37.773 C 381.822 34.456,387.310 35.149,388.654 39.221 C 389.568 41.988,389.610 54.979,388.733 63.458 L 388.643 64.333 393.113 64.333 L 397.583 64.333 397.556 50.958 C 397.528 36.786,397.516 36.559,396.719 34.172 C 395.280 29.862,390.388 27.447,384.599 28.190 M56.900 28.500 C 54.300 28.881,51.768 30.596,50.426 32.886 C 49.700 34.124,49.664 34.061,49.320 30.974 C 49.211 29.996,49.072 29.117,49.012 29.020 C 48.916 28.863,40.735 29.746,40.517 29.936 C 40.480 29.968,40.609 30.839,40.803 31.872 C 41.874 37.569,42.247 44.037,42.003 52.667 C 41.825 58.923,41.705 62.008,41.575 63.625 L 41.491 64.667 45.954 64.667 L 50.417 64.667 50.417 53.125 L 50.417 41.583 50.805 40.795 C 52.394 37.568,56.069 36.463,60.371 37.918 C 61.028 38.141,61.586 38.303,61.609 38.280 C 61.674 38.215,63.500 29.981,63.500 29.756 C 63.500 29.492,61.671 28.866,60.066 28.580 C 58.629 28.323,58.179 28.312,56.900 28.500 M77.250 28.522 C 74.524 28.685,71.599 29.152,69.833 29.705 L 68.583 30.096 68.205 33.489 C 67.763 37.457,67.646 37.109,69.276 36.683 C 74.423 35.337,80.753 35.236,83.250 36.461 C 84.805 37.223,85.494 38.807,85.498 41.625 L 85.500 43.167 84.625 43.168 C 80.566 43.177,75.281 44.309,72.463 45.774 C 65.657 49.313,64.270 59.641,70.052 63.726 C 74.017 66.528,80.605 66.176,84.975 62.929 C 85.556 62.497,86.058 62.169,86.089 62.201 C 86.121 62.232,86.262 62.813,86.404 63.493 C 86.739 65.101,86.374 64.990,90.745 64.808 C 95.162 64.625,94.748 64.748,94.519 63.682 C 93.834 60.489,93.761 59.019,93.752 48.333 C 93.742 35.976,93.706 35.673,91.951 32.869 C 89.685 29.247,85.550 28.024,77.250 28.522 M117.879 28.496 C 115.013 28.820,111.111 30.618,109.599 32.311 C 108.935 33.054,108.751 32.813,108.450 30.807 C 108.296 29.785,108.148 28.925,108.120 28.898 C 108.050 28.828,99.767 29.849,99.674 29.939 C 99.633 29.979,99.733 30.778,99.898 31.715 C 101.077 38.414,101.419 45.692,101.005 55.250 C 100.922 57.175,100.800 60.081,100.735 61.708 L 100.617 64.667 105.166 64.667 L 109.715 64.667 109.592 51.689 L 109.470 38.711 110.726 37.871 C 115.089 34.953,120.009 35.431,121.610 38.928 C 122.597 41.084,122.895 48.627,122.353 57.750 C 122.255 59.400,122.124 61.631,122.062 62.708 L 121.949 64.667 126.357 64.667 L 130.766 64.667 130.731 51.125 C 130.696 37.613,130.669 36.921,130.099 35.000 C 128.719 30.353,123.940 27.809,117.879 28.496 M239.333 29.039 C 234.062 29.616,234.436 29.471,234.654 30.849 C 235.625 36.994,235.937 54.760,235.222 63.125 L 235.118 64.333 239.642 64.333 L 244.167 64.333 244.167 63.930 C 244.167 63.709,244.096 61.852,244.009 59.805 C 243.641 51.095,243.688 35.405,244.100 29.958 C 244.161 29.144,244.145 28.508,244.063 28.519 C 243.983 28.529,241.854 28.763,239.333 29.039 M289.250 29.065 C 284.858 29.558,284.585 29.608,284.609 29.919 C 284.623 30.101,284.754 31.262,284.901 32.500 C 285.374 36.481,285.508 38.798,285.610 44.750 C 285.701 50.065,285.485 60.324,285.222 63.208 L 285.119 64.333 289.652 64.333 L 294.184 64.333 294.051 60.542 C 293.880 55.716,293.876 36.124,294.045 31.792 C 294.115 29.981,294.115 28.509,294.045 28.521 C 293.974 28.533,291.817 28.777,289.250 29.065 M347.706 35.221 C 353.756 38.181,355.004 51.552,349.732 56.919 C 347.135 59.563,343.184 59.447,340.597 56.652 C 337.353 53.149,336.337 45.669,338.356 40.167 C 340.004 35.675,344.151 33.482,347.706 35.221 M156.178 35.405 C 157.313 35.645,158.475 36.128,159.127 36.631 C 159.581 36.980,159.739 39.597,159.932 49.962 L 160.048 56.174 159.341 56.826 C 157.326 58.686,153.147 59.301,150.510 58.126 C 145.842 56.045,144.105 46.065,147.279 39.558 C 149.000 36.027,152.160 34.553,156.178 35.405 M19.953 43.822 C 25.200 44.904,27.748 48.941,26.005 53.408 C 24.704 56.742,18.642 58.643,12.333 57.696 L 11.583 57.583 11.479 56.167 C 11.422 55.387,11.321 52.223,11.256 49.134 L 11.137 43.518 12.027 43.445 C 13.907 43.288,18.405 43.502,19.953 43.822 M269.414 52.360 L 269.537 56.554 269.144 56.860 C 267.226 58.353,263.320 59.090,260.990 58.398 C 258.756 57.735,257.697 55.093,258.602 52.439 C 259.452 49.942,263.086 48.274,267.854 48.192 L 269.291 48.167 269.414 52.360 M85.583 52.666 L 85.706 56.831 85.311 57.165 C 83.495 58.701,79.490 59.421,76.954 58.669 C 73.570 57.664,73.649 52.087,77.076 50.079 C 78.591 49.191,81.454 48.529,83.855 48.512 L 85.461 48.500 85.583 52.666 " stroke="none" fill="#1c7cbc" fill-rule="evenodd"></path></g></svg>