<svg id="svg" xmlns="http://www.w3.org/2000/svg" xmlns:xlink="http://www.w3.org/1999/xlink" width="400" height="400" viewBox="0, 0, 400,400"><g id="svgg"><path id="path0" d="M194.525 6.232 C 190.876 8.371,187.639 10.128,187.332 10.138 C 187.025 10.148,184.168 11.738,180.983 13.672 C 177.799 15.605,174.827 17.188,174.380 17.188 C 173.933 17.188,173.451 17.478,173.307 17.833 C 173.164 18.188,170.410 19.878,167.188 21.589 C 160.482 25.148,134.921 39.380,130.612 41.953 C 129.030 42.899,126.504 44.305,125.000 45.078 C 123.496 45.852,122.148 46.750,122.004 47.075 C 121.859 47.400,121.420 47.467,121.027 47.224 C 120.634 46.982,120.313 47.131,120.313 47.557 C 120.313 47.984,119.622 48.551,118.778 48.819 C 116.614 49.506,105.977 55.657,105.285 56.622 C 104.970 57.062,104.706 63.432,104.699 70.777 C 104.685 86.895,104.591 86.719,113.147 86.719 L 118.750 86.719 118.750 130.383 L 118.750 174.048 112.814 174.348 C 105.425 174.721,104.688 175.502,104.688 182.962 C 104.688 188.073,104.613 188.281,102.790 188.281 C 98.848 188.281,98.438 189.681,98.438 203.125 C 98.438 213.346,98.652 215.728,99.665 216.741 C 101.542 218.618,303.927 218.618,305.804 216.741 C 306.820 215.725,307.031 213.307,307.031 202.706 C 307.031 188.841,306.851 188.281,302.395 188.281 C 300.922 188.281,300.781 187.817,300.781 182.962 C 300.781 175.501,300.045 174.721,292.649 174.347 L 286.706 174.047 286.908 130.578 L 287.109 87.109 292.561 86.874 C 300.884 86.515,300.784 86.712,300.769 70.777 C 300.763 63.432,300.499 57.059,300.183 56.615 C 299.430 55.556,289.172 49.573,286.914 48.875 C 285.947 48.577,285.156 47.984,285.156 47.557 C 285.156 47.131,284.805 47.000,284.375 47.266 C 283.945 47.531,283.594 47.400,283.594 46.974 C 283.594 46.548,282.823 45.954,281.881 45.655 C 280.939 45.357,277.976 43.770,275.296 42.129 C 270.544 39.221,264.946 36.097,244.141 24.741 C 238.555 21.692,233.867 18.921,233.724 18.583 C 233.581 18.245,233.034 17.969,232.510 17.969 C 231.985 17.969,229.817 16.865,227.692 15.516 C 225.567 14.167,221.810 12.036,219.342 10.782 C 216.875 9.527,212.486 7.115,209.589 5.422 C 202.924 1.527,202.516 1.549,194.525 6.232 M222.531 22.530 C 225.685 24.318,228.585 25.781,228.976 25.781 C 229.367 25.781,229.688 26.133,229.688 26.563 C 229.688 26.992,230.190 27.344,230.804 27.344 C 231.417 27.344,232.472 27.896,233.147 28.571 C 233.823 29.247,234.375 29.555,234.375 29.257 C 234.375 28.959,234.907 29.156,235.556 29.695 C 236.206 30.234,237.786 31.244,239.068 31.939 C 258.683 42.573,284.825 57.332,285.028 57.886 C 285.172 58.281,285.611 58.405,286.004 58.162 C 286.397 57.919,286.719 58.093,286.719 58.548 C 286.719 59.003,287.246 59.375,287.891 59.375 C 291.440 59.375,294.349 73.197,291.590 76.953 C 291.213 77.466,260.620 77.734,202.539 77.734 L 114.062 77.734 114.062 69.356 L 114.063 60.978 116.398 59.770 C 117.683 59.106,118.962 58.599,119.240 58.645 C 119.519 58.690,119.962 58.409,120.225 58.019 C 120.488 57.630,128.613 52.971,138.281 47.665 C 147.949 42.360,159.199 36.057,163.281 33.659 C 167.363 31.261,170.967 29.387,171.289 29.493 C 171.611 29.600,171.875 29.360,171.875 28.959 C 171.875 28.558,172.557 28.014,173.392 27.749 C 174.226 27.484,178.005 25.482,181.790 23.299 C 185.575 21.116,191.900 17.633,195.844 15.559 L 203.017 11.787 209.907 15.533 C 213.696 17.593,219.377 20.742,222.531 22.530 M73.828 67.018 C 72.431 67.251,71.713 67.444,69.718 68.122 C 65.435 69.579,54.688 77.860,54.688 79.704 C 54.688 80.124,54.336 80.469,53.906 80.469 C 53.477 80.469,53.179 80.732,53.246 81.055 C 53.372 81.670,51.274 86.941,49.991 89.230 C 49.031 90.942,48.963 370.605,49.922 372.489 C 50.297 373.225,51.432 375.762,52.445 378.125 C 53.459 380.488,54.905 382.881,55.659 383.443 C 56.414 384.004,57.031 384.959,57.031 385.564 C 57.031 386.169,57.707 387.025,58.533 387.467 C 59.359 387.909,60.526 388.763,61.127 389.364 C 63.428 391.665,70.474 394.561,75.559 395.296 C 82.467 396.295,321.721 396.319,329.396 395.322 C 340.720 393.850,348.939 387.978,353.260 378.272 C 354.157 376.258,355.193 374.005,355.562 373.267 C 356.533 371.323,356.432 90.049,355.460 89.448 C 355.035 89.185,354.688 88.316,354.688 87.517 C 354.688 85.948,352.325 81.025,351.367 80.599 C 351.045 80.456,350.753 79.928,350.718 79.427 C 350.683 78.926,348.760 76.934,346.444 75.000 C 344.129 73.066,341.697 71.020,341.039 70.452 C 340.382 69.884,339.844 69.661,339.844 69.956 C 339.844 70.251,338.965 69.916,337.891 69.212 C 336.816 68.509,335.938 68.160,335.938 68.437 C 335.938 68.714,335.402 68.497,334.748 67.954 C 332.656 66.218,314.907 66.343,313.143 68.107 C 308.834 72.416,311.983 75.096,321.654 75.349 C 335.001 75.697,339.936 78.292,345.117 87.684 L 346.875 90.871 346.875 230.857 L 346.875 370.844 344.467 375.663 C 342.163 380.274,338.332 383.876,334.080 385.429 C 333.273 385.724,274.117 385.965,202.622 385.965 C 63.404 385.965,70.770 386.152,66.667 382.516 C 62.810 379.098,61.903 377.918,60.128 374.008 C 58.272 369.920,57.688 95.782,59.522 89.660 C 60.694 85.751,66.505 79.219,70.218 77.639 C 74.655 75.752,75.679 75.578,83.984 75.310 C 94.004 74.986,96.851 72.320,92.174 67.642 C 91.414 66.883,77.479 66.409,73.828 67.018 M145.337 125.977 C 145.364 168.383,145.322 167.959,149.479 167.516 C 154.110 167.022,153.906 168.933,153.906 126.076 L 153.906 86.719 162.695 86.719 L 171.484 86.719 171.484 130.469 L 171.484 174.219 149.805 174.219 L 128.125 174.219 128.125 131.705 C 128.125 108.322,127.912 88.634,127.651 87.955 C 127.235 86.871,128.297 86.719,136.245 86.719 L 145.313 86.719 145.337 125.977 M198.047 125.231 C 198.047 167.555,198.092 167.969,202.699 167.969 C 207.762 167.969,207.813 167.549,207.813 125.075 L 207.813 86.719 216.391 86.719 C 227.020 86.719,225.870 81.065,225.607 132.031 L 225.391 173.828 202.930 174.035 L 180.469 174.243 180.469 130.481 L 180.469 86.719 189.258 86.719 L 198.047 86.720 198.047 125.231 M251.563 126.076 C 251.563 168.933,251.358 167.022,255.990 167.516 C 260.147 167.959,260.105 168.383,260.131 125.977 L 260.156 86.719 269.232 86.719 C 278.262 86.719,278.305 86.727,277.836 88.477 C 277.577 89.443,277.360 109.131,277.354 132.227 L 277.344 174.219 255.385 174.219 C 235.683 174.219,233.475 174.092,233.901 172.983 C 234.162 172.303,234.375 152.616,234.375 129.233 L 234.375 86.719 242.969 86.719 L 251.563 86.719 251.563 126.076 M291.863 188.962 C 291.935 195.149,293.851 198.177,297.070 197.189 C 298.299 196.812,298.438 197.450,298.438 203.463 L 298.438 210.156 202.734 210.156 L 107.031 210.156 107.031 203.432 C 107.031 197.605,107.197 196.771,108.274 197.185 C 111.584 198.455,114.063 194.792,114.063 188.628 L 114.063 182.832 202.930 183.017 L 291.797 183.203 291.863 188.962 M88.977 244.501 C 87.284 246.314,87.161 250.164,88.759 251.333 C 90.856 252.865,314.605 252.772,316.627 251.237 C 318.561 249.771,319.005 245.620,317.318 244.785 C 314.713 243.496,90.177 243.216,88.977 244.501 M89.063 278.125 C 87.113 280.075,87.054 282.948,88.929 284.645 C 90.244 285.835,99.277 285.938,202.935 285.938 L 315.512 285.938 317.131 283.879 C 319.189 281.263,319.164 280.812,316.832 278.480 L 314.915 276.563 202.770 276.563 C 91.667 276.563,90.610 276.577,89.063 278.125 M89.700 310.685 C 88.015 311.130,87.138 315.052,88.257 317.142 L 89.117 318.750 202.744 318.750 L 316.370 318.750 317.581 316.902 C 319.129 314.539,318.061 311.353,315.490 310.664 C 313.454 310.119,91.766 310.139,89.700 310.685 M89.210 344.562 C 87.126 346.503,87.005 349.310,88.929 351.051 C 91.258 353.158,268.672 353.026,270.582 350.915 C 272.382 348.927,272.195 346.667,270.067 344.667 L 268.259 342.969 179.589 342.969 C 91.435 342.969,90.910 342.978,89.210 344.562 " stroke="none" fill="#000000" fill-rule="evenodd"></path></g></svg>